<svg width="120" height="572" viewBox="0 0 120 572" fill="none" xmlns="http://www.w3.org/2000/svg">
<path d="M50.6228 729.701C50.6228 637.826 50.6228 545.951 50.6228 454.076C50.6228 447.26 50.995 446.634 44.0429 446.765C37.6811 446.885 31.511 448.41 25.1257 448.41C22.6336 448.41 24.8236 447.054 26.0395 446.034C35.0774 438.454 43.0669 430.147 50.5314 420.994C68.298 399.209 83.9053 374.763 92.2041 347.701C94.6817 339.622 97.6119 325.542 94.763 316.995C92.1478 309.149 55.9999 313.522 47.8812 313.522C45.4467 313.522 34.4685 315.125 32.8936 313.157C31.6424 311.593 56.912 276.135 58.4821 273.494C70.7917 252.792 113.013 179.919 64.2395 176.167C53.9964 175.379 43.7953 175.344 33.5333 175.344C23.2056 175.344 47.7877 134.526 48.4295 133.215C62.9753 103.497 74.0633 76.4271 75.206 43.2892C75.4309 36.7683 75.7241 30.2214 73.6524 24.0065" stroke="#FF0004" stroke-width="48" stroke-linecap="round" stroke-linejoin="round"/>
<path d="M50.6228 729.701C50.6228 700.293 56.8932 448.29 50.5314 448.41C44.1696 448.53 31.511 448.41 25.1257 448.41C22.6336 448.41 24.8236 447.054 26.0395 446.034C35.0774 438.454 43.0669 430.147 50.5314 420.994C68.298 399.209 83.9053 374.763 92.2041 347.701C94.6817 339.622 97.6119 325.542 94.763 316.995C92.1478 309.149 55.9999 313.522 47.8812 313.522C45.4467 313.522 34.4685 315.125 32.8936 313.157C31.6424 311.593 56.912 276.135 58.4821 273.494C70.7917 252.792 113.013 179.919 64.2395 176.167C53.9964 175.379 43.7953 175.344 33.5333 175.344C23.2056 175.344 47.7877 134.526 48.4295 133.215C62.9753 103.497 74.0633 76.4271 75.206 43.2892C75.4309 36.7684 75.7241 30.2214 73.6524 24.0064" stroke="black" stroke-width="4" stroke-linecap="round" stroke-linejoin="round"/>
<circle cx="8" cy="8" r="8" transform="matrix(-4.37114e-08 -1 -1 4.37114e-08 82.1855 32.2009)" fill="white" stroke="black" stroke-width="4"/>
<circle cx="8" cy="8" r="8" transform="matrix(-4.37114e-08 -1 -1 4.37114e-08 42.4355 180.701)" fill="white" stroke="black" stroke-width="4"/>
<circle cx="8" cy="8" r="8" transform="matrix(-4.37114e-08 -1 -1 4.37114e-08 92.9355 221.201)" fill="white" stroke="black" stroke-width="4"/>
<circle cx="8" cy="8" r="8" transform="matrix(-4.37114e-08 -1 -1 4.37114e-08 38.6855 322.451)" fill="white" stroke="black" stroke-width="4"/>
<circle cx="8" cy="8" r="8" transform="matrix(-4.37114e-08 -1 -1 4.37114e-08 103.936 328.451)" fill="white" stroke="black" stroke-width="4"/>
<circle cx="6.375" cy="6.375" r="6.375" transform="matrix(-4.37114e-08 -1 -1 4.37114e-08 35.1855 454.451)" fill="white" stroke="black" stroke-width="3.75"/>
<circle cx="6.375" cy="6.375" r="6.375" transform="matrix(-4.37114e-08 -1 -1 4.37114e-08 66.6855 454.451)" fill="white" stroke="black" stroke-width="3.75"/>
</svg>
