<svg width="435" height="120" viewBox="0 0 435 120" fill="none" xmlns="http://www.w3.org/2000/svg">
<path d="M729.701 69.3142C637.826 69.3142 545.951 69.3142 454.076 69.3142C447.26 69.3142 446.634 68.942 446.765 75.8941C446.885 82.2559 448.41 88.426 448.41 94.8113C448.41 97.3034 447.054 95.1134 446.034 93.8975C438.454 84.8596 430.147 76.8701 420.994 69.4056C399.209 51.639 374.763 36.0317 347.701 27.7329C339.622 25.2553 325.542 22.3251 316.995 25.174C309.15 27.7892 313.522 63.9371 313.522 72.0558C313.522 74.4903 315.125 85.4685 313.157 87.0434C311.593 88.2946 276.135 63.025 273.495 61.4549C252.792 49.1453 179.919 6.92353 176.167 55.6975C175.379 65.9406 175.344 76.1417 175.344 86.4037C175.344 96.7314 134.526 72.1493 133.215 71.5075C103.498 56.9617 76.4273 45.8736 43.2894 44.731C36.7686 44.5061 30.2216 44.2129 24.0067 46.2845" stroke="#699BF7" stroke-width="48" stroke-linecap="round" stroke-linejoin="round"/>
<path d="M729.701 69.3142C700.293 69.3142 448.29 63.0438 448.41 69.4056C448.53 75.7674 448.41 88.426 448.41 94.8113C448.41 97.3034 447.054 95.1134 446.034 93.8975C438.454 84.8596 430.147 76.8701 420.994 69.4056C399.209 51.639 374.763 36.0317 347.701 27.7329C339.622 25.2553 325.542 22.3251 316.995 25.174C309.15 27.7892 313.522 63.9371 313.522 72.0558C313.522 74.4903 315.125 85.4685 313.157 87.0434C311.593 88.2946 276.135 63.025 273.495 61.4549C252.792 49.1453 179.919 6.92353 176.167 55.6975C175.379 65.9406 175.344 76.1417 175.344 86.4037C175.344 96.7314 134.526 72.1493 133.215 71.5075C103.498 56.9617 76.4273 45.8736 43.2894 44.731C36.7686 44.5061 30.2216 44.2129 24.0067 46.2845" stroke="black" stroke-width="4" stroke-linecap="round" stroke-linejoin="round"/>
<circle cx="8" cy="8" r="8" transform="matrix(-1 0 0 1 32.2012 37.7515)" fill="white" stroke="black" stroke-width="4"/>
<circle cx="8" cy="8" r="8" transform="matrix(-1 0 0 1 180.701 77.5015)" fill="white" stroke="black" stroke-width="4"/>
<circle cx="8" cy="8" r="8" transform="matrix(-1 0 0 1 221.201 27.0015)" fill="white" stroke="black" stroke-width="4"/>
<circle cx="8" cy="8" r="8" transform="matrix(-1 0 0 1 322.451 81.2515)" fill="white" stroke="black" stroke-width="4"/>
<circle cx="8" cy="8" r="8" transform="matrix(-1 0 0 1 328.451 16.0015)" fill="white" stroke="black" stroke-width="4"/>
</svg>
