<svg width="801" height="501" viewBox="0 0 801 501" fill="none" xmlns="http://www.w3.org/2000/svg">
<rect x="937" y="13" width="475" height="865" transform="rotate(90 937 13)" fill="#CBFCB7"/>
<rect x="937" y="13" width="475" height="865" transform="rotate(90 937 13)" stroke="black" stroke-width="4"/>
<rect x="84" y="477" width="22" height="22" transform="rotate(90 84 477)" fill="white" stroke="black" stroke-width="4"/>
<rect x="83" y="2" width="22" height="22" transform="rotate(90 83 2)" fill="white" stroke="black" stroke-width="4"/>
<rect x="-2" y="2" width="187" height="187" transform="matrix(-1 0 0 1 187 45)" fill="#F24E1E"/>
<rect x="-2" y="2" width="187" height="187" transform="matrix(-1 0 0 1 187 45)" stroke="black" stroke-width="4"/>
<path fill-rule="evenodd" clip-rule="evenodd" d="M192.186 256.937L235.93 255.825L204.883 222.439L207.52 243.65L192.186 256.937Z" fill="#F24E1E" stroke="black" stroke-width="4" stroke-linecap="square"/>
<path d="M26.13 86L32.17 71.44H34.02L40.07 86H38.16L36.53 82.03H29.55L27.99 86H26.13ZM30.1 80.55H35.94L33.6 74.5C33.5133 74.2867 33.42 74.0433 33.32 73.77C33.2267 73.4967 33.1433 73.2467 33.07 73.02C32.9967 73.2467 32.91 73.5 32.81 73.78C32.71 74.0533 32.6233 74.2967 32.55 74.51L30.1 80.55ZM51.8378 86.19C51.1111 86.2967 50.5578 86.2567 50.1778 86.07C49.7978 85.8833 49.5378 85.55 49.3978 85.07C49.2578 84.5833 49.1878 83.9467 49.1878 83.16V80.38C49.1878 79.1667 49.0211 78.29 48.6878 77.75C48.3545 77.2033 47.8011 76.93 47.0278 76.93C46.5478 76.93 46.0578 77.05 45.5578 77.29C45.0645 77.5233 44.6411 77.8933 44.2878 78.4C43.9411 78.9 43.7411 79.55 43.6878 80.35V86H42.0478V79.01C42.0478 78.43 41.9478 77.9233 41.7478 77.49C41.5478 77.0567 41.3311 76.6467 41.0978 76.26L42.7478 75.74C42.9278 76.0133 43.0911 76.2933 43.2378 76.58C43.3911 76.86 43.4911 77.1633 43.5378 77.49C43.8378 76.8967 44.3478 76.42 45.0678 76.06C45.7945 75.7 46.5645 75.52 47.3778 75.52C48.5378 75.52 49.4045 75.9033 49.9778 76.67C50.5511 77.43 50.8378 78.6567 50.8378 80.35V82.8C50.8378 83.3067 50.8478 83.7233 50.8678 84.05C50.8878 84.3767 50.9778 84.6067 51.1378 84.74C51.2978 84.8667 51.5845 84.89 51.9978 84.81L51.8378 86.19ZM62.3908 86.05C61.9174 86.05 61.4774 85.96 61.0708 85.78C60.6641 85.6 60.3374 85.3033 60.0908 84.89C59.8441 84.4767 59.7208 83.92 59.7208 83.22V75.74H61.3708V83.17C61.3708 83.87 61.4941 84.32 61.7408 84.52C61.9874 84.72 62.2808 84.82 62.6208 84.82C62.7741 84.82 62.9741 84.8 63.2208 84.76C63.4674 84.7133 63.6774 84.6567 63.8508 84.59L64.0508 85.7C63.8041 85.8 63.5241 85.8833 63.2108 85.95C62.8974 86.0167 62.6241 86.05 62.3908 86.05ZM59.6908 73.62V71.83H61.4508V73.62H59.6908ZM75.6269 86.19C74.9002 86.2967 74.3469 86.2567 73.9669 86.07C73.5869 85.8833 73.3269 85.55 73.1869 85.07C73.0469 84.5833 72.9769 83.9467 72.9769 83.16V80.38C72.9769 79.1667 72.8102 78.29 72.4769 77.75C72.1435 77.2033 71.5902 76.93 70.8169 76.93C70.3369 76.93 69.8469 77.05 69.3469 77.29C68.8535 77.5233 68.4302 77.8933 68.0769 78.4C67.7302 78.9 67.5302 79.55 67.4769 80.35V86H65.8369V79.01C65.8369 78.43 65.7369 77.9233 65.5369 77.49C65.3369 77.0567 65.1202 76.6467 64.8869 76.26L66.5369 75.74C66.7169 76.0133 66.8802 76.2933 67.0269 76.58C67.1802 76.86 67.2802 77.1633 67.3269 77.49C67.6269 76.8967 68.1369 76.42 68.8569 76.06C69.5835 75.7 70.3535 75.52 71.1669 75.52C72.3269 75.52 73.1935 75.9033 73.7669 76.67C74.3402 77.43 74.6269 78.6567 74.6269 80.35V82.8C74.6269 83.3067 74.6369 83.7233 74.6569 84.05C74.6769 84.3767 74.7669 84.6067 74.9269 84.74C75.0869 84.8667 75.3735 84.89 75.7869 84.81L75.6269 86.19ZM82.1273 86.08C80.9673 86.08 80.124 85.8367 79.5973 85.35C79.0707 84.8633 78.8073 84.08 78.8073 83V76.81H76.7773V75.74H78.8573V73.02L80.4473 72.55V75.74H83.8173V76.81H80.4473V83.02C80.4473 83.6467 80.5973 84.1033 80.8973 84.39C81.1973 84.67 81.6707 84.81 82.3173 84.81C82.4707 84.81 82.6673 84.79 82.9073 84.75C83.154 84.71 83.4007 84.66 83.6473 84.6C83.894 84.54 84.094 84.48 84.2473 84.42L84.4373 85.65C84.124 85.7567 83.7307 85.8567 83.2573 85.95C82.7907 86.0367 82.414 86.08 82.1273 86.08ZM89.9505 86.22C89.3038 86.22 88.6871 86.0967 88.1005 85.85C87.5138 85.5967 87.0405 85.1867 86.6805 84.62C86.3205 84.0533 86.1538 83.2967 86.1805 82.35L86.2405 80.18C86.2738 79.1133 86.2405 78.2833 86.1405 77.69C86.0471 77.09 85.9438 76.6667 85.8305 76.42C85.7238 76.1667 85.6638 76.0267 85.6505 76L87.3005 75.74C87.3205 75.7733 87.3838 75.9067 87.4905 76.14C87.5971 76.3733 87.6971 76.7967 87.7905 77.41C87.8905 78.0167 87.9238 78.8967 87.8905 80.05L87.8305 82.35C87.8171 83.0033 87.9238 83.51 88.1505 83.87C88.3771 84.23 88.6738 84.4833 89.0405 84.63C89.4138 84.77 89.8005 84.84 90.2005 84.84C90.7538 84.84 91.2571 84.7167 91.7105 84.47C92.1705 84.2233 92.5371 83.87 92.8105 83.41C93.0905 82.9433 93.2305 82.3833 93.2305 81.73V75.74H94.8705V82.98C94.8705 83.7067 94.9905 84.1933 95.2305 84.44C95.4705 84.68 95.8205 84.75 96.2805 84.65L96.1205 86.03C95.3338 86.1767 94.7105 86.0867 94.2505 85.76C93.7971 85.4333 93.5405 84.9667 93.4805 84.36C92.7138 85.6 91.5371 86.22 89.9505 86.22ZM101.063 86.05C100.589 86.05 100.149 85.96 99.7427 85.78C99.336 85.6 99.0093 85.3033 98.7627 84.89C98.516 84.4767 98.3927 83.92 98.3927 83.22V75.74H100.043V83.17C100.043 83.87 100.166 84.32 100.413 84.52C100.659 84.72 100.953 84.82 101.293 84.82C101.446 84.82 101.646 84.8 101.893 84.76C102.139 84.7133 102.349 84.6567 102.523 84.59L102.723 85.7C102.476 85.8 102.196 85.8833 101.883 85.95C101.569 86.0167 101.296 86.05 101.063 86.05ZM98.3627 73.62V71.83H100.123V73.62H98.3627ZM108.319 86.08C107.159 86.08 106.315 85.8367 105.789 85.35C105.262 84.8633 104.999 84.08 104.999 83V76.81H102.969V75.74H105.049V73.02L106.639 72.55V75.74H110.009V76.81H106.639V83.02C106.639 83.6467 106.789 84.1033 107.089 84.39C107.389 84.67 107.862 84.81 108.509 84.81C108.662 84.81 108.859 84.79 109.099 84.75C109.345 84.71 109.592 84.66 109.839 84.6C110.085 84.54 110.285 84.48 110.439 84.42L110.629 85.65C110.315 85.7567 109.922 85.8567 109.449 85.95C108.982 86.0367 108.605 86.08 108.319 86.08ZM115.262 86.05C114.789 86.05 114.349 85.96 113.942 85.78C113.535 85.6 113.209 85.3033 112.962 84.89C112.715 84.4767 112.592 83.92 112.592 83.22V75.74H114.242V83.17C114.242 83.87 114.365 84.32 114.612 84.52C114.859 84.72 115.152 84.82 115.492 84.82C115.645 84.82 115.845 84.8 116.092 84.76C116.339 84.7133 116.549 84.6567 116.722 84.59L116.922 85.7C116.675 85.8 116.395 85.8833 116.082 85.95C115.769 86.0167 115.495 86.05 115.262 86.05ZM112.562 73.62V71.83H114.322V73.62H112.562ZM121.368 86L117.078 75.74H118.898L121.708 82.64C121.801 82.8667 121.901 83.1433 122.008 83.47C122.115 83.7967 122.208 84.0967 122.288 84.37C122.441 83.8633 122.558 83.4833 122.638 83.23C122.718 82.97 122.788 82.7733 122.848 82.64L125.608 75.74H127.378L123.048 86H121.368ZM133.674 86.22C132.661 86.22 131.754 86 130.954 85.56C130.161 85.12 129.534 84.4967 129.074 83.69C128.614 82.8833 128.384 81.9333 128.384 80.84C128.384 79.9 128.588 79.0267 128.994 78.22C129.408 77.4133 130.001 76.7633 130.774 76.27C131.554 75.77 132.491 75.52 133.584 75.52C134.304 75.52 134.928 75.6533 135.454 75.92C135.988 76.18 136.398 76.5333 136.684 76.98C136.978 77.4267 137.124 77.93 137.124 78.49C137.124 79.3033 136.828 79.9567 136.234 80.45C135.641 80.9433 134.831 81.33 133.804 81.61C132.784 81.8833 131.628 82.11 130.334 82.29C130.468 82.7967 130.704 83.2433 131.044 83.63C131.384 84.01 131.784 84.3067 132.244 84.52C132.704 84.7333 133.181 84.84 133.674 84.84C134.368 84.84 135.004 84.71 135.584 84.45C136.171 84.1833 136.631 83.86 136.964 83.48L137.794 84.54C137.294 85.0533 136.681 85.4633 135.954 85.77C135.234 86.07 134.474 86.22 133.674 86.22ZM130.214 81.1C131.241 80.9533 132.151 80.7767 132.944 80.57C133.738 80.3633 134.361 80.0933 134.814 79.76C135.268 79.42 135.494 78.9833 135.494 78.45C135.494 77.9967 135.328 77.63 134.994 77.35C134.668 77.07 134.201 76.93 133.594 76.93C133.041 76.93 132.501 77.0667 131.974 77.34C131.454 77.6067 131.024 78.0133 130.684 78.56C130.351 79.1 130.184 79.7833 130.184 80.61C130.184 80.7767 130.194 80.94 130.214 81.1ZM30.34 110.05C29.8667 110.05 29.4267 109.96 29.02 109.78C28.6133 109.6 28.2867 109.303 28.04 108.89C27.7933 108.477 27.67 107.92 27.67 107.22V99.74H29.32V107.17C29.32 107.87 29.4433 108.32 29.69 108.52C29.9367 108.72 30.23 108.82 30.57 108.82C30.7233 108.82 30.9233 108.8 31.17 108.76C31.4167 108.713 31.6267 108.657 31.8 108.59L32 109.7C31.7533 109.8 31.4733 109.883 31.16 109.95C30.8467 110.017 30.5733 110.05 30.34 110.05ZM27.64 97.62V95.83H29.4V97.62H27.64ZM43.5761 110.19C42.8494 110.297 42.2961 110.257 41.9161 110.07C41.5361 109.883 41.2761 109.55 41.1361 109.07C40.9961 108.583 40.9261 107.947 40.9261 107.16V104.38C40.9261 103.167 40.7594 102.29 40.4261 101.75C40.0928 101.203 39.5394 100.93 38.7661 100.93C38.2861 100.93 37.7961 101.05 37.2961 101.29C36.8028 101.523 36.3794 101.893 36.0261 102.4C35.6794 102.9 35.4794 103.55 35.4261 104.35V110H33.7861V103.01C33.7861 102.43 33.6861 101.923 33.4861 101.49C33.2861 101.057 33.0694 100.647 32.8361 100.26L34.4861 99.74C34.6661 100.013 34.8294 100.293 34.9761 100.58C35.1294 100.86 35.2294 101.163 35.2761 101.49C35.5761 100.897 36.0861 100.42 36.8061 100.06C37.5328 99.7 38.3028 99.52 39.1161 99.52C40.2761 99.52 41.1428 99.9033 41.7161 100.67C42.2894 101.43 42.5761 102.657 42.5761 104.35V106.8C42.5761 107.307 42.5861 107.723 42.6061 108.05C42.6261 108.377 42.7161 108.607 42.8761 108.74C43.0361 108.867 43.3228 108.89 43.7361 108.81L43.5761 110.19ZM50.0766 110.08C48.9166 110.08 48.0732 109.837 47.5466 109.35C47.0199 108.863 46.7566 108.08 46.7566 107V100.81H44.7266V99.74H46.8066V97.02L48.3966 96.55V99.74H51.7666V100.81H48.3966V107.02C48.3966 107.647 48.5466 108.103 48.8466 108.39C49.1466 108.67 49.6199 108.81 50.2666 108.81C50.4199 108.81 50.6166 108.79 50.8566 108.75C51.1032 108.71 51.3499 108.66 51.5966 108.6C51.8432 108.54 52.0432 108.48 52.1966 108.42L52.3866 109.65C52.0732 109.757 51.6799 109.857 51.2066 109.95C50.7399 110.037 50.3632 110.08 50.0766 110.08ZM58.8111 110.22C57.7978 110.22 56.8911 110 56.0911 109.56C55.2978 109.12 54.6711 108.497 54.2111 107.69C53.7511 106.883 53.5211 105.933 53.5211 104.84C53.5211 103.9 53.7244 103.027 54.1311 102.22C54.5444 101.413 55.1378 100.763 55.9111 100.27C56.6911 99.77 57.6278 99.52 58.7211 99.52C59.4411 99.52 60.0644 99.6533 60.5911 99.92C61.1244 100.18 61.5344 100.533 61.8211 100.98C62.1144 101.427 62.2611 101.93 62.2611 102.49C62.2611 103.303 61.9644 103.957 61.3711 104.45C60.7778 104.943 59.9678 105.33 58.9411 105.61C57.9211 105.883 56.7644 106.11 55.4711 106.29C55.6044 106.797 55.8411 107.243 56.1811 107.63C56.5211 108.01 56.9211 108.307 57.3811 108.52C57.8411 108.733 58.3178 108.84 58.8111 108.84C59.5044 108.84 60.1411 108.71 60.7211 108.45C61.3078 108.183 61.7678 107.86 62.1011 107.48L62.9311 108.54C62.4311 109.053 61.8178 109.463 61.0911 109.77C60.3711 110.07 59.6111 110.22 58.8111 110.22ZM55.3511 105.1C56.3778 104.953 57.2878 104.777 58.0811 104.57C58.8744 104.363 59.4978 104.093 59.9511 103.76C60.4044 103.42 60.6311 102.983 60.6311 102.45C60.6311 101.997 60.4644 101.63 60.1311 101.35C59.8044 101.07 59.3378 100.93 58.7311 100.93C58.1778 100.93 57.6378 101.067 57.1111 101.34C56.5911 101.607 56.1611 102.013 55.8211 102.56C55.4878 103.1 55.3211 103.783 55.3211 104.61C55.3211 104.777 55.3311 104.94 55.3511 105.1ZM65.1742 110V103.01C65.1742 102.43 65.0742 101.923 64.8742 101.49C64.6742 101.057 64.4576 100.647 64.2242 100.26L65.8742 99.74C66.0542 100.013 66.2176 100.29 66.3642 100.57C66.5109 100.843 66.6109 101.14 66.6642 101.46C66.9309 100.92 67.3209 100.463 67.8342 100.09C68.3542 99.71 68.9309 99.52 69.5642 99.52C69.9776 99.52 70.2909 99.54 70.5042 99.58C70.7242 99.62 70.9242 99.6667 71.1042 99.72L70.9642 101.17C70.8776 101.137 70.7209 101.09 70.4942 101.03C70.2676 100.963 69.9409 100.93 69.5142 100.93C68.7876 100.93 68.1542 101.203 67.6142 101.75C67.0809 102.29 66.8142 103.147 66.8142 104.32V110H65.1742ZM72.3983 114.49L72.1883 113.28C72.7883 113.133 73.2416 112.807 73.5483 112.3C73.8616 111.793 74.0183 111.14 74.0183 110.34V100.81H71.9983V99.74H74.0183V98.3C74.0183 97.0333 74.2449 96.1133 74.6983 95.54C75.1583 94.9667 75.8916 94.68 76.8983 94.68C77.4449 94.68 78.0383 94.79 78.6783 95.01L78.4383 96.08C78.2516 96.0333 78.0649 95.9933 77.8783 95.96C77.6916 95.9267 77.5083 95.91 77.3283 95.91C76.7416 95.91 76.3149 96.0833 76.0483 96.43C75.7883 96.77 75.6583 97.3167 75.6583 98.07V99.74H78.1383V100.81H75.6583V110.11C75.6583 111.357 75.4116 112.36 74.9183 113.12C74.4316 113.88 73.5916 114.337 72.3983 114.49ZM83.4819 110.22C82.6485 110.22 81.9185 110.03 81.2919 109.65C80.6719 109.263 80.1885 108.727 79.8419 108.04C79.4952 107.347 79.3219 106.54 79.3219 105.62C79.3219 104.4 79.5619 103.333 80.0419 102.42C80.5219 101.507 81.1919 100.797 82.0519 100.29C82.9185 99.7767 83.9285 99.52 85.0819 99.52C85.7552 99.52 86.4185 99.6 87.0719 99.76C87.7252 99.9133 88.2519 100.12 88.6519 100.38V107.14C88.6519 107.58 88.7652 107.937 88.9919 108.21C89.2252 108.477 89.5285 108.61 89.9019 108.61L89.5619 110.04C88.9819 110.04 88.4785 109.883 88.0519 109.57C87.6252 109.257 87.3552 108.847 87.2419 108.34C86.9019 108.907 86.3885 109.363 85.7019 109.71C85.0152 110.05 84.2752 110.22 83.4819 110.22ZM83.7319 108.84C84.3919 108.84 84.9652 108.693 85.4519 108.4C85.9452 108.1 86.3285 107.697 86.6019 107.19C86.8752 106.683 87.0119 106.11 87.0119 105.47V101.28C86.8052 101.173 86.5219 101.09 86.1619 101.03C85.8019 100.963 85.4319 100.93 85.0519 100.93C84.2452 100.93 83.5385 101.123 82.9319 101.51C82.3319 101.89 81.8619 102.423 81.5219 103.11C81.1885 103.797 81.0219 104.6 81.0219 105.52C81.0219 106.513 81.2685 107.317 81.7619 107.93C82.2619 108.537 82.9185 108.84 83.7319 108.84ZM96.8127 110.23C95.8793 110.23 94.996 110.033 94.1627 109.64C93.336 109.24 92.6627 108.65 92.1427 107.87C91.6293 107.09 91.3727 106.123 91.3727 104.97C91.3727 104.097 91.526 103.323 91.8327 102.65C92.146 101.97 92.5627 101.397 93.0827 100.93C93.6093 100.463 94.1993 100.11 94.8527 99.87C95.5127 99.6233 96.186 99.5 96.8727 99.5C97.4793 99.5 98.0793 99.6 98.6727 99.8C99.2727 100 99.816 100.333 100.303 100.8L99.7027 102.01C99.3293 101.65 98.9093 101.383 98.4427 101.21C97.976 101.03 97.506 100.94 97.0327 100.94C96.366 100.94 95.7293 101.093 95.1227 101.4C94.516 101.7 94.0227 102.147 93.6427 102.74C93.2627 103.333 93.0727 104.06 93.0727 104.92C93.0727 105.807 93.2593 106.54 93.6327 107.12C94.006 107.693 94.4893 108.12 95.0827 108.4C95.6827 108.673 96.316 108.81 96.9827 108.81C97.5227 108.81 98.0627 108.71 98.6027 108.51C99.1427 108.303 99.6193 108.007 100.033 107.62L100.603 108.88C100.049 109.327 99.4427 109.663 98.7827 109.89C98.1227 110.117 97.466 110.23 96.8127 110.23ZM106.76 110.22C105.747 110.22 104.84 110 104.04 109.56C103.247 109.12 102.62 108.497 102.16 107.69C101.7 106.883 101.47 105.933 101.47 104.84C101.47 103.9 101.674 103.027 102.08 102.22C102.494 101.413 103.087 100.763 103.86 100.27C104.64 99.77 105.577 99.52 106.67 99.52C107.39 99.52 108.014 99.6533 108.54 99.92C109.074 100.18 109.484 100.533 109.77 100.98C110.064 101.427 110.21 101.93 110.21 102.49C110.21 103.303 109.914 103.957 109.32 104.45C108.727 104.943 107.917 105.33 106.89 105.61C105.87 105.883 104.714 106.11 103.42 106.29C103.554 106.797 103.79 107.243 104.13 107.63C104.47 108.01 104.87 108.307 105.33 108.52C105.79 108.733 106.267 108.84 106.76 108.84C107.454 108.84 108.09 108.71 108.67 108.45C109.257 108.183 109.717 107.86 110.05 107.48L110.88 108.54C110.38 109.053 109.767 109.463 109.04 109.77C108.32 110.07 107.56 110.22 106.76 110.22ZM103.3 105.1C104.327 104.953 105.237 104.777 106.03 104.57C106.824 104.363 107.447 104.093 107.9 103.76C108.354 103.42 108.58 102.983 108.58 102.45C108.58 101.997 108.414 101.63 108.08 101.35C107.754 101.07 107.287 100.93 106.68 100.93C106.127 100.93 105.587 101.067 105.06 101.34C104.54 101.607 104.11 102.013 103.77 102.56C103.437 103.1 103.27 103.783 103.27 104.61C103.27 104.777 103.28 104.94 103.3 105.1ZM122.186 110.08C121.026 110.08 120.183 109.837 119.656 109.35C119.129 108.863 118.866 108.08 118.866 107V100.81H116.836V99.74H118.916V97.02L120.506 96.55V99.74H123.876V100.81H120.506V107.02C120.506 107.647 120.656 108.103 120.956 108.39C121.256 108.67 121.729 108.81 122.376 108.81C122.529 108.81 122.726 108.79 122.966 108.75C123.213 108.71 123.459 108.66 123.706 108.6C123.953 108.54 124.153 108.48 124.306 108.42L124.496 109.65C124.183 109.757 123.789 109.857 123.316 109.95C122.849 110.037 122.473 110.08 122.186 110.08ZM136.109 110.19C135.382 110.297 134.829 110.257 134.449 110.07C134.069 109.883 133.809 109.55 133.669 109.07C133.529 108.583 133.459 107.947 133.459 107.16V104.38C133.459 103.167 133.292 102.29 132.959 101.75C132.626 101.203 132.072 100.93 131.299 100.93C130.792 100.93 130.279 101.06 129.759 101.32C129.246 101.58 128.816 101.987 128.469 102.54C128.122 103.087 127.949 103.8 127.949 104.68V110H126.309V94.94L127.949 94.74V101.25C128.289 100.73 128.799 100.313 129.479 100C130.166 99.68 130.889 99.52 131.649 99.52C132.809 99.52 133.676 99.9033 134.249 100.67C134.822 101.43 135.109 102.657 135.109 104.35V106.8C135.109 107.307 135.119 107.723 135.139 108.05C135.159 108.377 135.249 108.607 135.409 108.74C135.569 108.867 135.856 108.89 136.269 108.81L136.109 110.19ZM142.076 110.22C141.242 110.22 140.512 110.03 139.886 109.65C139.266 109.263 138.782 108.727 138.436 108.04C138.089 107.347 137.916 106.54 137.916 105.62C137.916 104.4 138.156 103.333 138.636 102.42C139.116 101.507 139.786 100.797 140.646 100.29C141.512 99.7767 142.522 99.52 143.676 99.52C144.349 99.52 145.012 99.6 145.666 99.76C146.319 99.9133 146.846 100.12 147.246 100.38V107.14C147.246 107.58 147.359 107.937 147.586 108.21C147.819 108.477 148.122 108.61 148.496 108.61L148.156 110.04C147.576 110.04 147.072 109.883 146.646 109.57C146.219 109.257 145.949 108.847 145.836 108.34C145.496 108.907 144.982 109.363 144.296 109.71C143.609 110.05 142.869 110.22 142.076 110.22ZM142.326 108.84C142.986 108.84 143.559 108.693 144.046 108.4C144.539 108.1 144.922 107.697 145.196 107.19C145.469 106.683 145.606 106.11 145.606 105.47V101.28C145.399 101.173 145.116 101.09 144.756 101.03C144.396 100.963 144.026 100.93 143.646 100.93C142.839 100.93 142.132 101.123 141.526 101.51C140.926 101.89 140.456 102.423 140.116 103.11C139.782 103.797 139.616 104.6 139.616 105.52C139.616 106.513 139.862 107.317 140.356 107.93C140.856 108.537 141.512 108.84 142.326 108.84ZM154.666 110.08C153.506 110.08 152.663 109.837 152.136 109.35C151.61 108.863 151.346 108.08 151.346 107V100.81H149.316V99.74H151.396V97.02L152.986 96.55V99.74H156.356V100.81H152.986V107.02C152.986 107.647 153.136 108.103 153.436 108.39C153.736 108.67 154.21 108.81 154.856 108.81C155.01 108.81 155.206 108.79 155.446 108.75C155.693 108.71 155.94 108.66 156.186 108.6C156.433 108.54 156.633 108.48 156.786 108.42L156.976 109.65C156.663 109.757 156.27 109.857 155.796 109.95C155.33 110.037 154.953 110.08 154.666 110.08ZM33.2 133.65C32.5267 133.943 31.86 134.113 31.2 134.16C30.5467 134.213 29.9533 134.137 29.42 133.93C28.8933 133.717 28.47 133.37 28.15 132.89C27.8367 132.403 27.68 131.773 27.68 131V119.04L29.32 118.74V131.08C29.32 131.773 29.5 132.26 29.86 132.54C30.22 132.82 30.6767 132.943 31.23 132.91C31.79 132.87 32.3633 132.727 32.95 132.48L33.2 133.65ZM39.0455 134.22C38.0321 134.22 37.1255 134 36.3255 133.56C35.5321 133.12 34.9055 132.497 34.4455 131.69C33.9855 130.883 33.7555 129.933 33.7555 128.84C33.7555 127.9 33.9588 127.027 34.3655 126.22C34.7788 125.413 35.3721 124.763 36.1455 124.27C36.9255 123.77 37.8621 123.52 38.9555 123.52C39.6755 123.52 40.2988 123.653 40.8255 123.92C41.3588 124.18 41.7688 124.533 42.0555 124.98C42.3488 125.427 42.4955 125.93 42.4955 126.49C42.4955 127.303 42.1988 127.957 41.6055 128.45C41.0121 128.943 40.2021 129.33 39.1755 129.61C38.1555 129.883 36.9988 130.11 35.7055 130.29C35.8388 130.797 36.0755 131.243 36.4155 131.63C36.7555 132.01 37.1555 132.307 37.6155 132.52C38.0755 132.733 38.5521 132.84 39.0455 132.84C39.7388 132.84 40.3755 132.71 40.9555 132.45C41.5421 132.183 42.0021 131.86 42.3355 131.48L43.1655 132.54C42.6655 133.053 42.0521 133.463 41.3255 133.77C40.6055 134.07 39.8455 134.22 39.0455 134.22ZM35.5855 129.1C36.6121 128.953 37.5221 128.777 38.3155 128.57C39.1088 128.363 39.7321 128.093 40.1855 127.76C40.6388 127.42 40.8655 126.983 40.8655 126.45C40.8655 125.997 40.6988 125.63 40.3655 125.35C40.0388 125.07 39.5721 124.93 38.9655 124.93C38.4121 124.93 37.8721 125.067 37.3455 125.34C36.8255 125.607 36.3955 126.013 36.0555 126.56C35.7221 127.1 35.5555 127.783 35.5555 128.61C35.5555 128.777 35.5655 128.94 35.5855 129.1ZM49.1781 134.08C48.0181 134.08 47.1748 133.837 46.6481 133.35C46.1215 132.863 45.8581 132.08 45.8581 131V124.81H43.8281V123.74H45.9081V121.02L47.4981 120.55V123.74H50.8681V124.81H47.4981V131.02C47.4981 131.647 47.6481 132.103 47.9481 132.39C48.2481 132.67 48.7215 132.81 49.3681 132.81C49.5215 132.81 49.7181 132.79 49.9581 132.75C50.2048 132.71 50.4515 132.66 50.6981 132.6C50.9448 132.54 51.1448 132.48 51.2981 132.42L51.4881 133.65C51.1748 133.757 50.7815 133.857 50.3081 133.95C49.8415 134.037 49.4648 134.08 49.1781 134.08ZM56.4213 134.22C55.6479 134.22 54.9546 134.117 54.3413 133.91C53.7279 133.703 53.2346 133.497 52.8613 133.29L53.3613 131.88C53.7479 132.173 54.2079 132.407 54.7413 132.58C55.2813 132.753 55.8013 132.84 56.3013 132.84C56.8546 132.84 57.3246 132.73 57.7113 132.51C58.1046 132.283 58.3013 131.913 58.3013 131.4C58.3013 131.047 58.1679 130.75 57.9013 130.51C57.6413 130.263 57.3046 130.043 56.8913 129.85C56.4779 129.657 56.0379 129.46 55.5713 129.26C55.1113 129.06 54.6746 128.833 54.2613 128.58C53.8479 128.32 53.5146 128.007 53.2613 127.64C53.0079 127.273 52.8846 126.823 52.8913 126.29C52.9046 125.437 53.2179 124.763 53.8313 124.27C54.4446 123.77 55.2646 123.52 56.2913 123.52C56.9446 123.52 57.5413 123.6 58.0813 123.76C58.6279 123.92 59.1113 124.11 59.5313 124.33L59.0913 125.68C58.6713 125.453 58.2213 125.273 57.7413 125.14C57.2679 125 56.8179 124.93 56.3913 124.93C55.8113 124.93 55.3513 125.047 55.0113 125.28C54.6779 125.507 54.5113 125.827 54.5113 126.24C54.5113 126.553 54.6413 126.823 54.9013 127.05C55.1679 127.277 55.5079 127.487 55.9213 127.68C56.3346 127.867 56.7713 128.06 57.2313 128.26C57.6979 128.46 58.1346 128.693 58.5413 128.96C58.9546 129.22 59.2879 129.533 59.5413 129.9C59.7946 130.267 59.9146 130.717 59.9013 131.25C59.8813 132.13 59.5579 132.847 58.9313 133.4C58.3113 133.947 57.4746 134.22 56.4213 134.22ZM71.3286 138.94C70.8219 138.94 70.2619 138.883 69.6486 138.77C69.0353 138.663 68.4753 138.517 67.9686 138.33L68.1586 136.8C68.6186 137.027 69.1253 137.21 69.6786 137.35C70.2386 137.497 70.7419 137.57 71.1886 137.57C72.2353 137.57 73.0786 137.283 73.7186 136.71C74.3586 136.137 74.6786 135.38 74.6786 134.44V132.72C73.9119 133.72 72.8186 134.22 71.3986 134.22C70.7519 134.22 70.1353 134.097 69.5486 133.85C68.9619 133.597 68.4886 133.187 68.1286 132.62C67.7686 132.053 67.6019 131.297 67.6286 130.35L67.6886 128.18C67.7219 127.113 67.6886 126.283 67.5886 125.69C67.4953 125.097 67.3953 124.677 67.2886 124.43C67.1819 124.177 67.1186 124.033 67.0986 124L68.7486 123.74C68.7619 123.773 68.8219 123.907 68.9286 124.14C69.0419 124.373 69.1453 124.797 69.2386 125.41C69.3386 126.017 69.3719 126.897 69.3386 128.05L69.2786 130.35C69.2653 131.003 69.3719 131.51 69.5986 131.87C69.8253 132.23 70.1219 132.483 70.4886 132.63C70.8553 132.77 71.2419 132.84 71.6486 132.84C72.2019 132.84 72.7053 132.717 73.1586 132.47C73.6186 132.223 73.9853 131.87 74.2586 131.41C74.5386 130.943 74.6786 130.383 74.6786 129.73V123.74H76.3186V134.23C76.3186 135.17 76.1086 135.993 75.6886 136.7C75.2753 137.407 74.6953 137.957 73.9486 138.35C73.2019 138.743 72.3286 138.94 71.3286 138.94ZM84.0755 134.22C83.0155 134.22 82.0888 134 81.2955 133.56C80.5021 133.113 79.8821 132.49 79.4355 131.69C78.9955 130.89 78.7755 129.957 78.7755 128.89C78.7755 127.817 78.9955 126.877 79.4355 126.07C79.8755 125.263 80.4921 124.637 81.2855 124.19C82.0855 123.743 83.0121 123.52 84.0655 123.52C85.1121 123.52 86.0255 123.743 86.8055 124.19C87.5855 124.637 88.1921 125.26 88.6255 126.06C89.0588 126.86 89.2755 127.797 89.2755 128.87C89.2755 129.937 89.0588 130.873 88.6255 131.68C88.1921 132.48 87.5855 133.103 86.8055 133.55C86.0255 133.997 85.1155 134.22 84.0755 134.22ZM84.0755 132.84C85.1288 132.84 85.9755 132.48 86.6155 131.76C87.2555 131.033 87.5755 130.077 87.5755 128.89C87.5755 127.697 87.2521 126.74 86.6055 126.02C85.9655 125.293 85.1188 124.93 84.0655 124.93C82.9921 124.93 82.1255 125.297 81.4655 126.03C80.8055 126.757 80.4755 127.717 80.4755 128.91C80.4755 130.09 80.8055 131.04 81.4655 131.76C82.1255 132.48 82.9955 132.84 84.0755 132.84ZM95.3802 134.22C94.7335 134.22 94.1168 134.097 93.5302 133.85C92.9435 133.597 92.4702 133.187 92.1102 132.62C91.7502 132.053 91.5835 131.297 91.6102 130.35L91.6702 128.18C91.7035 127.113 91.6702 126.283 91.5702 125.69C91.4768 125.09 91.3735 124.667 91.2602 124.42C91.1535 124.167 91.0935 124.027 91.0802 124L92.7302 123.74C92.7502 123.773 92.8135 123.907 92.9202 124.14C93.0268 124.373 93.1268 124.797 93.2202 125.41C93.3202 126.017 93.3535 126.897 93.3202 128.05L93.2602 130.35C93.2468 131.003 93.3535 131.51 93.5802 131.87C93.8068 132.23 94.1035 132.483 94.4702 132.63C94.8435 132.77 95.2302 132.84 95.6302 132.84C96.1835 132.84 96.6868 132.717 97.1402 132.47C97.6002 132.223 97.9668 131.87 98.2402 131.41C98.5202 130.943 98.6602 130.383 98.6602 129.73V123.74H100.3V130.98C100.3 131.707 100.42 132.193 100.66 132.44C100.9 132.68 101.25 132.75 101.71 132.65L101.55 134.03C100.763 134.177 100.14 134.087 99.6802 133.76C99.2268 133.433 98.9702 132.967 98.9102 132.36C98.1435 133.6 96.9668 134.22 95.3802 134.22ZM109.195 138.57V126.82C109.195 126.34 109.105 125.907 108.925 125.52C108.752 125.127 108.538 124.793 108.285 124.52L109.675 123.74C110.228 124.147 110.548 124.767 110.635 125.6C111.002 124.947 111.535 124.437 112.235 124.07C112.935 123.703 113.692 123.52 114.505 123.52C115.938 123.52 117.058 123.98 117.865 124.9C118.672 125.82 119.075 127.097 119.075 128.73C119.075 130.457 118.665 131.803 117.845 132.77C117.025 133.737 115.878 134.22 114.405 134.22C113.698 134.22 113.022 134.117 112.375 133.91C111.728 133.703 111.215 133.417 110.835 133.05V138.39L109.195 138.57ZM114.165 132.84C115.178 132.84 115.965 132.483 116.525 131.77C117.092 131.057 117.375 130.063 117.375 128.79C117.375 127.577 117.115 126.63 116.595 125.95C116.075 125.27 115.348 124.93 114.415 124.93C113.328 124.93 112.458 125.347 111.805 126.18C111.152 127.013 110.825 128.173 110.825 129.66V131.32C111.172 131.8 111.648 132.173 112.255 132.44C112.862 132.707 113.498 132.84 114.165 132.84ZM126.224 134.22C125.164 134.22 124.237 134 123.444 133.56C122.651 133.113 122.031 132.49 121.584 131.69C121.144 130.89 120.924 129.957 120.924 128.89C120.924 127.817 121.144 126.877 121.584 126.07C122.024 125.263 122.641 124.637 123.434 124.19C124.234 123.743 125.161 123.52 126.214 123.52C127.261 123.52 128.174 123.743 128.954 124.19C129.734 124.637 130.341 125.26 130.774 126.06C131.207 126.86 131.424 127.797 131.424 128.87C131.424 129.937 131.207 130.873 130.774 131.68C130.341 132.48 129.734 133.103 128.954 133.55C128.174 133.997 127.264 134.22 126.224 134.22ZM126.224 132.84C127.277 132.84 128.124 132.48 128.764 131.76C129.404 131.033 129.724 130.077 129.724 128.89C129.724 127.697 129.401 126.74 128.754 126.02C128.114 125.293 127.267 124.93 126.214 124.93C125.141 124.93 124.274 125.297 123.614 126.03C122.954 126.757 122.624 127.717 122.624 128.91C122.624 130.09 122.954 131.04 123.614 131.76C124.274 132.48 125.144 132.84 126.224 132.84ZM136.949 134.22C136.175 134.22 135.482 134.117 134.869 133.91C134.255 133.703 133.762 133.497 133.389 133.29L133.889 131.88C134.275 132.173 134.735 132.407 135.269 132.58C135.809 132.753 136.329 132.84 136.829 132.84C137.382 132.84 137.852 132.73 138.239 132.51C138.632 132.283 138.829 131.913 138.829 131.4C138.829 131.047 138.695 130.75 138.429 130.51C138.169 130.263 137.832 130.043 137.419 129.85C137.005 129.657 136.565 129.46 136.099 129.26C135.639 129.06 135.202 128.833 134.789 128.58C134.375 128.32 134.042 128.007 133.789 127.64C133.535 127.273 133.412 126.823 133.419 126.29C133.432 125.437 133.745 124.763 134.359 124.27C134.972 123.77 135.792 123.52 136.819 123.52C137.472 123.52 138.069 123.6 138.609 123.76C139.155 123.92 139.639 124.11 140.059 124.33L139.619 125.68C139.199 125.453 138.749 125.273 138.269 125.14C137.795 125 137.345 124.93 136.919 124.93C136.339 124.93 135.879 125.047 135.539 125.28C135.205 125.507 135.039 125.827 135.039 126.24C135.039 126.553 135.169 126.823 135.429 127.05C135.695 127.277 136.035 127.487 136.449 127.68C136.862 127.867 137.299 128.06 137.759 128.26C138.225 128.46 138.662 128.693 139.069 128.96C139.482 129.22 139.815 129.533 140.069 129.9C140.322 130.267 140.442 130.717 140.429 131.25C140.409 132.13 140.085 132.847 139.459 133.4C138.839 133.947 138.002 134.22 136.949 134.22ZM146.815 134.08C145.655 134.08 144.812 133.837 144.285 133.35C143.758 132.863 143.495 132.08 143.495 131V124.81H141.465V123.74H143.545V121.02L145.135 120.55V123.74H148.505V124.81H145.135V131.02C145.135 131.647 145.285 132.103 145.585 132.39C145.885 132.67 146.358 132.81 147.005 132.81C147.158 132.81 147.355 132.79 147.595 132.75C147.842 132.71 148.088 132.66 148.335 132.6C148.582 132.54 148.782 132.48 148.935 132.42L149.125 133.65C148.812 133.757 148.418 133.857 147.945 133.95C147.478 134.037 147.102 134.08 146.815 134.08ZM159.79 134.22C158.957 134.22 158.227 134.03 157.6 133.65C156.98 133.263 156.497 132.727 156.15 132.04C155.804 131.347 155.63 130.54 155.63 129.62C155.63 128.4 155.87 127.333 156.35 126.42C156.83 125.507 157.5 124.797 158.36 124.29C159.227 123.777 160.237 123.52 161.39 123.52C162.064 123.52 162.727 123.6 163.38 123.76C164.034 123.913 164.56 124.12 164.96 124.38V131.14C164.96 131.58 165.074 131.937 165.3 132.21C165.534 132.477 165.837 132.61 166.21 132.61L165.87 134.04C165.29 134.04 164.787 133.883 164.36 133.57C163.934 133.257 163.664 132.847 163.55 132.34C163.21 132.907 162.697 133.363 162.01 133.71C161.324 134.05 160.584 134.22 159.79 134.22ZM160.04 132.84C160.7 132.84 161.274 132.693 161.76 132.4C162.254 132.1 162.637 131.697 162.91 131.19C163.184 130.683 163.32 130.11 163.32 129.47V125.28C163.114 125.173 162.83 125.09 162.47 125.03C162.11 124.963 161.74 124.93 161.36 124.93C160.554 124.93 159.847 125.123 159.24 125.51C158.64 125.89 158.17 126.423 157.83 127.11C157.497 127.797 157.33 128.6 157.33 129.52C157.33 130.513 157.577 131.317 158.07 131.93C158.57 132.537 159.227 132.84 160.04 132.84ZM44.79 158.19C44.0633 158.297 43.5033 158.257 43.11 158.07C42.7233 157.883 42.4567 157.55 42.31 157.07C42.1633 156.583 42.09 155.947 42.09 155.16V152.38C42.09 151.167 41.9233 150.29 41.59 149.75C41.2567 149.203 40.7033 148.93 39.93 148.93C39.4233 148.93 38.91 149.06 38.39 149.32C37.87 149.58 37.4333 149.987 37.08 150.54C36.7333 151.087 36.56 151.8 36.56 152.68V158H34.91V152.38C34.91 151.167 34.7467 150.29 34.42 149.75C34.0933 149.203 33.5433 148.93 32.77 148.93C32.29 148.93 31.8 149.05 31.3 149.29C30.8067 149.523 30.3833 149.893 30.03 150.4C29.6833 150.9 29.4833 151.55 29.43 152.35V158H27.79V151.01C27.79 150.43 27.69 149.923 27.49 149.49C27.29 149.057 27.0733 148.647 26.84 148.26L28.49 147.74C28.67 148.013 28.8333 148.293 28.98 148.58C29.1333 148.86 29.2333 149.163 29.28 149.49C29.58 148.897 30.09 148.42 30.81 148.06C31.5367 147.7 32.3067 147.52 33.12 147.52C33.9333 147.52 34.6033 147.703 35.13 148.07C35.6567 148.437 36.04 149.017 36.28 149.81L36.4 149.58C36.5867 149.167 36.88 148.807 37.28 148.5C37.68 148.193 38.14 147.953 38.66 147.78C39.1867 147.607 39.7267 147.52 40.28 147.52C41.44 147.52 42.3067 147.903 42.88 148.67C43.4533 149.43 43.74 150.657 43.74 152.35V154.8C43.74 155.307 43.7533 155.723 43.78 156.05C43.8133 156.377 43.9133 156.607 44.08 156.74C44.2467 156.867 44.5367 156.89 44.95 156.81L44.79 158.19ZM51.8684 158.22C50.8084 158.22 49.8818 158 49.0884 157.56C48.2951 157.113 47.6751 156.49 47.2284 155.69C46.7884 154.89 46.5684 153.957 46.5684 152.89C46.5684 151.817 46.7884 150.877 47.2284 150.07C47.6684 149.263 48.2851 148.637 49.0784 148.19C49.8784 147.743 50.8051 147.52 51.8584 147.52C52.9051 147.52 53.8184 147.743 54.5984 148.19C55.3784 148.637 55.9851 149.26 56.4184 150.06C56.8518 150.86 57.0684 151.797 57.0684 152.87C57.0684 153.937 56.8518 154.873 56.4184 155.68C55.9851 156.48 55.3784 157.103 54.5984 157.55C53.8184 157.997 52.9084 158.22 51.8684 158.22ZM51.8684 156.84C52.9218 156.84 53.7684 156.48 54.4084 155.76C55.0484 155.033 55.3684 154.077 55.3684 152.89C55.3684 151.697 55.0451 150.74 54.3984 150.02C53.7584 149.293 52.9118 148.93 51.8584 148.93C50.7851 148.93 49.9184 149.297 49.2584 150.03C48.5984 150.757 48.2684 151.717 48.2684 152.91C48.2684 154.09 48.5984 155.04 49.2584 155.76C49.9184 156.48 50.7884 156.84 51.8684 156.84ZM64.1731 158.22C63.1131 158.22 62.1865 158 61.3931 157.56C60.5998 157.113 59.9798 156.49 59.5331 155.69C59.0931 154.89 58.8731 153.957 58.8731 152.89C58.8731 151.817 59.0931 150.877 59.5331 150.07C59.9731 149.263 60.5898 148.637 61.3831 148.19C62.1831 147.743 63.1098 147.52 64.1631 147.52C65.2098 147.52 66.1231 147.743 66.9031 148.19C67.6831 148.637 68.2898 149.26 68.7231 150.06C69.1565 150.86 69.3731 151.797 69.3731 152.87C69.3731 153.937 69.1565 154.873 68.7231 155.68C68.2898 156.48 67.6831 157.103 66.9031 157.55C66.1231 157.997 65.2131 158.22 64.1731 158.22ZM64.1731 156.84C65.2265 156.84 66.0731 156.48 66.7131 155.76C67.3531 155.033 67.6731 154.077 67.6731 152.89C67.6731 151.697 67.3498 150.74 66.7031 150.02C66.0631 149.293 65.2165 148.93 64.1631 148.93C63.0898 148.93 62.2231 149.297 61.5631 150.03C60.9031 150.757 60.5731 151.717 60.5731 152.91C60.5731 154.09 60.9031 155.04 61.5631 155.76C62.2231 156.48 63.0931 156.84 64.1731 156.84ZM75.8678 158.22C74.9278 158.22 74.1045 158.003 73.3978 157.57C72.6911 157.137 72.1411 156.527 71.7478 155.74C71.3545 154.953 71.1578 154.037 71.1578 152.99C71.1578 151.957 71.3345 151.03 71.6878 150.21C72.0478 149.383 72.5778 148.73 73.2778 148.25C73.9778 147.763 74.8411 147.52 75.8678 147.52C76.5278 147.52 77.1311 147.62 77.6778 147.82C78.2245 148.02 78.7711 148.357 79.3178 148.83V142.94L80.9678 142.74V154.1C80.9678 154.86 81.0078 155.48 81.0878 155.96C81.1745 156.433 81.2845 156.82 81.4178 157.12C81.5578 157.42 81.7011 157.68 81.8478 157.9L80.2278 158.13C80.0411 157.903 79.8678 157.613 79.7078 157.26C79.5545 156.9 79.4678 156.557 79.4478 156.23C79.1478 156.857 78.6778 157.347 78.0378 157.7C77.3978 158.047 76.6745 158.22 75.8678 158.22ZM76.0478 156.84C76.8478 156.84 77.4878 156.657 77.9678 156.29C78.4478 155.923 78.7945 155.427 79.0078 154.8C79.2211 154.167 79.3278 153.453 79.3278 152.66V150.56C78.9545 150.06 78.4711 149.663 77.8778 149.37C77.2911 149.077 76.7011 148.93 76.1078 148.93C75.3545 148.93 74.7378 149.107 74.2578 149.46C73.7778 149.813 73.4245 150.293 73.1978 150.9C72.9711 151.5 72.8578 152.177 72.8578 152.93C72.8578 153.703 72.9911 154.387 73.2578 154.98C73.5311 155.567 73.9078 156.023 74.3878 156.35C74.8678 156.677 75.4211 156.84 76.0478 156.84ZM94.0559 158.22C92.9959 158.22 92.0693 158 91.2759 157.56C90.4826 157.113 89.8626 156.49 89.4159 155.69C88.9759 154.89 88.7559 153.957 88.7559 152.89C88.7559 151.817 88.9759 150.877 89.4159 150.07C89.8559 149.263 90.4726 148.637 91.2659 148.19C92.0659 147.743 92.9926 147.52 94.0459 147.52C95.0926 147.52 96.0059 147.743 96.7859 148.19C97.5659 148.637 98.1726 149.26 98.6059 150.06C99.0393 150.86 99.2559 151.797 99.2559 152.87C99.2559 153.937 99.0393 154.873 98.6059 155.68C98.1726 156.48 97.5659 157.103 96.7859 157.55C96.0059 157.997 95.0959 158.22 94.0559 158.22ZM94.0559 156.84C95.1093 156.84 95.9559 156.48 96.5959 155.76C97.2359 155.033 97.5559 154.077 97.5559 152.89C97.5559 151.697 97.2326 150.74 96.5859 150.02C95.9459 149.293 95.0993 148.93 94.0459 148.93C92.9726 148.93 92.1059 149.297 91.4459 150.03C90.7859 150.757 90.4559 151.717 90.4559 152.91C90.4559 154.09 90.7859 155.04 91.4459 155.76C92.1059 156.48 92.9759 156.84 94.0559 156.84ZM101.991 158V151.01C101.991 150.43 101.891 149.923 101.691 149.49C101.491 149.057 101.274 148.647 101.041 148.26L102.691 147.74C102.871 148.013 103.034 148.29 103.181 148.57C103.327 148.843 103.427 149.14 103.481 149.46C103.747 148.92 104.137 148.463 104.651 148.09C105.171 147.71 105.747 147.52 106.381 147.52C106.794 147.52 107.107 147.54 107.321 147.58C107.541 147.62 107.741 147.667 107.921 147.72L107.781 149.17C107.694 149.137 107.537 149.09 107.311 149.03C107.084 148.963 106.757 148.93 106.331 148.93C105.604 148.93 104.971 149.203 104.431 149.75C103.897 150.29 103.631 151.147 103.631 152.32V158H101.991ZM118.003 158.22C117.23 158.22 116.537 158.117 115.923 157.91C115.31 157.703 114.817 157.497 114.443 157.29L114.943 155.88C115.33 156.173 115.79 156.407 116.323 156.58C116.863 156.753 117.383 156.84 117.883 156.84C118.437 156.84 118.907 156.73 119.293 156.51C119.687 156.283 119.883 155.913 119.883 155.4C119.883 155.047 119.75 154.75 119.483 154.51C119.223 154.263 118.887 154.043 118.473 153.85C118.06 153.657 117.62 153.46 117.153 153.26C116.693 153.06 116.257 152.833 115.843 152.58C115.43 152.32 115.097 152.007 114.843 151.64C114.59 151.273 114.467 150.823 114.473 150.29C114.487 149.437 114.8 148.763 115.413 148.27C116.027 147.77 116.847 147.52 117.873 147.52C118.527 147.52 119.123 147.6 119.663 147.76C120.21 147.92 120.693 148.11 121.113 148.33L120.673 149.68C120.253 149.453 119.803 149.273 119.323 149.14C118.85 149 118.4 148.93 117.973 148.93C117.393 148.93 116.933 149.047 116.593 149.28C116.26 149.507 116.093 149.827 116.093 150.24C116.093 150.553 116.223 150.823 116.483 151.05C116.75 151.277 117.09 151.487 117.503 151.68C117.917 151.867 118.353 152.06 118.813 152.26C119.28 152.46 119.717 152.693 120.123 152.96C120.537 153.22 120.87 153.533 121.123 153.9C121.377 154.267 121.497 154.717 121.483 155.25C121.463 156.13 121.14 156.847 120.513 157.4C119.893 157.947 119.057 158.22 118.003 158.22ZM133.648 158.19C132.921 158.297 132.368 158.257 131.988 158.07C131.608 157.883 131.348 157.55 131.208 157.07C131.068 156.583 130.998 155.947 130.998 155.16V152.38C130.998 151.167 130.831 150.29 130.498 149.75C130.165 149.203 129.611 148.93 128.838 148.93C128.331 148.93 127.818 149.06 127.298 149.32C126.785 149.58 126.355 149.987 126.008 150.54C125.661 151.087 125.488 151.8 125.488 152.68V158H123.848V142.94L125.488 142.74V149.25C125.828 148.73 126.338 148.313 127.018 148C127.705 147.68 128.428 147.52 129.188 147.52C130.348 147.52 131.215 147.903 131.788 148.67C132.361 149.43 132.648 150.657 132.648 152.35V154.8C132.648 155.307 132.658 155.723 132.678 156.05C132.698 156.377 132.788 156.607 132.948 156.74C133.108 156.867 133.395 156.89 133.808 156.81L133.648 158.19ZM139.615 158.22C138.781 158.22 138.051 158.03 137.425 157.65C136.805 157.263 136.321 156.727 135.975 156.04C135.628 155.347 135.455 154.54 135.455 153.62C135.455 152.4 135.695 151.333 136.175 150.42C136.655 149.507 137.325 148.797 138.185 148.29C139.051 147.777 140.061 147.52 141.215 147.52C141.888 147.52 142.551 147.6 143.205 147.76C143.858 147.913 144.385 148.12 144.785 148.38V155.14C144.785 155.58 144.898 155.937 145.125 156.21C145.358 156.477 145.661 156.61 146.035 156.61L145.695 158.04C145.115 158.04 144.611 157.883 144.185 157.57C143.758 157.257 143.488 156.847 143.375 156.34C143.035 156.907 142.521 157.363 141.835 157.71C141.148 158.05 140.408 158.22 139.615 158.22ZM139.865 156.84C140.525 156.84 141.098 156.693 141.585 156.4C142.078 156.1 142.461 155.697 142.735 155.19C143.008 154.683 143.145 154.11 143.145 153.47V149.28C142.938 149.173 142.655 149.09 142.295 149.03C141.935 148.963 141.565 148.93 141.185 148.93C140.378 148.93 139.671 149.123 139.065 149.51C138.465 149.89 137.995 150.423 137.655 151.11C137.321 151.797 137.155 152.6 137.155 153.52C137.155 154.513 137.401 155.317 137.895 155.93C138.395 156.537 139.051 156.84 139.865 156.84ZM148.455 158V151.01C148.455 150.43 148.355 149.923 148.155 149.49C147.955 149.057 147.739 148.647 147.505 148.26L149.155 147.74C149.335 148.013 149.499 148.29 149.645 148.57C149.792 148.843 149.892 149.14 149.945 149.46C150.212 148.92 150.602 148.463 151.115 148.09C151.635 147.71 152.212 147.52 152.845 147.52C153.259 147.52 153.572 147.54 153.785 147.58C154.005 147.62 154.205 147.667 154.385 147.72L154.245 149.17C154.159 149.137 154.002 149.09 153.775 149.03C153.549 148.963 153.222 148.93 152.795 148.93C152.069 148.93 151.435 149.203 150.895 149.75C150.362 150.29 150.095 151.147 150.095 152.32V158H148.455ZM160.647 158.22C159.634 158.22 158.727 158 157.927 157.56C157.134 157.12 156.507 156.497 156.047 155.69C155.587 154.883 155.357 153.933 155.357 152.84C155.357 151.9 155.56 151.027 155.967 150.22C156.38 149.413 156.974 148.763 157.747 148.27C158.527 147.77 159.464 147.52 160.557 147.52C161.277 147.52 161.9 147.653 162.427 147.92C162.96 148.18 163.37 148.533 163.657 148.98C163.95 149.427 164.097 149.93 164.097 150.49C164.097 151.303 163.8 151.957 163.207 152.45C162.614 152.943 161.804 153.33 160.777 153.61C159.757 153.883 158.6 154.11 157.307 154.29C157.44 154.797 157.677 155.243 158.017 155.63C158.357 156.01 158.757 156.307 159.217 156.52C159.677 156.733 160.154 156.84 160.647 156.84C161.34 156.84 161.977 156.71 162.557 156.45C163.144 156.183 163.604 155.86 163.937 155.48L164.767 156.54C164.267 157.053 163.654 157.463 162.927 157.77C162.207 158.07 161.447 158.22 160.647 158.22ZM157.187 153.1C158.214 152.953 159.124 152.777 159.917 152.57C160.71 152.363 161.334 152.093 161.787 151.76C162.24 151.42 162.467 150.983 162.467 150.45C162.467 149.997 162.3 149.63 161.967 149.35C161.64 149.07 161.174 148.93 160.567 148.93C160.014 148.93 159.474 149.067 158.947 149.34C158.427 149.607 157.997 150.013 157.657 150.56C157.324 151.1 157.157 151.783 157.157 152.61C157.157 152.777 157.167 152.94 157.187 153.1ZM31.06 182.22C30.2267 182.22 29.4967 182.03 28.87 181.65C28.25 181.263 27.7667 180.727 27.42 180.04C27.0733 179.347 26.9 178.54 26.9 177.62C26.9 176.4 27.14 175.333 27.62 174.42C28.1 173.507 28.77 172.797 29.63 172.29C30.4967 171.777 31.5067 171.52 32.66 171.52C33.3333 171.52 33.9967 171.6 34.65 171.76C35.3033 171.913 35.83 172.12 36.23 172.38V179.14C36.23 179.58 36.3433 179.937 36.57 180.21C36.8033 180.477 37.1067 180.61 37.48 180.61L37.14 182.04C36.56 182.04 36.0567 181.883 35.63 181.57C35.2033 181.257 34.9333 180.847 34.82 180.34C34.48 180.907 33.9667 181.363 33.28 181.71C32.5933 182.05 31.8533 182.22 31.06 182.22ZM31.31 180.84C31.97 180.84 32.5433 180.693 33.03 180.4C33.5233 180.1 33.9067 179.697 34.18 179.19C34.4533 178.683 34.59 178.11 34.59 177.47V173.28C34.3833 173.173 34.1 173.09 33.74 173.03C33.38 172.963 33.01 172.93 32.63 172.93C31.8233 172.93 31.1167 173.123 30.51 173.51C29.91 173.89 29.44 174.423 29.1 175.11C28.7667 175.797 28.6 176.6 28.6 177.52C28.6 178.513 28.8467 179.317 29.34 179.93C29.84 180.537 30.4967 180.84 31.31 180.84ZM45.0933 186.57V174.82C45.0933 174.34 45.0033 173.907 44.8233 173.52C44.6499 173.127 44.4366 172.793 44.1833 172.52L45.5733 171.74C46.1266 172.147 46.4466 172.767 46.5333 173.6C46.8999 172.947 47.4333 172.437 48.1333 172.07C48.8333 171.703 49.5899 171.52 50.4033 171.52C51.8366 171.52 52.9566 171.98 53.7633 172.9C54.5699 173.82 54.9733 175.097 54.9733 176.73C54.9733 178.457 54.5633 179.803 53.7433 180.77C52.9233 181.737 51.7766 182.22 50.3033 182.22C49.5966 182.22 48.9199 182.117 48.2733 181.91C47.6266 181.703 47.1133 181.417 46.7333 181.05V186.39L45.0933 186.57ZM50.0633 180.84C51.0766 180.84 51.8633 180.483 52.4233 179.77C52.9899 179.057 53.2733 178.063 53.2733 176.79C53.2733 175.577 53.0133 174.63 52.4933 173.95C51.9733 173.27 51.2466 172.93 50.3133 172.93C49.2266 172.93 48.3566 173.347 47.7033 174.18C47.0499 175.013 46.7233 176.173 46.7233 177.66V179.32C47.0699 179.8 47.5466 180.173 48.1533 180.44C48.7599 180.707 49.3966 180.84 50.0633 180.84ZM67.2223 182.19C66.4957 182.297 65.9423 182.257 65.5623 182.07C65.1823 181.883 64.9223 181.55 64.7823 181.07C64.6423 180.583 64.5723 179.947 64.5723 179.16V176.38C64.5723 175.167 64.4057 174.29 64.0723 173.75C63.739 173.203 63.1857 172.93 62.4123 172.93C61.9057 172.93 61.3923 173.06 60.8723 173.32C60.359 173.58 59.929 173.987 59.5823 174.54C59.2357 175.087 59.0623 175.8 59.0623 176.68V182H57.4223V166.94L59.0623 166.74V173.25C59.4023 172.73 59.9123 172.313 60.5923 172C61.279 171.68 62.0023 171.52 62.7623 171.52C63.9223 171.52 64.789 171.903 65.3623 172.67C65.9357 173.43 66.2223 174.657 66.2223 176.35V178.8C66.2223 179.307 66.2323 179.723 66.2523 180.05C66.2723 180.377 66.3623 180.607 66.5223 180.74C66.6823 180.867 66.969 180.89 67.3823 180.81L67.2223 182.19ZM74.3489 182.22C73.2889 182.22 72.3622 182 71.5689 181.56C70.7756 181.113 70.1556 180.49 69.7089 179.69C69.2689 178.89 69.0489 177.957 69.0489 176.89C69.0489 175.817 69.2689 174.877 69.7089 174.07C70.1489 173.263 70.7656 172.637 71.5589 172.19C72.3589 171.743 73.2856 171.52 74.3389 171.52C75.3856 171.52 76.2989 171.743 77.0789 172.19C77.8589 172.637 78.4656 173.26 78.8989 174.06C79.3322 174.86 79.5489 175.797 79.5489 176.87C79.5489 177.937 79.3322 178.873 78.8989 179.68C78.4656 180.48 77.8589 181.103 77.0789 181.55C76.2989 181.997 75.3889 182.22 74.3489 182.22ZM74.3489 180.84C75.4022 180.84 76.2489 180.48 76.8889 179.76C77.5289 179.033 77.8489 178.077 77.8489 176.89C77.8489 175.697 77.5256 174.74 76.8789 174.02C76.2389 173.293 75.3922 172.93 74.3389 172.93C73.2656 172.93 72.3989 173.297 71.7389 174.03C71.0789 174.757 70.7489 175.717 70.7489 176.91C70.7489 178.09 71.0789 179.04 71.7389 179.76C72.3989 180.48 73.2689 180.84 74.3489 180.84ZM85.975 182.08C84.815 182.08 83.9717 181.837 83.445 181.35C82.9183 180.863 82.655 180.08 82.655 179V172.81H80.625V171.74H82.705V169.02L84.295 168.55V171.74H87.665V172.81H84.295V179.02C84.295 179.647 84.445 180.103 84.745 180.39C85.045 180.67 85.5183 180.81 86.165 180.81C86.3183 180.81 86.515 180.79 86.755 180.75C87.0017 180.71 87.2483 180.66 87.495 180.6C87.7417 180.54 87.9417 180.48 88.095 180.42L88.285 181.65C87.9717 181.757 87.5783 181.857 87.105 181.95C86.6383 182.037 86.2617 182.08 85.975 182.08ZM94.7395 182.22C93.6795 182.22 92.7529 182 91.9595 181.56C91.1662 181.113 90.5462 180.49 90.0995 179.69C89.6595 178.89 89.4395 177.957 89.4395 176.89C89.4395 175.817 89.6595 174.877 90.0995 174.07C90.5395 173.263 91.1562 172.637 91.9495 172.19C92.7495 171.743 93.6762 171.52 94.7295 171.52C95.7762 171.52 96.6895 171.743 97.4695 172.19C98.2495 172.637 98.8562 173.26 99.2895 174.06C99.7229 174.86 99.9395 175.797 99.9395 176.87C99.9395 177.937 99.7229 178.873 99.2895 179.68C98.8562 180.48 98.2495 181.103 97.4695 181.55C96.6895 181.997 95.7795 182.22 94.7395 182.22ZM94.7395 180.84C95.7929 180.84 96.6395 180.48 97.2795 179.76C97.9195 179.033 98.2395 178.077 98.2395 176.89C98.2395 175.697 97.9162 174.74 97.2695 174.02C96.6295 173.293 95.7829 172.93 94.7295 172.93C93.6562 172.93 92.7895 173.297 92.1295 174.03C91.4695 174.757 91.1395 175.717 91.1395 176.91C91.1395 178.09 91.4695 179.04 92.1295 179.76C92.7895 180.48 93.6595 180.84 94.7395 180.84ZM110.477 182.05C110.003 182.05 109.563 181.96 109.157 181.78C108.75 181.6 108.423 181.303 108.177 180.89C107.93 180.477 107.807 179.92 107.807 179.22V171.74H109.457V179.17C109.457 179.87 109.58 180.32 109.827 180.52C110.073 180.72 110.367 180.82 110.707 180.82C110.86 180.82 111.06 180.8 111.307 180.76C111.553 180.713 111.763 180.657 111.937 180.59L112.137 181.7C111.89 181.8 111.61 181.883 111.297 181.95C110.983 182.017 110.71 182.05 110.477 182.05ZM107.777 169.62V167.83H109.537V169.62H107.777ZM123.713 182.19C122.986 182.297 122.433 182.257 122.053 182.07C121.673 181.883 121.413 181.55 121.273 181.07C121.133 180.583 121.063 179.947 121.063 179.16V176.38C121.063 175.167 120.896 174.29 120.563 173.75C120.229 173.203 119.676 172.93 118.903 172.93C118.423 172.93 117.933 173.05 117.433 173.29C116.939 173.523 116.516 173.893 116.163 174.4C115.816 174.9 115.616 175.55 115.563 176.35V182H113.923V175.01C113.923 174.43 113.823 173.923 113.623 173.49C113.423 173.057 113.206 172.647 112.973 172.26L114.623 171.74C114.803 172.013 114.966 172.293 115.113 172.58C115.266 172.86 115.366 173.163 115.413 173.49C115.713 172.897 116.223 172.42 116.943 172.06C117.669 171.7 118.439 171.52 119.253 171.52C120.413 171.52 121.279 171.903 121.853 172.67C122.426 173.43 122.713 174.657 122.713 176.35V178.8C122.713 179.307 122.723 179.723 122.743 180.05C122.763 180.377 122.853 180.607 123.013 180.74C123.173 180.867 123.459 180.89 123.873 180.81L123.713 182.19ZM30.64 206.22C29.8667 206.22 29.1733 206.117 28.56 205.91C27.9467 205.703 27.4533 205.497 27.08 205.29L27.58 203.88C27.9667 204.173 28.4267 204.407 28.96 204.58C29.5 204.753 30.02 204.84 30.52 204.84C31.0733 204.84 31.5433 204.73 31.93 204.51C32.3233 204.283 32.52 203.913 32.52 203.4C32.52 203.047 32.3867 202.75 32.12 202.51C31.86 202.263 31.5233 202.043 31.11 201.85C30.6967 201.657 30.2567 201.46 29.79 201.26C29.33 201.06 28.8933 200.833 28.48 200.58C28.0667 200.32 27.7333 200.007 27.48 199.64C27.2267 199.273 27.1033 198.823 27.11 198.29C27.1233 197.437 27.4367 196.763 28.05 196.27C28.6633 195.77 29.4833 195.52 30.51 195.52C31.1633 195.52 31.76 195.6 32.3 195.76C32.8467 195.92 33.33 196.11 33.75 196.33L33.31 197.68C32.89 197.453 32.44 197.273 31.96 197.14C31.4867 197 31.0367 196.93 30.61 196.93C30.03 196.93 29.57 197.047 29.23 197.28C28.8967 197.507 28.73 197.827 28.73 198.24C28.73 198.553 28.86 198.823 29.12 199.05C29.3867 199.277 29.7267 199.487 30.14 199.68C30.5533 199.867 30.99 200.06 31.45 200.26C31.9167 200.46 32.3533 200.693 32.76 200.96C33.1733 201.22 33.5067 201.533 33.76 201.9C34.0133 202.267 34.1333 202.717 34.12 203.25C34.1 204.13 33.7767 204.847 33.15 205.4C32.53 205.947 31.6933 206.22 30.64 206.22ZM41.1548 206.22C40.1415 206.22 39.2348 206 38.4348 205.56C37.6415 205.12 37.0148 204.497 36.5548 203.69C36.0948 202.883 35.8648 201.933 35.8648 200.84C35.8648 199.9 36.0682 199.027 36.4748 198.22C36.8882 197.413 37.4815 196.763 38.2548 196.27C39.0348 195.77 39.9715 195.52 41.0648 195.52C41.7848 195.52 42.4082 195.653 42.9348 195.92C43.4682 196.18 43.8782 196.533 44.1648 196.98C44.4582 197.427 44.6048 197.93 44.6048 198.49C44.6048 199.303 44.3082 199.957 43.7148 200.45C43.1215 200.943 42.3115 201.33 41.2848 201.61C40.2648 201.883 39.1082 202.11 37.8148 202.29C37.9482 202.797 38.1848 203.243 38.5248 203.63C38.8648 204.01 39.2648 204.307 39.7248 204.52C40.1848 204.733 40.6615 204.84 41.1548 204.84C41.8482 204.84 42.4848 204.71 43.0648 204.45C43.6515 204.183 44.1115 203.86 44.4448 203.48L45.2748 204.54C44.7748 205.053 44.1615 205.463 43.4348 205.77C42.7148 206.07 41.9548 206.22 41.1548 206.22ZM37.6948 201.1C38.7215 200.953 39.6315 200.777 40.4248 200.57C41.2182 200.363 41.8415 200.093 42.2948 199.76C42.7482 199.42 42.9748 198.983 42.9748 198.45C42.9748 197.997 42.8082 197.63 42.4748 197.35C42.1482 197.07 41.6815 196.93 41.0748 196.93C40.5215 196.93 39.9815 197.067 39.4548 197.34C38.9348 197.607 38.5048 198.013 38.1648 198.56C37.8315 199.1 37.6648 199.783 37.6648 200.61C37.6648 200.777 37.6748 200.94 37.6948 201.1ZM52.008 206.23C51.0746 206.23 50.1913 206.033 49.358 205.64C48.5313 205.24 47.858 204.65 47.338 203.87C46.8246 203.09 46.568 202.123 46.568 200.97C46.568 200.097 46.7213 199.323 47.028 198.65C47.3413 197.97 47.758 197.397 48.278 196.93C48.8046 196.463 49.3946 196.11 50.048 195.87C50.708 195.623 51.3813 195.5 52.068 195.5C52.6746 195.5 53.2746 195.6 53.868 195.8C54.468 196 55.0113 196.333 55.498 196.8L54.898 198.01C54.5246 197.65 54.1046 197.383 53.638 197.21C53.1713 197.03 52.7013 196.94 52.228 196.94C51.5613 196.94 50.9246 197.093 50.318 197.4C49.7113 197.7 49.218 198.147 48.838 198.74C48.458 199.333 48.268 200.06 48.268 200.92C48.268 201.807 48.4546 202.54 48.828 203.12C49.2013 203.693 49.6846 204.12 50.278 204.4C50.878 204.673 51.5113 204.81 52.178 204.81C52.718 204.81 53.258 204.71 53.798 204.51C54.338 204.303 54.8146 204.007 55.228 203.62L55.798 204.88C55.2446 205.327 54.638 205.663 53.978 205.89C53.318 206.117 52.6613 206.23 52.008 206.23ZM61.9856 206.22C60.9256 206.22 59.999 206 59.2056 205.56C58.4123 205.113 57.7923 204.49 57.3456 203.69C56.9056 202.89 56.6856 201.957 56.6856 200.89C56.6856 199.817 56.9056 198.877 57.3456 198.07C57.7856 197.263 58.4023 196.637 59.1956 196.19C59.9956 195.743 60.9223 195.52 61.9756 195.52C63.0223 195.52 63.9356 195.743 64.7156 196.19C65.4956 196.637 66.1023 197.26 66.5356 198.06C66.969 198.86 67.1856 199.797 67.1856 200.87C67.1856 201.937 66.969 202.873 66.5356 203.68C66.1023 204.48 65.4956 205.103 64.7156 205.55C63.9356 205.997 63.0256 206.22 61.9856 206.22ZM61.9856 204.84C63.039 204.84 63.8856 204.48 64.5256 203.76C65.1656 203.033 65.4856 202.077 65.4856 200.89C65.4856 199.697 65.1623 198.74 64.5156 198.02C63.8756 197.293 63.029 196.93 61.9756 196.93C60.9023 196.93 60.0356 197.297 59.3756 198.03C58.7156 198.757 58.3856 199.717 58.3856 200.91C58.3856 202.09 58.7156 203.04 59.3756 203.76C60.0356 204.48 60.9056 204.84 61.9856 204.84ZM79.6503 206.19C78.9236 206.297 78.3703 206.257 77.9903 206.07C77.6103 205.883 77.3503 205.55 77.2103 205.07C77.0703 204.583 77.0003 203.947 77.0003 203.16V200.38C77.0003 199.167 76.8336 198.29 76.5003 197.75C76.167 197.203 75.6136 196.93 74.8403 196.93C74.3603 196.93 73.8703 197.05 73.3703 197.29C72.877 197.523 72.4536 197.893 72.1003 198.4C71.7536 198.9 71.5536 199.55 71.5003 200.35V206H69.8603V199.01C69.8603 198.43 69.7603 197.923 69.5603 197.49C69.3603 197.057 69.1436 196.647 68.9103 196.26L70.5603 195.74C70.7403 196.013 70.9036 196.293 71.0503 196.58C71.2036 196.86 71.3036 197.163 71.3503 197.49C71.6503 196.897 72.1603 196.42 72.8803 196.06C73.607 195.7 74.377 195.52 75.1903 195.52C76.3503 195.52 77.217 195.903 77.7903 196.67C78.3636 197.43 78.6503 198.657 78.6503 200.35V202.8C78.6503 203.307 78.6603 203.723 78.6803 204.05C78.7003 204.377 78.7903 204.607 78.9503 204.74C79.1103 204.867 79.397 204.89 79.8103 204.81L79.6503 206.19ZM86.1608 206.22C85.2208 206.22 84.3974 206.003 83.6908 205.57C82.9841 205.137 82.4341 204.527 82.0408 203.74C81.6474 202.953 81.4508 202.037 81.4508 200.99C81.4508 199.957 81.6274 199.03 81.9808 198.21C82.3408 197.383 82.8708 196.73 83.5708 196.25C84.2708 195.763 85.1341 195.52 86.1608 195.52C86.8208 195.52 87.4241 195.62 87.9708 195.82C88.5174 196.02 89.0641 196.357 89.6108 196.83V190.94L91.2608 190.74V202.1C91.2608 202.86 91.3008 203.48 91.3808 203.96C91.4674 204.433 91.5774 204.82 91.7108 205.12C91.8508 205.42 91.9941 205.68 92.1408 205.9L90.5208 206.13C90.3341 205.903 90.1608 205.613 90.0008 205.26C89.8474 204.9 89.7608 204.557 89.7408 204.23C89.4408 204.857 88.9708 205.347 88.3308 205.7C87.6908 206.047 86.9674 206.22 86.1608 206.22ZM86.3408 204.84C87.1408 204.84 87.7808 204.657 88.2608 204.29C88.7408 203.923 89.0874 203.427 89.3008 202.8C89.5141 202.167 89.6208 201.453 89.6208 200.66V198.56C89.2474 198.06 88.7641 197.663 88.1708 197.37C87.5841 197.077 86.9941 196.93 86.4008 196.93C85.6474 196.93 85.0308 197.107 84.5508 197.46C84.0708 197.813 83.7174 198.293 83.4908 198.9C83.2641 199.5 83.1508 200.177 83.1508 200.93C83.1508 201.703 83.2841 202.387 83.5508 202.98C83.8241 203.567 84.2008 204.023 84.6808 204.35C85.1608 204.677 85.7141 204.84 86.3408 204.84ZM97.4564 206.22C96.6831 206.22 95.9897 206.117 95.3764 205.91C94.7631 205.703 94.2697 205.497 93.8964 205.29L94.3964 203.88C94.7831 204.173 95.2431 204.407 95.7764 204.58C96.3164 204.753 96.8364 204.84 97.3364 204.84C97.8897 204.84 98.3597 204.73 98.7464 204.51C99.1397 204.283 99.3364 203.913 99.3364 203.4C99.3364 203.047 99.2031 202.75 98.9364 202.51C98.6764 202.263 98.3397 202.043 97.9264 201.85C97.5131 201.657 97.0731 201.46 96.6064 201.26C96.1464 201.06 95.7097 200.833 95.2964 200.58C94.8831 200.32 94.5497 200.007 94.2964 199.64C94.0431 199.273 93.9197 198.823 93.9264 198.29C93.9397 197.437 94.2531 196.763 94.8664 196.27C95.4797 195.77 96.2997 195.52 97.3264 195.52C97.9797 195.52 98.5764 195.6 99.1164 195.76C99.6631 195.92 100.146 196.11 100.566 196.33L100.126 197.68C99.7064 197.453 99.2564 197.273 98.7764 197.14C98.3031 197 97.8531 196.93 97.4264 196.93C96.8464 196.93 96.3864 197.047 96.0464 197.28C95.7131 197.507 95.5464 197.827 95.5464 198.24C95.5464 198.553 95.6764 198.823 95.9364 199.05C96.2031 199.277 96.5431 199.487 96.9564 199.68C97.3697 199.867 97.8064 200.06 98.2664 200.26C98.7331 200.46 99.1697 200.693 99.5764 200.96C99.9897 201.22 100.323 201.533 100.576 201.9C100.83 202.267 100.95 202.717 100.936 203.25C100.916 204.13 100.593 204.847 99.9664 205.4C99.3464 205.947 98.5097 206.22 97.4564 206.22ZM104.233 206C103.886 206 103.619 205.897 103.433 205.69C103.253 205.477 103.163 205.227 103.163 204.94C103.163 204.607 103.276 204.35 103.503 204.17C103.729 203.983 103.976 203.89 104.243 203.89C104.589 203.89 104.853 203.997 105.033 204.21C105.219 204.417 105.313 204.663 105.313 204.95C105.313 205.277 105.199 205.533 104.973 205.72C104.753 205.907 104.506 206 104.233 206Z" fill="white"/>
</svg>
