<svg width="1135" height="180" viewBox="0 0 1135 180" fill="none" xmlns="http://www.w3.org/2000/svg">
<rect x="13" y="13" width="1109" height="216.385" fill="#FFC700"/>
<rect x="13" y="13" width="1109" height="216.385" stroke="black" stroke-width="4"/>
<rect x="1111" y="2" width="22" height="22" fill="white" stroke="black" stroke-width="4"/>
<rect x="2" y="2" width="22" height="22" fill="white" stroke="black" stroke-width="4"/>
<path d="M40.4992 63.75H92.2492L98.6392 70.14V95.34H86.4892L90.5392 99.39V110.19H78.3892V139.44H46.8892L40.4992 133.05V63.75ZM44.5492 67.8V129H67.9492V99.75H80.0992V97.05H67.9492V84.9H88.1992V67.8H44.5492ZM86.8211 78.15H117.421L120.841 81.57C123.811 79.14 127.681 77.52 132.721 77.52H136.771L143.161 83.91V114.33L137.491 111.9C136.321 111.45 135.061 111.18 133.891 111.18C124.441 111.18 123.811 128.91 123.811 135.39V139.44H93.2111L86.8211 133.05V78.15ZM90.8711 82.2V129H113.371C113.371 106.05 121.021 100.74 127.501 100.74C129.481 100.74 131.281 101.19 132.721 101.82V81.57C117.421 81.57 115.531 99.3 113.821 113.16H113.371V82.2H90.8711ZM146.464 59.52C149.794 59.52 155.914 60.42 159.514 64.11L165.904 70.5C167.794 72.3 169.054 74.91 169.054 78.42C169.054 80.67 168.514 82.47 167.704 84.09L168.154 84.54V139.44H137.554L131.164 133.05V78.15H131.884C130.894 76.53 130.264 74.46 130.264 72.03C130.264 63.21 138.634 59.52 146.464 59.52ZM134.314 72.03C134.314 77.16 139.174 80.67 146.464 80.67C153.754 80.67 158.614 77.16 158.614 72.03C158.614 66.9 153.754 63.57 146.464 63.57C139.174 63.57 134.314 66.9 134.314 72.03ZM135.214 82.2V129H157.714V82.2H135.214ZM214.151 86.34L220.541 92.64C224.411 96.51 226.931 101.64 227.201 108.48L228.821 110.19L228.551 114.51C227.021 131.88 212.531 140.07 196.151 140.07C186.791 140.07 177.251 137.19 170.951 130.89L164.651 124.5C160.151 120 157.271 113.79 157.271 105.6C157.271 87.06 172.391 77.52 189.671 77.52C198.311 77.52 207.941 80.04 214.151 86.34ZM218.111 107.85H195.161C194.801 111.27 192.551 112.8 189.941 112.8C186.341 112.8 184.001 109.83 184.001 105.42C184.001 104.97 184.001 104.52 184.091 104.07H216.761C217.211 90.21 206.231 81.57 189.671 81.57C172.391 81.57 161.321 91.11 161.321 105.6C161.321 120.09 172.481 129.63 189.761 129.63C205.871 129.63 217.031 121.44 218.111 107.85ZM194.441 101.82L184.271 103.17C184.991 100.29 186.971 98.4 189.941 98.4C192.461 98.4 194.351 99.75 194.441 101.82ZM216.797 78.15H247.397L250.637 81.39C253.517 79.05 257.117 77.52 261.797 77.52C267.107 77.52 270.797 79.23 273.497 81.93L279.887 88.32C284.657 93.09 285.917 100.92 285.917 106.86V139.44H255.317L253.607 137.73L253.427 139.44H223.187L216.797 133.05V78.15ZM220.847 82.2V129H243.347C244.967 111.45 247.307 97.32 250.997 97.32C252.347 97.32 252.977 99.48 252.977 103.98V129H275.477V100.47C275.477 85.8 268.727 81.57 261.797 81.57C247.397 81.57 245.507 99.3 243.797 113.43H243.347V82.2H220.847ZM307.337 79.86V61.95H337.937L344.327 68.34V139.44H317.867L312.737 134.31C312.467 134.67 312.107 135.03 311.747 135.3C309.047 138.09 305.357 140.07 300.497 140.07C295.367 140.07 291.407 138.09 288.527 135.21L282.137 128.82C276.017 122.7 274.127 112.08 274.127 105.87C274.127 91.74 281.867 77.52 297.437 77.52C300.947 77.52 304.277 78.33 307.337 79.86ZM333.887 129V66H311.387V87.87H310.937C308.237 84.54 303.737 81.57 297.437 81.57C286.367 81.57 278.177 91.2 278.177 105.87C278.177 118.02 283.757 129.63 294.107 129.63C306.257 129.63 309.047 113.52 310.937 104.97H311.387L314.987 129H333.887ZM300.677 104.07C300.677 94.08 304.187 88.77 307.247 88.77C308.867 88.77 311.387 90.3 311.387 95.52C311.387 102 307.337 113.88 303.917 113.88C301.847 113.88 300.677 109.83 300.677 104.07ZM332.511 61.95H363.111L369.501 68.34V139.44H338.901L332.511 133.05V61.95ZM336.561 66V129H359.061V66H336.561ZM363.342 128.91C358.842 124.05 357.672 116.49 357.672 110.73V78.15H388.272L389.982 79.86L390.162 78.15H420.402L426.792 84.54V128.28C426.792 147.99 412.572 158.07 393.762 158.07C385.842 158.07 375.312 156.18 369.552 150.15L363.162 143.85C360.192 140.79 358.122 136.74 358.122 131.34V129.99H364.242L363.342 128.91ZM416.352 121.89V82.2H393.852C392.232 99.75 389.892 113.88 386.202 113.88C384.852 113.88 384.222 111.72 384.222 107.22V82.2H361.722V110.73C361.722 125.4 368.472 129.63 375.402 129.63C389.802 129.63 391.692 111.9 393.402 97.77H393.852V124.5C393.852 131.43 392.232 134.13 388.542 134.13C386.292 134.13 384.762 133.14 384.672 130.98H362.172C361.902 143.04 374.682 147.63 387.372 147.63C405.372 147.63 416.352 138.18 416.352 121.89ZM441.419 103.08L439.889 101.55L439.799 96.78C439.799 81.84 456.899 77.52 469.049 77.52C478.679 77.52 487.679 79.77 493.529 85.62L499.829 92.01C504.149 96.24 506.759 102.45 506.759 111.09V139.44H480.659L476.069 134.76C472.469 138 467.789 140.07 461.939 140.07C456.449 140.07 451.589 138.09 448.079 134.58L441.689 128.19C438.539 125.04 436.559 120.54 436.559 115.23C436.559 110.01 438.449 106.05 441.419 103.08ZM496.319 129V104.7C496.319 87.78 485.069 81.57 469.049 81.57C455.099 81.57 443.219 86.79 443.849 97.5H466.799C466.619 95.61 467.789 94.17 470.129 94.17C472.379 94.17 473.819 95.52 473.819 100.56V104.97H473.369C470.849 102.63 466.169 100.65 459.419 100.65C448.439 100.65 440.609 106.32 440.609 115.23C440.609 122.61 445.829 129.63 455.549 129.63C466.889 129.63 471.479 120.54 473.369 115.23H473.819L477.419 129H496.319ZM463.109 113.88C463.109 107.94 466.079 106.05 469.229 106.05C471.659 106.05 473.819 107.22 473.819 109.83C473.819 113.43 469.769 119.37 466.349 119.37C464.279 119.37 463.109 117.48 463.109 113.88ZM494.943 78.15H525.543L528.783 81.39C531.663 79.05 535.263 77.52 539.943 77.52C545.253 77.52 548.943 79.23 551.643 81.93L558.033 88.32C562.803 93.09 564.063 100.92 564.063 106.86V139.44H533.463L531.753 137.73L531.573 139.44H501.333L494.943 133.05V78.15ZM498.993 82.2V129H521.493C523.113 111.45 525.453 97.32 529.143 97.32C530.493 97.32 531.123 99.48 531.123 103.98V129H553.623V100.47C553.623 85.8 546.873 81.57 539.943 81.57C525.543 81.57 523.653 99.3 521.943 113.43H521.493V82.2H498.993ZM585.482 79.86V61.95H616.082L622.472 68.34V139.44H596.012L590.882 134.31C590.612 134.67 590.252 135.03 589.892 135.3C587.192 138.09 583.502 140.07 578.642 140.07C573.512 140.07 569.552 138.09 566.672 135.21L560.282 128.82C554.162 122.7 552.272 112.08 552.272 105.87C552.272 91.74 560.012 77.52 575.582 77.52C579.092 77.52 582.422 78.33 585.482 79.86ZM612.032 129V66H589.532V87.87H589.082C586.382 84.54 581.882 81.57 575.582 81.57C564.512 81.57 556.322 91.2 556.322 105.87C556.322 118.02 561.902 129.63 572.252 129.63C584.402 129.63 587.192 113.52 589.082 104.97H589.532L593.132 129H612.032ZM578.822 104.07C578.822 94.08 582.332 88.77 585.392 88.77C587.012 88.77 589.532 90.3 589.532 95.52C589.532 102 585.482 113.88 582.062 113.88C579.992 113.88 578.822 109.83 578.822 104.07ZM631.335 104.88L630.975 100.47H642.585L637.455 95.34C634.845 92.73 633.135 89.13 633.135 84.45C633.135 81.12 634.035 77.88 635.745 75C641.505 65.73 652.935 63.12 663.285 63.12C672.105 63.12 683.175 64.92 690.555 72.3L696.855 78.6C701.625 83.37 704.145 89.94 704.145 96.69L704.055 101.82H696.045L702.165 107.85C704.955 110.73 706.755 114.51 706.755 119.55C706.755 135.93 688.755 140.07 675.435 140.07C664.635 140.07 653.295 137.1 645.825 129.63L639.525 123.33C635.025 118.83 632.055 112.8 631.335 104.88ZM658.785 104.52H635.385C636.465 117.21 645.915 129.63 669.045 129.63C686.955 129.63 696.315 123.33 696.315 113.16C696.315 92.1 658.245 102.27 658.245 89.85C658.245 86.7 660.855 85.44 664.095 85.44C668.055 85.44 670.305 87.51 670.305 91.38H693.705C694.245 79.59 686.325 67.17 663.285 67.17C645.285 67.17 637.185 75.45 637.185 84.45C637.185 104.34 674.895 94.62 674.895 105.33C674.895 108.66 671.115 110.46 666.975 110.46C662.475 110.46 658.515 107.94 658.785 104.52ZM750.343 81.75L754.843 86.25C757.993 80.67 763.483 77.52 769.873 77.52C774.913 77.52 778.603 79.23 781.123 81.75L787.513 88.14C792.373 93.09 793.543 101.19 793.543 106.86V139.44H762.943L762.403 138.9V139.44H732.163L731.623 138.9V139.44H701.383L694.993 133.05V78.15H725.593L728.473 81.03C731.173 78.87 734.683 77.52 739.093 77.52C744.133 77.52 747.823 79.23 750.343 81.75ZM699.043 82.2V129H721.543C723.163 111.45 724.873 97.32 728.293 97.32C729.643 97.32 729.823 99.48 729.823 103.98V129H752.323C753.943 111.45 755.653 97.32 759.073 97.32C760.423 97.32 760.603 99.48 760.603 103.98V129H783.103V100.47C783.103 85.8 776.533 81.57 769.873 81.57C756.013 81.57 754.483 97.77 752.773 111.9H752.323V100.47C752.323 85.8 745.753 81.57 739.093 81.57C725.233 81.57 723.703 97.77 721.993 111.9H721.543V82.2H699.043ZM814.615 77.52C823.975 77.52 833.785 80.4 840.265 86.88L846.565 93.27C851.065 97.68 853.945 103.89 853.945 111.99C853.945 130.62 838.195 140.07 821.005 140.07C811.645 140.07 801.925 137.1 795.445 130.71L789.145 124.32C784.645 119.82 781.765 113.7 781.765 105.6C781.765 86.97 797.335 77.52 814.615 77.52ZM785.815 105.6C785.815 120.09 797.335 129.63 814.615 129.63C831.985 129.63 843.505 120.09 843.505 105.6C843.505 91.11 831.985 81.57 814.615 81.57C797.335 81.57 785.815 91.11 785.815 105.6ZM808.495 105.6C808.495 101.28 810.835 98.4 814.615 98.4C818.485 98.4 820.825 101.28 820.825 105.6C820.825 109.92 818.485 112.8 814.615 112.8C810.835 112.8 808.495 109.92 808.495 105.6ZM875.021 77.52C884.381 77.52 894.191 80.4 900.671 86.88L906.971 93.27C911.471 97.68 914.351 103.89 914.351 111.99C914.351 130.62 898.601 140.07 881.411 140.07C872.051 140.07 862.331 137.1 855.851 130.71L849.551 124.32C845.051 119.82 842.171 113.7 842.171 105.6C842.171 86.97 857.741 77.52 875.021 77.52ZM846.221 105.6C846.221 120.09 857.741 129.63 875.021 129.63C892.391 129.63 903.911 120.09 903.911 105.6C903.911 91.11 892.391 81.57 875.021 81.57C857.741 81.57 846.221 91.11 846.221 105.6ZM868.901 105.6C868.901 101.28 871.241 98.4 875.021 98.4C878.891 98.4 881.231 101.28 881.231 105.6C881.231 109.92 878.891 112.8 875.021 112.8C871.241 112.8 868.901 109.92 868.901 105.6ZM905.276 106.5V105.6L902.576 102.9V79.14L905.456 78.33C907.706 77.7 908.876 75.99 908.876 72.39V68.34H935.876L942.266 74.73V78.78C942.266 79.14 942.266 79.59 942.176 79.95L946.766 84.54V109.29H942.266V109.65H959.906L966.206 116.04L965.756 120.45C964.406 134.22 953.156 140.07 940.196 140.07C931.286 140.07 923.816 137.55 918.776 132.42L912.386 126.12C907.886 121.53 905.276 115.05 905.276 106.5ZM931.826 72.39H912.926C912.926 77.07 911.216 80.85 906.626 82.2V98.85H909.326V106.5C909.326 123.42 920.486 129.63 933.806 129.63C945.776 129.63 954.326 124.41 955.406 113.7H937.676C937.496 115.68 936.416 117.21 934.616 117.21C932.906 117.21 931.826 115.86 931.826 112.89V98.85H936.326V82.2H924.176V81.75C930.116 81.3 931.826 77.34 931.826 72.39ZM953.138 61.95H983.738L990.128 68.34V79.32C992.378 78.24 994.988 77.52 998.138 77.52C1003.45 77.52 1007.14 79.23 1009.84 81.93L1016.23 88.32C1021 93.09 1022.26 100.92 1022.26 106.86V139.44H991.658L989.948 137.73L989.768 139.44H959.528L953.138 133.05V61.95ZM957.188 66V129H979.688C981.308 111.45 983.648 97.32 987.338 97.32C988.688 97.32 989.318 99.48 989.318 103.98V129H1011.82V100.47C1011.82 85.8 1005.07 81.57 998.138 81.57C983.738 81.57 981.848 99.3 980.138 113.43H979.688V66H957.188ZM1026.67 59.52C1030 59.52 1036.12 60.42 1039.72 64.11L1046.11 70.5C1048 72.3 1049.26 74.91 1049.26 78.42C1049.26 80.67 1048.72 82.47 1047.91 84.09L1048.36 84.54V139.44H1017.76L1011.37 133.05V78.15H1012.09C1011.1 76.53 1010.47 74.46 1010.47 72.03C1010.47 63.21 1018.84 59.52 1026.67 59.52ZM1014.52 72.03C1014.52 77.16 1019.38 80.67 1026.67 80.67C1033.96 80.67 1038.82 77.16 1038.82 72.03C1038.82 66.9 1033.96 63.57 1026.67 63.57C1019.38 63.57 1014.52 66.9 1014.52 72.03ZM1015.42 82.2V129H1037.92V82.2H1015.42ZM1094.35 86.34L1100.74 92.64C1104.61 96.51 1107.13 101.64 1107.4 108.48L1109.02 110.19L1108.75 114.51C1107.22 131.88 1092.73 140.07 1076.35 140.07C1066.99 140.07 1057.45 137.19 1051.15 130.89L1044.85 124.5C1040.35 120 1037.47 113.79 1037.47 105.6C1037.47 87.06 1052.59 77.52 1069.87 77.52C1078.51 77.52 1088.14 80.04 1094.35 86.34ZM1098.31 107.85H1075.36C1075 111.27 1072.75 112.8 1070.14 112.8C1066.54 112.8 1064.2 109.83 1064.2 105.42C1064.2 104.97 1064.2 104.52 1064.29 104.07H1096.96C1097.41 90.21 1086.43 81.57 1069.87 81.57C1052.59 81.57 1041.52 91.11 1041.52 105.6C1041.52 120.09 1052.68 129.63 1069.96 129.63C1086.07 129.63 1097.23 121.44 1098.31 107.85ZM1074.64 101.82L1064.47 103.17C1065.19 100.29 1067.17 98.4 1070.14 98.4C1072.66 98.4 1074.55 99.75 1074.64 101.82Z" fill="black"/>
</svg>
