<svg width="1320" height="766" viewBox="0 0 1320 766" fill="none" xmlns="http://www.w3.org/2000/svg">
<path d="M533.4 640.4V620.5H567.4L574.5 627.6V706.6H545.1L539.4 700.9C539.1 701.3 538.7 701.7 538.3 702C535.3 705.1 531.2 707.3 525.8 707.3C520.1 707.3 515.7 705.1 512.5 701.9L505.4 694.8C498.6 688 496.5 676.2 496.5 669.3C496.5 653.6 505.1 637.8 522.4 637.8C526.3 637.8 530 638.7 533.4 640.4ZM562.9 695V625H537.9V649.3H537.4C534.4 645.6 529.4 642.3 522.4 642.3C510.1 642.3 501 653 501 669.3C501 682.8 507.2 695.7 518.7 695.7C532.2 695.7 535.3 677.8 537.4 668.3H537.9L541.9 695H562.9ZM526 667.3C526 656.2 529.9 650.3 533.3 650.3C535.1 650.3 537.9 652 537.9 657.8C537.9 665 533.4 678.2 529.6 678.2C527.3 678.2 526 673.7 526 667.3ZM569.771 666.2L568.071 664.5L567.971 659.2C567.971 642.6 586.971 637.8 600.471 637.8C611.171 637.8 621.171 640.3 627.671 646.8L634.671 653.9C639.471 658.6 642.371 665.5 642.371 675.1V706.6H613.371L608.271 701.4C604.271 705 599.071 707.3 592.571 707.3C586.471 707.3 581.071 705.1 577.171 701.2L570.071 694.1C566.571 690.6 564.371 685.6 564.371 679.7C564.371 673.9 566.471 669.5 569.771 666.2ZM630.771 695V668C630.771 649.2 618.271 642.3 600.471 642.3C584.971 642.3 571.771 648.1 572.471 660H597.971C597.771 657.9 599.071 656.3 601.671 656.3C604.171 656.3 605.771 657.8 605.771 663.4V668.3H605.271C602.471 665.7 597.271 663.5 589.771 663.5C577.571 663.5 568.871 669.8 568.871 679.7C568.871 687.9 574.671 695.7 585.471 695.7C598.071 695.7 603.171 685.6 605.271 679.7H605.771L609.771 695H630.771ZM593.871 678.2C593.871 671.6 597.171 669.5 600.671 669.5C603.371 669.5 605.771 670.8 605.771 673.7C605.771 677.7 601.271 684.3 597.471 684.3C595.171 684.3 593.871 682.2 593.871 678.2ZM650.242 617.8C653.942 617.8 660.742 618.8 664.742 622.9L671.842 630C673.942 632 675.342 634.9 675.342 638.8C675.342 641.3 674.742 643.3 673.842 645.1L674.342 645.6V706.6H640.342L633.242 699.5V638.5H634.042C632.942 636.7 632.242 634.4 632.242 631.7C632.242 621.9 641.542 617.8 650.242 617.8ZM636.742 631.7C636.742 637.4 642.142 641.3 650.242 641.3C658.342 641.3 663.742 637.4 663.742 631.7C663.742 626 658.342 622.3 650.242 622.3C642.142 622.3 636.742 626 636.742 631.7ZM637.742 643V695H662.742V643H637.742ZM665.25 620.5H699.25L706.35 627.6V706.6H672.35L665.25 699.5V620.5ZM669.75 625V695H694.75V625H669.75ZM702.507 694.9C697.507 689.5 696.207 681.1 696.207 674.7V638.5H730.207L732.107 640.4L732.307 638.5H765.907L773.007 645.6V694.2C773.007 716.1 757.207 727.3 736.307 727.3C727.507 727.3 715.807 725.2 709.407 718.5L702.307 711.5C699.007 708.1 696.707 703.6 696.707 697.6V696.1H703.507L702.507 694.9ZM761.407 687.1V643H736.407C734.607 662.5 732.007 678.2 727.907 678.2C726.407 678.2 725.707 675.8 725.707 670.8V643H700.707V674.7C700.707 691 708.207 695.7 715.907 695.7C731.907 695.7 734.007 676 735.907 660.3H736.407V690C736.407 697.7 734.607 700.7 730.507 700.7C728.007 700.7 726.307 699.6 726.207 697.2H701.207C700.907 710.6 715.107 715.7 729.207 715.7C749.207 715.7 761.407 705.2 761.407 687.1ZM789.859 620.5H823.859L830.959 627.6V706.6H796.959L789.859 699.5V620.5ZM794.359 625V695H819.359V625H794.359ZM838.816 617.8C842.516 617.8 849.316 618.8 853.316 622.9L860.416 630C862.516 632 863.916 634.9 863.916 638.8C863.916 641.3 863.316 643.3 862.416 645.1L862.916 645.6V706.6H828.916L821.816 699.5V638.5H822.616C821.516 636.7 820.816 634.4 820.816 631.7C820.816 621.9 830.116 617.8 838.816 617.8ZM825.316 631.7C825.316 637.4 830.716 641.3 838.816 641.3C846.916 641.3 852.316 637.4 852.316 631.7C852.316 626 846.916 622.3 838.816 622.3C830.716 622.3 825.316 626 825.316 631.7ZM826.316 643V695H851.316V643H826.316ZM853.824 666V638.5H857.024C856.624 637.3 856.324 635.9 856.324 634.4C856.324 621.5 871.724 619.8 881.524 619.8C885.624 619.8 889.724 620.1 893.724 620.6L897.624 621.2L904.724 628.2V656.5L902.924 655.7V673.1H897.924V706.6H863.924L856.824 699.5V669L853.824 666ZM861.324 661.5V695H886.324V661.5H891.324V643C876.724 640.4 875.224 640 875.224 638.3C875.224 637.5 875.924 637.2 877.124 637.2C880.324 637.2 887.224 639.7 893.124 642.4V625.1C888.724 624.5 884.724 624.3 881.524 624.3C868.524 624.3 860.824 627.2 860.824 634.4C860.824 641.6 868.324 641.6 880.824 642.5V643H858.324V661.5H861.324ZM957.845 647.6L964.945 654.6C969.245 658.9 972.045 664.6 972.345 672.2L974.145 674.1L973.845 678.9C972.145 698.2 956.045 707.3 937.845 707.3C927.445 707.3 916.845 704.1 909.845 697.1L902.845 690C897.845 685 894.645 678.1 894.645 669C894.645 648.4 911.445 637.8 930.645 637.8C940.245 637.8 950.945 640.6 957.845 647.6ZM962.245 671.5H936.745C936.345 675.3 933.845 677 930.945 677C926.945 677 924.345 673.7 924.345 668.8C924.345 668.3 924.345 667.8 924.445 667.3H960.745C961.245 651.9 949.045 642.3 930.645 642.3C911.445 642.3 899.145 652.9 899.145 669C899.145 685.1 911.545 695.7 930.745 695.7C948.645 695.7 961.045 686.6 962.245 671.5ZM935.945 664.8L924.645 666.3C925.445 663.1 927.645 661 930.945 661C933.745 661 935.845 662.5 935.945 664.8ZM1051.26 642.5L1056.26 647.5C1059.76 641.3 1065.86 637.8 1072.96 637.8C1078.56 637.8 1082.66 639.7 1085.46 642.5L1092.56 649.6C1097.96 655.1 1099.26 664.1 1099.26 670.4V706.6H1065.26L1064.66 706V706.6H1031.06L1030.46 706V706.6H996.862L989.762 699.5V638.5H1023.76L1026.96 641.7C1029.96 639.3 1033.86 637.8 1038.76 637.8C1044.36 637.8 1048.46 639.7 1051.26 642.5ZM994.262 643V695H1019.26C1021.06 675.5 1022.96 659.8 1026.76 659.8C1028.26 659.8 1028.46 662.2 1028.46 667.2V695H1053.46C1055.26 675.5 1057.16 659.8 1060.96 659.8C1062.46 659.8 1062.66 662.2 1062.66 667.2V695H1087.66V663.3C1087.66 647 1080.36 642.3 1072.96 642.3C1057.56 642.3 1055.86 660.3 1053.96 676H1053.46V663.3C1053.46 647 1046.16 642.3 1038.76 642.3C1023.36 642.3 1021.66 660.3 1019.76 676H1019.26V643H994.262ZM1125.68 637.8C1136.08 637.8 1146.98 641 1154.18 648.2L1161.18 655.3C1166.18 660.2 1169.38 667.1 1169.38 676.1C1169.38 696.8 1151.88 707.3 1132.78 707.3C1122.38 707.3 1111.58 704 1104.38 696.9L1097.38 689.8C1092.38 684.8 1089.18 678 1089.18 669C1089.18 648.3 1106.48 637.8 1125.68 637.8ZM1093.68 669C1093.68 685.1 1106.48 695.7 1125.68 695.7C1144.98 695.7 1157.78 685.1 1157.78 669C1157.78 652.9 1144.98 642.3 1125.68 642.3C1106.48 642.3 1093.68 652.9 1093.68 669ZM1118.88 669C1118.88 664.2 1121.48 661 1125.68 661C1129.98 661 1132.58 664.2 1132.58 669C1132.58 673.8 1129.98 677 1125.68 677C1121.48 677 1118.88 673.8 1118.88 669ZM1195.79 637.8C1206.19 637.8 1217.09 641 1224.29 648.2L1231.29 655.3C1236.29 660.2 1239.49 667.1 1239.49 676.1C1239.49 696.8 1221.99 707.3 1202.89 707.3C1192.49 707.3 1181.69 704 1174.49 696.9L1167.49 689.8C1162.49 684.8 1159.29 678 1159.29 669C1159.29 648.3 1176.59 637.8 1195.79 637.8ZM1163.79 669C1163.79 685.1 1176.59 695.7 1195.79 695.7C1215.09 695.7 1227.89 685.1 1227.89 669C1227.89 652.9 1215.09 642.3 1195.79 642.3C1176.59 642.3 1163.79 652.9 1163.79 669ZM1188.99 669C1188.99 664.2 1191.59 661 1195.79 661C1200.09 661 1202.69 664.2 1202.69 669C1202.69 673.8 1200.09 677 1195.79 677C1191.59 677 1188.99 673.8 1188.99 669ZM1266.31 640.4V620.5H1300.31L1307.41 627.6V706.6H1278.01L1272.31 700.9C1272.01 701.3 1271.61 701.7 1271.21 702C1268.21 705.1 1264.11 707.3 1258.71 707.3C1253.01 707.3 1248.61 705.1 1245.41 701.9L1238.31 694.8C1231.51 688 1229.41 676.2 1229.41 669.3C1229.41 653.6 1238.01 637.8 1255.31 637.8C1259.21 637.8 1262.91 638.7 1266.31 640.4ZM1295.81 695V625H1270.81V649.3H1270.31C1267.31 645.6 1262.31 642.3 1255.31 642.3C1243.01 642.3 1233.91 653 1233.91 669.3C1233.91 682.8 1240.11 695.7 1251.61 695.7C1265.11 695.7 1268.21 677.8 1270.31 668.3H1270.81L1274.81 695H1295.81ZM1258.91 667.3C1258.91 656.2 1262.81 650.3 1266.21 650.3C1268.01 650.3 1270.81 652 1270.81 657.8C1270.81 665 1266.31 678.2 1262.51 678.2C1260.21 678.2 1258.91 673.7 1258.91 667.3Z" fill="#6C4242"/>
<path d="M81.44 44.76L89.96 53.16C96.56 59.76 100.76 68.88 101.24 80.52V81.96L102.56 83.4L102.44 88.92C101.24 116.88 84.92 134.76 56.36 134.76C41.84 134.76 29.72 130.08 21.32 121.8L12.92 113.28C4.76 105.24 0.2 93.6 0.2 79.32C0.2 50.88 19.4 32.16 47.72 32.16C61.04 32.16 73.16 36.36 81.44 44.76ZM47.84 97.2C40.64 97.2 37.04 89.88 37.04 79.08C37.04 68.52 40.04 61.2 47.12 61.2C51.32 61.2 56.12 63.84 56.12 72.24H87.32C86.48 51.72 71.84 37.56 47.72 37.56C22.16 37.56 5.6 54.12 5.6 79.32C5.6 104.28 21.08 120.84 47.84 120.84C73.16 120.84 87.56 105.72 88.52 80.28H57.32C57.32 90.48 54.68 97.2 47.84 97.2ZM51.92 80.28V79.2C51.08 82.32 50.96 85.56 50.96 88.68C51.68 86.28 51.92 83.16 51.92 80.28ZM96.7972 85.44L94.7572 83.4L94.6372 77.04C94.6372 57.12 117.437 51.36 133.637 51.36C146.477 51.36 158.477 54.36 166.277 62.16L174.677 70.68C180.437 76.32 183.917 84.6 183.917 96.12V133.92H149.117L142.997 127.68C138.197 132 131.957 134.76 124.157 134.76C116.837 134.76 110.357 132.12 105.677 127.44L97.1572 118.92C92.9572 114.72 90.3172 108.72 90.3172 101.64C90.3172 94.68 92.8372 89.4 96.7972 85.44ZM169.997 120V87.6C169.997 65.04 154.997 56.76 133.637 56.76C115.037 56.76 99.1972 63.72 100.037 78H130.637C130.397 75.48 131.957 73.56 135.077 73.56C138.077 73.56 139.997 75.36 139.997 82.08V87.96H139.397C136.037 84.84 129.797 82.2 120.797 82.2C106.157 82.2 95.7172 89.76 95.7172 101.64C95.7172 111.48 102.677 120.84 115.637 120.84C130.757 120.84 136.877 108.72 139.397 101.64H139.997L144.797 120H169.997ZM125.717 99.84C125.717 91.92 129.677 89.4 133.877 89.4C137.117 89.4 139.997 90.96 139.997 94.44C139.997 99.24 134.597 107.16 130.037 107.16C127.277 107.16 125.717 104.64 125.717 99.84ZM246.163 57.84L254.683 66.36C262.843 74.52 265.363 88.56 265.363 96.96C265.363 115.68 254.923 134.76 234.283 134.76C229.603 134.76 225.043 133.68 221.083 131.64V157.92H180.283L171.762 149.4V52.2H212.563L216.643 56.28C220.123 53.28 224.563 51.36 230.203 51.36C237.043 51.36 242.203 53.88 246.163 57.84ZM177.163 57.6V144H207.163V112.44H207.763C211.363 116.88 217.363 120.84 225.763 120.84C240.523 120.84 251.443 108 251.443 88.44C251.443 72.24 244.003 56.76 230.203 56.76C214.003 56.76 210.283 78.24 207.763 89.64H207.163V57.6H177.163ZM221.443 90.84C221.443 104.16 216.763 111.24 212.683 111.24C210.523 111.24 207.163 109.2 207.163 102.24C207.163 93.6 212.563 77.76 217.123 77.76C219.883 77.76 221.443 83.16 221.443 90.84ZM256.808 90V88.8L253.208 85.2V53.52L257.048 52.44C260.048 51.6 261.608 49.32 261.608 44.52V39.12H297.608L306.128 47.64V53.04C306.128 53.52 306.128 54.12 306.008 54.6L312.128 60.72V93.72H306.128V94.2H329.648L338.048 102.72L337.448 108.6C335.648 126.96 320.648 134.76 303.368 134.76C291.488 134.76 281.528 131.4 274.808 124.56L266.288 116.16C260.288 110.04 256.808 101.4 256.808 90ZM292.208 44.52H267.008C267.008 50.76 264.728 55.8 258.608 57.6V79.8H262.208V90C262.208 112.56 277.088 120.84 294.848 120.84C310.808 120.84 322.208 113.88 323.648 99.6H300.008C299.768 102.24 298.328 104.28 295.928 104.28C293.648 104.28 292.208 102.48 292.208 98.52V79.8H298.208V57.6H282.008V57C289.928 56.4 292.208 51.12 292.208 44.52ZM367.543 52.2H407.863L416.383 60.72V133.92H375.583L371.143 129.48C367.423 132.72 362.623 134.76 356.383 134.76C349.303 134.76 344.263 132.36 340.783 128.88L332.263 120.36C325.903 113.88 324.223 103.56 324.223 95.64V52.2H365.023L367.303 54.48L367.543 52.2ZM402.463 120V57.6H372.463C370.303 81 367.183 99.84 362.263 99.84C360.463 99.84 359.623 96.96 359.623 90.96V57.6H329.623V95.64C329.623 115.2 338.623 120.84 347.863 120.84C367.063 120.84 369.583 97.2 371.863 78.36H372.463V120H402.463ZM404.262 52.2H445.063L449.623 56.76C453.583 53.52 458.743 51.36 465.463 51.36H470.863L479.383 59.88V100.44L471.823 97.2C470.263 96.6 468.583 96.24 467.023 96.24C454.423 96.24 453.583 119.88 453.583 128.52V133.92H412.783L404.262 125.4V52.2ZM409.663 57.6V120H439.663C439.663 89.4 449.863 82.32 458.503 82.32C461.143 82.32 463.543 82.92 465.463 83.76V56.76C445.063 56.76 442.543 80.4 440.263 98.88H439.663V57.6H409.663ZM541.626 63.12L550.146 71.52C555.306 76.68 558.666 83.52 559.026 92.64L561.186 94.92L560.826 100.68C558.786 123.84 539.466 134.76 517.626 134.76C505.146 134.76 492.426 130.92 484.026 122.52L475.626 114C469.626 108 465.786 99.72 465.786 88.8C465.786 64.08 485.946 51.36 508.986 51.36C520.506 51.36 533.346 54.72 541.626 63.12ZM546.906 91.8H516.306C515.826 96.36 512.826 98.4 509.346 98.4C504.546 98.4 501.426 94.44 501.426 88.56C501.426 87.96 501.426 87.36 501.546 86.76H545.106C545.706 68.28 531.066 56.76 508.986 56.76C485.946 56.76 471.186 69.48 471.186 88.8C471.186 108.12 486.066 120.84 509.106 120.84C530.586 120.84 545.466 109.92 546.906 91.8ZM515.346 83.76L501.786 85.56C502.746 81.72 505.386 79.2 509.346 79.2C512.706 79.2 515.226 81 515.346 83.76ZM587.487 119.88C581.487 113.4 579.927 103.32 579.927 95.64V52.2H620.727L623.007 54.48L623.247 52.2H663.567L672.087 60.72V119.04C672.087 145.32 653.127 158.76 628.047 158.76C617.487 158.76 603.447 156.24 595.767 148.2L587.247 139.8C583.287 135.72 580.527 130.32 580.527 123.12V121.32H588.687L587.487 119.88ZM658.167 110.52V57.6H628.167C626.007 81 622.887 99.84 617.967 99.84C616.167 99.84 615.327 96.96 615.327 90.96V57.6H585.327V95.64C585.327 115.2 594.327 120.84 603.567 120.84C622.767 120.84 625.287 97.2 627.567 78.36H628.167V114C628.167 123.24 626.007 126.84 621.087 126.84C618.087 126.84 616.047 125.52 615.927 122.64H585.927C585.567 138.72 602.607 144.84 619.527 144.84C643.527 144.84 658.167 132.24 658.167 110.52ZM704.938 51.36C717.418 51.36 730.498 55.2 739.138 63.84L747.538 72.36C753.538 78.24 757.378 86.52 757.378 97.32C757.378 122.16 736.378 134.76 713.458 134.76C700.978 134.76 688.018 130.8 679.378 122.28L670.978 113.76C664.978 107.76 661.137 99.6 661.137 88.8C661.137 63.96 681.898 51.36 704.938 51.36ZM666.538 88.8C666.538 108.12 681.898 120.84 704.938 120.84C728.098 120.84 743.458 108.12 743.458 88.8C743.458 69.48 728.098 56.76 704.938 56.76C681.898 56.76 666.538 69.48 666.538 88.8ZM696.778 88.8C696.778 83.04 699.898 79.2 704.938 79.2C710.098 79.2 713.218 83.04 713.218 88.8C713.218 94.56 710.098 98.4 704.938 98.4C699.898 98.4 696.778 94.56 696.778 88.8ZM788.598 52.2H828.918L837.438 60.72V133.92H796.638L792.198 129.48C788.478 132.72 783.678 134.76 777.438 134.76C770.358 134.76 765.318 132.36 761.838 128.88L753.318 120.36C746.958 113.88 745.278 103.56 745.278 95.64V52.2H786.078L788.358 54.48L788.598 52.2ZM823.518 120V57.6H793.518C791.358 81 788.238 99.84 783.318 99.84C781.518 99.84 780.678 96.96 780.678 90.96V57.6H750.678V95.64C750.678 115.2 759.678 120.84 768.918 120.84C788.118 120.84 790.638 97.2 792.918 78.36H793.518V120H823.518ZM825.317 52.2H866.117L870.677 56.76C874.637 53.52 879.797 51.36 886.517 51.36H891.917L900.437 59.88V100.44L892.877 97.2C891.317 96.6 889.637 96.24 888.077 96.24C875.477 96.24 874.637 119.88 874.637 128.52V133.92H833.837L825.317 125.4V52.2ZM830.717 57.6V120H860.717C860.717 89.4 870.917 82.32 879.557 82.32C882.197 82.32 884.597 82.92 886.517 83.76V56.76C866.117 56.76 863.597 80.4 861.317 98.88H860.717V57.6H830.717Z" fill="#6C4242"/>
<line x1="37" y1="206" x2="37" y2="685" stroke="black" stroke-width="8"/>
<line x1="33" y1="681" x2="425" y2="681" stroke="black" stroke-width="8"/>
<line x1="1285.22" y1="84.1723" x2="1285.22" y2="571" stroke="black" stroke-width="8"/>
<path d="M951.071 83.4993C951.071 83.4993 1023.78 49.2225 1115.97 78.5927C1208.16 107.963 1287.85 86.135 1287.85 86.135" stroke="black" stroke-width="6"/>
</svg>
