<svg width="724" height="40" viewBox="0 0 724 40" fill="none" xmlns="http://www.w3.org/2000/svg">
<path d="M11.9204 31.6001V28.8601H14.6404C17.1471 28.8601 19.3337 28.3401 21.2004 27.3001C23.0804 26.2468 24.5404 24.7868 25.5804 22.9201C26.6337 21.0534 27.1604 18.9068 27.1604 16.4801C27.1604 14.0668 26.6337 11.9401 25.5804 10.1001C24.5404 8.2601 23.0804 6.82676 21.2004 5.8001C19.3337 4.77343 17.1471 4.2601 14.6404 4.2601H11.9204V1.5201H14.6404C17.7737 1.5201 20.5137 2.1601 22.8604 3.4401C25.2204 4.70676 27.0537 6.46676 28.3604 8.7201C29.6671 10.9601 30.3204 13.5468 30.3204 16.4801C30.3204 19.4534 29.6671 22.0801 28.3604 24.3601C27.0537 26.6268 25.2204 28.4001 22.8604 29.6801C20.5137 30.9601 17.7737 31.6001 14.6404 31.6001H11.9204ZM0.000390694 31.6001V28.8601H4.84039V4.2601H0.000390694V1.5201H12.9604V4.2601H7.82039V28.8601H12.9604V31.6001H0.000390694ZM41.6207 29.1201H45.7207V31.6001H34.4207V29.1201H38.7407V12.7801H34.4207V10.3001H41.6207V29.1201ZM38.2007 1.3201H41.8807V5.1401H38.2007V1.3201ZM59.3701 31.9801C57.9434 31.9801 56.7367 31.7668 55.7501 31.3401C54.7767 30.9134 54.0034 30.3468 53.4301 29.6401C52.8567 28.9201 52.4834 28.1201 52.3101 27.2401H51.5901L52.1701 24.8801C52.4234 26.2801 53.1167 27.4201 54.2501 28.3001C55.3967 29.1801 56.8834 29.6201 58.7101 29.6201C60.2701 29.6201 61.4767 29.3068 62.3301 28.6801C63.1967 28.0401 63.6301 27.1134 63.6301 25.9001C63.6301 24.7934 63.2034 23.9334 62.3501 23.3201C61.4967 22.7068 60.0034 22.2401 57.8701 21.9201C54.8167 21.4401 52.6434 20.6868 51.3501 19.6601C50.0567 18.6201 49.4101 17.2534 49.4101 15.5601C49.4101 13.8534 50.0034 12.4868 51.1901 11.4601C52.3767 10.4334 54.0301 9.9201 56.1501 9.9201C57.5501 9.9201 58.7034 10.1334 59.6101 10.5601C60.5301 10.9868 61.2367 11.5601 61.7301 12.2801C62.2234 12.9868 62.5434 13.7668 62.6901 14.6201H63.4101L62.8301 16.8801C62.5901 15.5201 61.9367 14.4134 60.8701 13.5601C59.8034 12.6934 58.4101 12.2601 56.6901 12.2601C55.3034 12.2601 54.2167 12.5534 53.4301 13.1401C52.6567 13.7268 52.2701 14.5068 52.2701 15.4801C52.2701 16.5068 52.7567 17.3134 53.7301 17.9001C54.7034 18.4734 56.2367 18.9268 58.3301 19.2601C61.2901 19.7268 63.3901 20.4934 64.6301 21.5601C65.8701 22.6268 66.4901 24.0668 66.4901 25.8801C66.4901 27.7868 65.8767 29.2801 64.6501 30.3601C63.4367 31.4401 61.6767 31.9801 59.3701 31.9801ZM49.2901 31.6001V24.8801H52.1701V31.6001H49.2901ZM62.8301 16.8801V10.3001H65.7101V16.8801H62.8301ZM81.9051 31.9801C79.6917 31.9801 77.7651 31.5134 76.1251 30.5801C74.4984 29.6468 73.2317 28.3601 72.3251 26.7201C71.4317 25.0668 70.9851 23.1668 70.9851 21.0201C70.9851 19.3934 71.2317 17.9068 71.7251 16.5601C72.2184 15.2001 72.9251 14.0268 73.8451 13.0401C74.7651 12.0401 75.8584 11.2734 77.1251 10.7401C78.3917 10.1934 79.8051 9.9201 81.3651 9.9201C82.8717 9.9201 84.1251 10.1668 85.1251 10.6601C86.1384 11.1401 86.9251 11.8068 87.4851 12.6601C88.0451 13.5001 88.4051 14.4668 88.5651 15.5601H89.2651L88.6851 18.5801C88.5117 17.3801 88.1184 16.3268 87.5051 15.4201C86.8917 14.5001 86.0917 13.7868 85.1051 13.2801C84.1184 12.7601 82.9784 12.5001 81.6851 12.5001C80.1384 12.5001 78.7784 12.8668 77.6051 13.6001C76.4451 14.3201 75.5384 15.3201 74.8851 16.6001C74.2451 17.8668 73.9251 19.3401 73.9251 21.0201C73.9251 22.6468 74.2517 24.0868 74.9051 25.3401C75.5717 26.5801 76.4984 27.5534 77.6851 28.2601C78.8851 28.9668 80.2984 29.3201 81.9251 29.3201C83.6051 29.3201 85.0517 28.9534 86.2651 28.2201C87.4784 27.4734 88.3651 26.4734 88.9251 25.2201L91.5851 26.4001C90.8251 28.1201 89.6051 29.4801 87.9251 30.4801C86.2584 31.4801 84.2517 31.9801 81.9051 31.9801ZM88.6851 18.5801V10.3001H91.5651V18.5801H88.6851ZM107.005 31.9801C104.792 31.9801 102.852 31.5134 101.185 30.5801C99.5184 29.6334 98.2184 28.3401 97.2851 26.7001C96.3517 25.0601 95.8851 23.1668 95.8851 21.0201C95.8851 18.8601 96.3517 16.9468 97.2851 15.2801C98.2184 13.6001 99.5184 12.2868 101.185 11.3401C102.852 10.3934 104.792 9.9201 107.005 9.9201C109.218 9.9201 111.158 10.3934 112.825 11.3401C114.492 12.2868 115.792 13.6001 116.725 15.2801C117.658 16.9468 118.125 18.8601 118.125 21.0201C118.125 23.1668 117.658 25.0601 116.725 26.7001C115.792 28.3401 114.492 29.6334 112.825 30.5801C111.158 31.5134 109.218 31.9801 107.005 31.9801ZM107.005 29.3201C108.605 29.3201 110.012 28.9734 111.225 28.2801C112.452 27.5868 113.405 26.6201 114.085 25.3801C114.778 24.1268 115.125 22.6734 115.125 21.0201C115.125 19.3534 114.778 17.8868 114.085 16.6201C113.405 15.3534 112.452 14.3668 111.225 13.6601C110.012 12.9401 108.605 12.5801 107.005 12.5801C105.405 12.5801 103.992 12.9401 102.765 13.6601C101.552 14.3668 100.598 15.3534 99.9051 16.6201C99.2251 17.8868 98.8851 19.3534 98.8851 21.0201C98.8851 22.6734 99.2251 24.1268 99.9051 25.3801C100.598 26.6201 101.552 27.5868 102.765 28.2801C103.992 28.9734 105.405 29.3201 107.005 29.3201ZM134.273 10.3001H143.713V12.7801H141.313L133.473 31.6001H130.353L122.253 12.7801H119.873V10.3001H129.533V12.7801H125.373L133.233 31.6001L130.533 28.5801H133.273L130.933 31.6001L138.433 12.7801H134.273V10.3001ZM156.315 31.9801C154.115 31.9801 152.209 31.5134 150.595 30.5801C148.982 29.6468 147.735 28.3601 146.855 26.7201C145.975 25.0668 145.535 23.1668 145.535 21.0201C145.535 18.8468 145.975 16.9268 146.855 15.2601C147.749 13.5934 148.989 12.2868 150.575 11.3401C152.175 10.3934 154.035 9.9201 156.155 9.9201C158.289 9.9201 160.135 10.3868 161.695 11.3201C163.255 12.2534 164.455 13.5468 165.295 15.2001C166.135 16.8534 166.555 18.7601 166.555 20.9201C166.555 21.1734 166.549 21.3734 166.535 21.5201C166.535 21.6668 166.522 21.7934 166.495 21.9001H163.655C163.669 21.7401 163.675 21.5668 163.675 21.3801C163.689 21.1801 163.695 20.9534 163.695 20.7001C163.695 19.1134 163.389 17.7068 162.775 16.4801C162.175 15.2401 161.315 14.2668 160.195 13.5601C159.075 12.8534 157.729 12.5001 156.155 12.5001C154.622 12.5001 153.275 12.8668 152.115 13.6001C150.955 14.3201 150.055 15.3201 149.415 16.6001C148.775 17.8668 148.455 19.3401 148.455 21.0201C148.455 22.6468 148.769 24.0868 149.395 25.3401C150.035 26.5801 150.942 27.5534 152.115 28.2601C153.289 28.9668 154.682 29.3201 156.295 29.3201C157.975 29.3201 159.429 28.9268 160.655 28.1401C161.895 27.3401 162.815 26.2534 163.415 24.8801L166.135 25.9001C165.349 27.7801 164.089 29.2668 162.355 30.3601C160.635 31.4401 158.622 31.9801 156.315 31.9801ZM147.355 21.9001V19.6801H165.635L166.475 21.9001H147.355ZM177.788 29.1201H181.948V31.6001H170.528V29.1201H174.908V12.7801H170.528V10.3001H177.788V29.1201ZM185.968 13.3601C185.728 13.2934 185.468 13.2401 185.188 13.2001C184.921 13.1601 184.628 13.1401 184.308 13.1401C182.335 13.1401 180.755 13.8801 179.568 15.3601C178.381 16.8268 177.788 18.8668 177.788 21.4801L177.108 16.8201H177.928C178.115 15.4068 178.501 14.1934 179.088 13.1801C179.675 12.1534 180.435 11.3668 181.368 10.8201C182.315 10.2601 183.421 9.9801 184.688 9.9801C184.928 9.9801 185.141 9.99343 185.328 10.0201C185.528 10.0334 185.741 10.0601 185.968 10.1001V13.3601ZM225.669 10.3001H235.329V12.7801H232.729L226.069 31.6001H222.729L215.989 12.7201L218.269 15.6201H215.549L217.829 12.7201L211.489 31.6001H208.129L201.129 12.7801H198.509V10.3001H208.309V12.7801H204.209L210.749 31.6001L208.349 28.8201H211.129L208.949 31.6001L215.469 12.7801H212.129V10.3001H222.009V12.7801H218.749L225.529 31.6001L223.089 28.8201H225.829L223.769 31.6001L229.969 12.7801H225.669V10.3001ZM243.829 29.1201H247.609V31.6001H236.669V29.1201H240.949V2.4801H236.669V9.67979e-05H243.829V29.1201ZM256.109 29.1201V17.9201C256.109 16.1868 255.715 14.8268 254.929 13.8401C254.155 12.8534 252.935 12.3601 251.269 12.3601C249.869 12.3601 248.609 12.7201 247.489 13.4401C246.369 14.1468 245.475 15.1801 244.809 16.5401C244.155 17.8868 243.829 19.5134 243.829 21.4201L243.149 17.1601H243.949C244.215 15.6001 244.715 14.2801 245.449 13.2001C246.195 12.1068 247.142 11.2734 248.289 10.7001C249.435 10.1268 250.749 9.8401 252.229 9.8401C254.549 9.8401 256.255 10.5068 257.349 11.8401C258.442 13.1734 258.989 15.0468 258.989 17.4601V29.1201H263.069V31.6001H252.349V29.1201H256.109ZM283.219 31.6001C282.672 31.6001 282.252 31.4268 281.959 31.0801C281.679 30.7334 281.539 30.2468 281.539 29.6201V23.2201L281.799 22.5601L281.659 20.1401L281.539 18.8801V17.2601C281.539 16.1668 281.312 15.2734 280.859 14.5801C280.419 13.8868 279.779 13.3734 278.939 13.0401C278.099 12.7068 277.085 12.5401 275.899 12.5401C274.125 12.5401 272.752 12.8934 271.779 13.6001C270.819 14.2934 270.179 15.3401 269.859 16.7401L267.099 16.1601C267.365 14.7601 267.865 13.6001 268.599 12.6801C269.332 11.7468 270.305 11.0534 271.519 10.6001C272.745 10.1334 274.239 9.9001 275.999 9.9001C277.839 9.9001 279.379 10.1601 280.619 10.6801C281.872 11.1868 282.819 11.9668 283.459 13.0201C284.099 14.0734 284.419 15.4334 284.419 17.1001V29.1201H287.559V31.6001H283.219ZM273.179 31.8801C270.965 31.8801 269.285 31.3934 268.139 30.4201C266.992 29.4334 266.419 27.9868 266.419 26.0801C266.419 24.3201 266.925 22.9801 267.939 22.0601C268.952 21.1268 270.579 20.4268 272.819 19.9601L282.399 17.9201V19.9801L273.299 22.0401C271.992 22.3468 271.012 22.8001 270.359 23.4001C269.719 23.9868 269.399 24.8201 269.399 25.9001C269.399 27.0734 269.759 27.9534 270.479 28.5401C271.199 29.1134 272.252 29.4001 273.639 29.4001C275.172 29.4001 276.545 29.0468 277.759 28.3401C278.972 27.6334 279.925 26.5934 280.619 25.2201C281.312 23.8468 281.659 22.1534 281.659 20.1401L282.419 24.8601H281.399C281.065 27.0868 280.199 28.8134 278.799 30.0401C277.412 31.2668 275.539 31.8801 273.179 31.8801ZM296.54 25.9601C296.54 27.0801 296.754 27.9268 297.18 28.5001C297.607 29.0601 298.26 29.3401 299.14 29.3401C300.007 29.3401 300.66 29.0534 301.1 28.4801C301.54 27.8934 301.76 27.0534 301.76 25.9601V23.9801H304.36V25.9401C304.36 27.2201 304.167 28.3134 303.78 29.2201C303.407 30.1134 302.834 30.8001 302.06 31.2801C301.287 31.7468 300.294 31.9801 299.08 31.9801C297.84 31.9801 296.82 31.7401 296.02 31.2601C295.22 30.7668 294.627 30.0734 294.24 29.1801C293.854 28.2868 293.66 27.2134 293.66 25.9601L293.68 12.7801H289.88V10.3001H293.68V4.9001H296.56V10.3001H304.08L304.06 12.7801H296.56L296.54 25.9601ZM349.539 31.6001V29.1201H353.299V17.9401C353.299 16.1934 352.912 14.8268 352.139 13.8401C351.366 12.8534 350.159 12.3601 348.519 12.3601C347.199 12.3601 346.026 12.7068 344.999 13.4001C343.972 14.0934 343.166 15.0868 342.579 16.3801C341.992 17.6734 341.699 19.2268 341.699 21.0401L340.999 16.7601H341.819C342.152 14.4401 343.012 12.7068 344.399 11.5601C345.799 10.4134 347.499 9.8401 349.499 9.8401C351.752 9.8401 353.426 10.5068 354.519 11.8401C355.626 13.1734 356.179 15.0534 356.179 17.4801V29.1201H360.259V31.6001H349.539ZM320.059 31.6001V29.1201H324.319V12.7801H320.059V10.3001H327.199V29.1201H330.979V31.6001H320.059ZM335.059 31.6001V29.1201H338.819V17.9401C338.819 16.1934 338.432 14.8268 337.659 13.8401C336.886 12.8534 335.679 12.3601 334.039 12.3601C332.719 12.3601 331.546 12.7068 330.519 13.4001C329.492 14.0934 328.679 15.0868 328.079 16.3801C327.492 17.6734 327.199 19.2268 327.199 21.0401L326.519 16.7601H327.339C327.659 14.4401 328.519 12.7068 329.919 11.5601C331.319 10.4134 333.019 9.8401 335.019 9.8401C337.272 9.8401 338.946 10.5068 340.039 11.8401C341.146 13.1734 341.699 15.0534 341.699 17.4801V29.1201H345.779V31.6001H335.059ZM380.406 31.6001C379.859 31.6001 379.439 31.4268 379.146 31.0801C378.866 30.7334 378.726 30.2468 378.726 29.6201V23.2201L378.986 22.5601L378.846 20.1401L378.726 18.8801V17.2601C378.726 16.1668 378.499 15.2734 378.046 14.5801C377.606 13.8868 376.966 13.3734 376.126 13.0401C375.286 12.7068 374.273 12.5401 373.086 12.5401C371.313 12.5401 369.939 12.8934 368.966 13.6001C368.006 14.2934 367.366 15.3401 367.046 16.7401L364.286 16.1601C364.553 14.7601 365.053 13.6001 365.786 12.6801C366.519 11.7468 367.493 11.0534 368.706 10.6001C369.933 10.1334 371.426 9.9001 373.186 9.9001C375.026 9.9001 376.566 10.1601 377.806 10.6801C379.059 11.1868 380.006 11.9668 380.646 13.0201C381.286 14.0734 381.606 15.4334 381.606 17.1001V29.1201H384.746V31.6001H380.406ZM370.366 31.8801C368.153 31.8801 366.473 31.3934 365.326 30.4201C364.179 29.4334 363.606 27.9868 363.606 26.0801C363.606 24.3201 364.113 22.9801 365.126 22.0601C366.139 21.1268 367.766 20.4268 370.006 19.9601L379.586 17.9201V19.9801L370.486 22.0401C369.179 22.3468 368.199 22.8001 367.546 23.4001C366.906 23.9868 366.586 24.8201 366.586 25.9001C366.586 27.0734 366.946 27.9534 367.666 28.5401C368.386 29.1134 369.439 29.4001 370.826 29.4001C372.359 29.4001 373.733 29.0468 374.946 28.3401C376.159 27.6334 377.113 26.5934 377.806 25.2201C378.499 23.8468 378.846 22.1534 378.846 20.1401L379.606 24.8601H378.586C378.253 27.0868 377.386 28.8134 375.986 30.0401C374.599 31.2668 372.726 31.8801 370.366 31.8801ZM394.688 29.1201H398.468V31.6001H387.528V29.1201H391.808V2.4801H387.528V9.67979e-05H394.688V29.1201ZM402.128 18.1001L410.588 29.1201H413.368V31.6001H402.408V29.1201H407.028L400.088 19.8401L402.128 18.1001ZM393.828 25.8601L393.228 23.5601L406.288 12.7801H399.788V10.3001H413.028V12.7801H410.028L393.828 25.8601ZM426.862 31.9801C424.662 31.9801 422.756 31.5134 421.142 30.5801C419.529 29.6468 418.282 28.3601 417.402 26.7201C416.522 25.0668 416.082 23.1668 416.082 21.0201C416.082 18.8468 416.522 16.9268 417.402 15.2601C418.296 13.5934 419.536 12.2868 421.122 11.3401C422.722 10.3934 424.582 9.9201 426.702 9.9201C428.836 9.9201 430.682 10.3868 432.242 11.3201C433.802 12.2534 435.002 13.5468 435.842 15.2001C436.682 16.8534 437.102 18.7601 437.102 20.9201C437.102 21.1734 437.096 21.3734 437.082 21.5201C437.082 21.6668 437.069 21.7934 437.042 21.9001H434.202C434.216 21.7401 434.222 21.5668 434.222 21.3801C434.236 21.1801 434.242 20.9534 434.242 20.7001C434.242 19.1134 433.936 17.7068 433.322 16.4801C432.722 15.2401 431.862 14.2668 430.742 13.5601C429.622 12.8534 428.276 12.5001 426.702 12.5001C425.169 12.5001 423.822 12.8668 422.662 13.6001C421.502 14.3201 420.602 15.3201 419.962 16.6001C419.322 17.8668 419.002 19.3401 419.002 21.0201C419.002 22.6468 419.316 24.0868 419.942 25.3401C420.582 26.5801 421.489 27.5534 422.662 28.2601C423.836 28.9668 425.229 29.3201 426.842 29.3201C428.522 29.3201 429.976 28.9268 431.202 28.1401C432.442 27.3401 433.362 26.2534 433.962 24.8801L436.682 25.9001C435.896 27.7801 434.636 29.2668 432.902 30.3601C431.182 31.4401 429.169 31.9801 426.862 31.9801ZM417.902 21.9001V19.6801H436.182L437.022 21.9001H417.902ZM451.675 31.9801C450.248 31.9801 449.041 31.7668 448.055 31.3401C447.081 30.9134 446.308 30.3468 445.735 29.6401C445.161 28.9201 444.788 28.1201 444.615 27.2401H443.895L444.475 24.8801C444.728 26.2801 445.421 27.4201 446.555 28.3001C447.701 29.1801 449.188 29.6201 451.015 29.6201C452.575 29.6201 453.781 29.3068 454.635 28.6801C455.501 28.0401 455.935 27.1134 455.935 25.9001C455.935 24.7934 455.508 23.9334 454.655 23.3201C453.801 22.7068 452.308 22.2401 450.175 21.9201C447.121 21.4401 444.948 20.6868 443.655 19.6601C442.361 18.6201 441.715 17.2534 441.715 15.5601C441.715 13.8534 442.308 12.4868 443.495 11.4601C444.681 10.4334 446.335 9.9201 448.455 9.9201C449.855 9.9201 451.008 10.1334 451.915 10.5601C452.835 10.9868 453.541 11.5601 454.035 12.2801C454.528 12.9868 454.848 13.7668 454.995 14.6201H455.715L455.135 16.8801C454.895 15.5201 454.241 14.4134 453.175 13.5601C452.108 12.6934 450.715 12.2601 448.995 12.2601C447.608 12.2601 446.521 12.5534 445.735 13.1401C444.961 13.7268 444.575 14.5068 444.575 15.4801C444.575 16.5068 445.061 17.3134 446.035 17.9001C447.008 18.4734 448.541 18.9268 450.635 19.2601C453.595 19.7268 455.695 20.4934 456.935 21.5601C458.175 22.6268 458.795 24.0668 458.795 25.8801C458.795 27.7868 458.181 29.2801 456.955 30.3601C455.741 31.4401 453.981 31.9801 451.675 31.9801ZM441.595 31.6001V24.8801H444.475V31.6001H441.595ZM455.135 16.8801V10.3001H458.015V16.8801H455.135ZM492.978 15.1001V17.7601H480.778V15.1001H492.978ZM500.518 1.5201V10.1601H497.518V4.2601H482.078V28.8601H487.878V31.6001H474.258V28.8601H479.098V4.2601H474.258V1.5201H500.518ZM517.203 31.6001C516.656 31.6001 516.236 31.4268 515.943 31.0801C515.663 30.7334 515.523 30.2468 515.523 29.6201V23.2201L515.783 22.5601L515.643 20.1401L515.523 18.8801V17.2601C515.523 16.1668 515.296 15.2734 514.843 14.5801C514.403 13.8868 513.763 13.3734 512.923 13.0401C512.083 12.7068 511.07 12.5401 509.883 12.5401C508.11 12.5401 506.736 12.8934 505.763 13.6001C504.803 14.2934 504.163 15.3401 503.843 16.7401L501.083 16.1601C501.35 14.7601 501.85 13.6001 502.583 12.6801C503.316 11.7468 504.29 11.0534 505.503 10.6001C506.73 10.1334 508.223 9.9001 509.983 9.9001C511.823 9.9001 513.363 10.1601 514.603 10.6801C515.856 11.1868 516.803 11.9668 517.443 13.0201C518.083 14.0734 518.403 15.4334 518.403 17.1001V29.1201H521.543V31.6001H517.203ZM507.163 31.8801C504.95 31.8801 503.27 31.3934 502.123 30.4201C500.976 29.4334 500.403 27.9868 500.403 26.0801C500.403 24.3201 500.91 22.9801 501.923 22.0601C502.936 21.1268 504.563 20.4268 506.803 19.9601L516.383 17.9201V19.9801L507.283 22.0401C505.976 22.3468 504.996 22.8001 504.343 23.4001C503.703 23.9868 503.383 24.8201 503.383 25.9001C503.383 27.0734 503.743 27.9534 504.463 28.5401C505.183 29.1134 506.236 29.4001 507.623 29.4001C509.156 29.4001 510.53 29.0468 511.743 28.3401C512.956 27.6334 513.91 26.5934 514.603 25.2201C515.296 23.8468 515.643 22.1534 515.643 20.1401L516.403 24.8601H515.383C515.05 27.0868 514.183 28.8134 512.783 30.0401C511.396 31.2668 509.523 31.8801 507.163 31.8801ZM536.617 10.3001H546.057V12.7801H543.657L535.817 31.6001H532.697L524.597 12.7801H522.217V10.3001H531.877V12.7801H527.717L535.577 31.6001L532.877 28.5801H535.617L533.277 31.6001L540.777 12.7801H536.617V10.3001ZM556.113 29.1201H560.213V31.6001H548.913V29.1201H553.233V12.7801H548.913V10.3001H556.113V29.1201ZM552.693 1.3201H556.373V5.1401H552.693V1.3201ZM593.011 12.7801H588.891V10.3001H595.891V29.1201H600.051V31.6001H593.011V12.7801ZM581.111 10.3001V23.8801C581.111 25.6268 581.497 27.0068 582.271 28.0201C583.057 29.0201 584.291 29.5201 585.971 29.5201C587.317 29.5201 588.517 29.1801 589.571 28.5001C590.637 27.8068 591.477 26.8134 592.091 25.5201C592.704 24.2268 593.011 22.6734 593.011 20.8601L593.711 25.1201H592.871C592.511 27.4134 591.617 29.1468 590.191 30.3201C588.777 31.4801 587.037 32.0601 584.971 32.0601C582.677 32.0601 580.977 31.3801 579.871 30.0201C578.777 28.6601 578.231 26.7734 578.231 24.3601V12.7801H574.371V10.3001H581.111ZM610.366 29.1201H614.166V31.6001H603.106V29.1201H607.486V12.7801H603.106V10.3001H610.366V29.1201ZM622.646 29.1201V17.9801C622.646 16.2334 622.253 14.8601 621.466 13.8601C620.679 12.8601 619.439 12.3601 617.746 12.3601C616.373 12.3601 615.126 12.7001 614.006 13.3801C612.886 14.0601 611.999 15.0468 611.346 16.3401C610.693 17.6334 610.366 19.2001 610.366 21.0401L609.706 16.7801H610.506C610.759 15.3268 611.246 14.0934 611.966 13.0801C612.686 12.0534 613.606 11.2734 614.726 10.7401C615.859 10.1934 617.159 9.9201 618.626 9.9201C620.946 9.9201 622.673 10.5934 623.806 11.9401C624.953 13.2734 625.526 15.1601 625.526 17.6001V29.1201H629.626V31.6001H618.906V29.1201H622.646ZM639.941 29.1201H644.041V31.6001H632.741V29.1201H637.061V12.7801H632.741V10.3001H639.941V29.1201ZM636.521 1.3201H640.201V5.1401H636.521V1.3201ZM668.73 37.5201H672.93V40.0001H661.21V37.5201H665.85V23.5001L665.95 21.8601V20.3801L665.85 18.0401V14.8601L668.47 9.8601H668.73V37.5201ZM657.93 9.9001C659.717 9.9001 661.31 10.2401 662.71 10.9201C664.124 11.5868 665.29 12.5468 666.21 13.8001C667.13 15.0401 667.744 16.5201 668.05 18.2401L665.97 20.9601C665.97 19.3068 665.65 17.8468 665.01 16.5801C664.384 15.3134 663.484 14.3201 662.31 13.6001C661.137 12.8668 659.744 12.5001 658.13 12.5001C656.504 12.5001 655.104 12.8534 653.93 13.5601C652.757 14.2668 651.857 15.2601 651.23 16.5401C650.617 17.8068 650.31 19.2868 650.31 20.9801C650.31 22.6334 650.637 24.0934 651.29 25.3601C651.957 26.6268 652.877 27.6201 654.05 28.3401C655.237 29.0601 656.597 29.4201 658.13 29.4201C659.73 29.4201 661.11 29.0601 662.27 28.3401C663.444 27.6201 664.35 26.6268 664.99 25.3601C665.644 24.0801 665.97 22.6134 665.97 20.9601L666.41 25.4401H665.73C665.49 26.6134 665.024 27.7001 664.33 28.7001C663.637 29.6868 662.724 30.4868 661.59 31.1001C660.457 31.7001 659.097 32.0001 657.51 32.0001C656.03 32.0001 654.67 31.7334 653.43 31.2001C652.19 30.6534 651.117 29.8868 650.21 28.9001C649.304 27.9001 648.597 26.7268 648.09 25.3801C647.597 24.0201 647.35 22.5334 647.35 20.9201C647.35 18.7601 647.79 16.8534 648.67 15.2001C649.55 13.5468 650.777 12.2534 652.35 11.3201C653.937 10.3734 655.797 9.9001 657.93 9.9001ZM692.464 12.7801H688.344V10.3001H695.344V29.1201H699.504V31.6001H692.464V12.7801ZM680.564 10.3001V23.8801C680.564 25.6268 680.95 27.0068 681.724 28.0201C682.51 29.0201 683.744 29.5201 685.424 29.5201C686.77 29.5201 687.97 29.1801 689.024 28.5001C690.09 27.8068 690.93 26.8134 691.544 25.5201C692.157 24.2268 692.464 22.6734 692.464 20.8601L693.164 25.1201H692.324C691.964 27.4134 691.07 29.1468 689.644 30.3201C688.23 31.4801 686.49 32.0601 684.424 32.0601C682.13 32.0601 680.43 31.3801 679.324 30.0201C678.23 28.6601 677.684 26.7734 677.684 24.3601V12.7801H673.824V10.3001H680.564ZM713.659 31.9801C711.459 31.9801 709.552 31.5134 707.939 30.5801C706.326 29.6468 705.079 28.3601 704.199 26.7201C703.319 25.0668 702.879 23.1668 702.879 21.0201C702.879 18.8468 703.319 16.9268 704.199 15.2601C705.092 13.5934 706.332 12.2868 707.919 11.3401C709.519 10.3934 711.379 9.9201 713.499 9.9201C715.632 9.9201 717.479 10.3868 719.039 11.3201C720.599 12.2534 721.799 13.5468 722.639 15.2001C723.479 16.8534 723.899 18.7601 723.899 20.9201C723.899 21.1734 723.892 21.3734 723.879 21.5201C723.879 21.6668 723.866 21.7934 723.839 21.9001H720.999C721.012 21.7401 721.019 21.5668 721.019 21.3801C721.032 21.1801 721.039 20.9534 721.039 20.7001C721.039 19.1134 720.732 17.7068 720.119 16.4801C719.519 15.2401 718.659 14.2668 717.539 13.5601C716.419 12.8534 715.072 12.5001 713.499 12.5001C711.966 12.5001 710.619 12.8668 709.459 13.6001C708.299 14.3201 707.399 15.3201 706.759 16.6001C706.119 17.8668 705.799 19.3401 705.799 21.0201C705.799 22.6468 706.112 24.0868 706.739 25.3401C707.379 26.5801 708.286 27.5534 709.459 28.2601C710.632 28.9668 712.026 29.3201 713.639 29.3201C715.319 29.3201 716.772 28.9268 717.999 28.1401C719.239 27.3401 720.159 26.2534 720.759 24.8801L723.479 25.9001C722.692 27.7801 721.432 29.2668 719.699 30.3601C717.979 31.4401 715.966 31.9801 713.659 31.9801ZM704.699 21.9001V19.6801H722.979L723.819 21.9001H704.699Z" fill="black"/>
</svg>
