<svg width="844" height="395" viewBox="0 0 844 395" fill="none" xmlns="http://www.w3.org/2000/svg">
<rect x="0.853516" y="15.6177" width="822.954" height="378.382" rx="14.2289" fill="black"/>
<rect x="0.853516" y="15.6177" width="822.954" height="378.382" rx="14.2289" stroke="black" stroke-width="1.70747"/>
<path d="M63.8104 99.7354H70.4181L59.9953 72.2034H52.247L41.7455 99.7354H48.1565L50.3984 93.285H61.6078L63.8104 99.7354ZM52.129 88.3292L54.2529 82.3115C55.3541 79.165 55.7475 77.9851 56.0621 77.0018L57.8714 82.2722L59.9166 88.3292H52.129ZM82.3118 100.365C86.9529 100.365 90.5321 97.8474 92.0267 94.0716L86.7563 92.1837C85.891 94.7009 84.4751 95.9202 82.1938 95.9202C79.598 95.9202 77.3954 93.9143 77.3954 89.8632C77.3954 85.812 79.5193 83.8848 82.1545 83.8848C84.1997 83.8848 85.773 85.0647 86.5596 87.3066L91.712 85.3794C90.4141 82.0362 87.0709 79.4797 82.3512 79.4797C76.4121 79.4797 71.771 83.5308 71.771 89.8632C71.771 96.1955 76.2548 100.365 82.3118 100.365ZM104.743 100.365C109.384 100.365 112.963 97.8474 114.458 94.0716L109.187 92.1837C108.322 94.7009 106.906 95.9202 104.625 95.9202C102.029 95.9202 99.8266 93.9143 99.8266 89.8632C99.8266 85.812 101.95 83.8848 104.586 83.8848C106.631 83.8848 108.204 85.0647 108.991 87.3066L114.143 85.3794C112.845 82.0362 109.502 79.4797 104.782 79.4797C98.8433 79.4797 94.2022 83.5308 94.2022 89.8632C94.2022 96.1955 98.686 100.365 104.743 100.365ZM126.663 100.365C132.641 100.365 135.119 97.1395 136.22 94.6223L131.225 92.695C130.399 94.5436 129.18 96.1169 126.663 96.1169C124.264 96.1169 122.415 94.7009 122.258 91.2398H136.142C136.692 84.6714 133.231 79.4797 126.624 79.4797C120.921 79.4797 116.673 83.6881 116.673 89.8632C116.673 96.3135 120.606 100.365 126.663 100.365ZM122.454 87.3066C122.848 84.8288 124.382 83.4915 126.624 83.4915C128.983 83.4915 130.399 84.8681 130.635 87.3066H122.454ZM147.993 100.286C153.735 100.286 157.118 97.7295 157.118 93.7963C157.118 90.0598 154.05 88.3686 150.353 87.6606L147.639 87.1493C145.515 86.756 144.925 86.2447 144.925 85.2221C144.925 84.1601 145.83 83.3342 147.717 83.3342C149.684 83.3342 151.1 84.4748 151.69 86.0874L156.292 84.0028C155.426 82.0362 152.909 79.4797 147.993 79.4797C142.722 79.4797 139.537 81.9576 139.537 85.694C139.537 89.5485 141.936 90.9251 146.066 91.7511L148.858 92.3017C150.864 92.695 151.297 93.4817 151.297 94.3863C151.297 95.4876 150.274 96.3529 148.307 96.3529C144.492 96.3529 143.902 93.4817 143.824 93.049L138.75 94.6616C139.576 98.1228 143.352 100.286 147.993 100.286ZM168.657 100.286C174.4 100.286 177.782 97.7295 177.782 93.7963C177.782 90.0598 174.714 88.3686 171.017 87.6606L168.303 87.1493C166.179 86.756 165.589 86.2447 165.589 85.2221C165.589 84.1601 166.494 83.3342 168.382 83.3342C170.348 83.3342 171.764 84.4748 172.354 86.0874L176.956 84.0028C176.091 82.0362 173.574 79.4797 168.657 79.4797C163.387 79.4797 160.201 81.9576 160.201 85.694C160.201 89.5485 162.6 90.9251 166.73 91.7511L169.522 92.3017C171.528 92.695 171.961 93.4817 171.961 94.3863C171.961 95.4876 170.938 96.3529 168.972 96.3529C165.157 96.3529 164.567 93.4817 164.488 93.049L159.414 94.6616C160.24 98.1228 164.016 100.286 168.657 100.286ZM181.495 77.3951H187.434V72.1247H181.495V77.3951ZM181.691 99.7354H187.276V80.0697H181.691V99.7354ZM204.596 100.365C209.827 100.365 213.131 96.1169 213.131 89.9025C213.131 83.6881 209.827 79.4797 204.635 79.4797C201.292 79.4797 199.089 81.4069 198.224 82.7049V79.3224V72.2034H192.639V99.7354H198.067V97.1001C199.011 98.5161 201.213 100.365 204.596 100.365ZM202.668 96.1169C199.915 96.1169 197.988 94.0716 197.988 89.9025C197.988 85.7334 199.915 83.6881 202.668 83.6881C205.264 83.6881 207.27 85.3007 207.27 89.9025C207.27 94.5043 205.264 96.1169 202.668 96.1169ZM217.062 77.3951H223.001V72.1247H217.062V77.3951ZM217.258 99.7354H222.844V80.0697H217.258V99.7354ZM228.206 99.7354H233.791V72.2034H228.206V99.7354ZM238.994 77.3951H244.933V72.1247H238.994V77.3951ZM239.19 99.7354H244.775V80.0697H239.19V99.7354ZM257.139 99.7354H263.707V95.2909H259.46C258.24 95.2909 257.729 94.7403 257.729 93.5603V84.3174H262.842V80.0697H257.729V73.8946H252.144V80.0697H248.014V84.3174H252.144V94.5829C252.144 97.6508 253.953 99.7354 257.139 99.7354ZM280.248 80.0697L277.967 87.1886C276.63 91.3578 276.276 92.3804 276.04 93.049C275.686 92.341 275.174 91.2398 273.601 87.582L270.336 80.0697H264.358L273.876 99.6567L273.522 100.679C272.932 102.331 272.382 102.961 270.966 102.961H265.853V107.405H271.713C275.174 107.405 276.787 105.871 277.888 102.843L286.108 80.0697H280.248ZM305.434 100.286C311.176 100.286 314.558 97.7295 314.558 93.7963C314.558 90.0598 311.491 88.3686 307.793 87.6606L305.08 87.1493C302.956 86.756 302.366 86.2447 302.366 85.2221C302.366 84.1601 303.27 83.3342 305.158 83.3342C307.125 83.3342 308.541 84.4748 309.131 86.0874L313.733 84.0028C312.867 82.0362 310.35 79.4797 305.434 79.4797C300.163 79.4797 296.977 81.9576 296.977 85.694C296.977 89.5485 299.377 90.9251 303.506 91.7511L306.299 92.3017C308.305 92.695 308.737 93.4817 308.737 94.3863C308.737 95.4876 307.715 96.3529 305.748 96.3529C301.933 96.3529 301.343 93.4817 301.264 93.049L296.191 94.6616C297.017 98.1228 300.793 100.286 305.434 100.286ZM327.199 100.365C333.178 100.365 335.655 97.1395 336.757 94.6223L331.762 92.695C330.936 94.5436 329.716 96.1169 327.199 96.1169C324.8 96.1169 322.951 94.7009 322.794 91.2398H336.678C337.229 84.6714 333.768 79.4797 327.16 79.4797C321.457 79.4797 317.209 83.6881 317.209 89.8632C317.209 96.3135 321.142 100.365 327.199 100.365ZM322.991 87.3066C323.384 84.8288 324.918 83.4915 327.16 83.4915C329.52 83.4915 330.936 84.8681 331.172 87.3066H322.991ZM347.67 99.7354H354.239V95.2909H349.991C348.772 95.2909 348.26 94.7403 348.26 93.5603V84.3174H353.373V80.0697H348.26V73.8946H342.675V80.0697H338.545V84.3174H342.675V94.5829C342.675 97.6508 344.484 99.7354 347.67 99.7354ZM364.801 99.7354H371.369V95.2909H367.122C365.902 95.2909 365.391 94.7403 365.391 93.5603V84.3174H370.504V80.0697H365.391V73.8946H359.806V80.0697H355.676V84.3174H359.806V94.5829C359.806 97.6508 361.615 99.7354 364.801 99.7354ZM374.695 77.3951H380.634V72.1247H374.695V77.3951ZM374.891 99.7354H380.476V80.0697H374.891V99.7354ZM385.839 99.7354H391.424V90.4138C391.424 88.3292 391.463 84.0815 395.357 84.0815C397.284 84.0815 398.504 85.1827 398.504 87.7786V99.7354H404.089V86.5593C404.089 82.2722 402.161 79.4797 397.599 79.4797C393.981 79.4797 392.093 81.7609 391.267 83.0982V80.0697H385.839V99.7354ZM413.516 107.405H422.641C426.495 107.405 429.484 105.281 429.484 101.309C429.484 98.1228 426.849 95.3696 422.641 95.3696H414.184C413.044 95.3696 412.218 95.3302 412.218 94.5043C412.218 93.875 412.611 93.4423 413.712 93.1277C414.892 93.639 416.348 93.7963 417.803 93.7963C422.405 93.7963 425.826 91.2004 426.298 86.9526L426.338 86.5987C426.574 84.5928 426.888 84.3174 428.108 84.3174H430.271V80.0697H428.776C426.141 80.0697 425.394 80.8563 425.276 83.4522C423.978 81.0923 421.146 79.4797 417.606 79.4797C412.65 79.4797 409.071 82.4295 409.071 86.8347C409.071 88.7226 409.897 90.4925 411.195 91.5544C409.583 92.4197 408.088 93.875 408.088 95.8415C408.088 97.6115 408.796 98.6734 409.937 99.46C408.796 100.207 407.616 101.623 407.616 103.354C407.616 105.871 409.347 107.405 413.516 107.405ZM417.763 90.1385C415.679 90.1385 414.302 88.8012 414.302 86.7953C414.302 84.7501 415.679 83.2555 417.763 83.2555C419.848 83.2555 421.225 84.7501 421.225 86.7953C421.225 88.8012 419.848 90.1385 417.763 90.1385ZM413.87 103.354C412.808 103.354 411.903 102.764 411.903 101.505C411.903 100.719 412.454 100.011 412.926 99.7354H421.539C423.388 99.7354 423.978 100.601 423.978 101.505C423.978 102.607 423.388 103.354 421.539 103.354H413.87ZM440.251 100.286C445.994 100.286 449.376 97.7295 449.376 93.7963C449.376 90.0598 446.308 88.3686 442.611 87.6606L439.897 87.1493C437.773 86.756 437.183 86.2447 437.183 85.2221C437.183 84.1601 438.088 83.3342 439.976 83.3342C441.942 83.3342 443.358 84.4748 443.948 86.0874L448.55 84.0028C447.685 82.0362 445.168 79.4797 440.251 79.4797C434.981 79.4797 431.795 81.9576 431.795 85.694C431.795 89.5485 434.194 90.9251 438.324 91.7511L441.116 92.3017C443.122 92.695 443.555 93.4817 443.555 94.3863C443.555 95.4876 442.532 96.3529 440.566 96.3529C436.751 96.3529 436.161 93.4817 436.082 93.049L431.008 94.6616C431.834 98.1228 435.61 100.286 440.251 100.286Z" fill="black"/>
<rect x="41.7248" y="124.548" width="75.4819" height="36.8872" rx="18.4436" fill="black" fill-opacity="0.3" stroke="black" stroke-width="1.70747"/>
<rect x="40.8711" y="125.302" width="35.3785" height="35.3785" rx="17.6892" fill="white" stroke="black" stroke-width="1.70747"/>
<path d="M143.907 149.474H146.25L140.853 134.832H137.967L132.466 149.474H134.725L136.105 145.604H142.548L143.907 149.474ZM136.796 143.68L138.218 139.706C138.783 138.158 139.117 137.175 139.347 136.569C139.577 137.175 139.891 138.054 140.456 139.706L141.857 143.68H136.796ZM151.592 149.766C153.412 149.766 154.437 148.762 154.939 147.905V149.474H156.863V134.832H154.897V138.681V140.689C154.395 139.831 153.391 138.807 151.592 138.807C149.145 138.807 147.325 140.898 147.325 144.307C147.325 147.696 149.145 149.766 151.592 149.766ZM152.136 148.093C150.546 148.093 149.354 147.131 149.354 144.307C149.354 141.505 150.546 140.48 152.136 140.48C153.809 140.48 155.002 141.756 155.002 144.307C155.002 146.859 153.809 148.093 152.136 148.093ZM162.761 149.766C164.414 149.766 165.418 149.034 166.15 147.905C166.275 148.783 166.568 149.474 168.074 149.474H169.58V147.8H168.513C168.032 147.8 167.907 147.675 167.907 147.194V142.446C167.907 140.208 166.568 138.807 163.765 138.807C161.025 138.807 159.54 140.292 159.206 141.714L161.088 142.32C161.36 141.526 161.946 140.459 163.765 140.459C165.292 140.459 165.941 141.191 165.941 142.383V142.697C162.573 142.969 159.415 143.931 159.415 146.796C159.415 148.637 160.733 149.766 162.761 149.766ZM163.284 148.156C162.05 148.156 161.444 147.57 161.444 146.629C161.444 144.977 163.514 144.37 165.941 144.119V145.186C165.941 147.257 164.602 148.156 163.284 148.156ZM171.232 153.552H173.198V149.892V147.905C173.7 148.762 174.683 149.766 176.503 149.766C178.95 149.766 180.749 147.675 180.749 144.286C180.749 140.877 178.95 138.807 176.503 138.807C174.683 138.807 173.637 139.81 173.135 140.668V139.099H171.232V153.552ZM175.938 148.093C174.285 148.093 173.093 146.817 173.093 144.266C173.093 141.714 174.285 140.48 175.938 140.48C177.548 140.48 178.72 141.442 178.72 144.266C178.72 147.068 177.548 148.093 175.938 148.093ZM186.754 149.474H189.305V147.779H187.13C186.419 147.779 186.105 147.466 186.105 146.755V140.731H188.908V139.099H186.105V135.857H184.139V139.099H181.776V140.731H184.139V146.922C184.139 148.637 185.038 149.474 186.754 149.474ZM200.689 149.766C203.031 149.766 204.6 148.407 205.29 146.483L203.429 145.834C203.073 146.985 202.299 148.072 200.668 148.072C199.015 148.072 197.698 146.859 197.698 144.286C197.698 141.756 199.036 140.501 200.647 140.501C202.09 140.501 202.843 141.421 203.199 142.446L205.039 141.818C204.516 140.187 203.031 138.807 200.668 138.807C197.761 138.807 195.648 141.045 195.648 144.286C195.648 147.633 197.656 149.766 200.689 149.766ZM211.486 149.766C214.268 149.766 216.401 147.466 216.401 144.307C216.401 141.149 214.352 138.807 211.486 138.807C208.621 138.807 206.55 141.149 206.55 144.307C206.55 147.424 208.683 149.766 211.486 149.766ZM211.486 148.072C209.771 148.072 208.6 146.859 208.6 144.328C208.6 141.777 209.771 140.501 211.486 140.501C213.18 140.501 214.352 141.777 214.352 144.328C214.352 146.859 213.18 148.072 211.486 148.072ZM218.799 149.474H220.765V144.998C220.765 143.534 220.807 140.522 223.526 140.522C224.865 140.522 225.722 141.275 225.722 143.136V149.474H227.688V142.676C227.688 140.375 226.643 138.807 224.091 138.807C221.916 138.807 220.912 140.333 220.702 140.835V139.099H218.799V149.474ZM234.382 149.474H236.934V147.779H234.759C234.047 147.779 233.734 147.466 233.734 146.755V140.731H236.536V139.099H233.734V135.857H231.768V139.099H229.404V140.731H231.768V146.922C231.768 148.637 232.667 149.474 234.382 149.474ZM242.863 149.766C245.018 149.766 246.67 148.762 247.423 146.775L245.624 146.127C245.331 146.859 244.599 148.114 242.926 148.114C241.504 148.114 240.123 147.277 240.04 144.788H247.339C247.716 141.4 245.875 138.807 242.78 138.807C240.081 138.807 238.073 140.94 238.073 144.328C238.073 147.821 239.977 149.766 242.863 149.766ZM240.081 143.22C240.249 141.421 241.441 140.375 242.78 140.375C244.16 140.375 245.331 141.358 245.352 143.22H240.081ZM249.893 149.474H251.859V144.998C251.859 143.534 251.901 140.522 254.62 140.522C255.958 140.522 256.816 141.275 256.816 143.136V149.474H258.782V142.676C258.782 140.375 257.736 138.807 255.184 138.807C253.009 138.807 252.005 140.333 251.796 140.835V139.099H249.893V149.474ZM265.476 149.474H268.028V147.779H265.852C265.141 147.779 264.827 147.466 264.827 146.755V140.731H267.63V139.099H264.827V135.857H262.861V139.099H260.498V140.731H262.861V146.922C262.861 148.637 263.761 149.474 265.476 149.474ZM275.841 149.474H277.807V140.731H280.484V139.099H277.807V137.552C277.807 136.84 278.1 136.527 278.832 136.527H280.861V134.832H278.455C276.74 134.832 275.841 135.69 275.841 137.572V139.099H273.582V140.731H275.841V149.474ZM286.307 149.766C289.089 149.766 291.222 147.466 291.222 144.307C291.222 141.149 289.173 138.807 286.307 138.807C283.442 138.807 281.371 141.149 281.371 144.307C281.371 147.424 283.504 149.766 286.307 149.766ZM286.307 148.072C284.592 148.072 283.421 146.859 283.421 144.328C283.421 141.777 284.592 140.501 286.307 140.501C288.001 140.501 289.173 141.777 289.173 144.328C289.173 146.859 288.001 148.072 286.307 148.072ZM293.62 149.474H295.586V144.809C295.586 142.362 296.548 140.982 298.849 140.982C299.267 140.982 299.623 141.024 299.958 141.065V139.058C299.728 138.995 299.435 138.953 298.995 138.953C296.925 138.953 295.9 140.501 295.544 141.296V139.099H293.62V149.474ZM309.933 149.766C312.61 149.766 314.158 148.512 314.158 146.545C314.158 144.245 311.857 143.575 310.665 143.324L309.431 143.094C307.987 142.822 307.674 142.425 307.674 141.756C307.674 141.024 308.301 140.375 309.682 140.375C311.313 140.375 311.94 141.4 312.191 142.111L313.927 141.442C313.509 140.124 312.275 138.807 309.702 138.807C307.548 138.807 305.791 140.082 305.791 141.944C305.791 143.931 307.276 144.6 309.054 144.956L310.309 145.186C311.731 145.458 312.171 145.981 312.171 146.713C312.171 147.633 311.397 148.156 309.953 148.156C308.259 148.156 307.506 147.257 307.234 146.19L305.373 146.796C305.812 148.762 307.757 149.766 309.933 149.766ZM320.769 149.766C323.112 149.766 324.68 148.407 325.37 146.483L323.509 145.834C323.153 146.985 322.379 148.072 320.748 148.072C319.096 148.072 317.778 146.859 317.778 144.286C317.778 141.756 319.117 140.501 320.727 140.501C322.17 140.501 322.923 141.421 323.279 142.446L325.119 141.818C324.597 140.187 323.112 138.807 320.748 138.807C317.841 138.807 315.728 141.045 315.728 144.286C315.728 147.633 317.736 149.766 320.769 149.766ZM327.446 149.474H329.412V144.809C329.412 142.362 330.374 140.982 332.675 140.982C333.093 140.982 333.449 141.024 333.783 141.065V139.058C333.553 138.995 333.26 138.953 332.821 138.953C330.751 138.953 329.726 140.501 329.37 141.296V139.099H327.446V149.474ZM339.484 149.766C341.638 149.766 343.291 148.762 344.044 146.775L342.245 146.127C341.952 146.859 341.22 148.114 339.547 148.114C338.125 148.114 336.744 147.277 336.66 144.788H343.96C344.337 141.4 342.496 138.807 339.4 138.807C336.702 138.807 334.694 140.94 334.694 144.328C334.694 147.821 336.598 149.766 339.484 149.766ZM336.702 143.22C336.87 141.421 338.062 140.375 339.4 140.375C340.781 140.375 341.952 141.358 341.973 143.22H336.702ZM350.53 149.766C352.684 149.766 354.336 148.762 355.089 146.775L353.29 146.127C352.998 146.859 352.266 148.114 350.592 148.114C349.17 148.114 347.79 147.277 347.706 144.788H355.006C355.382 141.4 353.541 138.807 350.446 138.807C347.748 138.807 345.74 140.94 345.74 144.328C345.74 147.821 347.643 149.766 350.53 149.766ZM347.748 143.22C347.915 141.421 349.107 140.375 350.446 140.375C351.826 140.375 352.998 141.358 353.019 143.22H347.748ZM357.559 149.474H359.525V144.998C359.525 143.534 359.567 140.522 362.286 140.522C363.625 140.522 364.482 141.275 364.482 143.136V149.474H366.448V142.676C366.448 140.375 365.403 138.807 362.851 138.807C360.676 138.807 359.672 140.333 359.462 140.835V139.099H357.559V149.474ZM374.646 149.474H376.612V144.809C376.612 142.362 377.574 140.982 379.875 140.982C380.293 140.982 380.648 141.024 380.983 141.065V139.058C380.753 138.995 380.46 138.953 380.021 138.953C377.95 138.953 376.925 140.501 376.57 141.296V139.099H374.646V149.474ZM386.684 149.766C388.838 149.766 390.491 148.762 391.243 146.775L389.445 146.127C389.152 146.859 388.42 148.114 386.747 148.114C385.324 148.114 383.944 147.277 383.86 144.788H391.16C391.536 141.4 389.696 138.807 386.6 138.807C383.902 138.807 381.894 140.94 381.894 144.328C381.894 147.821 383.797 149.766 386.684 149.766ZM383.902 143.22C384.069 141.421 385.262 140.375 386.6 140.375C387.981 140.375 389.152 141.358 389.173 143.22H383.902ZM396.391 149.766C398.043 149.766 399.047 149.034 399.779 147.905C399.904 148.783 400.197 149.474 401.703 149.474H403.209V147.8H402.142C401.661 147.8 401.536 147.675 401.536 147.194V142.446C401.536 140.208 400.197 138.807 397.395 138.807C394.655 138.807 393.17 140.292 392.835 141.714L394.717 142.32C394.989 141.526 395.575 140.459 397.395 140.459C398.921 140.459 399.57 141.191 399.57 142.383V142.697C396.202 142.969 393.044 143.931 393.044 146.796C393.044 148.637 394.362 149.766 396.391 149.766ZM396.914 148.156C395.679 148.156 395.073 147.57 395.073 146.629C395.073 144.977 397.144 144.37 399.57 144.119V145.186C399.57 147.257 398.231 148.156 396.914 148.156ZM408.354 149.766C410.174 149.766 411.198 148.762 411.7 147.905V149.474H413.625V134.832H411.659V138.681V140.689C411.157 139.831 410.153 138.807 408.354 138.807C405.907 138.807 404.087 140.898 404.087 144.307C404.087 147.696 405.907 149.766 408.354 149.766ZM408.898 148.093C407.308 148.093 406.116 147.131 406.116 144.307C406.116 141.505 407.308 140.48 408.898 140.48C410.571 140.48 411.763 141.756 411.763 144.307C411.763 146.859 410.571 148.093 408.898 148.093ZM420.862 149.766C423.016 149.766 424.668 148.762 425.421 146.775L423.623 146.127C423.33 146.859 422.598 148.114 420.924 148.114C419.502 148.114 418.122 147.277 418.038 144.788H425.338C425.714 141.4 423.874 138.807 420.778 138.807C418.08 138.807 416.072 140.94 416.072 144.328C416.072 147.821 417.975 149.766 420.862 149.766ZM418.08 143.22C418.247 141.421 419.439 140.375 420.778 140.375C422.159 140.375 423.33 141.358 423.351 143.22H418.08ZM427.891 149.474H429.857V144.809C429.857 142.362 430.82 140.982 433.12 140.982C433.539 140.982 433.894 141.024 434.229 141.065V139.058C433.999 138.995 433.706 138.953 433.267 138.953C431.196 138.953 430.171 140.501 429.816 141.296V139.099H427.891V149.474ZM439.572 149.766C442.249 149.766 443.797 148.512 443.797 146.545C443.797 144.245 441.496 143.575 440.304 143.324L439.07 143.094C437.627 142.822 437.313 142.425 437.313 141.756C437.313 141.024 437.941 140.375 439.321 140.375C440.952 140.375 441.58 141.4 441.831 142.111L443.567 141.442C443.149 140.124 441.915 138.807 439.342 138.807C437.188 138.807 435.431 140.082 435.431 141.944C435.431 143.931 436.916 144.6 438.694 144.956L439.948 145.186C441.371 145.458 441.81 145.981 441.81 146.713C441.81 147.633 441.036 148.156 439.593 148.156C437.899 148.156 437.146 147.257 436.874 146.19L435.012 146.796C435.452 148.762 437.397 149.766 439.572 149.766Z" fill="black"/>
<g clip-path="url(#clip0_14_407)">
<rect x="20.2422" y="2" width="821.612" height="378.382" rx="14.2289" fill="#FFE136"/>
<path d="M227.517 63.875V69.9H213.192V63.875H227.517ZM239.217 48.05V61.3H231.417V54.675H216.892V79.375H223.417V86H204.517V79.375H209.092V54.675H204.517V48.05H239.217ZM260.299 86C259.199 86 258.349 85.675 257.749 85.025C257.165 84.3583 256.874 83.425 256.874 82.225V76.3L257.399 75.3L257.099 72.3L256.874 70.625V68.45C256.874 67.5 256.674 66.7167 256.274 66.1C255.874 65.4667 255.29 65 254.524 64.7C253.774 64.4 252.865 64.25 251.799 64.25C250.299 64.25 249.074 64.5583 248.124 65.175C247.19 65.775 246.582 66.7333 246.299 68.05L239.299 66.975C239.599 65.025 240.257 63.3667 241.274 62C242.29 60.6333 243.715 59.5917 245.549 58.875C247.382 58.1583 249.674 57.8 252.424 57.8C255.007 57.8 257.19 58.1417 258.974 58.825C260.774 59.4917 262.14 60.5417 263.074 61.975C264.007 63.4083 264.474 65.2583 264.474 67.525V79.725H267.774V86H260.299ZM247.224 86.5C244.34 86.5 242.157 85.8333 240.674 84.5C239.19 83.1667 238.449 81.2833 238.449 78.85C238.449 76.4833 239.19 74.6833 240.674 73.45C242.157 72.2 244.482 71.2917 247.649 70.725L258.274 68.725V72.425L249.849 74.225C248.649 74.4583 247.774 74.8583 247.224 75.425C246.674 75.975 246.399 76.7083 246.399 77.625C246.399 78.6083 246.707 79.3583 247.324 79.875C247.957 80.3917 248.857 80.65 250.024 80.65C251.357 80.65 252.557 80.3167 253.624 79.65C254.707 78.9833 255.557 78.0333 256.174 76.8C256.79 75.55 257.099 74.05 257.099 72.3L258.349 78.175H256.649C256.282 80.9583 255.29 83.0417 253.674 84.425C252.057 85.8083 249.907 86.5 247.224 86.5ZM286.676 58.45H299.951V64.7H297.501L288.576 86H279.826L270.601 64.7H268.151V58.45H282.701V64.7H278.901L287.501 86L282.376 79.2H286.976L282.251 86L290.451 64.7H286.676V58.45ZM314.729 79.75H318.654V86H302.829V79.75H307.129V64.7H302.829V58.45H314.729V79.75ZM306.454 46.825H314.954V54.025H306.454V46.825ZM355.402 86.625C352.535 86.625 349.902 86.15 347.502 85.2C345.102 84.2333 343.027 82.875 341.277 81.125C339.543 79.3583 338.193 77.275 337.227 74.875C336.277 72.4583 335.802 69.8083 335.802 66.925C335.802 64.0583 336.268 61.4417 337.202 59.075C338.152 56.6917 339.46 54.6333 341.127 52.9C342.793 51.1667 344.735 49.825 346.952 48.875C349.185 47.925 351.593 47.45 354.177 47.45C356.577 47.45 358.627 47.8833 360.327 48.75C362.043 49.6 363.402 50.8583 364.402 52.525C365.418 54.175 366.077 56.2167 366.377 58.65H368.227L366.652 63.225C366.002 60.6917 364.677 58.675 362.677 57.175C360.677 55.675 358.277 54.925 355.477 54.925C353.21 54.925 351.21 55.4333 349.477 56.45C347.76 57.45 346.41 58.8583 345.427 60.675C344.46 62.475 343.977 64.5583 343.977 66.925C343.977 68.725 344.252 70.375 344.802 71.875C345.368 73.375 346.152 74.675 347.152 75.775C348.168 76.8583 349.377 77.6917 350.777 78.275C352.177 78.8583 353.718 79.15 355.402 79.15C357.335 79.15 359.068 78.775 360.602 78.025C362.152 77.2583 363.435 76.1833 364.452 74.8C365.468 73.4167 366.152 71.7917 366.502 69.925L374.502 71.275C373.952 74.3583 372.802 77.0583 371.052 79.375C369.318 81.675 367.11 83.4583 364.427 84.725C361.76 85.9917 358.752 86.625 355.402 86.625ZM366.652 63.225V48.05H374.452V63.225H366.652ZM389.195 79.75H392.745V86H377.445V79.75H381.595V52.75H377.445V46.5H389.195V79.75ZM399.97 79.75V69.1C399.97 67.55 399.612 66.325 398.895 65.425C398.195 64.5083 397.145 64.05 395.745 64.05C394.545 64.05 393.445 64.3917 392.445 65.075C391.462 65.7583 390.67 66.775 390.07 68.125C389.487 69.4583 389.195 71.1083 389.195 73.075L387.895 67.15H389.47C389.753 65.0667 390.312 63.3333 391.145 61.95C391.978 60.55 393.062 59.5083 394.395 58.825C395.745 58.125 397.32 57.775 399.12 57.775C401.937 57.775 404.045 58.5917 405.445 60.225C406.862 61.8583 407.57 64.15 407.57 67.1V79.75H411.545V86H396.47V79.75H399.97ZM429.177 86.575C426.127 86.575 423.485 85.975 421.252 84.775C419.035 83.5583 417.327 81.8833 416.127 79.75C414.927 77.6 414.327 75.1167 414.327 72.3C414.327 69.4667 414.927 66.9667 416.127 64.8C417.327 62.6167 419.018 60.9167 421.202 59.7C423.385 58.4833 425.96 57.875 428.927 57.875C431.893 57.875 434.452 58.4833 436.602 59.7C438.768 60.9167 440.435 62.6083 441.602 64.775C442.768 66.9417 443.352 69.4583 443.352 72.325C443.352 72.7917 443.352 73.1917 443.352 73.525C443.352 73.8583 443.335 74.15 443.302 74.4H435.802C435.852 74.0333 435.877 73.6583 435.877 73.275C435.893 72.8917 435.902 72.4583 435.902 71.975C435.902 70.4417 435.635 69.1 435.102 67.95C434.568 66.7833 433.785 65.8833 432.752 65.25C431.735 64.6 430.502 64.275 429.052 64.275C427.652 64.275 426.427 64.6083 425.377 65.275C424.327 65.925 423.51 66.8583 422.927 68.075C422.36 69.275 422.077 70.6833 422.077 72.3C422.077 73.7833 422.368 75.0917 422.952 76.225C423.535 77.3583 424.352 78.25 425.402 78.9C426.468 79.5333 427.743 79.85 429.227 79.85C430.743 79.85 432.043 79.5167 433.127 78.85C434.227 78.1667 435.043 77.2583 435.577 76.125L442.927 78.275C441.893 80.8417 440.168 82.8667 437.752 84.35C435.352 85.8333 432.493 86.575 429.177 86.575ZM419.152 74.4V69.725H438.827L439.652 74.4H419.152ZM462.433 86.575C459.35 86.575 456.683 85.975 454.433 84.775C452.183 83.5583 450.442 81.8833 449.208 79.75C447.992 77.6 447.383 75.1083 447.383 72.275C447.383 70.1583 447.708 68.2167 448.358 66.45C449.025 64.6833 449.95 63.1667 451.133 61.9C452.333 60.6167 453.725 59.625 455.308 58.925C456.892 58.225 458.608 57.875 460.458 57.875C462.142 57.875 463.533 58.1667 464.633 58.75C465.733 59.3167 466.575 60.1417 467.158 61.225C467.742 62.3083 468.1 63.625 468.233 65.175H469.858L468.508 69.875C468.358 68.7417 468.008 67.7583 467.458 66.925C466.925 66.075 466.208 65.4167 465.308 64.95C464.425 64.4833 463.4 64.25 462.233 64.25C460.817 64.25 459.575 64.5833 458.508 65.25C457.458 65.9167 456.642 66.8417 456.058 68.025C455.475 69.2083 455.183 70.5917 455.183 72.175C455.183 73.6917 455.475 75.0333 456.058 76.2C456.658 77.35 457.5 78.25 458.583 78.9C459.683 79.5333 460.992 79.85 462.508 79.85C464.092 79.85 465.425 79.5083 466.508 78.825C467.608 78.1417 468.358 77.2167 468.758 76.05L476.133 78.525C475.3 81.025 473.675 82.9917 471.258 84.425C468.842 85.8583 465.9 86.575 462.433 86.575ZM468.508 69.875V58.45H476.108V69.875H468.508ZM491.271 79.75H494.621V86H479.496V79.75H483.646V52.75H479.496V46.5H491.271V79.75ZM502.121 68.575L510.671 79.75H513.646V86H498.271V79.75H501.821L495.946 71.825L502.121 68.575ZM488.746 79.075L486.696 74.7L500.821 64.7H495.121V58.425H513.271V64.7H509.921L488.746 79.075ZM542.421 79.75H546.546V86H530.521V79.75H534.821V52.75H530.521V46.5H542.421V79.75ZM561.702 79.75H565.627V86H549.802V79.75H554.102V64.7H549.802V58.45H561.702V79.75ZM553.427 46.825H561.927V54.025H553.427V46.825ZM585.019 86.5C583.385 86.5 581.994 86.275 580.844 85.825C579.71 85.3583 578.81 84.6917 578.144 83.825C577.494 82.9583 577.069 81.9083 576.869 80.675H575.719L576.619 77.1C576.869 78.15 577.594 79.025 578.794 79.725C579.994 80.4083 581.419 80.75 583.069 80.75C584.352 80.75 585.31 80.5333 585.944 80.1C586.577 79.65 586.894 79 586.894 78.15C586.894 77.2833 586.485 76.6167 585.669 76.15C584.869 75.6667 583.419 75.3083 581.319 75.075C577.035 74.5417 573.919 73.4833 571.969 71.9C570.035 70.3167 569.069 68.2667 569.069 65.75C569.069 63.3833 569.885 61.4833 571.519 60.05C573.152 58.6167 575.435 57.9 578.369 57.9C579.869 57.9 581.127 58.125 582.144 58.575C583.16 59.0083 583.944 59.6583 584.494 60.525C585.06 61.3917 585.427 62.4417 585.594 63.675H586.744L585.869 67.15C585.619 66.05 584.952 65.1667 583.869 64.5C582.785 63.8333 581.535 63.5 580.119 63.5C578.985 63.5 578.135 63.7167 577.569 64.15C577.002 64.5667 576.719 65.1 576.719 65.75C576.719 66.5667 577.219 67.2167 578.219 67.7C579.235 68.1833 580.802 68.5667 582.919 68.85C587.019 69.3667 589.977 70.3583 591.794 71.825C593.61 73.2917 594.519 75.3583 594.519 78.025C594.519 80.6583 593.719 82.7333 592.119 84.25C590.519 85.75 588.152 86.5 585.019 86.5ZM569.019 86V77.1H576.619V86H569.019ZM585.869 67.15V58.375H593.469V67.15H585.869ZM609.425 77.025C609.425 77.925 609.584 78.6 609.9 79.05C610.234 79.5 610.709 79.725 611.325 79.725C611.942 79.725 612.409 79.5 612.725 79.05C613.059 78.5833 613.225 77.9083 613.225 77.025V74.4H619.75V76.975C619.75 78.9417 619.442 80.6417 618.825 82.075C618.209 83.4917 617.242 84.5833 615.925 85.35C614.609 86.1167 612.909 86.5 610.825 86.5C608.742 86.5 607.034 86.1083 605.7 85.325C604.384 84.5417 603.409 83.4417 602.775 82.025C602.142 80.6083 601.825 78.9417 601.825 77.025V64.725H597.55V58.45H601.825V51.225H609.425V58.45H619.475L619.425 64.725H609.425V77.025Z" fill="black"/>
<rect x="91.3535" y="124.5" width="58.8485" height="21.8248" rx="10.9124" fill="black" fill-opacity="0.3" stroke="black" stroke-width="3"/>
<rect x="123.506" y="124.311" width="28.3472" height="22.756" rx="11.378" fill="#00FF66" stroke="black" stroke-width="3"/>
<path d="M206.179 148H203.337L210.339 125.266H213.342L220.388 148H217.268L215.715 143.005H207.717L206.179 148ZM208.42 140.734H215.056L212.316 132.106L211.672 129.821L211.101 132.106L208.42 140.734ZM240.559 148V124.357H243.284V135.212C244.065 133.952 245.007 132.966 246.111 132.253C247.214 131.54 248.318 131.184 249.421 131.184C250.349 131.184 251.194 131.423 251.956 131.901C252.727 132.37 253.264 132.941 253.567 133.615C253.811 134.133 253.977 134.685 254.065 135.271C254.153 135.847 254.197 137.043 254.197 138.859V148H251.472V138.522C251.472 136.95 251.394 135.915 251.238 135.417C251.091 134.909 250.813 134.494 250.403 134.172C250.003 133.85 249.563 133.688 249.085 133.688C248.128 133.688 247.097 134.143 245.994 135.051C244.9 135.959 243.997 137.097 243.284 138.464V148H240.559ZM271.739 131.638V148H269.014V144.411C268.135 145.759 267.159 146.77 266.084 147.443C265.01 148.117 263.936 148.454 262.862 148.454C261.905 148.454 261.026 148.2 260.225 147.692C259.434 147.175 258.882 146.501 258.57 145.671C258.257 144.831 258.101 143.2 258.101 140.778V131.638H260.826V141.115C260.826 142.688 260.899 143.728 261.045 144.235C261.202 144.733 261.48 145.144 261.88 145.466C262.29 145.788 262.73 145.949 263.199 145.949C264.156 145.949 265.181 145.5 266.275 144.602C267.378 143.693 268.291 142.551 269.014 141.174V131.638H271.739ZM286.922 144.323C286.092 145.69 285.091 146.721 283.919 147.414C282.757 148.107 281.688 148.454 280.711 148.454C279.344 148.454 278.113 147.863 277.02 146.682C275.936 145.5 275.394 143.708 275.394 141.306C275.394 139.411 275.755 137.722 276.478 136.237C277.2 134.743 278.167 133.566 279.378 132.707C280.589 131.838 282.088 131.403 283.875 131.403C284.393 131.403 285.174 131.457 286.219 131.564C286.375 131.584 286.61 131.608 286.922 131.638H289.661V143.21C289.661 145.964 289.622 147.644 289.544 148.249C289.476 148.864 289.359 149.484 289.193 150.109C288.802 151.564 287.908 152.712 286.512 153.552C285.125 154.392 283.446 154.812 281.473 154.812C279.49 154.812 277.484 154.304 275.452 153.288V150.534C276.224 151.062 277.171 151.525 278.294 151.926C279.427 152.336 280.521 152.541 281.575 152.541C282.405 152.541 283.192 152.409 283.934 152.146C284.676 151.882 285.277 151.501 285.736 151.003C286.195 150.505 286.507 149.924 286.673 149.26C286.839 148.605 286.922 147.731 286.922 146.638V144.323ZM286.922 141.086V134.069C285.955 133.815 285.057 133.688 284.227 133.688C282.547 133.688 281.146 134.338 280.023 135.637C278.909 136.936 278.353 138.703 278.353 140.939C278.353 142.561 278.655 143.786 279.261 144.616C279.876 145.437 280.574 145.847 281.356 145.847C282.205 145.847 283.143 145.417 284.168 144.558C285.194 143.698 286.112 142.541 286.922 141.086ZM307.32 146.916C305.143 147.951 303.082 148.469 301.139 148.469C299.664 148.469 298.346 148.103 297.184 147.37C296.021 146.638 295.089 145.593 294.386 144.235C293.692 142.868 293.346 141.408 293.346 139.855C293.346 138.361 293.678 136.926 294.342 135.549C295.006 134.172 295.934 133.103 297.125 132.341C298.316 131.569 299.645 131.184 301.109 131.184C303.053 131.184 304.61 131.877 305.782 133.264C306.964 134.65 307.555 136.789 307.555 139.68V140.266H296.275C296.275 141.398 296.51 142.434 296.979 143.371C297.457 144.309 298.082 145.012 298.854 145.48C299.625 145.949 300.504 146.184 301.49 146.184C303.248 146.184 305.191 145.598 307.32 144.426V146.916ZM296.437 138.229H304.596V137.834C304.596 136.496 304.269 135.432 303.614 134.641C302.96 133.85 302.086 133.454 300.992 133.454C299.889 133.454 298.932 133.859 298.121 134.67C297.32 135.471 296.759 136.657 296.437 138.229ZM335.885 148.454C333.542 148.454 331.667 147.639 330.26 146.008C328.854 144.367 328.151 142.302 328.151 139.812C328.151 137.321 328.854 135.261 330.26 133.63C331.667 131.999 333.542 131.184 335.885 131.184C338.219 131.184 340.089 131.999 341.496 133.63C342.902 135.261 343.605 137.321 343.605 139.812C343.605 142.302 342.902 144.367 341.496 146.008C340.089 147.639 338.219 148.454 335.885 148.454ZM335.885 146.184C337.34 146.184 338.498 145.617 339.357 144.484C340.216 143.352 340.646 141.794 340.646 139.812C340.646 137.839 340.216 136.286 339.357 135.153C338.498 134.021 337.34 133.454 335.885 133.454C334.421 133.454 333.258 134.021 332.399 135.153C331.54 136.286 331.11 137.839 331.11 139.812C331.11 141.794 331.54 143.352 332.399 144.484C333.258 145.617 334.421 146.184 335.885 146.184ZM346.865 148V131.638H349.589V135.212C350.371 133.952 351.313 132.966 352.416 132.253C353.52 131.54 354.623 131.184 355.727 131.184C356.694 131.184 357.573 131.442 358.364 131.96C359.155 132.468 359.706 133.137 360.019 133.967C360.341 134.797 360.502 136.428 360.502 138.859V148H357.778V138.522C357.778 136.95 357.7 135.915 357.543 135.417C357.397 134.909 357.119 134.494 356.708 134.172C356.308 133.85 355.869 133.688 355.39 133.688C354.433 133.688 353.403 134.143 352.299 135.051C351.205 135.959 350.302 137.097 349.589 138.464V148H346.865ZM368.977 148V126.643H364.084V124.357H371.701V145.729H376.814V148H368.977ZM386.885 148V133.908H382.344V131.638H389.609V145.729H394.165V148H386.885ZM386.431 125.734C386.431 125.119 386.641 124.66 387.061 124.357C387.48 124.055 387.876 123.903 388.247 123.903C388.628 123.903 389.028 124.055 389.448 124.357C389.868 124.66 390.078 125.119 390.078 125.734C390.078 126.34 389.868 126.794 389.448 127.097C389.028 127.399 388.628 127.551 388.247 127.551C387.876 127.551 387.48 127.399 387.061 127.097C386.641 126.794 386.431 126.34 386.431 125.734ZM400.017 148V131.638H402.742V135.212C403.523 133.952 404.466 132.966 405.569 132.253C406.673 131.54 407.776 131.184 408.88 131.184C409.846 131.184 410.725 131.442 411.516 131.96C412.307 132.468 412.859 133.137 413.172 133.967C413.494 134.797 413.655 136.428 413.655 138.859V148H410.93V138.522C410.93 136.95 410.852 135.915 410.696 135.417C410.55 134.909 410.271 134.494 409.861 134.172C409.461 133.85 409.021 133.688 408.543 133.688C407.586 133.688 406.555 134.143 405.452 135.051C404.358 135.959 403.455 137.097 402.742 138.464V148H400.017ZM431.343 146.916C429.166 147.951 427.105 148.469 425.162 148.469C423.687 148.469 422.369 148.103 421.207 147.37C420.045 146.638 419.112 145.593 418.409 144.235C417.715 142.868 417.369 141.408 417.369 139.855C417.369 138.361 417.701 136.926 418.365 135.549C419.029 134.172 419.957 133.103 421.148 132.341C422.339 131.569 423.668 131.184 425.132 131.184C427.076 131.184 428.633 131.877 429.805 133.264C430.987 134.65 431.578 136.789 431.578 139.68V140.266H420.298C420.298 141.398 420.533 142.434 421.002 143.371C421.48 144.309 422.105 145.012 422.877 145.48C423.648 145.949 424.527 146.184 425.513 146.184C427.271 146.184 429.214 145.598 431.343 144.426V146.916ZM420.46 138.229H428.619V137.834C428.619 136.496 428.292 135.432 427.637 134.641C426.983 133.85 426.109 133.454 425.015 133.454C423.912 133.454 422.955 133.859 422.144 134.67C421.343 135.471 420.782 136.657 420.46 138.229ZM457.755 148V133.908H453.214V131.638H460.48V145.729H465.035V148H457.755ZM457.301 125.734C457.301 125.119 457.511 124.66 457.931 124.357C458.351 124.055 458.746 123.903 459.117 123.903C459.498 123.903 459.899 124.055 460.319 124.357C460.738 124.66 460.948 125.119 460.948 125.734C460.948 126.34 460.738 126.794 460.319 127.097C459.899 127.399 459.498 127.551 459.117 127.551C458.746 127.551 458.351 127.399 457.931 127.097C457.511 126.794 457.301 126.34 457.301 125.734ZM469.657 148V131.638H472.045V135.388C472.797 133.796 473.495 132.697 474.14 132.092C474.794 131.486 475.453 131.184 476.117 131.184C476.908 131.184 477.543 131.496 478.021 132.121C478.51 132.736 478.754 133.615 478.754 134.758V135.637C479.076 134.641 479.462 133.835 479.911 133.22C480.37 132.595 480.844 132.102 481.332 131.74C481.82 131.369 482.382 131.184 483.017 131.184C483.72 131.184 484.32 131.481 484.818 132.077C485.316 132.673 485.565 133.859 485.565 135.637V148H483.178V136.823C483.178 135.905 483.148 135.28 483.09 134.948C483.031 134.606 482.914 134.348 482.738 134.172C482.562 133.996 482.372 133.908 482.167 133.908C481.659 133.908 481.112 134.299 480.526 135.08C479.95 135.852 479.359 137.136 478.754 138.933V148H476.469V136.838C476.469 135.393 476.327 134.543 476.044 134.289C475.761 134.035 475.507 133.908 475.282 133.908C474.784 133.908 474.247 134.343 473.671 135.212C473.104 136.081 472.562 137.194 472.045 138.552V148H469.657ZM499.357 144.323C498.527 145.69 497.526 146.721 496.354 147.414C495.192 148.107 494.123 148.454 493.146 148.454C491.779 148.454 490.549 147.863 489.455 146.682C488.371 145.5 487.829 143.708 487.829 141.306C487.829 139.411 488.19 137.722 488.913 136.237C489.636 134.743 490.602 133.566 491.813 132.707C493.024 131.838 494.523 131.403 496.31 131.403C496.828 131.403 497.609 131.457 498.654 131.564C498.81 131.584 499.045 131.608 499.357 131.638H502.096V143.195C502.096 145.168 502.302 146.77 502.712 148H499.87C499.655 147.102 499.484 145.876 499.357 144.323ZM499.357 141.086V134.069C498.39 133.815 497.492 133.688 496.662 133.688C494.982 133.688 493.581 134.338 492.458 135.637C491.345 136.936 490.788 138.703 490.788 140.939C490.788 142.561 491.091 143.786 491.696 144.616C492.311 145.437 493.01 145.847 493.791 145.847C494.64 145.847 495.578 145.417 496.603 144.558C497.629 143.698 498.547 142.541 499.357 141.086ZM517.251 144.323C516.421 145.69 515.42 146.721 514.248 147.414C513.086 148.107 512.016 148.454 511.04 148.454C509.672 148.454 508.442 147.863 507.348 146.682C506.264 145.5 505.722 143.708 505.722 141.306C505.722 139.411 506.084 137.722 506.806 136.237C507.529 134.743 508.496 133.566 509.707 132.707C510.918 131.838 512.417 131.403 514.204 131.403C514.721 131.403 515.503 131.457 516.547 131.564C516.704 131.584 516.938 131.608 517.251 131.638H519.99V143.21C519.99 145.964 519.951 147.644 519.873 148.249C519.804 148.864 519.687 149.484 519.521 150.109C519.13 151.564 518.237 152.712 516.84 153.552C515.454 154.392 513.774 154.812 511.801 154.812C509.819 154.812 507.812 154.304 505.781 153.288V150.534C506.552 151.062 507.5 151.525 508.623 151.926C509.755 152.336 510.849 152.541 511.904 152.541C512.734 152.541 513.52 152.409 514.262 152.146C515.004 151.882 515.605 151.501 516.064 151.003C516.523 150.505 516.836 149.924 517.002 149.26C517.168 148.605 517.251 147.731 517.251 146.638V144.323ZM517.251 141.086V134.069C516.284 133.815 515.385 133.688 514.555 133.688C512.876 133.688 511.474 134.338 510.351 135.637C509.238 136.936 508.681 138.703 508.681 140.939C508.681 142.561 508.984 143.786 509.589 144.616C510.205 145.437 510.903 145.847 511.684 145.847C512.534 145.847 513.471 145.417 514.497 144.558C515.522 143.698 516.44 142.541 517.251 141.086ZM537.649 146.916C535.471 147.951 533.411 148.469 531.467 148.469C529.993 148.469 528.674 148.103 527.512 147.37C526.35 146.638 525.417 145.593 524.714 144.235C524.021 142.868 523.674 141.408 523.674 139.855C523.674 138.361 524.006 136.926 524.67 135.549C525.334 134.172 526.262 133.103 527.454 132.341C528.645 131.569 529.973 131.184 531.438 131.184C533.381 131.184 534.939 131.877 536.111 133.264C537.292 134.65 537.883 136.789 537.883 139.68V140.266H526.604C526.604 141.398 526.838 142.434 527.307 143.371C527.786 144.309 528.411 145.012 529.182 145.48C529.954 145.949 530.832 146.184 531.819 146.184C533.577 146.184 535.52 145.598 537.649 144.426V146.916ZM526.765 138.229H534.924V137.834C534.924 136.496 534.597 135.432 533.943 134.641C533.288 133.85 532.414 133.454 531.321 133.454C530.217 133.454 529.26 133.859 528.45 134.67C527.649 135.471 527.087 136.657 526.765 138.229ZM570.403 144.323C569.573 145.69 568.572 146.721 567.4 147.414C566.238 148.107 565.169 148.454 564.192 148.454C562.825 148.454 561.595 147.863 560.501 146.682C559.417 145.5 558.875 143.708 558.875 141.306C558.875 139.411 559.236 137.722 559.959 136.237C560.682 134.743 561.648 133.566 562.859 132.707C564.07 131.838 565.569 131.403 567.356 131.403C567.874 131.403 568.655 131.457 569.7 131.564C569.856 131.584 570.091 131.608 570.403 131.638H573.143V143.21C573.143 145.964 573.104 147.644 573.025 148.249C572.957 148.864 572.84 149.484 572.674 150.109C572.283 151.564 571.39 152.712 569.993 153.552C568.606 154.392 566.927 154.812 564.954 154.812C562.972 154.812 560.965 154.304 558.934 153.288V150.534C559.705 151.062 560.652 151.525 561.775 151.926C562.908 152.336 564.002 152.541 565.057 152.541C565.887 152.541 566.673 152.409 567.415 152.146C568.157 151.882 568.758 151.501 569.217 151.003C569.676 150.505 569.988 149.924 570.154 149.26C570.32 148.605 570.403 147.731 570.403 146.638V144.323ZM570.403 141.086V134.069C569.437 133.815 568.538 133.688 567.708 133.688C566.028 133.688 564.627 134.338 563.504 135.637C562.391 136.936 561.834 138.703 561.834 140.939C561.834 142.561 562.137 143.786 562.742 144.616C563.357 145.437 564.056 145.847 564.837 145.847C565.687 145.847 566.624 145.417 567.649 144.558C568.675 143.698 569.593 142.541 570.403 141.086ZM587.945 144.323C587.115 145.69 586.114 146.721 584.942 147.414C583.78 148.107 582.711 148.454 581.734 148.454C580.367 148.454 579.137 147.863 578.043 146.682C576.959 145.5 576.417 143.708 576.417 141.306C576.417 139.411 576.778 137.722 577.501 136.237C578.223 134.743 579.19 133.566 580.401 132.707C581.612 131.838 583.111 131.403 584.898 131.403C585.416 131.403 586.197 131.457 587.242 131.564C587.398 131.584 587.633 131.608 587.945 131.638H590.684V143.195C590.684 145.168 590.889 146.77 591.3 148H588.458C588.243 147.102 588.072 145.876 587.945 144.323ZM587.945 141.086V134.069C586.978 133.815 586.08 133.688 585.25 133.688C583.57 133.688 582.169 134.338 581.046 135.637C579.932 136.936 579.376 138.703 579.376 140.939C579.376 142.561 579.679 143.786 580.284 144.616C580.899 145.437 581.597 145.847 582.379 145.847C583.228 145.847 584.166 145.417 585.191 144.558C586.217 143.698 587.135 142.541 587.945 141.086ZM599.305 148V126.643H594.413V124.357H602.03V145.729H607.142V148H599.305ZM617.023 148V126.643H612.13V124.357H619.747V145.729H624.86V148H617.023ZM643.954 146.916C641.777 147.951 639.716 148.469 637.773 148.469C636.298 148.469 634.98 148.103 633.818 147.37C632.655 146.638 631.723 145.593 631.02 144.235C630.326 142.868 629.98 141.408 629.98 139.855C629.98 138.361 630.312 136.926 630.976 135.549C631.64 134.172 632.568 133.103 633.759 132.341C634.95 131.569 636.279 131.184 637.743 131.184C639.687 131.184 641.244 131.877 642.416 133.264C643.598 134.65 644.189 136.789 644.189 139.68V140.266H632.909C632.909 141.398 633.144 142.434 633.612 143.371C634.091 144.309 634.716 145.012 635.487 145.48C636.259 145.949 637.138 146.184 638.124 146.184C639.882 146.184 641.825 145.598 643.954 144.426V146.916ZM633.07 138.229H641.23V137.834C641.23 136.496 640.903 135.432 640.248 134.641C639.594 133.85 638.72 133.454 637.626 133.454C636.523 133.454 635.566 133.859 634.755 134.67C633.954 135.471 633.393 136.657 633.07 138.229ZM649.455 148V131.638H652.18V135.212C653.029 133.864 654.001 132.858 655.095 132.194C656.198 131.521 657.424 131.184 658.771 131.184C659.758 131.184 660.744 131.335 661.73 131.638V137.541H659.108V133.806C658.649 133.728 658.288 133.688 658.024 133.688C657.009 133.688 656.013 134.089 655.036 134.89C654.06 135.69 653.107 136.892 652.18 138.493V148H649.455ZM671.802 147.341L664.243 131.638H667.246L673.266 143.913L678.305 131.638H681.045L674.702 146.843C673.364 150.056 672.09 152.189 670.879 153.244C669.678 154.299 668.12 154.826 666.206 154.826C665.376 154.826 664.634 154.753 663.979 154.606V152.204C664.731 152.438 665.449 152.556 666.133 152.556C667.012 152.556 667.793 152.385 668.476 152.043C669.16 151.701 669.785 151.096 670.351 150.227C670.918 149.357 671.318 148.605 671.553 147.971L671.802 147.341Z" fill="black"/>
<rect x="91.3535" y="182.5" width="58.8485" height="21.8248" rx="10.9124" fill="black" fill-opacity="0.3" stroke="black" stroke-width="3"/>
<rect x="123.506" y="182.311" width="28.3472" height="22.756" rx="11.378" fill="#00FF66" stroke="black" stroke-width="3"/>
<path d="M218.791 205.736C217.092 206.371 215.568 206.688 214.221 206.688C212.443 206.688 210.808 206.215 209.313 205.268C207.819 204.311 206.657 202.895 205.827 201.02C204.997 199.135 204.582 197.006 204.582 194.633C204.582 192.279 204.992 190.165 205.812 188.29C206.633 186.415 207.79 184.994 209.284 184.027C210.778 183.061 212.424 182.577 214.221 182.577C215.568 182.577 217.092 182.895 218.791 183.529V186.225C217.219 185.316 215.656 184.862 214.104 184.862C212.932 184.862 211.857 185.263 210.881 186.063C209.914 186.864 209.133 188.041 208.537 189.594C207.941 191.137 207.644 192.816 207.644 194.633C207.644 196.479 207.951 198.183 208.566 199.745C209.182 201.308 209.968 202.479 210.925 203.261C211.882 204.032 212.941 204.418 214.104 204.418C215.646 204.418 217.209 203.964 218.791 203.056V205.736ZM229.58 206.454C227.236 206.454 225.361 205.639 223.955 204.008C222.549 202.367 221.846 200.302 221.846 197.812C221.846 195.321 222.549 193.261 223.955 191.63C225.361 189.999 227.236 189.184 229.58 189.184C231.914 189.184 233.784 189.999 235.19 191.63C236.596 193.261 237.3 195.321 237.3 197.812C237.3 200.302 236.596 202.367 235.19 204.008C233.784 205.639 231.914 206.454 229.58 206.454ZM229.58 204.184C231.035 204.184 232.192 203.617 233.052 202.484C233.911 201.352 234.341 199.794 234.341 197.812C234.341 195.839 233.911 194.286 233.052 193.153C232.192 192.021 231.035 191.454 229.58 191.454C228.115 191.454 226.953 192.021 226.094 193.153C225.234 194.286 224.804 195.839 224.804 197.812C224.804 199.794 225.234 201.352 226.094 202.484C226.953 203.617 228.115 204.184 229.58 204.184ZM244.954 206V184.643H240.061V182.357H247.678V203.729H252.791V206H244.954ZM265.015 206.454C262.671 206.454 260.796 205.639 259.39 204.008C257.984 202.367 257.281 200.302 257.281 197.812C257.281 195.321 257.984 193.261 259.39 191.63C260.796 189.999 262.671 189.184 265.015 189.184C267.349 189.184 269.219 189.999 270.625 191.63C272.032 193.261 272.735 195.321 272.735 197.812C272.735 200.302 272.032 202.367 270.625 204.008C269.219 205.639 267.349 206.454 265.015 206.454ZM265.015 204.184C266.47 204.184 267.627 203.617 268.487 202.484C269.346 201.352 269.776 199.794 269.776 197.812C269.776 195.839 269.346 194.286 268.487 193.153C267.627 192.021 266.47 191.454 265.015 191.454C263.55 191.454 262.388 192.021 261.529 193.153C260.669 194.286 260.24 195.839 260.24 197.812C260.24 199.794 260.669 201.352 261.529 202.484C262.388 203.617 263.55 204.184 265.015 204.184ZM277.386 206V189.638H280.111V193.212C280.96 191.864 281.932 190.858 283.026 190.194C284.129 189.521 285.355 189.184 286.702 189.184C287.689 189.184 288.675 189.335 289.661 189.638V195.541H287.039V191.806C286.58 191.728 286.219 191.688 285.955 191.688C284.94 191.688 283.944 192.089 282.967 192.89C281.99 193.69 281.038 194.892 280.111 196.493V206H277.386ZM297.521 206V193.271H293.888V191H297.521V190.238C297.521 188.08 297.765 186.483 298.253 185.448C298.741 184.413 299.493 183.563 300.509 182.899C301.534 182.235 302.887 181.903 304.566 181.903C305.836 181.903 307.125 182.035 308.434 182.299V184.892C307.018 184.423 305.763 184.188 304.669 184.188C303.8 184.188 303.033 184.35 302.369 184.672C301.705 184.994 301.183 185.521 300.802 186.254C300.431 186.977 300.245 188.207 300.245 189.945V191H306.734V193.271H300.245V206H297.521ZM324.891 189.638V206H322.167V202.411C321.288 203.759 320.311 204.77 319.237 205.443C318.163 206.117 317.089 206.454 316.014 206.454C315.057 206.454 314.179 206.2 313.378 205.692C312.587 205.175 312.035 204.501 311.722 203.671C311.41 202.831 311.254 201.2 311.254 198.778V189.638H313.978V199.115C313.978 200.688 314.052 201.728 314.198 202.235C314.354 202.733 314.633 203.144 315.033 203.466C315.443 203.788 315.883 203.949 316.351 203.949C317.308 203.949 318.334 203.5 319.428 202.602C320.531 201.693 321.444 200.551 322.167 199.174V189.638H324.891ZM333.542 206V184.643H328.649V182.357H336.266V203.729H341.379V206H333.542ZM375.334 202.323C374.504 203.69 373.503 204.721 372.331 205.414C371.169 206.107 370.1 206.454 369.123 206.454C367.756 206.454 366.526 205.863 365.432 204.682C364.348 203.5 363.806 201.708 363.806 199.306C363.806 197.411 364.167 195.722 364.89 194.237C365.613 192.743 366.579 191.566 367.79 190.707C369.001 189.838 370.5 189.403 372.287 189.403C372.805 189.403 373.586 189.457 374.631 189.564C374.787 189.584 375.022 189.608 375.334 189.638H378.073V201.195C378.073 203.168 378.279 204.77 378.689 206H375.847C375.632 205.102 375.461 203.876 375.334 202.323ZM375.334 199.086V192.069C374.367 191.815 373.469 191.688 372.639 191.688C370.959 191.688 369.558 192.338 368.435 193.637C367.321 194.936 366.765 196.703 366.765 198.939C366.765 200.561 367.068 201.786 367.673 202.616C368.288 203.437 368.987 203.847 369.768 203.847C370.617 203.847 371.555 203.417 372.58 202.558C373.606 201.698 374.524 200.541 375.334 199.086ZM382.3 206V189.638H385.024V193.212C385.806 191.952 386.748 190.966 387.852 190.253C388.955 189.54 390.059 189.184 391.162 189.184C392.129 189.184 393.008 189.442 393.799 189.96C394.59 190.468 395.142 191.137 395.454 191.967C395.776 192.797 395.938 194.428 395.938 196.859V206H393.213V196.522C393.213 194.95 393.135 193.915 392.979 193.417C392.832 192.909 392.554 192.494 392.144 192.172C391.743 191.85 391.304 191.688 390.825 191.688C389.868 191.688 388.838 192.143 387.734 193.051C386.641 193.959 385.737 195.097 385.024 196.464V206H382.3ZM410.945 202.323C410.115 203.69 409.114 204.721 407.942 205.414C406.78 206.107 405.711 206.454 404.734 206.454C403.367 206.454 402.137 205.863 401.043 204.682C399.959 203.5 399.417 201.708 399.417 199.306C399.417 197.411 399.778 195.722 400.501 194.237C401.223 192.743 402.19 191.566 403.401 190.707C404.612 189.838 406.111 189.403 407.898 189.403C408.416 189.403 409.197 189.457 410.242 189.564C410.398 189.584 410.633 189.608 410.945 189.638V182.357H413.684V206H410.945V202.323ZM410.945 199.086V192.069C409.978 191.815 409.08 191.688 408.25 191.688C406.57 191.688 405.169 192.338 404.046 193.637C402.932 194.936 402.376 196.703 402.376 198.939C402.376 200.561 402.679 201.786 403.284 202.616C403.899 203.437 404.597 203.847 405.379 203.847C406.228 203.847 407.166 203.417 408.191 202.558C409.217 201.698 410.135 200.541 410.945 199.086ZM436.141 206L433.475 189.638H436.009L437.562 199.599L437.972 201.913L438.368 199.599L440.975 189.638H443.421L446.366 199.599L446.878 201.913L447.215 199.599L448.783 189.638H450.877L448.226 206H445.677L442.542 195.468L442.044 193.153H441.971L441.517 195.453L438.792 206H436.141ZM459.908 206.454C457.565 206.454 455.69 205.639 454.283 204.008C452.877 202.367 452.174 200.302 452.174 197.812C452.174 195.321 452.877 193.261 454.283 191.63C455.69 189.999 457.565 189.184 459.908 189.184C462.242 189.184 464.113 189.999 465.519 191.63C466.925 193.261 467.628 195.321 467.628 197.812C467.628 200.302 466.925 202.367 465.519 204.008C464.113 205.639 462.242 206.454 459.908 206.454ZM459.908 204.184C461.363 204.184 462.521 203.617 463.38 202.484C464.239 201.352 464.669 199.794 464.669 197.812C464.669 195.839 464.239 194.286 463.38 193.153C462.521 192.021 461.363 191.454 459.908 191.454C458.444 191.454 457.281 192.021 456.422 193.153C455.563 194.286 455.133 195.839 455.133 197.812C455.133 199.794 455.563 201.352 456.422 202.484C457.281 203.617 458.444 204.184 459.908 204.184ZM470.888 206V189.638H473.612V193.212C474.394 191.952 475.336 190.966 476.439 190.253C477.543 189.54 478.646 189.184 479.75 189.184C480.717 189.184 481.596 189.442 482.387 189.96C483.178 190.468 483.729 191.137 484.042 191.967C484.364 192.797 484.525 194.428 484.525 196.859V206H481.801V196.522C481.801 194.95 481.723 193.915 481.566 193.417C481.42 192.909 481.142 192.494 480.731 192.172C480.331 191.85 479.892 191.688 479.413 191.688C478.456 191.688 477.426 192.143 476.322 193.051C475.229 193.959 474.325 195.097 473.612 196.464V206H470.888ZM499.533 202.323C498.703 203.69 497.702 204.721 496.53 205.414C495.368 206.107 494.299 206.454 493.322 206.454C491.955 206.454 490.724 205.863 489.631 204.682C488.547 203.5 488.005 201.708 488.005 199.306C488.005 197.411 488.366 195.722 489.089 194.237C489.811 192.743 490.778 191.566 491.989 190.707C493.2 189.838 494.699 189.403 496.486 189.403C497.004 189.403 497.785 189.457 498.83 189.564C498.986 189.584 499.221 189.608 499.533 189.638V182.357H502.272V206H499.533V202.323ZM499.533 199.086V192.069C498.566 191.815 497.668 191.688 496.838 191.688C495.158 191.688 493.757 192.338 492.634 193.637C491.52 194.936 490.964 196.703 490.964 198.939C490.964 200.561 491.266 201.786 491.872 202.616C492.487 203.437 493.185 203.847 493.967 203.847C494.816 203.847 495.754 203.417 496.779 202.558C497.805 201.698 498.722 200.541 499.533 199.086ZM519.931 204.916C517.754 205.951 515.693 206.469 513.75 206.469C512.275 206.469 510.957 206.103 509.795 205.37C508.632 204.638 507.7 203.593 506.997 202.235C506.303 200.868 505.957 199.408 505.957 197.855C505.957 196.361 506.289 194.926 506.953 193.549C507.617 192.172 508.545 191.103 509.736 190.341C510.927 189.569 512.255 189.184 513.72 189.184C515.664 189.184 517.221 189.877 518.393 191.264C519.575 192.65 520.166 194.789 520.166 197.68V198.266H508.886C508.886 199.398 509.121 200.434 509.589 201.371C510.068 202.309 510.693 203.012 511.464 203.48C512.236 203.949 513.115 204.184 514.101 204.184C515.859 204.184 517.802 203.598 519.931 202.426V204.916ZM509.047 196.229H517.207V195.834C517.207 194.496 516.879 193.432 516.225 192.641C515.571 191.85 514.697 191.454 513.603 191.454C512.5 191.454 511.543 191.859 510.732 192.67C509.931 193.471 509.37 194.657 509.047 196.229ZM525.432 206V189.638H528.157V193.212C529.006 191.864 529.978 190.858 531.072 190.194C532.175 189.521 533.401 189.184 534.748 189.184C535.735 189.184 536.721 189.335 537.707 189.638V195.541H535.085V191.806C534.626 191.728 534.265 191.688 534.001 191.688C532.986 191.688 531.99 192.089 531.013 192.89C530.037 193.69 529.084 194.892 528.157 196.493V206H525.432ZM545.567 206V193.271H541.934V191H545.567V190.238C545.567 188.08 545.811 186.483 546.299 185.448C546.787 184.413 547.539 183.563 548.555 182.899C549.58 182.235 550.933 181.903 552.612 181.903C553.882 181.903 555.171 182.035 556.48 182.299V184.892C555.064 184.423 553.809 184.188 552.715 184.188C551.846 184.188 551.079 184.35 550.415 184.672C549.751 184.994 549.229 185.521 548.848 186.254C548.477 186.977 548.291 188.207 548.291 189.945V191H554.78V193.271H548.291V206H545.567ZM572.938 189.638V206H570.213V202.411C569.334 203.759 568.357 204.77 567.283 205.443C566.209 206.117 565.135 206.454 564.061 206.454C563.104 206.454 562.225 206.2 561.424 205.692C560.633 205.175 560.081 204.501 559.769 203.671C559.456 202.831 559.3 201.2 559.3 198.778V189.638H562.024V199.115C562.024 200.688 562.098 201.728 562.244 202.235C562.4 202.733 562.679 203.144 563.079 203.466C563.489 203.788 563.929 203.949 564.397 203.949C565.354 203.949 566.38 203.5 567.474 202.602C568.577 201.693 569.49 200.551 570.213 199.174V189.638H572.938ZM581.588 206V184.643H576.695V182.357H584.312V203.729H589.425V206H581.588ZM612.819 205.136V202.25C613.913 202.963 615.07 203.466 616.29 203.759C617.511 204.042 618.546 204.184 619.396 204.184C620.773 204.184 621.764 203.964 622.37 203.524C622.975 203.075 623.278 202.519 623.278 201.854C623.278 201.415 623.136 201.039 622.853 200.727C622.57 200.414 621.867 200.028 620.744 199.569L619.806 199.188L617.916 198.441C615.885 197.65 614.601 196.923 614.064 196.259C613.537 195.585 613.273 194.77 613.273 193.812C613.273 192.465 613.79 191.356 614.826 190.487C615.871 189.618 617.56 189.184 619.894 189.184C621.642 189.184 623.297 189.438 624.86 189.945V192.421C623.063 191.776 621.373 191.454 619.791 191.454C618.639 191.454 617.736 191.659 617.081 192.069C616.437 192.47 616.115 192.973 616.115 193.578C616.115 194.164 616.393 194.633 616.95 194.984C617.516 195.336 618.429 195.741 619.689 196.2L621.535 196.874C623.224 197.489 624.411 198.158 625.094 198.881C625.778 199.604 626.12 200.507 626.12 201.591C626.12 203.007 625.573 204.174 624.479 205.092C623.395 206 621.657 206.454 619.264 206.454C617.174 206.454 615.026 206.015 612.819 205.136ZM637.084 206.454C634.74 206.454 632.865 205.639 631.459 204.008C630.053 202.367 629.35 200.302 629.35 197.812C629.35 195.321 630.053 193.261 631.459 191.63C632.865 189.999 634.74 189.184 637.084 189.184C639.418 189.184 641.288 189.999 642.695 191.63C644.101 193.261 644.804 195.321 644.804 197.812C644.804 200.302 644.101 202.367 642.695 204.008C641.288 205.639 639.418 206.454 637.084 206.454ZM637.084 204.184C638.539 204.184 639.696 203.617 640.556 202.484C641.415 201.352 641.845 199.794 641.845 197.812C641.845 195.839 641.415 194.286 640.556 193.153C639.696 192.021 638.539 191.454 637.084 191.454C635.619 191.454 634.457 192.021 633.598 193.153C632.738 194.286 632.309 195.839 632.309 197.812C632.309 199.794 632.738 201.352 633.598 202.484C634.457 203.617 635.619 204.184 637.084 204.184ZM661.833 205.531C660.007 206.146 658.269 206.454 656.618 206.454C654.978 206.454 653.518 206.078 652.238 205.326C650.969 204.564 649.978 203.539 649.265 202.25C648.552 200.951 648.195 199.477 648.195 197.826C648.195 195.346 649.001 193.285 650.612 191.645C652.233 190.004 654.187 189.184 656.472 189.184C658.161 189.184 659.948 189.501 661.833 190.136V192.758C659.929 191.889 658.225 191.454 656.721 191.454C655.725 191.454 654.787 191.703 653.908 192.201C653.029 192.689 652.351 193.456 651.872 194.501C651.394 195.546 651.154 196.62 651.154 197.724C651.154 199.198 651.613 200.604 652.531 201.942C653.459 203.28 654.909 203.949 656.882 203.949C657.478 203.949 658.063 203.91 658.64 203.832C659.216 203.744 660.28 203.437 661.833 202.909V205.531ZM670.366 206V191.908H665.825V189.638H673.091V203.729H677.646V206H670.366ZM669.912 183.734C669.912 183.119 670.122 182.66 670.542 182.357C670.962 182.055 671.357 181.903 671.728 181.903C672.109 181.903 672.51 182.055 672.93 182.357C673.349 182.66 673.559 183.119 673.559 183.734C673.559 184.34 673.349 184.794 672.93 185.097C672.51 185.399 672.109 185.551 671.728 185.551C671.357 185.551 670.962 185.399 670.542 185.097C670.122 184.794 669.912 184.34 669.912 183.734ZM694.251 202.323C693.421 203.69 692.42 204.721 691.248 205.414C690.086 206.107 689.016 206.454 688.04 206.454C686.672 206.454 685.442 205.863 684.348 204.682C683.264 203.5 682.722 201.708 682.722 199.306C682.722 197.411 683.084 195.722 683.806 194.237C684.529 192.743 685.496 191.566 686.707 190.707C687.918 189.838 689.417 189.403 691.204 189.403C691.721 189.403 692.503 189.457 693.547 189.564C693.704 189.584 693.938 189.608 694.251 189.638H696.99V201.195C696.99 203.168 697.195 204.77 697.605 206H694.763C694.548 205.102 694.378 203.876 694.251 202.323ZM694.251 199.086V192.069C693.284 191.815 692.385 191.688 691.555 191.688C689.876 191.688 688.474 192.338 687.351 193.637C686.238 194.936 685.681 196.703 685.681 198.939C685.681 200.561 685.984 201.786 686.589 202.616C687.205 203.437 687.903 203.847 688.684 203.847C689.534 203.847 690.471 203.417 691.497 202.558C692.522 201.698 693.44 200.541 694.251 199.086ZM705.611 206V184.643H700.718V182.357H708.335V203.729H713.448V206H705.611ZM735.421 206V189.638H737.809V193.388C738.561 191.796 739.259 190.697 739.903 190.092C740.558 189.486 741.217 189.184 741.881 189.184C742.672 189.184 743.307 189.496 743.785 190.121C744.273 190.736 744.518 191.615 744.518 192.758V193.637C744.84 192.641 745.226 191.835 745.675 191.22C746.134 190.595 746.607 190.102 747.096 189.74C747.584 189.369 748.146 189.184 748.78 189.184C749.483 189.184 750.084 189.481 750.582 190.077C751.08 190.673 751.329 191.859 751.329 193.637V206H748.941V194.823C748.941 193.905 748.912 193.28 748.854 192.948C748.795 192.606 748.678 192.348 748.502 192.172C748.326 191.996 748.136 191.908 747.931 191.908C747.423 191.908 746.876 192.299 746.29 193.08C745.714 193.852 745.123 195.136 744.518 196.933V206H742.232V194.838C742.232 193.393 742.091 192.543 741.808 192.289C741.524 192.035 741.271 191.908 741.046 191.908C740.548 191.908 740.011 192.343 739.435 193.212C738.868 194.081 738.326 195.194 737.809 196.552V206H735.421ZM767.977 204.916C765.8 205.951 763.739 206.469 761.796 206.469C760.321 206.469 759.003 206.103 757.841 205.37C756.679 204.638 755.746 203.593 755.043 202.235C754.349 200.868 754.003 199.408 754.003 197.855C754.003 196.361 754.335 194.926 754.999 193.549C755.663 192.172 756.591 191.103 757.782 190.341C758.973 189.569 760.302 189.184 761.766 189.184C763.71 189.184 765.267 189.877 766.439 191.264C767.621 192.65 768.212 194.789 768.212 197.68V198.266H756.932C756.932 199.398 757.167 200.434 757.636 201.371C758.114 202.309 758.739 203.012 759.511 203.48C760.282 203.949 761.161 204.184 762.147 204.184C763.905 204.184 765.848 203.598 767.977 202.426V204.916ZM757.094 196.229H765.253V195.834C765.253 194.496 764.926 193.432 764.271 192.641C763.617 191.85 762.743 191.454 761.649 191.454C760.546 191.454 759.589 191.859 758.778 192.67C757.977 193.471 757.416 194.657 757.094 196.229ZM783.014 202.323C782.184 203.69 781.183 204.721 780.011 205.414C778.849 206.107 777.78 206.454 776.803 206.454C775.436 206.454 774.206 205.863 773.112 204.682C772.028 203.5 771.486 201.708 771.486 199.306C771.486 197.411 771.847 195.722 772.57 194.237C773.293 192.743 774.259 191.566 775.47 190.707C776.681 189.838 778.18 189.403 779.967 189.403C780.485 189.403 781.266 189.457 782.311 189.564C782.467 189.584 782.702 189.608 783.014 189.638V182.357H785.754V206H783.014V202.323ZM783.014 199.086V192.069C782.047 191.815 781.149 191.688 780.319 191.688C778.639 191.688 777.238 192.338 776.115 193.637C775.002 194.936 774.445 196.703 774.445 198.939C774.445 200.561 774.748 201.786 775.353 202.616C775.968 203.437 776.667 203.847 777.448 203.847C778.297 203.847 779.235 203.417 780.26 202.558C781.286 201.698 782.204 200.541 783.014 199.086ZM794.389 206V191.908H789.848V189.638H797.114V203.729H801.669V206H794.389ZM793.935 183.734C793.935 183.119 794.145 182.66 794.565 182.357C794.985 182.055 795.38 181.903 795.751 181.903C796.132 181.903 796.533 182.055 796.953 182.357C797.372 182.66 797.582 183.119 797.582 183.734C797.582 184.34 797.372 184.794 796.953 185.097C796.533 185.399 796.132 185.551 795.751 185.551C795.38 185.551 794.985 185.399 794.565 185.097C794.145 184.794 793.935 184.34 793.935 183.734ZM818.274 202.323C817.444 203.69 816.443 204.721 815.271 205.414C814.109 206.107 813.039 206.454 812.063 206.454C810.695 206.454 809.465 205.863 808.371 204.682C807.287 203.5 806.745 201.708 806.745 199.306C806.745 197.411 807.107 195.722 807.829 194.237C808.552 192.743 809.519 191.566 810.73 190.707C811.941 189.838 813.44 189.403 815.227 189.403C815.744 189.403 816.526 189.457 817.57 189.564C817.727 189.584 817.961 189.608 818.274 189.638H821.013V201.195C821.013 203.168 821.218 204.77 821.628 206H818.786C818.571 205.102 818.401 203.876 818.274 202.323ZM818.274 199.086V192.069C817.307 191.815 816.408 191.688 815.578 191.688C813.899 191.688 812.497 192.338 811.374 193.637C810.261 194.936 809.704 196.703 809.704 198.939C809.704 200.561 810.007 201.786 810.612 202.616C811.228 203.437 811.926 203.847 812.707 203.847C813.557 203.847 814.494 203.417 815.52 202.558C816.545 201.698 817.463 200.541 818.274 199.086Z" fill="black"/>
<rect x="91.3535" y="239.5" width="58.9998" height="21.8248" rx="10.9124" fill="black" fill-opacity="0.3" stroke="black" stroke-width="3"/>
<rect x="123.438" y="239.034" width="28.4166" height="22.756" rx="11.378" fill="#00FF66" stroke="black" stroke-width="3"/>
<path d="M206.179 262H203.337L210.339 239.266H213.342L220.388 262H217.268L215.715 257.005H207.717L206.179 262ZM208.42 254.734H215.056L212.316 246.106L211.672 243.821L211.101 246.106L208.42 254.734ZM227.236 262V240.643H222.344V238.357H229.961V259.729H235.073V262H227.236ZM244.954 262V240.643H240.061V238.357H247.678V259.729H252.791V262H244.954ZM259.331 253.929V251.658H270.699V253.929H259.331ZM280.579 262V247.908H276.038V245.638H283.304V259.729H287.86V262H280.579ZM280.125 239.734C280.125 239.119 280.335 238.66 280.755 238.357C281.175 238.055 281.571 237.903 281.942 237.903C282.322 237.903 282.723 238.055 283.143 238.357C283.563 238.66 283.773 239.119 283.773 239.734C283.773 240.34 283.563 240.794 283.143 241.097C282.723 241.399 282.322 241.551 281.942 241.551C281.571 241.551 281.175 241.399 280.755 241.097C280.335 240.794 280.125 240.34 280.125 239.734ZM293.712 262V245.638H296.437V249.212C297.218 247.952 298.16 246.966 299.264 246.253C300.367 245.54 301.471 245.184 302.574 245.184C303.541 245.184 304.42 245.442 305.211 245.96C306.002 246.468 306.554 247.137 306.866 247.967C307.188 248.797 307.35 250.428 307.35 252.859V262H304.625V252.522C304.625 250.95 304.547 249.915 304.391 249.417C304.244 248.909 303.966 248.494 303.556 248.172C303.155 247.85 302.716 247.688 302.237 247.688C301.28 247.688 300.25 248.143 299.146 249.051C298.053 249.959 297.149 251.097 296.437 252.464V262H293.712ZM312.484 253.929V251.658H323.851V253.929H312.484ZM335.871 262.688C333.293 262.688 331.32 261.604 329.953 259.437C328.595 257.259 327.917 254.324 327.917 250.633C327.917 246.951 328.595 244.026 329.953 241.858C331.32 239.681 333.293 238.592 335.871 238.592C338.459 238.592 340.431 239.681 341.789 241.858C343.146 244.026 343.825 246.951 343.825 250.633C343.825 254.324 343.146 257.259 341.789 259.437C340.431 261.604 338.459 262.688 335.871 262.688ZM335.871 260.403C337.296 260.403 338.483 259.598 339.43 257.986C340.387 256.365 340.866 253.914 340.866 250.633C340.866 247.352 340.387 244.905 339.43 243.294C338.483 241.673 337.296 240.862 335.871 240.862C334.445 240.862 333.254 241.673 332.296 243.294C331.349 244.905 330.876 247.352 330.876 250.633C330.876 253.914 331.349 256.365 332.296 257.986C333.254 259.598 334.445 260.403 335.871 260.403ZM346.865 262V245.638H349.589V249.212C350.371 247.952 351.313 246.966 352.416 246.253C353.52 245.54 354.623 245.184 355.727 245.184C356.694 245.184 357.573 245.442 358.364 245.96C359.155 246.468 359.706 247.137 360.019 247.967C360.341 248.797 360.502 250.428 360.502 252.859V262H357.778V252.522C357.778 250.95 357.7 249.915 357.543 249.417C357.397 248.909 357.119 248.494 356.708 248.172C356.308 247.85 355.869 247.688 355.39 247.688C354.433 247.688 353.403 248.143 352.299 249.051C351.205 249.959 350.302 251.097 349.589 252.464V262H346.865ZM378.191 260.916C376.013 261.951 373.952 262.469 372.009 262.469C370.534 262.469 369.216 262.103 368.054 261.37C366.892 260.638 365.959 259.593 365.256 258.235C364.563 256.868 364.216 255.408 364.216 253.855C364.216 252.361 364.548 250.926 365.212 249.549C365.876 248.172 366.804 247.103 367.995 246.341C369.187 245.569 370.515 245.184 371.98 245.184C373.923 245.184 375.481 245.877 376.653 247.264C377.834 248.65 378.425 250.789 378.425 253.68V254.266H367.146C367.146 255.398 367.38 256.434 367.849 257.371C368.327 258.309 368.952 259.012 369.724 259.48C370.495 259.949 371.374 260.184 372.361 260.184C374.118 260.184 376.062 259.598 378.191 258.426V260.916ZM367.307 252.229H375.466V251.834C375.466 250.496 375.139 249.432 374.485 248.641C373.83 247.85 372.956 247.454 371.863 247.454C370.759 247.454 369.802 247.859 368.991 248.67C368.191 249.471 367.629 250.657 367.307 252.229ZM413.684 261.736C411.985 262.371 410.462 262.688 409.114 262.688C407.337 262.688 405.701 262.215 404.207 261.268C402.713 260.311 401.551 258.895 400.721 257.02C399.89 255.135 399.475 253.006 399.475 250.633C399.475 248.279 399.886 246.165 400.706 244.29C401.526 242.415 402.683 240.994 404.178 240.027C405.672 239.061 407.317 238.577 409.114 238.577C410.462 238.577 411.985 238.895 413.684 239.529V242.225C412.112 241.316 410.55 240.862 408.997 240.862C407.825 240.862 406.751 241.263 405.774 242.063C404.807 242.864 404.026 244.041 403.43 245.594C402.835 247.137 402.537 248.816 402.537 250.633C402.537 252.479 402.845 254.183 403.46 255.745C404.075 257.308 404.861 258.479 405.818 259.261C406.775 260.032 407.835 260.418 408.997 260.418C410.54 260.418 412.102 259.964 413.684 259.056V261.736ZM419.127 262V245.638H421.851V249.212C422.701 247.864 423.672 246.858 424.766 246.194C425.87 245.521 427.095 245.184 428.443 245.184C429.429 245.184 430.416 245.335 431.402 245.638V251.541H428.78V247.806C428.321 247.728 427.96 247.688 427.696 247.688C426.68 247.688 425.684 248.089 424.708 248.89C423.731 249.69 422.779 250.892 421.851 252.493V262H419.127ZM449.061 260.916C446.883 261.951 444.823 262.469 442.879 262.469C441.405 262.469 440.086 262.103 438.924 261.37C437.762 260.638 436.829 259.593 436.126 258.235C435.433 256.868 435.086 255.408 435.086 253.855C435.086 252.361 435.418 250.926 436.082 249.549C436.746 248.172 437.674 247.103 438.866 246.341C440.057 245.569 441.385 245.184 442.85 245.184C444.793 245.184 446.351 245.877 447.523 247.264C448.704 248.65 449.295 250.789 449.295 253.68V254.266H438.016C438.016 255.398 438.25 256.434 438.719 257.371C439.198 258.309 439.823 259.012 440.594 259.48C441.366 259.949 442.245 260.184 443.231 260.184C444.989 260.184 446.932 259.598 449.061 258.426V260.916ZM438.177 252.229H446.336V251.834C446.336 250.496 446.009 249.432 445.355 248.641C444.701 247.85 443.827 247.454 442.733 247.454C441.629 247.454 440.672 247.859 439.862 248.67C439.061 249.471 438.499 250.657 438.177 252.229ZM463.922 258.323C463.092 259.69 462.091 260.721 460.919 261.414C459.757 262.107 458.688 262.454 457.711 262.454C456.344 262.454 455.113 261.863 454.02 260.682C452.936 259.5 452.394 257.708 452.394 255.306C452.394 253.411 452.755 251.722 453.478 250.237C454.2 248.743 455.167 247.566 456.378 246.707C457.589 245.838 459.088 245.403 460.875 245.403C461.393 245.403 462.174 245.457 463.219 245.564C463.375 245.584 463.61 245.608 463.922 245.638H466.661V257.195C466.661 259.168 466.866 260.77 467.277 262H464.435C464.22 261.102 464.049 259.876 463.922 258.323ZM463.922 255.086V248.069C462.955 247.815 462.057 247.688 461.227 247.688C459.547 247.688 458.146 248.338 457.023 249.637C455.909 250.936 455.353 252.703 455.353 254.939C455.353 256.561 455.655 257.786 456.261 258.616C456.876 259.437 457.574 259.847 458.356 259.847C459.205 259.847 460.143 259.417 461.168 258.558C462.194 257.698 463.112 256.541 463.922 255.086ZM484.569 261.341C483.29 261.878 482.362 262.195 481.786 262.293C481.21 262.4 480.653 262.454 480.116 262.454C478.974 262.454 477.929 262.234 476.981 261.795C476.034 261.355 475.316 260.706 474.828 259.847C474.35 258.987 474.11 257.659 474.11 255.862V249.271H470.023V247H474.11V240.408H476.835V247H484.115V249.271H476.835V255.818C476.835 257.137 476.991 258.069 477.304 258.616C477.616 259.153 478.031 259.549 478.549 259.803C479.076 260.057 479.696 260.184 480.409 260.184C481.728 260.184 483.114 259.769 484.569 258.938V261.341ZM493.19 262V247.908H488.649V245.638H495.915V259.729H500.471V262H493.19ZM492.736 239.734C492.736 239.119 492.946 238.66 493.366 238.357C493.786 238.055 494.181 237.903 494.553 237.903C494.933 237.903 495.334 238.055 495.754 238.357C496.174 238.66 496.384 239.119 496.384 239.734C496.384 240.34 496.174 240.794 495.754 241.097C495.334 241.399 494.933 241.551 494.553 241.551C494.181 241.551 493.786 241.399 493.366 241.097C492.946 240.794 492.736 240.34 492.736 239.734ZM511.64 262L504.536 245.638H507.524L513.134 258.587L518.862 245.638H521.587L514.423 262H511.64ZM537.649 260.916C535.471 261.951 533.411 262.469 531.467 262.469C529.993 262.469 528.674 262.103 527.512 261.37C526.35 260.638 525.417 259.593 524.714 258.235C524.021 256.868 523.674 255.408 523.674 253.855C523.674 252.361 524.006 250.926 524.67 249.549C525.334 248.172 526.262 247.103 527.454 246.341C528.645 245.569 529.973 245.184 531.438 245.184C533.381 245.184 534.939 245.877 536.111 247.264C537.292 248.65 537.883 250.789 537.883 253.68V254.266H526.604C526.604 255.398 526.838 256.434 527.307 257.371C527.786 258.309 528.411 259.012 529.182 259.48C529.954 259.949 530.832 260.184 531.819 260.184C533.577 260.184 535.52 259.598 537.649 258.426V260.916ZM526.765 252.229H534.924V251.834C534.924 250.496 534.597 249.432 533.943 248.641C533.288 247.85 532.414 247.454 531.321 247.454C530.217 247.454 529.26 247.859 528.45 248.67C527.649 249.471 527.087 250.657 526.765 252.229ZM559.051 262V239.266H562.01V249.051H570.418V239.266H573.362V262H570.418V251.321H562.01V262H559.051ZM590.655 245.638V262H587.93V258.411C587.052 259.759 586.075 260.77 585.001 261.443C583.927 262.117 582.852 262.454 581.778 262.454C580.821 262.454 579.942 262.2 579.141 261.692C578.35 261.175 577.799 260.501 577.486 259.671C577.174 258.831 577.017 257.2 577.017 254.778V245.638H579.742V255.115C579.742 256.688 579.815 257.728 579.962 258.235C580.118 258.733 580.396 259.144 580.797 259.466C581.207 259.788 581.646 259.949 582.115 259.949C583.072 259.949 584.097 259.5 585.191 258.602C586.295 257.693 587.208 256.551 587.93 255.174V245.638H590.655ZM597.43 249.314C598.27 247.947 599.271 246.917 600.433 246.224C601.595 245.53 602.665 245.184 603.641 245.184C605.008 245.184 606.239 245.774 607.333 246.956C608.426 248.138 608.973 249.93 608.973 252.332C608.973 254.227 608.607 255.921 607.875 257.415C607.152 258.899 606.185 260.076 604.974 260.945C603.763 261.805 602.264 262.234 600.477 262.234C599.969 262.234 599.188 262.181 598.133 262.073C597.977 262.054 597.743 262.029 597.43 262H594.706V238.357H597.43V249.314ZM597.43 252.552V259.568C598.417 259.822 599.325 259.949 600.155 259.949C601.805 259.949 603.192 259.305 604.315 258.016C605.448 256.717 606.014 254.944 606.014 252.698C606.014 251.067 605.707 249.842 605.091 249.021C604.476 248.201 603.778 247.791 602.997 247.791C602.147 247.791 601.21 248.221 600.184 249.08C599.169 249.939 598.251 251.097 597.43 252.552Z" fill="black"/>
<rect x="91.3535" y="299.5" width="58.9998" height="21.8248" rx="10.9124" fill="black" fill-opacity="0.3" stroke="black" stroke-width="3"/>
<rect x="123.438" y="299.034" width="28.4166" height="22.756" rx="11.378" fill="#00FF66" stroke="black" stroke-width="3"/>
<path d="M208.391 314.709V323H205.432V300.266H211.086C213.41 300.266 215.104 300.529 216.169 301.057C217.233 301.574 218.049 302.336 218.615 303.342C219.182 304.348 219.465 305.471 219.465 306.711C219.465 308.166 219.084 309.523 218.322 310.783C217.561 312.043 216.496 313.015 215.129 313.698C213.771 314.372 211.926 314.709 209.592 314.709H208.391ZM208.391 312.438H209.665C211.491 312.438 212.849 312.204 213.737 311.735C214.626 311.257 215.31 310.573 215.788 309.685C216.267 308.796 216.506 307.834 216.506 306.799C216.506 305.49 216.076 304.455 215.217 303.693C214.367 302.932 212.683 302.551 210.163 302.551H208.391V312.438ZM229.58 323.454C227.236 323.454 225.361 322.639 223.955 321.008C222.549 319.367 221.846 317.302 221.846 314.812C221.846 312.321 222.549 310.261 223.955 308.63C225.361 306.999 227.236 306.184 229.58 306.184C231.914 306.184 233.784 306.999 235.19 308.63C236.596 310.261 237.3 312.321 237.3 314.812C237.3 317.302 236.596 319.367 235.19 321.008C233.784 322.639 231.914 323.454 229.58 323.454ZM229.58 321.184C231.035 321.184 232.192 320.617 233.052 319.484C233.911 318.352 234.341 316.794 234.341 314.812C234.341 312.839 233.911 311.286 233.052 310.153C232.192 309.021 231.035 308.454 229.58 308.454C228.115 308.454 226.953 309.021 226.094 310.153C225.234 311.286 224.804 312.839 224.804 314.812C224.804 316.794 225.234 318.352 226.094 319.484C226.953 320.617 228.115 321.184 229.58 321.184ZM241.248 323L238.582 306.638H241.116L242.669 316.599L243.079 318.913L243.474 316.599L246.082 306.638H248.528L251.472 316.599L251.985 318.913L252.322 316.599L253.889 306.638H255.984L253.333 323H250.784L247.649 312.468L247.151 310.153H247.078L246.624 312.453L243.899 323H241.248ZM271.885 321.916C269.707 322.951 267.647 323.469 265.704 323.469C264.229 323.469 262.911 323.103 261.748 322.37C260.586 321.638 259.654 320.593 258.951 319.235C258.257 317.868 257.911 316.408 257.911 314.855C257.911 313.361 258.243 311.926 258.907 310.549C259.571 309.172 260.498 308.103 261.69 307.341C262.881 306.569 264.209 306.184 265.674 306.184C267.618 306.184 269.175 306.877 270.347 308.264C271.529 309.65 272.12 311.789 272.12 314.68V315.266H260.84C260.84 316.398 261.075 317.434 261.543 318.371C262.022 319.309 262.647 320.012 263.418 320.48C264.19 320.949 265.069 321.184 266.055 321.184C267.813 321.184 269.756 320.598 271.885 319.426V321.916ZM261.001 313.229H269.161V312.834C269.161 311.496 268.833 310.432 268.179 309.641C267.525 308.85 266.651 308.454 265.557 308.454C264.454 308.454 263.496 308.859 262.686 309.67C261.885 310.471 261.324 311.657 261.001 313.229ZM277.386 323V306.638H280.111V310.212C280.96 308.864 281.932 307.858 283.026 307.194C284.129 306.521 285.355 306.184 286.702 306.184C287.689 306.184 288.675 306.335 289.661 306.638V312.541H287.039V308.806C286.58 308.728 286.219 308.688 285.955 308.688C284.94 308.688 283.944 309.089 282.967 309.89C281.99 310.69 281.038 311.892 280.111 313.493V323H277.386ZM297.521 323V310.271H293.888V308H297.521V307.238C297.521 305.08 297.765 303.483 298.253 302.448C298.741 301.413 299.493 300.563 300.509 299.899C301.534 299.235 302.887 298.903 304.566 298.903C305.836 298.903 307.125 299.035 308.434 299.299V301.892C307.018 301.423 305.763 301.188 304.669 301.188C303.8 301.188 303.033 301.35 302.369 301.672C301.705 301.994 301.183 302.521 300.802 303.254C300.431 303.977 300.245 305.207 300.245 306.945V308H306.734V310.271H300.245V323H297.521ZM324.891 306.638V323H322.167V319.411C321.288 320.759 320.311 321.77 319.237 322.443C318.163 323.117 317.089 323.454 316.014 323.454C315.057 323.454 314.179 323.2 313.378 322.692C312.587 322.175 312.035 321.501 311.722 320.671C311.41 319.831 311.254 318.2 311.254 315.778V306.638H313.978V316.115C313.978 317.688 314.052 318.728 314.198 319.235C314.354 319.733 314.633 320.144 315.033 320.466C315.443 320.788 315.883 320.949 316.351 320.949C317.308 320.949 318.334 320.5 319.428 319.602C320.531 318.693 321.444 317.551 322.167 316.174V306.638H324.891ZM333.542 323V301.643H328.649V299.357H336.266V320.729H341.379V323H333.542ZM365.637 323H362.795L369.797 300.266H372.8L379.846 323H376.726L375.173 318.005H367.175L365.637 323ZM367.878 315.734H374.514L371.775 307.106L371.13 304.821L370.559 307.106L367.878 315.734ZM382.549 323V320.729H387.544V302.551H382.549V300.266H395.498V302.551H390.503V320.729H395.498V323H382.549ZM428.663 319.323C427.833 320.69 426.832 321.721 425.66 322.414C424.498 323.107 423.428 323.454 422.452 323.454C421.085 323.454 419.854 322.863 418.76 321.682C417.676 320.5 417.134 318.708 417.134 316.306C417.134 314.411 417.496 312.722 418.218 311.237C418.941 309.743 419.908 308.566 421.119 307.707C422.33 306.838 423.829 306.403 425.616 306.403C426.133 306.403 426.915 306.457 427.96 306.564C428.116 306.584 428.35 306.608 428.663 306.638V299.357H431.402V323H428.663V319.323ZM428.663 316.086V309.069C427.696 308.815 426.797 308.688 425.967 308.688C424.288 308.688 422.886 309.338 421.763 310.637C420.65 311.936 420.093 313.703 420.093 315.939C420.093 317.561 420.396 318.786 421.002 319.616C421.617 320.437 422.315 320.847 423.096 320.847C423.946 320.847 424.883 320.417 425.909 319.558C426.934 318.698 427.852 317.541 428.663 316.086ZM436.844 323V306.638H439.569V310.212C440.418 308.864 441.39 307.858 442.484 307.194C443.587 306.521 444.813 306.184 446.161 306.184C447.147 306.184 448.133 306.335 449.12 306.638V312.541H446.497V308.806C446.038 308.728 445.677 308.688 445.413 308.688C444.398 308.688 443.402 309.089 442.425 309.89C441.449 310.69 440.496 311.892 439.569 313.493V323H436.844ZM457.755 323V308.908H453.214V306.638H460.48V320.729H465.035V323H457.755ZM457.301 300.734C457.301 300.119 457.511 299.66 457.931 299.357C458.351 299.055 458.746 298.903 459.117 298.903C459.498 298.903 459.899 299.055 460.319 299.357C460.738 299.66 460.948 300.119 460.948 300.734C460.948 301.34 460.738 301.794 460.319 302.097C459.899 302.399 459.498 302.551 459.117 302.551C458.746 302.551 458.351 302.399 457.931 302.097C457.511 301.794 457.301 301.34 457.301 300.734ZM476.205 323L469.101 306.638H472.089L477.699 319.587L483.427 306.638H486.151L478.988 323H476.205ZM502.214 321.916C500.036 322.951 497.975 323.469 496.032 323.469C494.557 323.469 493.239 323.103 492.077 322.37C490.915 321.638 489.982 320.593 489.279 319.235C488.586 317.868 488.239 316.408 488.239 314.855C488.239 313.361 488.571 311.926 489.235 310.549C489.899 309.172 490.827 308.103 492.018 307.341C493.21 306.569 494.538 306.184 496.003 306.184C497.946 306.184 499.504 306.877 500.676 308.264C501.857 309.65 502.448 311.789 502.448 314.68V315.266H491.169C491.169 316.398 491.403 317.434 491.872 318.371C492.35 319.309 492.975 320.012 493.747 320.48C494.518 320.949 495.397 321.184 496.384 321.184C498.141 321.184 500.085 320.598 502.214 319.426V321.916ZM491.33 313.229H499.489V312.834C499.489 311.496 499.162 310.432 498.508 309.641C497.853 308.85 496.979 308.454 495.886 308.454C494.782 308.454 493.825 308.859 493.014 309.67C492.214 310.471 491.652 311.657 491.33 313.229ZM506.323 323V306.638H509.047V310.212C509.829 308.952 510.771 307.966 511.875 307.253C512.978 306.54 514.082 306.184 515.185 306.184C516.152 306.184 517.031 306.442 517.822 306.96C518.613 307.468 519.165 308.137 519.477 308.967C519.799 309.797 519.961 311.428 519.961 313.859V323H517.236V313.522C517.236 311.95 517.158 310.915 517.002 310.417C516.855 309.909 516.577 309.494 516.167 309.172C515.766 308.85 515.327 308.688 514.848 308.688C513.891 308.688 512.861 309.143 511.757 310.051C510.664 310.959 509.76 312.097 509.047 313.464V323H506.323ZM545.567 323V310.271H541.934V308H545.567V307.238C545.567 305.08 545.811 303.483 546.299 302.448C546.787 301.413 547.539 300.563 548.555 299.899C549.58 299.235 550.933 298.903 552.612 298.903C553.882 298.903 555.171 299.035 556.48 299.299V301.892C555.064 301.423 553.809 301.188 552.715 301.188C551.846 301.188 551.079 301.35 550.415 301.672C549.751 301.994 549.229 302.521 548.848 303.254C548.477 303.977 548.291 305.207 548.291 306.945V308H554.78V310.271H548.291V323H545.567ZM573.084 321.916C570.906 322.951 568.846 323.469 566.902 323.469C565.428 323.469 564.109 323.103 562.947 322.37C561.785 321.638 560.853 320.593 560.149 319.235C559.456 317.868 559.109 316.408 559.109 314.855C559.109 313.361 559.441 311.926 560.105 310.549C560.77 309.172 561.697 308.103 562.889 307.341C564.08 306.569 565.408 306.184 566.873 306.184C568.816 306.184 570.374 306.877 571.546 308.264C572.728 309.65 573.318 311.789 573.318 314.68V315.266H562.039C562.039 316.398 562.273 317.434 562.742 318.371C563.221 319.309 563.846 320.012 564.617 320.48C565.389 320.949 566.268 321.184 567.254 321.184C569.012 321.184 570.955 320.598 573.084 319.426V321.916ZM562.2 313.229H570.359V312.834C570.359 311.496 570.032 310.432 569.378 309.641C568.724 308.85 567.85 308.454 566.756 308.454C565.652 308.454 564.695 308.859 563.885 309.67C563.084 310.471 562.522 311.657 562.2 313.229ZM587.945 319.323C587.115 320.69 586.114 321.721 584.942 322.414C583.78 323.107 582.711 323.454 581.734 323.454C580.367 323.454 579.137 322.863 578.043 321.682C576.959 320.5 576.417 318.708 576.417 316.306C576.417 314.411 576.778 312.722 577.501 311.237C578.223 309.743 579.19 308.566 580.401 307.707C581.612 306.838 583.111 306.403 584.898 306.403C585.416 306.403 586.197 306.457 587.242 306.564C587.398 306.584 587.633 306.608 587.945 306.638H590.684V318.195C590.684 320.168 590.889 321.77 591.3 323H588.458C588.243 322.102 588.072 320.876 587.945 319.323ZM587.945 316.086V309.069C586.978 308.815 586.08 308.688 585.25 308.688C583.57 308.688 582.169 309.338 581.046 310.637C579.932 311.936 579.376 313.703 579.376 315.939C579.376 317.561 579.679 318.786 580.284 319.616C580.899 320.437 581.597 320.847 582.379 320.847C583.228 320.847 584.166 320.417 585.191 319.558C586.217 318.698 587.135 317.541 587.945 316.086ZM608.592 322.341C607.313 322.878 606.385 323.195 605.809 323.293C605.233 323.4 604.676 323.454 604.139 323.454C602.997 323.454 601.952 323.234 601.004 322.795C600.057 322.355 599.339 321.706 598.851 320.847C598.373 319.987 598.133 318.659 598.133 316.862V310.271H594.046V308H598.133V301.408H600.858V308H608.138V310.271H600.858V316.818C600.858 318.137 601.014 319.069 601.327 319.616C601.639 320.153 602.054 320.549 602.572 320.803C603.099 321.057 603.719 321.184 604.432 321.184C605.751 321.184 607.137 320.769 608.592 319.938V322.341ZM626.09 306.638V323H623.366V319.411C622.487 320.759 621.51 321.77 620.436 322.443C619.362 323.117 618.288 323.454 617.213 323.454C616.256 323.454 615.377 323.2 614.577 322.692C613.786 322.175 613.234 321.501 612.921 320.671C612.609 319.831 612.453 318.2 612.453 315.778V306.638H615.177V316.115C615.177 317.688 615.25 318.728 615.397 319.235C615.553 319.733 615.831 320.144 616.232 320.466C616.642 320.788 617.081 320.949 617.55 320.949C618.507 320.949 619.533 320.5 620.626 319.602C621.73 318.693 622.643 317.551 623.366 316.174V306.638H626.09ZM631.737 323V306.638H634.462V310.212C635.312 308.864 636.283 307.858 637.377 307.194C638.481 306.521 639.706 306.184 641.054 306.184C642.04 306.184 643.027 306.335 644.013 306.638V312.541H641.391V308.806C640.932 308.728 640.57 308.688 640.307 308.688C639.291 308.688 638.295 309.089 637.319 309.89C636.342 310.69 635.39 311.892 634.462 313.493V323H631.737ZM661.672 321.916C659.494 322.951 657.434 323.469 655.49 323.469C654.016 323.469 652.697 323.103 651.535 322.37C650.373 321.638 649.44 320.593 648.737 319.235C648.044 317.868 647.697 316.408 647.697 314.855C647.697 313.361 648.029 311.926 648.693 310.549C649.357 309.172 650.285 308.103 651.477 307.341C652.668 306.569 653.996 306.184 655.461 306.184C657.404 306.184 658.962 306.877 660.134 308.264C661.315 309.65 661.906 311.789 661.906 314.68V315.266H650.627C650.627 316.398 650.861 317.434 651.33 318.371C651.809 319.309 652.434 320.012 653.205 320.48C653.977 320.949 654.855 321.184 655.842 321.184C657.6 321.184 659.543 320.598 661.672 319.426V321.916ZM650.788 313.229H658.947V312.834C658.947 311.496 658.62 310.432 657.966 309.641C657.312 308.85 656.438 308.454 655.344 308.454C654.24 308.454 653.283 308.859 652.473 309.67C651.672 310.471 651.11 311.657 650.788 313.229ZM665.971 322.136V319.25C667.065 319.963 668.222 320.466 669.443 320.759C670.664 321.042 671.699 321.184 672.549 321.184C673.926 321.184 674.917 320.964 675.522 320.524C676.128 320.075 676.43 319.519 676.43 318.854C676.43 318.415 676.289 318.039 676.006 317.727C675.722 317.414 675.019 317.028 673.896 316.569L672.959 316.188L671.069 315.441C669.038 314.65 667.754 313.923 667.217 313.259C666.689 312.585 666.426 311.77 666.426 310.812C666.426 309.465 666.943 308.356 667.978 307.487C669.023 306.618 670.713 306.184 673.047 306.184C674.795 306.184 676.45 306.438 678.013 306.945V309.421C676.216 308.776 674.526 308.454 672.944 308.454C671.792 308.454 670.888 308.659 670.234 309.069C669.59 309.47 669.267 309.973 669.267 310.578C669.267 311.164 669.546 311.633 670.102 311.984C670.669 312.336 671.582 312.741 672.842 313.2L674.687 313.874C676.377 314.489 677.563 315.158 678.247 315.881C678.93 316.604 679.272 317.507 679.272 318.591C679.272 320.007 678.725 321.174 677.632 322.092C676.548 323 674.809 323.454 672.417 323.454C670.327 323.454 668.179 323.015 665.971 322.136Z" fill="black"/>
<path d="M144.655 349.134L134.854 314.743L178.414 335.155L161.951 337.3L176.859 352.632L169.318 356.083L153.818 340.132L144.655 349.134Z" fill="#010101" stroke="white" stroke-width="5.73418" stroke-linecap="square"/>
<path d="M227.517 63.875V69.9H213.192V63.875H227.517ZM239.217 48.05V61.3H231.417V54.675H216.892V79.375H223.417V86H204.517V79.375H209.092V54.675H204.517V48.05H239.217ZM260.299 86C259.199 86 258.349 85.675 257.749 85.025C257.165 84.3583 256.874 83.425 256.874 82.225V76.3L257.399 75.3L257.099 72.3L256.874 70.625V68.45C256.874 67.5 256.674 66.7167 256.274 66.1C255.874 65.4667 255.29 65 254.524 64.7C253.774 64.4 252.865 64.25 251.799 64.25C250.299 64.25 249.074 64.5583 248.124 65.175C247.19 65.775 246.582 66.7333 246.299 68.05L239.299 66.975C239.599 65.025 240.257 63.3667 241.274 62C242.29 60.6333 243.715 59.5917 245.549 58.875C247.382 58.1583 249.674 57.8 252.424 57.8C255.007 57.8 257.19 58.1417 258.974 58.825C260.774 59.4917 262.14 60.5417 263.074 61.975C264.007 63.4083 264.474 65.2583 264.474 67.525V79.725H267.774V86H260.299ZM247.224 86.5C244.34 86.5 242.157 85.8333 240.674 84.5C239.19 83.1667 238.449 81.2833 238.449 78.85C238.449 76.4833 239.19 74.6833 240.674 73.45C242.157 72.2 244.482 71.2917 247.649 70.725L258.274 68.725V72.425L249.849 74.225C248.649 74.4583 247.774 74.8583 247.224 75.425C246.674 75.975 246.399 76.7083 246.399 77.625C246.399 78.6083 246.707 79.3583 247.324 79.875C247.957 80.3917 248.857 80.65 250.024 80.65C251.357 80.65 252.557 80.3167 253.624 79.65C254.707 78.9833 255.557 78.0333 256.174 76.8C256.79 75.55 257.099 74.05 257.099 72.3L258.349 78.175H256.649C256.282 80.9583 255.29 83.0417 253.674 84.425C252.057 85.8083 249.907 86.5 247.224 86.5ZM286.676 58.45H299.951V64.7H297.501L288.576 86H279.826L270.601 64.7H268.151V58.45H282.701V64.7H278.901L287.501 86L282.376 79.2H286.976L282.251 86L290.451 64.7H286.676V58.45ZM314.729 79.75H318.654V86H302.829V79.75H307.129V64.7H302.829V58.45H314.729V79.75ZM306.454 46.825H314.954V54.025H306.454V46.825ZM355.402 86.625C352.535 86.625 349.902 86.15 347.502 85.2C345.102 84.2333 343.027 82.875 341.277 81.125C339.543 79.3583 338.193 77.275 337.227 74.875C336.277 72.4583 335.802 69.8083 335.802 66.925C335.802 64.0583 336.268 61.4417 337.202 59.075C338.152 56.6917 339.46 54.6333 341.127 52.9C342.793 51.1667 344.735 49.825 346.952 48.875C349.185 47.925 351.593 47.45 354.177 47.45C356.577 47.45 358.627 47.8833 360.327 48.75C362.043 49.6 363.402 50.8583 364.402 52.525C365.418 54.175 366.077 56.2167 366.377 58.65H368.227L366.652 63.225C366.002 60.6917 364.677 58.675 362.677 57.175C360.677 55.675 358.277 54.925 355.477 54.925C353.21 54.925 351.21 55.4333 349.477 56.45C347.76 57.45 346.41 58.8583 345.427 60.675C344.46 62.475 343.977 64.5583 343.977 66.925C343.977 68.725 344.252 70.375 344.802 71.875C345.368 73.375 346.152 74.675 347.152 75.775C348.168 76.8583 349.377 77.6917 350.777 78.275C352.177 78.8583 353.718 79.15 355.402 79.15C357.335 79.15 359.068 78.775 360.602 78.025C362.152 77.2583 363.435 76.1833 364.452 74.8C365.468 73.4167 366.152 71.7917 366.502 69.925L374.502 71.275C373.952 74.3583 372.802 77.0583 371.052 79.375C369.318 81.675 367.11 83.4583 364.427 84.725C361.76 85.9917 358.752 86.625 355.402 86.625ZM366.652 63.225V48.05H374.452V63.225H366.652ZM389.195 79.75H392.745V86H377.445V79.75H381.595V52.75H377.445V46.5H389.195V79.75ZM399.97 79.75V69.1C399.97 67.55 399.612 66.325 398.895 65.425C398.195 64.5083 397.145 64.05 395.745 64.05C394.545 64.05 393.445 64.3917 392.445 65.075C391.462 65.7583 390.67 66.775 390.07 68.125C389.487 69.4583 389.195 71.1083 389.195 73.075L387.895 67.15H389.47C389.753 65.0667 390.312 63.3333 391.145 61.95C391.978 60.55 393.062 59.5083 394.395 58.825C395.745 58.125 397.32 57.775 399.12 57.775C401.937 57.775 404.045 58.5917 405.445 60.225C406.862 61.8583 407.57 64.15 407.57 67.1V79.75H411.545V86H396.47V79.75H399.97ZM429.177 86.575C426.127 86.575 423.485 85.975 421.252 84.775C419.035 83.5583 417.327 81.8833 416.127 79.75C414.927 77.6 414.327 75.1167 414.327 72.3C414.327 69.4667 414.927 66.9667 416.127 64.8C417.327 62.6167 419.018 60.9167 421.202 59.7C423.385 58.4833 425.96 57.875 428.927 57.875C431.893 57.875 434.452 58.4833 436.602 59.7C438.768 60.9167 440.435 62.6083 441.602 64.775C442.768 66.9417 443.352 69.4583 443.352 72.325C443.352 72.7917 443.352 73.1917 443.352 73.525C443.352 73.8583 443.335 74.15 443.302 74.4H435.802C435.852 74.0333 435.877 73.6583 435.877 73.275C435.893 72.8917 435.902 72.4583 435.902 71.975C435.902 70.4417 435.635 69.1 435.102 67.95C434.568 66.7833 433.785 65.8833 432.752 65.25C431.735 64.6 430.502 64.275 429.052 64.275C427.652 64.275 426.427 64.6083 425.377 65.275C424.327 65.925 423.51 66.8583 422.927 68.075C422.36 69.275 422.077 70.6833 422.077 72.3C422.077 73.7833 422.368 75.0917 422.952 76.225C423.535 77.3583 424.352 78.25 425.402 78.9C426.468 79.5333 427.743 79.85 429.227 79.85C430.743 79.85 432.043 79.5167 433.127 78.85C434.227 78.1667 435.043 77.2583 435.577 76.125L442.927 78.275C441.893 80.8417 440.168 82.8667 437.752 84.35C435.352 85.8333 432.493 86.575 429.177 86.575ZM419.152 74.4V69.725H438.827L439.652 74.4H419.152ZM462.433 86.575C459.35 86.575 456.683 85.975 454.433 84.775C452.183 83.5583 450.442 81.8833 449.208 79.75C447.992 77.6 447.383 75.1083 447.383 72.275C447.383 70.1583 447.708 68.2167 448.358 66.45C449.025 64.6833 449.95 63.1667 451.133 61.9C452.333 60.6167 453.725 59.625 455.308 58.925C456.892 58.225 458.608 57.875 460.458 57.875C462.142 57.875 463.533 58.1667 464.633 58.75C465.733 59.3167 466.575 60.1417 467.158 61.225C467.742 62.3083 468.1 63.625 468.233 65.175H469.858L468.508 69.875C468.358 68.7417 468.008 67.7583 467.458 66.925C466.925 66.075 466.208 65.4167 465.308 64.95C464.425 64.4833 463.4 64.25 462.233 64.25C460.817 64.25 459.575 64.5833 458.508 65.25C457.458 65.9167 456.642 66.8417 456.058 68.025C455.475 69.2083 455.183 70.5917 455.183 72.175C455.183 73.6917 455.475 75.0333 456.058 76.2C456.658 77.35 457.5 78.25 458.583 78.9C459.683 79.5333 460.992 79.85 462.508 79.85C464.092 79.85 465.425 79.5083 466.508 78.825C467.608 78.1417 468.358 77.2167 468.758 76.05L476.133 78.525C475.3 81.025 473.675 82.9917 471.258 84.425C468.842 85.8583 465.9 86.575 462.433 86.575ZM468.508 69.875V58.45H476.108V69.875H468.508ZM491.271 79.75H494.621V86H479.496V79.75H483.646V52.75H479.496V46.5H491.271V79.75ZM502.121 68.575L510.671 79.75H513.646V86H498.271V79.75H501.821L495.946 71.825L502.121 68.575ZM488.746 79.075L486.696 74.7L500.821 64.7H495.121V58.425H513.271V64.7H509.921L488.746 79.075ZM542.421 79.75H546.546V86H530.521V79.75H534.821V52.75H530.521V46.5H542.421V79.75ZM561.702 79.75H565.627V86H549.802V79.75H554.102V64.7H549.802V58.45H561.702V79.75ZM553.427 46.825H561.927V54.025H553.427V46.825ZM585.019 86.5C583.385 86.5 581.994 86.275 580.844 85.825C579.71 85.3583 578.81 84.6917 578.144 83.825C577.494 82.9583 577.069 81.9083 576.869 80.675H575.719L576.619 77.1C576.869 78.15 577.594 79.025 578.794 79.725C579.994 80.4083 581.419 80.75 583.069 80.75C584.352 80.75 585.31 80.5333 585.944 80.1C586.577 79.65 586.894 79 586.894 78.15C586.894 77.2833 586.485 76.6167 585.669 76.15C584.869 75.6667 583.419 75.3083 581.319 75.075C577.035 74.5417 573.919 73.4833 571.969 71.9C570.035 70.3167 569.069 68.2667 569.069 65.75C569.069 63.3833 569.885 61.4833 571.519 60.05C573.152 58.6167 575.435 57.9 578.369 57.9C579.869 57.9 581.127 58.125 582.144 58.575C583.16 59.0083 583.944 59.6583 584.494 60.525C585.06 61.3917 585.427 62.4417 585.594 63.675H586.744L585.869 67.15C585.619 66.05 584.952 65.1667 583.869 64.5C582.785 63.8333 581.535 63.5 580.119 63.5C578.985 63.5 578.135 63.7167 577.569 64.15C577.002 64.5667 576.719 65.1 576.719 65.75C576.719 66.5667 577.219 67.2167 578.219 67.7C579.235 68.1833 580.802 68.5667 582.919 68.85C587.019 69.3667 589.977 70.3583 591.794 71.825C593.61 73.2917 594.519 75.3583 594.519 78.025C594.519 80.6583 593.719 82.7333 592.119 84.25C590.519 85.75 588.152 86.5 585.019 86.5ZM569.019 86V77.1H576.619V86H569.019ZM585.869 67.15V58.375H593.469V67.15H585.869ZM609.425 77.025C609.425 77.925 609.584 78.6 609.9 79.05C610.234 79.5 610.709 79.725 611.325 79.725C611.942 79.725 612.409 79.5 612.725 79.05C613.059 78.5833 613.225 77.9083 613.225 77.025V74.4H619.75V76.975C619.75 78.9417 619.442 80.6417 618.825 82.075C618.209 83.4917 617.242 84.5833 615.925 85.35C614.609 86.1167 612.909 86.5 610.825 86.5C608.742 86.5 607.034 86.1083 605.7 85.325C604.384 84.5417 603.409 83.4417 602.775 82.025C602.142 80.6083 601.825 78.9417 601.825 77.025V64.725H597.55V58.45H601.825V51.225H609.425V58.45H619.475L619.425 64.725H609.425V77.025Z" fill="black"/>
</g>
<rect x="20.2422" y="2" width="821.612" height="378.382" rx="14.2289" stroke="black" stroke-width="4"/>
<defs>
<clipPath id="clip0_14_407">
<rect x="20.2422" y="2" width="821.612" height="378.382" rx="14.2289" fill="white"/>
</clipPath>
</defs>
</svg>
