<svg width="383" height="179" viewBox="0 0 383 179" fill="none" xmlns="http://www.w3.org/2000/svg">
<path d="M34.35 7.2501L37.9 10.7501C40.65 13.5001 42.4 17.3001 42.6 22.1501V22.7501L43.15 23.3501L43.1 25.6501C42.6 37.3001 35.8 44.7501 23.9 44.7501C17.85 44.7501 12.8 42.8001 9.3 39.3501L5.8 35.8001C2.4 32.4501 0.5 27.6001 0.5 21.6501C0.5 9.8001 8.5 2.0001 20.3 2.0001C25.85 2.0001 30.9 3.7501 34.35 7.2501ZM20.35 29.1001C17.35 29.1001 15.85 26.0501 15.85 21.5501C15.85 17.1501 17.1 14.1001 20.05 14.1001C21.8 14.1001 23.8 15.2001 23.8 18.7001H36.8C36.45 10.1501 30.35 4.2501 20.3 4.2501C9.65 4.2501 2.75 11.1501 2.75 21.6501C2.75 32.0501 9.2 38.9501 20.35 38.9501C30.9 38.9501 36.9 32.6501 37.3 22.0501H24.3C24.3 26.3001 23.2 29.1001 20.35 29.1001ZM22.05 22.0501V21.6001C21.7 22.9001 21.65 24.2501 21.65 25.5501C21.95 24.5501 22.05 23.2501 22.05 22.0501ZM56.2988 10.0001C61.4988 10.0001 66.9488 11.6001 70.5488 15.2001L74.0488 18.7501C76.5488 21.2001 78.1488 24.6501 78.1488 29.1501C78.1488 39.5001 69.3988 44.7501 59.8488 44.7501C54.6488 44.7501 49.2488 43.1001 45.6488 39.5501L42.1488 36.0001C39.6488 33.5001 38.0488 30.1001 38.0488 25.6001C38.0488 15.2501 46.6988 10.0001 56.2988 10.0001ZM40.2988 25.6001C40.2988 33.6501 46.6988 38.9501 56.2988 38.9501C65.9488 38.9501 72.3488 33.6501 72.3488 25.6001C72.3488 17.5501 65.9488 12.2501 56.2988 12.2501C46.6988 12.2501 40.2988 17.5501 40.2988 25.6001ZM52.8988 25.6001C52.8988 23.2001 54.1988 21.6001 56.2988 21.6001C58.4488 21.6001 59.7488 23.2001 59.7488 25.6001C59.7488 28.0001 58.4488 29.6001 56.2988 29.6001C54.1988 29.6001 52.8988 28.0001 52.8988 25.6001ZM73.1074 10.3501H90.1074L91.9074 12.1501C93.5074 10.8501 95.5074 10.0001 98.1074 10.0001C101.057 10.0001 103.107 10.9501 104.607 12.4501L108.157 16.0001C110.807 18.6501 111.507 23.0001 111.507 26.3001V44.4001H94.5074L93.5574 43.4501L93.4574 44.4001H76.6574L73.1074 40.8501V10.3501ZM75.3574 12.6001V38.6001H87.8574C88.7574 28.8501 90.0574 21.0001 92.1074 21.0001C92.8574 21.0001 93.2074 22.2001 93.2074 24.7001V38.6001H105.707V22.7501C105.707 14.6001 101.957 12.2501 98.1074 12.2501C90.1074 12.2501 89.0574 22.1001 88.1074 29.9501H87.8574V12.6001H75.3574ZM106.457 10.3501H123.457L125.257 12.1501C126.857 10.8501 128.857 10.0001 131.457 10.0001C134.407 10.0001 136.457 10.9501 137.957 12.4501L141.507 16.0001C144.157 18.6501 144.857 23.0001 144.857 26.3001V44.4001H127.857L126.907 43.4501L126.807 44.4001H110.007L106.457 40.8501V10.3501ZM108.707 12.6001V38.6001H121.207C122.107 28.8501 123.407 21.0001 125.457 21.0001C126.207 21.0001 126.557 22.2001 126.557 24.7001V38.6001H139.057V22.7501C139.057 14.6001 135.307 12.2501 131.457 12.2501C123.457 12.2501 122.407 22.1001 121.457 29.9501H121.207V12.6001H108.707ZM171.407 14.9001L174.957 18.4001C177.107 20.5501 178.507 23.4001 178.657 27.2001L179.557 28.1501L179.407 30.5501C178.557 40.2001 170.507 44.7501 161.407 44.7501C156.207 44.7501 150.907 43.1501 147.407 39.6501L143.907 36.1001C141.407 33.6001 139.807 30.1501 139.807 25.6001C139.807 15.3001 148.207 10.0001 157.807 10.0001C162.607 10.0001 167.957 11.4001 171.407 14.9001ZM173.607 26.8501H160.857C160.657 28.7501 159.407 29.6001 157.957 29.6001C155.957 29.6001 154.657 27.9501 154.657 25.5001C154.657 25.2501 154.657 25.0001 154.707 24.7501H172.857C173.107 17.0501 167.007 12.2501 157.807 12.2501C148.207 12.2501 142.057 17.5501 142.057 25.6001C142.057 33.6501 148.257 38.9501 157.857 38.9501C166.807 38.9501 173.007 34.4001 173.607 26.8501ZM160.457 23.5001L154.807 24.2501C155.207 22.6501 156.307 21.6001 157.957 21.6001C159.357 21.6001 160.407 22.3501 160.457 23.5001ZM206.277 14.7501L209.827 18.3001C212.027 20.5001 213.477 23.5501 213.677 27.7001L214.127 28.1501L213.977 30.5501C213.127 40.2001 205.077 44.7501 195.977 44.7501C190.777 44.7501 185.477 43.1501 181.977 39.6501L178.477 36.1001C175.977 33.6001 174.377 30.1501 174.377 25.6001C174.377 15.3001 182.827 10.0001 192.427 10.0001C197.677 10.0001 202.877 11.3501 206.277 14.7501ZM208.177 26.8501H195.427C195.227 28.7501 193.977 29.6001 192.527 29.6001C190.527 29.6001 189.227 27.9501 189.227 25.5001C189.227 23.1501 190.527 21.6001 192.427 21.6001C193.977 21.6001 195.077 22.6001 195.527 24.7501H207.927C207.677 16.3001 201.577 12.2501 192.427 12.2501C182.777 12.2501 176.627 17.5501 176.627 25.6001C176.627 33.6501 182.827 38.9501 192.427 38.9501C201.377 38.9501 207.577 34.4001 208.177 26.8501ZM210.447 26.1001V25.6001L208.947 24.1001V10.9001L210.547 10.4501C211.797 10.1001 212.447 9.1501 212.447 7.1501V4.9001H227.447L230.997 8.4501V10.7001C230.997 10.9001 230.997 11.1501 230.947 11.3501L233.497 13.9001V27.6501H230.997V27.8501H240.797L244.297 31.4001L244.047 33.8501C243.297 41.5001 237.047 44.7501 229.847 44.7501C224.897 44.7501 220.747 43.3501 217.947 40.5001L214.397 37.0001C211.897 34.4501 210.447 30.8501 210.447 26.1001ZM225.197 7.1501H214.697C214.697 9.7501 213.747 11.8501 211.197 12.6001V21.8501H212.697V26.1001C212.697 35.5001 218.897 38.9501 226.297 38.9501C232.947 38.9501 237.697 36.0501 238.297 30.1001H228.447C228.347 31.2001 227.747 32.0501 226.747 32.0501C225.797 32.0501 225.197 31.3001 225.197 29.6501V21.8501H227.697V12.6001H220.947V12.3501C224.247 12.1001 225.197 9.9001 225.197 7.1501ZM259.575 40.8501L250.225 10.3501H300.325L303.875 13.9001L294.425 44.4001H263.075L259.575 40.8501ZM273.725 38.6001L273.975 37.4501C274.475 35.1501 274.975 33.1001 275.075 28.6501H275.375C275.475 33.1001 275.975 35.1501 276.475 37.4501L276.725 38.6001H289.225L297.275 12.6001H284.275C283.725 17.3501 283.225 22.6501 283.125 27.7501H282.825C282.725 22.6501 282.275 17.3501 281.775 12.6001H268.775C268.225 17.3501 267.725 22.6501 267.625 27.7501H267.325C267.225 22.6501 266.775 17.3501 266.275 12.6001H253.275L261.225 38.6001H273.725ZM306.521 9.69172e-05C308.371 9.69172e-05 311.771 0.500096 313.771 2.5501L317.321 6.1001C318.371 7.10009 319.071 8.5501 319.071 10.5001C319.071 11.7501 318.771 12.7501 318.321 13.6501L318.571 13.9001V44.4001H301.571L298.021 40.8501V10.3501H298.421C297.871 9.4501 297.521 8.3001 297.521 6.9501C297.521 2.0501 302.171 9.69172e-05 306.521 9.69172e-05ZM299.771 6.9501C299.771 9.8001 302.471 11.7501 306.521 11.7501C310.571 11.7501 313.271 9.8001 313.271 6.9501C313.271 4.10009 310.571 2.25009 306.521 2.25009C302.471 2.25009 299.771 4.10009 299.771 6.9501ZM300.271 12.6001V38.6001H312.771V12.6001H300.271ZM315.525 26.1001V25.6001L314.025 24.1001V10.9001L315.625 10.4501C316.875 10.1001 317.525 9.1501 317.525 7.1501V4.9001H332.525L336.075 8.4501V10.7001C336.075 10.9001 336.075 11.1501 336.025 11.3501L338.575 13.9001V27.6501H336.075V27.8501H345.875L349.375 31.4001L349.125 33.8501C348.375 41.5001 342.125 44.7501 334.925 44.7501C329.975 44.7501 325.825 43.3501 323.025 40.5001L319.475 37.0001C316.975 34.4501 315.525 30.8501 315.525 26.1001ZM330.275 7.1501H319.775C319.775 9.7501 318.825 11.8501 316.275 12.6001V21.8501H317.775V26.1001C317.775 35.5001 323.975 38.9501 331.375 38.9501C338.025 38.9501 342.775 36.0501 343.375 30.1001H333.525C333.425 31.2001 332.825 32.0501 331.825 32.0501C330.875 32.0501 330.275 31.3001 330.275 29.6501V21.8501H332.775V12.6001H326.025V12.3501C329.325 12.1001 330.275 9.9001 330.275 7.1501ZM343.615 1.35009H360.615L364.165 4.9001V11.0001C365.415 10.4001 366.865 10.0001 368.615 10.0001C371.565 10.0001 373.615 10.9501 375.115 12.4501L378.665 16.0001C381.315 18.6501 382.015 23.0001 382.015 26.3001V44.4001H365.015L364.065 43.4501L363.965 44.4001H347.165L343.615 40.8501V1.35009ZM345.865 3.6001V38.6001H358.365C359.265 28.8501 360.565 21.0001 362.615 21.0001C363.365 21.0001 363.715 22.2001 363.715 24.7001V38.6001H376.215V22.7501C376.215 14.6001 372.465 12.2501 368.615 12.2501C360.615 12.2501 359.565 22.1001 358.615 29.9501H358.365V3.6001H345.865ZM0.5 86.1001V72.3501H2.1C1.9 71.7501 1.75 71.0501 1.75 70.3001C1.75 63.8501 9.45 63.0001 14.35 63.0001C16.4 63.0001 18.45 63.1501 20.45 63.4001L22.4 63.7001L25.95 67.2001V81.3501L25.05 80.9501V89.6501H22.55V106.4H5.55L2 102.85V87.6001L0.5 86.1001ZM4.25 83.8501V100.6H16.75V83.8501H19.25V74.6001C11.95 73.3001 11.2 73.1001 11.2 72.2501C11.2 71.8501 11.55 71.7001 12.15 71.7001C13.75 71.7001 17.2 72.9501 20.15 74.3001V65.6501C17.95 65.3501 15.95 65.2501 14.35 65.2501C7.85 65.2501 4 66.7001 4 70.3001C4 73.9001 7.75 73.9001 14 74.3501V74.6001H2.75V83.8501H4.25ZM20.9102 72.3501H37.9102L39.8102 74.2501C41.4602 72.9001 43.6102 72.0001 46.4102 72.0001H48.6602L52.2102 75.5501V92.4501L49.0602 91.1001C48.4102 90.8501 47.7102 90.7001 47.0602 90.7001C41.8102 90.7001 41.4602 100.55 41.4602 104.15V106.4H24.4602L20.9102 102.85V72.3501ZM23.1602 74.6001V100.6H35.6602C35.6602 87.8501 39.9102 84.9001 43.5102 84.9001C44.6102 84.9001 45.6102 85.1501 46.4102 85.5001V74.2501C37.9102 74.2501 36.8602 84.1001 35.9102 91.8001H35.6602V74.6001H23.1602ZM55.5449 62.0001C57.3949 62.0001 60.7949 62.5001 62.7949 64.5501L66.3449 68.1001C67.3949 69.1001 68.0949 70.5501 68.0949 72.5001C68.0949 73.7501 67.7949 74.7501 67.3449 75.6501L67.5949 75.9001V106.4H50.5949L47.0449 102.85V72.3501H47.4449C46.8949 71.4501 46.5449 70.3001 46.5449 68.9501C46.5449 64.0501 51.1949 62.0001 55.5449 62.0001ZM48.7949 68.9501C48.7949 71.8001 51.4949 73.7501 55.5449 73.7501C59.5949 73.7501 62.2949 71.8001 62.2949 68.9501C62.2949 66.1001 59.5949 64.2501 55.5449 64.2501C51.4949 64.2501 48.7949 66.1001 48.7949 68.9501ZM49.2949 74.6001V100.6H61.7949V74.6001H49.2949ZM94.6488 76.9001L98.1988 80.4001C100.349 82.5501 101.749 85.4001 101.899 89.2001L102.799 90.1501L102.649 92.5501C101.799 102.2 93.7488 106.75 84.6488 106.75C79.4488 106.75 74.1488 105.15 70.6488 101.65L67.1488 98.1001C64.6488 95.6001 63.0488 92.1501 63.0488 87.6001C63.0488 77.3001 71.4488 72.0001 81.0488 72.0001C85.8488 72.0001 91.1988 73.4001 94.6488 76.9001ZM96.8488 88.8501H84.0988C83.8988 90.7501 82.6488 91.6001 81.1988 91.6001C79.1988 91.6001 77.8988 89.9501 77.8988 87.5001C77.8988 87.2501 77.8988 87.0001 77.9488 86.7501H96.0988C96.3488 79.0501 90.2488 74.2501 81.0488 74.2501C71.4488 74.2501 65.2988 79.5501 65.2988 87.6001C65.2988 95.6501 71.4988 100.95 81.0988 100.95C90.0488 100.95 96.2488 96.4001 96.8488 88.8501ZM83.6988 85.5001L78.0488 86.2501C78.4488 84.6501 79.5488 83.6001 81.1988 83.6001C82.5988 83.6001 83.6488 84.3501 83.6988 85.5001ZM97.6191 72.3501H114.619L116.419 74.1501C118.019 72.8501 120.019 72.0001 122.619 72.0001C125.569 72.0001 127.619 72.9501 129.119 74.4501L132.669 78.0001C135.319 80.6501 136.019 85.0001 136.019 88.3001V106.4H119.019L118.069 105.45L117.969 106.4H101.169L97.6191 102.85V72.3501ZM99.8691 74.6001V100.6H112.369C113.269 90.8501 114.569 83.0001 116.619 83.0001C117.369 83.0001 117.719 84.2001 117.719 86.7001V100.6H130.219V84.7501C130.219 76.6001 126.469 74.2501 122.619 74.2501C114.619 74.2501 113.569 84.1001 112.619 91.9501H112.369V74.6001H99.8691ZM149.419 73.3001V63.3501H166.419L169.969 66.9001V106.4H155.269L152.419 103.55C152.269 103.75 152.069 103.95 151.869 104.1C150.369 105.65 148.319 106.75 145.619 106.75C142.769 106.75 140.569 105.65 138.969 104.05L135.419 100.5C132.019 97.1001 130.969 91.2001 130.969 87.7501C130.969 79.9001 135.269 72.0001 143.919 72.0001C145.869 72.0001 147.719 72.4501 149.419 73.3001ZM164.169 100.6V65.6001H151.669V77.7501H151.419C149.919 75.9001 147.419 74.2501 143.919 74.2501C137.769 74.2501 133.219 79.6001 133.219 87.7501C133.219 94.5001 136.319 100.95 142.069 100.95C148.819 100.95 150.369 92.0001 151.419 87.2501H151.669L153.669 100.6H164.169ZM145.719 86.7501C145.719 81.2001 147.669 78.2501 149.369 78.2501C150.269 78.2501 151.669 79.1001 151.669 82.0001C151.669 85.6001 149.419 92.2001 147.519 92.2001C146.369 92.2001 145.719 89.9501 145.719 86.7501ZM164.654 90.4001L164.404 87.9501H168.454L167.404 86.9001C166.154 85.6501 165.304 83.9501 165.304 81.7501C165.304 73.9501 174.704 72.0001 180.904 72.0001C186.454 72.0001 192.604 73.4001 196.654 77.4001L200.154 80.9501C202.054 82.8501 203.404 85.3501 203.404 88.5501V90.8001H201.154L202.204 91.8001C203.404 93.0501 204.254 94.7001 204.254 96.8501C204.254 104.75 194.204 106.75 188.054 106.75C182.304 106.75 175.804 105.2 171.604 101.05L168.104 97.5001C166.254 95.7001 164.954 93.3501 164.654 90.4001ZM179.654 90.2001H166.904C167.504 96.4001 174.604 100.95 184.504 100.95C192.154 100.95 198.454 98.3501 198.454 93.3001C198.454 84.6001 180.004 88.1001 180.004 84.1501C180.004 83.5001 180.504 82.8001 181.854 82.8001C183.854 82.8001 184.904 84.3001 184.854 85.0001H197.604C197.604 78.8001 190.754 74.2501 180.904 74.2501C173.204 74.2501 167.554 76.8501 167.554 81.7501C167.554 90.6001 185.854 87.1001 185.854 90.9501C185.854 91.8001 184.854 92.4001 183.504 92.4001C181.404 92.4001 179.704 90.9001 179.654 90.2001ZM214.675 86.2001L213.825 85.3501L213.775 82.7001C213.775 74.4001 223.275 72.0001 230.025 72.0001C235.375 72.0001 240.375 73.2501 243.625 76.5001L247.125 80.0501C249.525 82.4001 250.975 85.8501 250.975 90.6501V106.4H236.475L233.925 103.8C231.925 105.6 229.325 106.75 226.075 106.75C223.025 106.75 220.325 105.65 218.375 103.7L214.825 100.15C213.075 98.4001 211.975 95.9001 211.975 92.9501C211.975 90.0501 213.025 87.8501 214.675 86.2001ZM245.175 100.6V87.1001C245.175 77.7001 238.925 74.2501 230.025 74.2501C222.275 74.2501 215.675 77.1501 216.025 83.1001H228.775C228.675 82.0501 229.325 81.2501 230.625 81.2501C231.875 81.2501 232.675 82.0001 232.675 84.8001V87.2501H232.425C231.025 85.9501 228.425 84.8501 224.675 84.8501C218.575 84.8501 214.225 88.0001 214.225 92.9501C214.225 97.0501 217.125 100.95 222.525 100.95C228.825 100.95 231.375 95.9001 232.425 92.9501H232.675L234.675 100.6H245.175ZM226.725 92.2001C226.725 88.9001 228.375 87.8501 230.125 87.8501C231.475 87.8501 232.675 88.5001 232.675 89.9501C232.675 91.9501 230.425 95.2501 228.525 95.2501C227.375 95.2501 226.725 94.2001 226.725 92.2001ZM245.91 72.3501H262.91L264.71 74.1501C266.31 72.8501 268.31 72.0001 270.91 72.0001C273.86 72.0001 275.91 72.9501 277.41 74.4501L280.96 78.0001C283.61 80.6501 284.31 85.0001 284.31 88.3001V106.4H267.31L266.36 105.45L266.26 106.4H249.46L245.91 102.85V72.3501ZM248.16 74.6001V100.6H260.66C261.56 90.8501 262.86 83.0001 264.91 83.0001C265.66 83.0001 266.01 84.2001 266.01 86.7001V100.6H278.51V84.7501C278.51 76.6001 274.76 74.2501 270.91 74.2501C262.91 74.2501 261.86 84.1001 260.91 91.9501H260.66V74.6001H248.16ZM297.71 73.3001V63.3501H314.71L318.26 66.9001V106.4H303.56L300.71 103.55C300.56 103.75 300.36 103.95 300.16 104.1C298.66 105.65 296.61 106.75 293.91 106.75C291.06 106.75 288.86 105.65 287.26 104.05L283.71 100.5C280.31 97.1001 279.26 91.2001 279.26 87.7501C279.26 79.9001 283.56 72.0001 292.21 72.0001C294.16 72.0001 296.01 72.4501 297.71 73.3001ZM312.46 100.6V65.6001H299.96V77.7501H299.71C298.21 75.9001 295.71 74.2501 292.21 74.2501C286.06 74.2501 281.51 79.6001 281.51 87.7501C281.51 94.5001 284.61 100.95 290.36 100.95C297.11 100.95 298.66 92.0001 299.71 87.2501H299.96L301.96 100.6H312.46ZM294.01 86.7501C294.01 81.2001 295.96 78.2501 297.66 78.2501C298.56 78.2501 299.96 79.1001 299.96 82.0001C299.96 85.6001 297.71 92.2001 295.81 92.2001C294.66 92.2001 294.01 89.9501 294.01 86.7501ZM0.25 152.4L-1.86265e-08 149.95H4.05L3 148.9C1.75 147.65 0.9 145.95 0.9 143.75C0.9 135.95 10.3 134 16.5 134C22.05 134 28.2 135.4 32.25 139.4L35.75 142.95C37.65 144.85 39 147.35 39 150.55V152.8H36.75L37.8 153.8C39 155.05 39.85 156.7 39.85 158.85C39.85 166.75 29.8 168.75 23.65 168.75C17.9 168.75 11.4 167.2 7.2 163.05L3.7 159.5C1.85 157.7 0.55 155.35 0.25 152.4ZM15.25 152.2H2.5C3.1 158.4 10.2 162.95 20.1 162.95C27.75 162.95 34.05 160.35 34.05 155.3C34.05 146.6 15.6 150.1 15.6 146.15C15.6 145.5 16.1 144.8 17.45 144.8C19.45 144.8 20.5 146.3 20.45 147H33.2C33.2 140.8 26.35 136.25 16.5 136.25C8.8 136.25 3.15 138.85 3.15 143.75C3.15 152.6 21.45 149.1 21.45 152.95C21.45 153.8 20.45 154.4 19.1 154.4C17 154.4 15.3 152.9 15.25 152.2ZM65.582 136.7L69.132 140.25C72.532 143.65 73.582 149.5 73.582 153C73.582 160.8 69.232 168.75 60.632 168.75C58.682 168.75 56.782 168.3 55.132 167.45V178.4H38.132L34.582 174.85V134.35H51.582L53.282 136.05C54.732 134.8 56.582 134 58.932 134C61.782 134 63.932 135.05 65.582 136.7ZM36.832 136.6V172.6H49.332V159.45H49.582C51.082 161.3 53.582 162.95 57.082 162.95C63.232 162.95 67.782 157.6 67.782 149.45C67.782 142.7 64.682 136.25 58.932 136.25C52.182 136.25 50.632 145.2 49.582 149.95H49.332V136.6H36.832ZM55.282 150.45C55.282 156 53.332 158.95 51.632 158.95C50.732 158.95 49.332 158.1 49.332 155.2C49.332 151.6 51.582 145 53.482 145C54.632 145 55.282 147.25 55.282 150.45ZM68.5176 134.35H85.5176L87.4176 136.25C89.0676 134.9 91.2176 134 94.0176 134H96.2676L99.8176 137.55V154.45L96.6676 153.1C96.0176 152.85 95.3176 152.7 94.6676 152.7C89.4176 152.7 89.0676 162.55 89.0676 166.15V168.4H72.0676L68.5176 164.85V134.35ZM70.7676 136.6V162.6H83.2676C83.2676 149.85 87.5176 146.9 91.1176 146.9C92.2176 146.9 93.2176 147.15 94.0176 147.5V136.25C85.5176 136.25 84.4676 146.1 83.5176 153.8H83.2676V136.6H70.7676ZM125.752 138.9L129.302 142.4C131.452 144.55 132.852 147.4 133.002 151.2L133.902 152.15L133.752 154.55C132.902 164.2 124.852 168.75 115.752 168.75C110.552 168.75 105.252 167.15 101.752 163.65L98.2523 160.1C95.7523 157.6 94.1523 154.15 94.1523 149.6C94.1523 139.3 102.552 134 112.152 134C116.952 134 122.302 135.4 125.752 138.9ZM127.952 150.85H115.202C115.002 152.75 113.752 153.6 112.302 153.6C110.302 153.6 109.002 151.95 109.002 149.5C109.002 149.25 109.002 149 109.052 148.75H127.202C127.452 141.05 121.352 136.25 112.152 136.25C102.552 136.25 96.4023 141.55 96.4023 149.6C96.4023 157.65 102.602 162.95 112.202 162.95C121.152 162.95 127.352 158.4 127.952 150.85ZM114.802 147.5L109.152 148.25C109.552 146.65 110.652 145.6 112.302 145.6C113.702 145.6 114.752 146.35 114.802 147.5ZM131.423 148.2L130.573 147.35L130.523 144.7C130.523 136.4 140.023 134 146.773 134C152.123 134 157.123 135.25 160.373 138.5L163.873 142.05C166.273 144.4 167.723 147.85 167.723 152.65V168.4H153.223L150.673 165.8C148.673 167.6 146.073 168.75 142.823 168.75C139.773 168.75 137.073 167.65 135.123 165.7L131.573 162.15C129.823 160.4 128.723 157.9 128.723 154.95C128.723 152.05 129.773 149.85 131.423 148.2ZM161.923 162.6V149.1C161.923 139.7 155.673 136.25 146.773 136.25C139.023 136.25 132.423 139.15 132.773 145.1H145.523C145.423 144.05 146.073 143.25 147.373 143.25C148.623 143.25 149.423 144 149.423 146.8V149.25H149.173C147.773 147.95 145.173 146.85 141.423 146.85C135.323 146.85 130.973 150 130.973 154.95C130.973 159.05 133.873 162.95 139.273 162.95C145.573 162.95 148.123 157.9 149.173 154.95H149.423L151.423 162.6H161.923ZM143.473 154.2C143.473 150.9 145.123 149.85 146.873 149.85C148.223 149.85 149.423 150.5 149.423 151.95C149.423 153.95 147.173 157.25 145.273 157.25C144.123 157.25 143.473 156.2 143.473 154.2ZM181.108 135.3V125.35H198.108L201.658 128.9V168.4H186.958L184.108 165.55C183.958 165.75 183.758 165.95 183.558 166.1C182.058 167.65 180.008 168.75 177.308 168.75C174.458 168.75 172.258 167.65 170.658 166.05L167.108 162.5C163.708 159.1 162.658 153.2 162.658 149.75C162.658 141.9 166.958 134 175.608 134C177.558 134 179.408 134.45 181.108 135.3ZM195.858 162.6V127.6H183.358V139.75H183.108C181.608 137.9 179.108 136.25 175.608 136.25C169.458 136.25 164.908 141.6 164.908 149.75C164.908 156.5 168.008 162.95 173.758 162.95C180.508 162.95 182.058 154 183.108 149.25H183.358L185.358 162.6H195.858ZM177.408 148.75C177.408 143.2 179.358 140.25 181.058 140.25C181.958 140.25 183.358 141.1 183.358 144C183.358 147.6 181.108 154.2 179.208 154.2C178.058 154.2 177.408 151.95 177.408 148.75ZM220.732 124C222.582 124 225.982 124.5 227.982 126.55L231.532 130.1C232.582 131.1 233.282 132.55 233.282 134.5C233.282 135.75 232.982 136.75 232.532 137.65L232.782 137.9V163.65C232.782 173.45 226.532 178.75 216.932 178.75C212.932 178.75 208.632 177.7 205.832 174.85L202.282 171.3C200.632 169.65 199.432 167.35 199.132 164.3L198.882 161.85H212.232V134.35H212.632C212.082 133.45 211.732 132.3 211.732 130.95C211.732 126.05 216.382 124 220.732 124ZM213.982 130.95C213.982 133.8 216.682 135.75 220.732 135.75C224.782 135.75 227.482 133.8 227.482 130.95C227.482 128.1 224.782 126.25 220.732 126.25C216.682 126.25 213.982 128.1 213.982 130.95ZM226.982 136.6H214.482V163.65C214.482 165.3 213.882 166.05 212.932 166.05C211.932 166.05 211.332 165.2 211.232 164.1H201.382C201.982 170.05 206.732 172.95 213.382 172.95C220.782 172.95 226.982 169.5 226.982 160.1V136.6ZM246.484 134C251.684 134 257.134 135.6 260.734 139.2L264.234 142.75C266.734 145.2 268.334 148.65 268.334 153.15C268.334 163.5 259.584 168.75 250.034 168.75C244.834 168.75 239.434 167.1 235.834 163.55L232.334 160C229.834 157.5 228.234 154.1 228.234 149.6C228.234 139.25 236.884 134 246.484 134ZM230.484 149.6C230.484 157.65 236.884 162.95 246.484 162.95C256.134 162.95 262.534 157.65 262.534 149.6C262.534 141.55 256.134 136.25 246.484 136.25C236.884 136.25 230.484 141.55 230.484 149.6ZM243.084 149.6C243.084 147.2 244.384 145.6 246.484 145.6C248.634 145.6 249.934 147.2 249.934 149.6C249.934 152 248.634 153.6 246.484 153.6C244.384 153.6 243.084 152 243.084 149.6ZM266.443 162.55C263.943 159.85 263.293 155.65 263.293 152.45V134.35H280.293L281.243 135.3L281.343 134.35H298.143L301.693 137.9V162.2C301.693 173.15 293.793 178.75 283.343 178.75C278.943 178.75 273.093 177.7 269.893 174.35L266.343 170.85C264.693 169.15 263.543 166.9 263.543 163.9V163.15H266.943L266.443 162.55ZM295.893 158.65V136.6H283.393C282.493 146.35 281.193 154.2 279.143 154.2C278.393 154.2 278.043 153 278.043 150.5V136.6H265.543V152.45C265.543 160.6 269.293 162.95 273.143 162.95C281.143 162.95 282.193 153.1 283.143 145.25H283.393V160.1C283.393 163.95 282.493 165.45 280.443 165.45C279.193 165.45 278.343 164.9 278.293 163.7H265.793C265.643 170.4 272.743 172.95 279.793 172.95C289.793 172.95 295.893 167.7 295.893 158.65Z" fill="black"/>
</svg>
