<svg width="367" height="230" viewBox="0 0 367 230" fill="none" xmlns="http://www.w3.org/2000/svg">
<path d="M28.2236 23.85L28.0236 21.4H34.4736L31.6236 18.55C30.1736 17.1 29.2236 15.1 29.2236 12.5C29.2236 10.65 29.7236 8.85 30.6736 7.25C33.8736 2.1 40.2236 0.649997 45.9736 0.649997C50.8736 0.649997 57.0236 1.65 61.1236 5.75L64.6236 9.25C67.2736 11.9 68.6736 15.55 68.6736 19.3L68.6236 22.15H64.1736L67.5736 25.5C69.1236 27.1 70.1236 29.2 70.1236 32C70.1236 41.1 60.1236 43.4 52.7236 43.4C46.7236 43.4 40.4236 41.75 36.2736 37.6L32.7736 34.1C30.2736 31.6 28.6236 28.25 28.2236 23.85ZM43.4736 23.65H30.4736C31.0736 30.7 36.3236 37.6 49.1736 37.6C59.1236 37.6 64.3236 34.1 64.3236 28.45C64.3236 16.75 43.1736 22.4 43.1736 15.5C43.1736 13.75 44.6236 13.05 46.4236 13.05C48.6236 13.05 49.8736 14.2 49.8736 16.35H62.8736C63.1736 9.8 58.7736 2.9 45.9736 2.9C35.9736 2.9 31.4736 7.5 31.4736 12.5C31.4736 23.55 52.4236 18.15 52.4236 24.1C52.4236 25.95 50.3236 26.95 48.0236 26.95C45.5236 26.95 43.3236 25.55 43.4736 23.65ZM65.0889 -3.21865e-06H82.0889L85.6389 3.55V9.65C86.8889 9.05 88.3389 8.65 90.0889 8.65C93.0389 8.65 95.0889 9.6 96.5889 11.1L100.139 14.65C102.789 17.3 103.489 21.65 103.489 24.95V43.05H86.4889L85.5389 42.1L85.4389 43.05H68.6389L65.0889 39.5V-3.21865e-06ZM67.3389 2.25V37.25H79.8389C80.7389 27.5 82.0389 19.65 84.0889 19.65C84.8389 19.65 85.1889 20.85 85.1889 23.35V37.25H97.6889V21.4C97.6889 13.25 93.9389 10.9 90.0889 10.9C82.0889 10.9 81.0389 20.75 80.0889 28.6H79.8389V2.25H67.3389ZM101.138 22.85L100.288 22L100.238 19.35C100.238 11.05 109.738 8.65 116.488 8.65C121.838 8.65 126.838 9.9 130.088 13.15L133.588 16.7C135.988 19.05 137.438 22.5 137.438 27.3V43.05H122.938L120.388 40.45C118.388 42.25 115.788 43.4 112.538 43.4C109.488 43.4 106.788 42.3 104.838 40.35L101.288 36.8C99.5385 35.05 98.4385 32.55 98.4385 29.6C98.4385 26.7 99.4885 24.5 101.138 22.85ZM131.638 37.25V23.75C131.638 14.35 125.388 10.9 116.488 10.9C108.738 10.9 102.138 13.8 102.488 19.75H115.238C115.138 18.7 115.788 17.9 117.088 17.9C118.338 17.9 119.138 18.65 119.138 21.45V23.9H118.888C117.488 22.6 114.888 21.5 111.138 21.5C105.038 21.5 100.688 24.65 100.688 29.6C100.688 33.7 103.588 37.6 108.988 37.6C115.288 37.6 117.838 32.55 118.888 29.6H119.138L121.138 37.25H131.638ZM113.188 28.85C113.188 25.55 114.838 24.5 116.588 24.5C117.938 24.5 119.138 25.15 119.138 26.6C119.138 28.6 116.888 31.9 114.988 31.9C113.838 31.9 113.188 30.85 113.188 28.85ZM132.374 9H149.374L151.274 10.9C152.924 9.55 155.074 8.65 157.874 8.65H160.124L163.674 12.2V29.1L160.524 27.75C159.874 27.5 159.174 27.35 158.524 27.35C153.274 27.35 152.924 37.2 152.924 40.8V43.05H135.924L132.374 39.5V9ZM134.624 11.25V37.25H147.124C147.124 24.5 151.374 21.55 154.974 21.55C156.074 21.55 157.074 21.8 157.874 22.15V10.9C149.374 10.9 148.324 20.75 147.374 28.45H147.124V11.25H134.624ZM189.609 13.55L193.159 17.05C195.309 19.2 196.709 22.05 196.859 25.85L197.759 26.8L197.609 29.2C196.759 38.85 188.709 43.4 179.609 43.4C174.409 43.4 169.109 41.8 165.609 38.3L162.109 34.75C159.609 32.25 158.009 28.8 158.009 24.25C158.009 13.95 166.409 8.65 176.009 8.65C180.809 8.65 186.159 10.05 189.609 13.55ZM191.809 25.5H179.059C178.859 27.4 177.609 28.25 176.159 28.25C174.159 28.25 172.859 26.6 172.859 24.15C172.859 23.9 172.859 23.65 172.909 23.4H191.059C191.309 15.7 185.209 10.9 176.009 10.9C166.409 10.9 160.259 16.2 160.259 24.25C160.259 32.3 166.459 37.6 176.059 37.6C185.009 37.6 191.209 33.05 191.809 25.5ZM178.659 22.15L173.009 22.9C173.409 21.3 174.509 20.25 176.159 20.25C177.559 20.25 178.609 21 178.659 22.15ZM208.717 37.2C206.217 34.5 205.567 30.3 205.567 27.1V9H222.567L223.517 9.95L223.617 9H240.417L243.967 12.55V36.85C243.967 47.8 236.067 53.4 225.617 53.4C221.217 53.4 215.367 52.35 212.167 49L208.617 45.5C206.967 43.8 205.817 41.55 205.817 38.55V37.8H209.217L208.717 37.2ZM238.167 33.3V11.25H225.667C224.767 21 223.467 28.85 221.417 28.85C220.667 28.85 220.317 27.65 220.317 25.15V11.25H207.817V27.1C207.817 35.25 211.567 37.6 215.417 37.6C223.417 37.6 224.467 27.75 225.417 19.9H225.667V34.75C225.667 38.6 224.767 40.1 222.717 40.1C221.467 40.1 220.617 39.55 220.567 38.35H208.067C207.917 45.05 215.017 47.6 222.067 47.6C232.067 47.6 238.167 42.35 238.167 33.3ZM257.655 8.65C262.855 8.65 268.305 10.25 271.905 13.85L275.405 17.4C277.905 19.85 279.505 23.3 279.505 27.8C279.505 38.15 270.755 43.4 261.205 43.4C256.005 43.4 250.605 41.75 247.005 38.2L243.505 34.65C241.005 32.15 239.405 28.75 239.405 24.25C239.405 13.9 248.055 8.65 257.655 8.65ZM241.655 24.25C241.655 32.3 248.055 37.6 257.655 37.6C267.305 37.6 273.705 32.3 273.705 24.25C273.705 16.2 267.305 10.9 257.655 10.9C248.055 10.9 241.655 16.2 241.655 24.25ZM254.255 24.25C254.255 21.85 255.555 20.25 257.655 20.25C259.805 20.25 261.105 21.85 261.105 24.25C261.105 26.65 259.805 28.25 257.655 28.25C255.555 28.25 254.255 26.65 254.255 24.25ZM292.514 9H309.314L312.864 12.55V43.05H295.864L294.014 41.2C292.464 42.55 290.464 43.4 287.864 43.4C284.914 43.4 282.814 42.4 281.364 40.95L277.814 37.4C275.164 34.7 274.464 30.4 274.464 27.1V9H291.464L292.414 9.95L292.514 9ZM307.064 37.25V11.25H294.564C293.664 21 292.364 28.85 290.314 28.85C289.564 28.85 289.214 27.65 289.214 25.15V11.25H276.714V27.1C276.714 35.25 280.464 37.6 284.314 37.6C292.314 37.6 293.364 27.75 294.314 19.9H294.564V37.25H307.064ZM307.813 9H324.813L326.713 10.9C328.363 9.55 330.513 8.65 333.313 8.65H335.563L339.113 12.2V29.1L335.963 27.75C335.313 27.5 334.613 27.35 333.963 27.35C328.713 27.35 328.363 37.2 328.363 40.8V43.05H311.363L307.813 39.5V9ZM310.063 11.25V37.25H322.563C322.563 24.5 326.813 21.55 330.413 21.55C331.513 21.55 332.513 21.8 333.313 22.15V10.9C324.813 10.9 323.763 20.75 322.813 28.45H322.563V11.25H310.063ZM30.751 73L33.251 75.5C35.001 72.4 38.051 70.65 41.601 70.65C44.401 70.65 46.451 71.6 47.851 73L51.401 76.55C54.101 79.3 54.751 83.8 54.751 86.95V105.05H37.751L37.451 104.75V105.05H20.651L20.351 104.75V105.05H3.55098L0.000976533 101.5V71H17.001L18.601 72.6C20.101 71.4 22.051 70.65 24.501 70.65C27.301 70.65 29.351 71.6 30.751 73ZM2.25098 73.25V99.25H14.751C15.651 89.5 16.601 81.65 18.501 81.65C19.251 81.65 19.351 82.85 19.351 85.35V99.25H31.851C32.751 89.5 33.701 81.65 35.601 81.65C36.351 81.65 36.451 82.85 36.451 85.35V99.25H48.951V83.4C48.951 75.25 45.301 72.9 41.601 72.9C33.901 72.9 33.051 81.9 32.101 89.75H31.851V83.4C31.851 75.25 28.201 72.9 24.501 72.9C16.801 72.9 15.951 81.9 15.001 89.75H14.751V73.25H2.25098ZM52.408 84.85L51.558 84L51.508 81.35C51.508 73.05 61.008 70.65 67.758 70.65C73.108 70.65 78.108 71.9 81.358 75.15L84.858 78.7C87.258 81.05 88.708 84.5 88.708 89.3V105.05H74.208L71.658 102.45C69.658 104.25 67.058 105.4 63.808 105.4C60.758 105.4 58.058 104.3 56.108 102.35L52.558 98.8C50.808 97.05 49.708 94.55 49.708 91.6C49.708 88.7 50.758 86.5 52.408 84.85ZM82.908 99.25V85.75C82.908 76.35 76.658 72.9 67.758 72.9C60.008 72.9 53.408 75.8 53.758 81.75H66.508C66.408 80.7 67.058 79.9 68.358 79.9C69.608 79.9 70.408 80.65 70.408 83.45V85.9H70.158C68.758 84.6 66.158 83.5 62.408 83.5C56.308 83.5 51.958 86.65 51.958 91.6C51.958 95.7 54.858 99.6 60.258 99.6C66.558 99.6 69.108 94.55 70.158 91.6H70.408L72.408 99.25H82.908ZM64.458 90.85C64.458 87.55 66.108 86.5 67.858 86.5C69.208 86.5 70.408 87.15 70.408 88.6C70.408 90.6 68.158 93.9 66.258 93.9C65.108 93.9 64.458 92.85 64.458 90.85ZM83.3936 89.05L83.1436 86.6H87.1936L86.1436 85.55C84.8936 84.3 84.0436 82.6 84.0436 80.4C84.0436 72.6 93.4436 70.65 99.6436 70.65C105.194 70.65 111.344 72.05 115.394 76.05L118.894 79.6C120.794 81.5 122.144 84 122.144 87.2V89.45H119.894L120.944 90.45C122.144 91.7 122.994 93.35 122.994 95.5C122.994 103.4 112.944 105.4 106.794 105.4C101.044 105.4 94.5436 103.85 90.3436 99.7L86.8436 96.15C84.9936 94.35 83.6936 92 83.3936 89.05ZM98.3936 88.85H85.6436C86.2436 95.05 93.3436 99.6 103.244 99.6C110.894 99.6 117.194 97 117.194 91.95C117.194 83.25 98.7436 86.75 98.7436 82.8C98.7436 82.15 99.2436 81.45 100.594 81.45C102.594 81.45 103.644 82.95 103.594 83.65H116.344C116.344 77.45 109.494 72.9 99.6436 72.9C91.9436 72.9 86.2936 75.5 86.2936 80.4C86.2936 89.25 104.594 85.75 104.594 89.6C104.594 90.45 103.594 91.05 102.244 91.05C100.144 91.05 98.4436 89.55 98.3936 88.85ZM119.226 86.75V86.25L117.726 84.75V71.55L119.326 71.1C120.576 70.75 121.226 69.8 121.226 67.8V65.55H136.226L139.776 69.1V71.35C139.776 71.55 139.776 71.8 139.726 72L142.276 74.55V88.3H139.776V88.5H149.576L153.076 92.05L152.826 94.5C152.076 102.15 145.826 105.4 138.626 105.4C133.676 105.4 129.526 104 126.726 101.15L123.176 97.65C120.676 95.1 119.226 91.5 119.226 86.75ZM133.976 67.8H123.476C123.476 70.4 122.526 72.5 119.976 73.25V82.5H121.476V86.75C121.476 96.15 127.676 99.6 135.076 99.6C141.726 99.6 146.476 96.7 147.076 90.75H137.226C137.126 91.85 136.526 92.7 135.526 92.7C134.576 92.7 133.976 91.95 133.976 90.3V82.5H136.476V73.25H129.726V73C133.026 72.75 133.976 70.55 133.976 67.8ZM178.915 75.55L182.465 79.05C184.615 81.2 186.015 84.05 186.165 87.85L187.065 88.8L186.915 91.2C186.065 100.85 178.015 105.4 168.915 105.4C163.715 105.4 158.415 103.8 154.915 100.3L151.415 96.75C148.915 94.25 147.315 90.8 147.315 86.25C147.315 75.95 155.715 70.65 165.315 70.65C170.115 70.65 175.465 72.05 178.915 75.55ZM181.115 87.5H168.365C168.165 89.4 166.915 90.25 165.465 90.25C163.465 90.25 162.165 88.6 162.165 86.15C162.165 85.9 162.165 85.65 162.215 85.4H180.365C180.615 77.7 174.515 72.9 165.315 72.9C155.715 72.9 149.565 78.2 149.565 86.25C149.565 94.3 155.765 99.6 165.365 99.6C174.315 99.6 180.515 95.05 181.115 87.5ZM167.965 84.15L162.315 84.9C162.715 83.3 163.815 82.25 165.465 82.25C166.865 82.25 167.915 83 167.965 84.15ZM181.886 71H198.886L200.786 72.9C202.436 71.55 204.586 70.65 207.386 70.65H209.636L213.186 74.2V91.1L210.036 89.75C209.386 89.5 208.686 89.35 208.036 89.35C202.786 89.35 202.436 99.2 202.436 102.8V105.05H185.436L181.886 101.5V71ZM184.136 73.25V99.25H196.636C196.636 86.5 200.886 83.55 204.486 83.55C205.586 83.55 206.586 83.8 207.386 84.15V72.9C198.886 72.9 197.836 82.75 196.886 90.45H196.636V73.25H184.136ZM238.521 73.35L242.071 76.9C245.471 80.3 246.521 86.15 246.521 89.65C246.521 97.45 242.171 105.4 233.571 105.4C231.621 105.4 229.721 104.95 228.071 104.1V115.05H211.071L207.521 111.5V71H224.521L226.221 72.7C227.671 71.45 229.521 70.65 231.871 70.65C234.721 70.65 236.871 71.7 238.521 73.35ZM209.771 73.25V109.25H222.271V96.1H222.521C224.021 97.95 226.521 99.6 230.021 99.6C236.171 99.6 240.721 94.25 240.721 86.1C240.721 79.35 237.621 72.9 231.871 72.9C225.121 72.9 223.571 81.85 222.521 86.6H222.271V73.25H209.771ZM228.221 87.1C228.221 92.65 226.271 95.6 224.571 95.6C223.671 95.6 222.271 94.75 222.271 91.85C222.271 88.25 224.521 81.65 226.421 81.65C227.571 81.65 228.221 83.9 228.221 87.1ZM250.456 60.65C252.306 60.65 255.706 61.15 257.706 63.2L261.256 66.75C262.306 67.75 263.006 69.2 263.006 71.15C263.006 72.4 262.706 73.4 262.256 74.3L262.506 74.55V105.05H245.506L241.956 101.5V71H242.356C241.806 70.1 241.456 68.95 241.456 67.6C241.456 62.7 246.106 60.65 250.456 60.65ZM243.706 67.6C243.706 70.45 246.406 72.4 250.456 72.4C254.506 72.4 257.206 70.45 257.206 67.6C257.206 64.75 254.506 62.9 250.456 62.9C246.406 62.9 243.706 64.75 243.706 67.6ZM244.206 73.25V99.25H256.706V73.25H244.206ZM289.56 75.55L293.11 79.05C295.26 81.2 296.66 84.05 296.81 87.85L297.71 88.8L297.56 91.2C296.71 100.85 288.66 105.4 279.56 105.4C274.36 105.4 269.06 103.8 265.56 100.3L262.06 96.75C259.56 94.25 257.96 90.8 257.96 86.25C257.96 75.95 266.36 70.65 275.96 70.65C280.76 70.65 286.11 72.05 289.56 75.55ZM291.76 87.5H279.01C278.81 89.4 277.56 90.25 276.11 90.25C274.11 90.25 272.81 88.6 272.81 86.15C272.81 85.9 272.81 85.65 272.86 85.4H291.01C291.26 77.7 285.16 72.9 275.96 72.9C266.36 72.9 260.21 78.2 260.21 86.25C260.21 94.3 266.41 99.6 276.01 99.6C284.96 99.6 291.16 95.05 291.76 87.5ZM278.61 84.15L272.96 84.9C273.36 83.3 274.46 82.25 276.11 82.25C277.51 82.25 278.56 83 278.61 84.15ZM324.43 75.4L327.98 78.95C330.18 81.15 331.63 84.2 331.83 88.35L332.28 88.8L332.13 91.2C331.28 100.85 323.23 105.4 314.13 105.4C308.93 105.4 303.63 103.8 300.13 100.3L296.63 96.75C294.13 94.25 292.53 90.8 292.53 86.25C292.53 75.95 300.98 70.65 310.58 70.65C315.83 70.65 321.03 72 324.43 75.4ZM326.33 87.5H313.58C313.38 89.4 312.13 90.25 310.68 90.25C308.68 90.25 307.38 88.6 307.38 86.15C307.38 83.8 308.68 82.25 310.58 82.25C312.13 82.25 313.23 83.25 313.68 85.4H326.08C325.83 76.95 319.73 72.9 310.58 72.9C300.93 72.9 294.78 78.2 294.78 86.25C294.78 94.3 300.98 99.6 310.58 99.6C319.53 99.6 325.73 95.05 326.33 87.5ZM358.701 75.55L362.251 79.05C364.401 81.2 365.801 84.05 365.951 87.85L366.851 88.8L366.701 91.2C365.851 100.85 357.801 105.4 348.701 105.4C343.501 105.4 338.201 103.8 334.701 100.3L331.201 96.75C328.701 94.25 327.101 90.8 327.101 86.25C327.101 75.95 335.501 70.65 345.101 70.65C349.901 70.65 355.251 72.05 358.701 75.55ZM360.901 87.5H348.151C347.951 89.4 346.701 90.25 345.251 90.25C343.251 90.25 341.951 88.6 341.951 86.15C341.951 85.9 341.951 85.65 342.001 85.4H360.151C360.401 77.7 354.301 72.9 345.101 72.9C335.501 72.9 329.351 78.2 329.351 86.25C329.351 94.3 335.551 99.6 345.151 99.6C354.101 99.6 360.301 95.05 360.901 87.5ZM347.751 84.15L342.101 84.9C342.501 83.3 343.601 82.25 345.251 82.25C346.651 82.25 347.701 83 347.751 84.15ZM44.1088 133H61.9088L62.7588 133.85L63.0088 133H80.8088L84.3588 136.55L73.8588 167.05H58.1588L54.6088 163.5L44.1088 133ZM64.6588 135.25L64.3088 136.4C63.3588 139.5 62.7088 144.65 62.6088 150.4H62.3088C62.2088 144.65 61.5588 139.5 60.6088 136.4L60.2588 135.25H47.2588L56.2088 161.25H68.7088L77.6588 135.25H64.6588ZM86.9307 122.65C88.7807 122.65 92.1807 123.15 94.1807 125.2L97.7307 128.75C98.7807 129.75 99.4807 131.2 99.4807 133.15C99.4807 134.4 99.1807 135.4 98.7307 136.3L98.9807 136.55V167.05H81.9807L78.4307 163.5V133H78.8307C78.2807 132.1 77.9307 130.95 77.9307 129.6C77.9307 124.7 82.5807 122.65 86.9307 122.65ZM80.1807 129.6C80.1807 132.45 82.8807 134.4 86.9307 134.4C90.9807 134.4 93.6807 132.45 93.6807 129.6C93.6807 126.75 90.9807 124.9 86.9307 124.9C82.8807 124.9 80.1807 126.75 80.1807 129.6ZM80.6807 135.25V161.25H93.1807V135.25H80.6807ZM97.1346 146.85L96.2846 146L96.2346 143.35C96.2346 135.05 105.735 132.65 112.485 132.65C117.835 132.65 122.835 133.9 126.085 137.15L129.585 140.7C131.985 143.05 133.435 146.5 133.435 151.3V167.05H118.935L116.385 164.45C114.385 166.25 111.785 167.4 108.535 167.4C105.485 167.4 102.785 166.3 100.835 164.35L97.2846 160.8C95.5346 159.05 94.4346 156.55 94.4346 153.6C94.4346 150.7 95.4846 148.5 97.1346 146.85ZM127.635 161.25V147.75C127.635 138.35 121.385 134.9 112.485 134.9C104.735 134.9 98.1346 137.8 98.4846 143.75H111.235C111.135 142.7 111.785 141.9 113.085 141.9C114.335 141.9 115.135 142.65 115.135 145.45V147.9H114.885C113.485 146.6 110.885 145.5 107.135 145.5C101.035 145.5 96.6846 148.65 96.6846 153.6C96.6846 157.7 99.5846 161.6 104.985 161.6C111.285 161.6 113.835 156.55 114.885 153.6H115.135L117.135 161.25H127.635ZM109.185 152.85C109.185 149.55 110.835 148.5 112.585 148.5C113.935 148.5 115.135 149.15 115.135 150.6C115.135 152.6 112.885 155.9 110.985 155.9C109.835 155.9 109.185 154.85 109.185 152.85ZM159.808 133.95V124H176.808L180.358 127.55V167.05H165.658L162.808 164.2C162.658 164.4 162.458 164.6 162.258 164.75C160.758 166.3 158.708 167.4 156.008 167.4C153.158 167.4 150.958 166.3 149.358 164.7L145.808 161.15C142.408 157.75 141.358 151.85 141.358 148.4C141.358 140.55 145.658 132.65 154.308 132.65C156.258 132.65 158.108 133.1 159.808 133.95ZM174.558 161.25V126.25H162.058V138.4H161.808C160.308 136.55 157.808 134.9 154.308 134.9C148.158 134.9 143.608 140.25 143.608 148.4C143.608 155.15 146.708 161.6 152.458 161.6C159.208 161.6 160.758 152.65 161.808 147.9H162.058L164.058 161.25H174.558ZM156.108 147.4C156.108 141.85 158.058 138.9 159.758 138.9C160.658 138.9 162.058 139.75 162.058 142.65C162.058 146.25 159.808 152.85 157.908 152.85C156.758 152.85 156.108 150.6 156.108 147.4ZM184.294 122.65C186.144 122.65 189.544 123.15 191.544 125.2L195.094 128.75C196.144 129.75 196.844 131.2 196.844 133.15C196.844 134.4 196.544 135.4 196.094 136.3L196.344 136.55V167.05H179.344L175.794 163.5V133H176.194C175.644 132.1 175.294 130.95 175.294 129.6C175.294 124.7 179.944 122.65 184.294 122.65ZM177.544 129.6C177.544 132.45 180.244 134.4 184.294 134.4C188.344 134.4 191.044 132.45 191.044 129.6C191.044 126.75 188.344 124.9 184.294 124.9C180.244 124.9 177.544 126.75 177.544 129.6ZM178.044 135.25V161.25H190.544V135.25H178.044ZM191.798 133H208.798L210.698 134.9C212.348 133.55 214.498 132.65 217.298 132.65H219.548L223.098 136.2V153.1L219.948 151.75C219.298 151.5 218.598 151.35 217.948 151.35C212.698 151.35 212.348 161.2 212.348 164.8V167.05H195.348L191.798 163.5V133ZM194.048 135.25V161.25H206.548C206.548 148.5 210.798 145.55 214.398 145.55C215.498 145.55 216.498 145.8 217.298 146.15V134.9C208.798 134.9 207.748 144.75 206.798 152.45H206.548V135.25H194.048ZM249.033 137.55L252.583 141.05C254.733 143.2 256.133 146.05 256.283 149.85L257.183 150.8L257.033 153.2C256.183 162.85 248.133 167.4 239.033 167.4C233.833 167.4 228.533 165.8 225.033 162.3L221.533 158.75C219.033 156.25 217.433 152.8 217.433 148.25C217.433 137.95 225.833 132.65 235.433 132.65C240.233 132.65 245.583 134.05 249.033 137.55ZM251.233 149.5H238.483C238.283 151.4 237.033 152.25 235.583 152.25C233.583 152.25 232.283 150.6 232.283 148.15C232.283 147.9 232.283 147.65 232.333 147.4H250.483C250.733 139.7 244.633 134.9 235.433 134.9C225.833 134.9 219.683 140.2 219.683 148.25C219.683 156.3 225.883 161.6 235.483 161.6C244.433 161.6 250.633 157.05 251.233 149.5ZM238.083 146.15L232.433 146.9C232.833 145.3 233.933 144.25 235.583 144.25C236.983 144.25 238.033 145 238.083 146.15ZM283.903 137.4L287.453 140.95C289.653 143.15 291.103 146.2 291.303 150.35L291.753 150.8L291.603 153.2C290.753 162.85 282.703 167.4 273.603 167.4C268.403 167.4 263.103 165.8 259.603 162.3L256.103 158.75C253.603 156.25 252.003 152.8 252.003 148.25C252.003 137.95 260.453 132.65 270.053 132.65C275.303 132.65 280.503 134 283.903 137.4ZM285.803 149.5H273.053C272.853 151.4 271.603 152.25 270.153 152.25C268.153 152.25 266.853 150.6 266.853 148.15C266.853 145.8 268.153 144.25 270.053 144.25C271.603 144.25 272.703 145.25 273.153 147.4H285.553C285.303 138.95 279.203 134.9 270.053 134.9C260.403 134.9 254.253 140.2 254.253 148.25C254.253 156.3 260.453 161.6 270.053 161.6C279.003 161.6 285.203 157.05 285.803 149.5ZM288.073 148.75V148.25L286.573 146.75V133.55L288.173 133.1C289.423 132.75 290.073 131.8 290.073 129.8V127.55H305.073L308.623 131.1V133.35C308.623 133.55 308.623 133.8 308.573 134L311.123 136.55V150.3H308.623V150.5H318.423L321.923 154.05L321.673 156.5C320.923 164.15 314.673 167.4 307.473 167.4C302.523 167.4 298.373 166 295.573 163.15L292.023 159.65C289.523 157.1 288.073 153.5 288.073 148.75ZM302.823 129.8H292.323C292.323 132.4 291.373 134.5 288.823 135.25V144.5H290.323V148.75C290.323 158.15 296.523 161.6 303.923 161.6C310.573 161.6 315.323 158.7 315.923 152.75H306.073C305.973 153.85 305.373 154.7 304.373 154.7C303.423 154.7 302.823 153.95 302.823 152.3V144.5H305.323V135.25H298.573V135C301.873 134.75 302.823 132.55 302.823 129.8ZM52.7506 199.4L56.3006 202.95C58.5006 205.15 59.9506 208.2 60.1506 212.35L60.6006 212.8L60.4506 215.2C59.6006 224.85 51.5506 229.4 42.4506 229.4C37.2506 229.4 31.9506 227.8 28.4506 224.3L24.9506 220.75C22.4506 218.25 20.8506 214.8 20.8506 210.25C20.8506 199.95 29.3006 194.65 38.9006 194.65C44.1506 194.65 49.3506 196 52.7506 199.4ZM54.6506 211.5H41.9006C41.7006 213.4 40.4506 214.25 39.0006 214.25C37.0006 214.25 35.7006 212.6 35.7006 210.15C35.7006 207.8 37.0006 206.25 38.9006 206.25C40.4506 206.25 41.5506 207.25 42.0006 209.4H54.4006C54.1506 200.95 48.0506 196.9 38.9006 196.9C29.2506 196.9 23.1006 202.2 23.1006 210.25C23.1006 218.3 29.3006 223.6 38.9006 223.6C47.8506 223.6 54.0506 219.05 54.6506 211.5ZM73.6709 194.65C78.8709 194.65 84.3209 196.25 87.9209 199.85L91.4209 203.4C93.9209 205.85 95.5209 209.3 95.5209 213.8C95.5209 224.15 86.7709 229.4 77.2209 229.4C72.0209 229.4 66.6209 227.75 63.0209 224.2L59.5209 220.65C57.0209 218.15 55.4209 214.75 55.4209 210.25C55.4209 199.9 64.0709 194.65 73.6709 194.65ZM57.6709 210.25C57.6709 218.3 64.0709 223.6 73.6709 223.6C83.3209 223.6 89.7209 218.3 89.7209 210.25C89.7209 202.2 83.3209 196.9 73.6709 196.9C64.0709 196.9 57.6709 202.2 57.6709 210.25ZM70.2709 210.25C70.2709 207.85 71.5709 206.25 73.6709 206.25C75.8209 206.25 77.1209 207.85 77.1209 210.25C77.1209 212.65 75.8209 214.25 73.6709 214.25C71.5709 214.25 70.2709 212.65 70.2709 210.25ZM90.4795 195H107.479L109.279 196.8C110.879 195.5 112.879 194.65 115.479 194.65C118.429 194.65 120.479 195.6 121.979 197.1L125.529 200.65C128.179 203.3 128.879 207.65 128.879 210.95V229.05H111.879L110.929 228.1L110.829 229.05H94.0295L90.4795 225.5V195ZM92.7295 197.25V223.25H105.229C106.129 213.5 107.429 205.65 109.479 205.65C110.229 205.65 110.579 206.85 110.579 209.35V223.25H123.079V207.4C123.079 199.25 119.329 196.9 115.479 196.9C107.479 196.9 106.429 206.75 105.479 214.6H105.229V197.25H92.7295ZM123.829 195H140.829L142.629 196.8C144.229 195.5 146.229 194.65 148.829 194.65C151.779 194.65 153.829 195.6 155.329 197.1L158.879 200.65C161.529 203.3 162.229 207.65 162.229 210.95V229.05H145.229L144.279 228.1L144.179 229.05H127.379L123.829 225.5V195ZM126.079 197.25V223.25H138.579C139.479 213.5 140.779 205.65 142.829 205.65C143.579 205.65 143.929 206.85 143.929 209.35V223.25H156.429V207.4C156.429 199.25 152.679 196.9 148.829 196.9C140.829 196.9 139.779 206.75 138.829 214.6H138.579V197.25H126.079ZM188.779 199.55L192.329 203.05C194.479 205.2 195.879 208.05 196.029 211.85L196.929 212.8L196.779 215.2C195.929 224.85 187.879 229.4 178.779 229.4C173.579 229.4 168.279 227.8 164.779 224.3L161.279 220.75C158.779 218.25 157.179 214.8 157.179 210.25C157.179 199.95 165.579 194.65 175.179 194.65C179.979 194.65 185.329 196.05 188.779 199.55ZM190.979 211.5H178.229C178.029 213.4 176.779 214.25 175.329 214.25C173.329 214.25 172.029 212.6 172.029 210.15C172.029 209.9 172.029 209.65 172.079 209.4H190.229C190.479 201.7 184.379 196.9 175.179 196.9C165.579 196.9 159.429 202.2 159.429 210.25C159.429 218.3 165.629 223.6 175.229 223.6C184.179 223.6 190.379 219.05 190.979 211.5ZM177.829 208.15L172.179 208.9C172.579 207.3 173.679 206.25 175.329 206.25C176.729 206.25 177.779 207 177.829 208.15ZM223.649 199.4L227.199 202.95C229.399 205.15 230.849 208.2 231.049 212.35L231.499 212.8L231.349 215.2C230.499 224.85 222.449 229.4 213.349 229.4C208.149 229.4 202.849 227.8 199.349 224.3L195.849 220.75C193.349 218.25 191.749 214.8 191.749 210.25C191.749 199.95 200.199 194.65 209.799 194.65C215.049 194.65 220.249 196 223.649 199.4ZM225.549 211.5H212.799C212.599 213.4 211.349 214.25 209.899 214.25C207.899 214.25 206.599 212.6 206.599 210.15C206.599 207.8 207.899 206.25 209.799 206.25C211.349 206.25 212.449 207.25 212.899 209.4H225.299C225.049 200.95 218.949 196.9 209.799 196.9C200.149 196.9 193.999 202.2 193.999 210.25C193.999 218.3 200.199 223.6 209.799 223.6C218.749 223.6 224.949 219.05 225.549 211.5ZM227.819 210.75V210.25L226.319 208.75V195.55L227.919 195.1C229.169 194.75 229.819 193.8 229.819 191.8V189.55H244.819L248.369 193.1V195.35C248.369 195.55 248.369 195.8 248.319 196L250.869 198.55V212.3H248.369V212.5H258.169L261.669 216.05L261.419 218.5C260.669 226.15 254.419 229.4 247.219 229.4C242.269 229.4 238.119 228 235.319 225.15L231.769 221.65C229.269 219.1 227.819 215.5 227.819 210.75ZM242.569 191.8H232.069C232.069 194.4 231.119 196.5 228.569 197.25V206.5H230.069V210.75C230.069 220.15 236.269 223.6 243.669 223.6C250.319 223.6 255.069 220.7 255.669 214.75H245.819C245.719 215.85 245.119 216.7 244.119 216.7C243.169 216.7 242.569 215.95 242.569 214.3V206.5H245.069V197.25H238.319V197C241.619 196.75 242.569 194.55 242.569 191.8ZM264.909 184.65C266.759 184.65 270.159 185.15 272.159 187.2L275.709 190.75C276.759 191.75 277.459 193.2 277.459 195.15C277.459 196.4 277.159 197.4 276.709 198.3L276.959 198.55V229.05H259.959L256.409 225.5V195H256.809C256.259 194.1 255.909 192.95 255.909 191.6C255.909 186.7 260.559 184.65 264.909 184.65ZM258.159 191.6C258.159 194.45 260.859 196.4 264.909 196.4C268.959 196.4 271.659 194.45 271.659 191.6C271.659 188.75 268.959 186.9 264.909 186.9C260.859 186.9 258.159 188.75 258.159 191.6ZM258.659 197.25V223.25H271.159V197.25H258.659ZM290.663 194.65C295.863 194.65 301.313 196.25 304.913 199.85L308.413 203.4C310.913 205.85 312.513 209.3 312.513 213.8C312.513 224.15 303.763 229.4 294.213 229.4C289.013 229.4 283.613 227.75 280.013 224.2L276.513 220.65C274.013 218.15 272.413 214.75 272.413 210.25C272.413 199.9 281.063 194.65 290.663 194.65ZM274.663 210.25C274.663 218.3 281.063 223.6 290.663 223.6C300.313 223.6 306.713 218.3 306.713 210.25C306.713 202.2 300.313 196.9 290.663 196.9C281.063 196.9 274.663 202.2 274.663 210.25ZM287.263 210.25C287.263 207.85 288.563 206.25 290.663 206.25C292.813 206.25 294.113 207.85 294.113 210.25C294.113 212.65 292.813 214.25 290.663 214.25C288.563 214.25 287.263 212.65 287.263 210.25ZM307.472 195H324.472L326.272 196.8C327.872 195.5 329.872 194.65 332.472 194.65C335.422 194.65 337.472 195.6 338.972 197.1L342.522 200.65C345.172 203.3 345.872 207.65 345.872 210.95V229.05H328.872L327.922 228.1L327.822 229.05H311.022L307.472 225.5V195ZM309.722 197.25V223.25H322.222C323.122 213.5 324.422 205.65 326.472 205.65C327.222 205.65 327.572 206.85 327.572 209.35V223.25H340.072V207.4C340.072 199.25 336.322 196.9 332.472 196.9C324.472 196.9 323.422 206.75 322.472 214.6H322.222V197.25H309.722Z" fill="black"/>
</svg>
