<svg width="495" height="351" viewBox="0 0 495 351" fill="none" xmlns="http://www.w3.org/2000/svg">
<rect width="495" height="351" fill="#FFF6F6"/>
<path d="M76.8164 92.1L78.5664 96.5C75.6331 97.5 74.1664 98.75 74.1664 100.25C75.4997 100.25 76.5997 100.733 77.4664 101.7C78.3664 102.667 78.8164 103.883 78.8164 105.35C78.8164 106.817 78.2997 108.033 77.2664 109C76.2664 109.933 74.9497 110.4 73.3164 110.4C71.5164 110.4 70.0997 109.783 69.0664 108.55C68.0664 107.283 67.5664 105.567 67.5664 103.4C67.5664 100.533 68.3664 98.1333 69.9664 96.2C71.5664 94.2333 73.8497 92.8667 76.8164 92.1ZM89.8164 92.1L91.5664 96.5C88.6331 97.5 87.1664 98.75 87.1664 100.25C88.4997 100.25 89.5997 100.733 90.4664 101.7C91.3664 102.667 91.8164 103.883 91.8164 105.35C91.8164 106.817 91.2997 108.033 90.2664 109C89.2664 109.933 87.9497 110.4 86.3164 110.4C84.5164 110.4 83.0997 109.783 82.0664 108.55C81.0664 107.283 80.5664 105.567 80.5664 103.4C80.5664 100.533 81.3664 98.1333 82.9664 96.2C84.5664 94.2333 86.8497 92.8667 89.8164 92.1ZM96.0625 127V92.6H119.763V100.2H106.813V107.15H118.813V113.85H106.813V127H96.0625ZM133.523 127.4C131.223 127.4 129.139 126.85 127.273 125.75C125.406 124.617 123.923 123.067 122.823 121.1C121.756 119.133 121.223 116.883 121.223 114.35C121.223 111.817 121.756 109.6 122.823 107.7C123.923 105.8 125.406 104.317 127.273 103.25C129.139 102.15 131.223 101.6 133.523 101.6C135.156 101.6 136.739 102.05 138.273 102.95C139.806 103.85 140.989 105.333 141.823 107.4V101.95H152.223V127H141.723V122.35C140.923 123.983 139.856 125.233 138.523 126.1C137.189 126.967 135.523 127.4 133.523 127.4ZM136.773 119.5C138.139 119.5 139.306 119.017 140.273 118.05C141.239 117.05 141.723 115.833 141.723 114.4C141.723 112.967 141.239 111.8 140.273 110.9C139.306 109.967 138.139 109.5 136.773 109.5C135.339 109.5 134.139 109.983 133.173 110.95C132.206 111.917 131.723 113.1 131.723 114.5C131.723 115.9 132.206 117.083 133.173 118.05C134.139 119.017 135.339 119.5 136.773 119.5ZM163.038 127L154.288 101.95H165.888L170.238 116.95L174.488 101.95H183.638L175.188 127H163.038ZM195.102 127.4C192.868 127.4 191.052 127 189.652 126.2C188.285 125.4 187.285 124.317 186.652 122.95C186.018 121.583 185.702 120.05 185.702 118.35V101.95H196.252V116.9C196.252 117.667 196.468 118.267 196.902 118.7C197.368 119.1 197.918 119.3 198.552 119.3C199.218 119.3 199.902 119.1 200.602 118.7L201.152 125.65C200.418 126.217 199.468 126.65 198.302 126.95C197.135 127.25 196.068 127.4 195.102 127.4ZM191.002 99.2C189.468 99.2 188.152 98.7167 187.052 97.75C185.952 96.75 185.402 95.5333 185.402 94.1C185.402 93.1 185.668 92.2333 186.202 91.5C186.735 90.7333 187.435 90.1333 188.302 89.7C189.168 89.2667 190.068 89.05 191.002 89.05C192.035 89.05 192.968 89.2833 193.802 89.75C194.668 90.2167 195.352 90.8333 195.852 91.6C196.385 92.3667 196.652 93.2 196.652 94.1C196.652 95.1 196.368 95.9833 195.802 96.75C195.268 97.5167 194.568 98.1167 193.702 98.55C192.868 98.9833 191.968 99.2 191.002 99.2ZM213.699 127V108.15H210.549V101.95H213.699V100.5C213.699 98.6667 214.149 97.1 215.049 95.8C215.949 94.4667 217.199 93.45 218.799 92.75C220.399 92.0167 222.249 91.65 224.349 91.65C227.015 91.65 229.215 92.0167 230.949 92.75L230.249 99.1C229.515 98.9333 228.799 98.8167 228.099 98.75C227.399 98.65 226.715 98.6 226.049 98.6C223.815 98.6 222.699 99.2833 222.699 100.65C222.699 101.083 222.815 101.517 223.049 101.95H230.099V108.15H224.249V127H213.699ZM246.714 120.4C247.681 120.4 248.697 120.3 249.764 120.1C250.864 119.9 251.981 119.533 253.114 119L254.314 125.45C253.081 126.083 251.731 126.567 250.264 126.9C248.831 127.233 247.181 127.4 245.314 127.4C241.947 127.4 239.114 126.85 236.814 125.75C234.547 124.65 232.831 123.133 231.664 121.2C230.497 119.267 229.914 117.033 229.914 114.5C229.914 111.9 230.531 109.633 231.764 107.7C233.031 105.767 234.714 104.267 236.814 103.2C238.914 102.133 241.231 101.6 243.764 101.6C247.531 101.6 250.414 102.783 252.414 105.15C254.414 107.483 255.414 110.817 255.414 115.15L240.514 117.05C241.614 119.283 243.681 120.4 246.714 120.4ZM239.714 112.45L247.564 110.8C247.431 109.733 247.064 108.95 246.464 108.45C245.864 107.917 245.114 107.65 244.214 107.65C242.881 107.65 241.814 108.117 241.014 109.05C240.247 109.95 239.814 111.083 239.714 112.45ZM274.448 120.4C275.415 120.4 276.432 120.3 277.498 120.1C278.598 119.9 279.715 119.533 280.848 119L282.048 125.45C280.815 126.083 279.465 126.567 277.998 126.9C276.565 127.233 274.915 127.4 273.048 127.4C269.682 127.4 266.848 126.85 264.548 125.75C262.282 124.65 260.565 123.133 259.398 121.2C258.232 119.267 257.648 117.033 257.648 114.5C257.648 111.9 258.265 109.633 259.498 107.7C260.765 105.767 262.448 104.267 264.548 103.2C266.648 102.133 268.965 101.6 271.498 101.6C275.265 101.6 278.148 102.783 280.148 105.15C282.148 107.483 283.148 110.817 283.148 115.15L268.248 117.05C269.348 119.283 271.415 120.4 274.448 120.4ZM267.448 112.45L275.298 110.8C275.165 109.733 274.798 108.95 274.198 108.45C273.598 107.917 272.848 107.65 271.948 107.65C270.615 107.65 269.548 108.117 268.748 109.05C267.982 109.95 267.548 111.083 267.448 112.45ZM296.483 127.4C294.116 127.4 292.183 127 290.683 126.2C289.216 125.4 288.149 124.317 287.483 122.95C286.816 121.583 286.483 120.05 286.483 118.35V93.05L297.033 91.5V116.9C297.033 117.667 297.283 118.267 297.783 118.7C298.283 119.1 298.933 119.3 299.733 119.3C300.533 119.3 301.333 119.1 302.133 118.7L302.883 125.65C302.083 126.217 301.066 126.65 299.833 126.95C298.599 127.25 297.483 127.4 296.483 127.4ZM313.433 127.4C311.933 127.4 310.416 127.25 308.883 126.95C307.349 126.65 305.966 126.233 304.733 125.7L306.183 119.4C306.949 119.8 307.999 120.15 309.333 120.45C310.666 120.717 311.849 120.85 312.883 120.85C314.549 120.85 315.383 120.4 315.383 119.5C315.383 119.067 315.116 118.75 314.583 118.55C314.083 118.35 313.416 118.183 312.583 118.05C311.783 117.883 310.916 117.683 309.983 117.45C309.049 117.183 308.166 116.8 307.333 116.3C306.533 115.767 305.866 115.017 305.333 114.05C304.833 113.083 304.583 111.817 304.583 110.25C304.583 107.617 305.616 105.517 307.683 103.95C309.783 102.383 312.649 101.6 316.283 101.6C317.683 101.6 318.983 101.7 320.183 101.9C321.416 102.1 322.583 102.517 323.683 103.15L322.633 109.25C320.866 108.517 319.016 108.15 317.083 108.15C315.849 108.15 314.949 108.25 314.383 108.45C313.849 108.65 313.583 108.983 313.583 109.45C313.583 109.817 313.849 110.1 314.383 110.3C314.916 110.5 315.599 110.7 316.433 110.9C317.299 111.067 318.199 111.317 319.133 111.65C320.066 111.95 320.949 112.383 321.783 112.95C322.649 113.517 323.349 114.283 323.883 115.25C324.416 116.183 324.683 117.4 324.683 118.9C324.683 121.567 323.699 123.65 321.733 125.15C319.766 126.65 316.999 127.4 313.433 127.4ZM347.362 127.4C344.995 127.4 343.062 127 341.562 126.2C340.095 125.4 339.028 124.317 338.362 122.95C337.695 121.583 337.362 120.05 337.362 118.35V93.05L347.912 91.5V116.9C347.912 117.667 348.162 118.267 348.662 118.7C349.162 119.1 349.812 119.3 350.612 119.3C351.412 119.3 352.212 119.1 353.012 118.7L353.762 125.65C352.962 126.217 351.945 126.65 350.712 126.95C349.478 127.25 348.362 127.4 347.362 127.4ZM365.512 127.4C363.278 127.4 361.462 127 360.062 126.2C358.695 125.4 357.695 124.317 357.062 122.95C356.428 121.583 356.112 120.05 356.112 118.35V101.95H366.662V116.9C366.662 117.667 366.878 118.267 367.312 118.7C367.778 119.1 368.328 119.3 368.962 119.3C369.628 119.3 370.312 119.1 371.012 118.7L371.562 125.65C370.828 126.217 369.878 126.65 368.712 126.95C367.545 127.25 366.478 127.4 365.512 127.4ZM361.412 99.2C359.878 99.2 358.562 98.7167 357.462 97.75C356.362 96.75 355.812 95.5333 355.812 94.1C355.812 93.1 356.078 92.2333 356.612 91.5C357.145 90.7333 357.845 90.1333 358.712 89.7C359.578 89.2667 360.478 89.05 361.412 89.05C362.445 89.05 363.378 89.2833 364.212 89.75C365.078 90.2167 365.762 90.8333 366.262 91.6C366.795 92.3667 367.062 93.2 367.062 94.1C367.062 95.1 366.778 95.9833 366.212 96.75C365.678 97.5167 364.978 98.1167 364.112 98.55C363.278 98.9833 362.378 99.2 361.412 99.2ZM384.683 127H374.133V94.05L384.683 92.5V109.65L396.433 100.1L401.833 107.05L394.783 112.95C395.249 115.317 395.933 116.983 396.833 117.95C397.733 118.883 398.899 119.35 400.333 119.35C400.933 119.35 401.649 119.25 402.483 119.05L401.733 127.1C401.099 127.233 400.533 127.317 400.033 127.35C399.533 127.383 399.049 127.4 398.583 127.4C395.283 127.4 392.666 126.617 390.733 125.05C388.833 123.45 387.433 121.117 386.533 118.05L384.683 119.65V127ZM420.249 120.4C421.216 120.4 422.233 120.3 423.299 120.1C424.399 119.9 425.516 119.533 426.649 119L427.849 125.45C426.616 126.083 425.266 126.567 423.799 126.9C422.366 127.233 420.716 127.4 418.849 127.4C415.483 127.4 412.649 126.85 410.349 125.75C408.083 124.65 406.366 123.133 405.199 121.2C404.033 119.267 403.449 117.033 403.449 114.5C403.449 111.9 404.066 109.633 405.299 107.7C406.566 105.767 408.249 104.267 410.349 103.2C412.449 102.133 414.766 101.6 417.299 101.6C421.066 101.6 423.949 102.783 425.949 105.15C427.949 107.483 428.949 110.817 428.949 115.15L414.049 117.05C415.149 119.283 417.216 120.4 420.249 120.4ZM413.249 112.45L421.099 110.8C420.966 109.733 420.599 108.95 419.999 108.45C419.399 107.917 418.649 107.65 417.749 107.65C416.416 107.65 415.349 108.117 414.549 109.05C413.783 109.95 413.349 111.083 413.249 112.45ZM114.392 197V171.95H124.792V177.4C125.525 175.533 126.575 174.1 127.942 173.1C129.342 172.1 131.092 171.6 133.192 171.6C135.258 171.6 137.008 172.117 138.442 173.15C139.908 174.15 140.942 175.45 141.542 177.05C142.675 175.35 144.008 174.017 145.542 173.05C147.108 172.083 148.992 171.6 151.192 171.6C154.292 171.6 156.692 172.733 158.392 175C160.092 177.233 160.942 180.4 160.942 184.5V197H150.392V183.95C150.392 180.983 149.342 179.5 147.242 179.5C145.942 179.5 144.892 180.033 144.092 181.1C143.325 182.133 142.942 183.533 142.942 185.3V197H132.392V183.95C132.392 182.383 132.125 181.25 131.592 180.55C131.058 179.85 130.275 179.5 129.242 179.5C127.942 179.5 126.892 180.017 126.092 181.05C125.325 182.05 124.942 183.467 124.942 185.3V197H114.392ZM178.665 206.75C177.398 206.75 176.215 206.667 175.115 206.5C174.015 206.333 173.148 206.133 172.515 205.9L173.315 198.65C173.915 198.783 174.565 198.883 175.265 198.95C175.965 199.05 176.648 199.1 177.315 199.1C179.548 199.1 181.148 198.633 182.115 197.7C183.115 196.767 183.615 195.333 183.615 193.4V190.55C182.815 192.583 181.681 194.067 180.215 195C178.748 195.9 177.015 196.35 175.015 196.35C171.915 196.35 169.515 195.233 167.815 193C166.115 190.733 165.265 187.55 165.265 183.45V171.95H175.815V184C175.815 186.967 176.865 188.45 178.965 188.45C180.265 188.45 181.298 187.917 182.065 186.85C182.865 185.783 183.265 184.383 183.265 182.65V171.95H193.815V191.15C193.815 196.483 192.498 200.417 189.865 202.95C187.231 205.483 183.498 206.75 178.665 206.75ZM219.192 197.4C216.892 197.4 214.808 196.85 212.942 195.75C211.075 194.617 209.592 193.067 208.492 191.1C207.425 189.133 206.892 186.883 206.892 184.35C206.892 181.817 207.425 179.6 208.492 177.7C209.592 175.8 211.075 174.317 212.942 173.25C214.808 172.15 216.892 171.6 219.192 171.6C220.825 171.6 222.392 172.05 223.892 172.95C225.425 173.817 226.558 175.233 227.292 177.2V164.05L237.842 162.5V197H227.392V192.35C226.592 193.983 225.525 195.233 224.192 196.1C222.858 196.967 221.192 197.4 219.192 197.4ZM222.442 189.5C223.808 189.5 224.975 189.017 225.942 188.05C226.908 187.05 227.392 185.833 227.392 184.4C227.392 182.967 226.908 181.8 225.942 180.9C224.975 179.967 223.808 179.5 222.442 179.5C221.008 179.5 219.808 179.983 218.842 180.95C217.875 181.917 217.392 183.1 217.392 184.5C217.392 185.9 217.875 187.083 218.842 188.05C219.808 189.017 221.008 189.5 222.442 189.5ZM252.108 197.4C249.875 197.4 248.058 197 246.658 196.2C245.292 195.4 244.292 194.317 243.658 192.95C243.025 191.583 242.708 190.05 242.708 188.35V171.95H253.258V186.9C253.258 187.667 253.475 188.267 253.908 188.7C254.375 189.1 254.925 189.3 255.558 189.3C256.225 189.3 256.908 189.1 257.608 188.7L258.158 195.65C257.425 196.217 256.475 196.65 255.308 196.95C254.142 197.25 253.075 197.4 252.108 197.4ZM248.008 169.2C246.475 169.2 245.158 168.717 244.058 167.75C242.958 166.75 242.408 165.533 242.408 164.1C242.408 163.1 242.675 162.233 243.208 161.5C243.742 160.733 244.442 160.133 245.308 159.7C246.175 159.267 247.075 159.05 248.008 159.05C249.042 159.05 249.975 159.283 250.808 159.75C251.675 160.217 252.358 160.833 252.858 161.6C253.392 162.367 253.658 163.2 253.658 164.1C253.658 165.1 253.375 165.983 252.808 166.75C252.275 167.517 251.575 168.117 250.708 168.55C249.875 168.983 248.975 169.2 248.008 169.2ZM275.385 206.75C274.119 206.75 272.935 206.667 271.835 206.5C270.735 206.333 269.869 206.133 269.235 205.9L270.035 198.65C270.635 198.783 271.285 198.883 271.985 198.95C272.685 199.05 273.369 199.1 274.035 199.1C276.269 199.1 277.869 198.633 278.835 197.7C279.835 196.767 280.335 195.333 280.335 193.4V191.05C279.402 192.883 278.252 194.233 276.885 195.1C275.519 195.967 273.802 196.4 271.735 196.4C269.369 196.4 267.235 195.867 265.335 194.8C263.435 193.7 261.935 192.217 260.835 190.35C259.769 188.45 259.235 186.283 259.235 183.85C259.235 181.417 259.769 179.283 260.835 177.45C261.935 175.617 263.435 174.183 265.335 173.15C267.235 172.117 269.369 171.6 271.735 171.6C273.402 171.6 275.002 172.05 276.535 172.95C278.069 173.817 279.235 175.233 280.035 177.2V171.95H290.535V191.15C290.535 196.483 289.219 200.417 286.585 202.95C283.952 205.483 280.219 206.75 275.385 206.75ZM274.985 188.5C276.419 188.5 277.619 188.05 278.585 187.15C279.552 186.25 280.035 185.167 280.035 183.9C280.035 182.633 279.552 181.583 278.585 180.75C277.619 179.917 276.419 179.5 274.985 179.5C273.452 179.5 272.185 179.933 271.185 180.8C270.219 181.667 269.735 182.733 269.735 184C269.735 185.233 270.219 186.3 271.185 187.2C272.185 188.067 273.452 188.5 274.985 188.5ZM304.794 197.4C302.561 197.4 300.744 197 299.344 196.2C297.977 195.4 296.977 194.317 296.344 192.95C295.711 191.583 295.394 190.05 295.394 188.35V171.95H305.944V186.9C305.944 187.667 306.161 188.267 306.594 188.7C307.061 189.1 307.611 189.3 308.244 189.3C308.911 189.3 309.594 189.1 310.294 188.7L310.844 195.65C310.111 196.217 309.161 196.65 307.994 196.95C306.827 197.25 305.761 197.4 304.794 197.4ZM300.694 169.2C299.161 169.2 297.844 168.717 296.744 167.75C295.644 166.75 295.094 165.533 295.094 164.1C295.094 163.1 295.361 162.233 295.894 161.5C296.427 160.733 297.127 160.133 297.994 159.7C298.861 159.267 299.761 159.05 300.694 159.05C301.727 159.05 302.661 159.283 303.494 159.75C304.361 160.217 305.044 160.833 305.544 161.6C306.077 162.367 306.344 163.2 306.344 164.1C306.344 165.1 306.061 165.983 305.494 166.75C304.961 167.517 304.261 168.117 303.394 168.55C302.561 168.983 301.661 169.2 300.694 169.2ZM323.578 197.4C321.211 197.4 319.278 197 317.778 196.2C316.311 195.4 315.245 194.317 314.578 192.95C313.911 191.583 313.578 190.05 313.578 188.35V178.15H310.378V171.95H314.328L318.978 164.05H324.128V171.95H329.928V178.15H324.128V186.9C324.128 187.667 324.378 188.267 324.878 188.7C325.378 189.1 326.028 189.3 326.828 189.3C327.628 189.3 328.428 189.1 329.228 188.7L329.978 195.65C329.178 196.217 328.161 196.65 326.928 196.95C325.695 197.25 324.578 197.4 323.578 197.4ZM344.143 197.4C341.843 197.4 339.759 196.85 337.893 195.75C336.026 194.617 334.543 193.067 333.443 191.1C332.376 189.133 331.843 186.883 331.843 184.35C331.843 181.817 332.376 179.6 333.443 177.7C334.543 175.8 336.026 174.317 337.893 173.25C339.759 172.15 341.843 171.6 344.143 171.6C345.776 171.6 347.359 172.05 348.893 172.95C350.426 173.85 351.609 175.333 352.443 177.4V171.95H362.843V197H352.343V192.35C351.543 193.983 350.476 195.233 349.143 196.1C347.809 196.967 346.143 197.4 344.143 197.4ZM347.393 189.5C348.759 189.5 349.926 189.017 350.893 188.05C351.859 187.05 352.343 185.833 352.343 184.4C352.343 182.967 351.859 181.8 350.893 180.9C349.926 179.967 348.759 179.5 347.393 179.5C345.959 179.5 344.759 179.983 343.793 180.95C342.826 181.917 342.343 183.1 342.343 184.5C342.343 185.9 342.826 187.083 343.793 188.05C344.759 189.017 345.959 189.5 347.393 189.5ZM377.708 197.4C375.342 197.4 373.408 197 371.908 196.2C370.442 195.4 369.375 194.317 368.708 192.95C368.042 191.583 367.708 190.05 367.708 188.35V163.05L378.258 161.5V186.9C378.258 187.667 378.508 188.267 379.008 188.7C379.508 189.1 380.158 189.3 380.958 189.3C381.758 189.3 382.558 189.1 383.358 188.7L384.108 195.65C383.308 196.217 382.292 196.65 381.058 196.95C379.825 197.25 378.708 197.4 377.708 197.4ZM81.3105 267V241.95H91.7105V247.4C92.4439 245.533 93.4939 244.1 94.8605 243.1C96.2605 242.1 98.0105 241.6 100.111 241.6C102.177 241.6 103.927 242.117 105.361 243.15C106.827 244.15 107.861 245.45 108.461 247.05C109.594 245.35 110.927 244.017 112.461 243.05C114.027 242.083 115.911 241.6 118.111 241.6C121.211 241.6 123.611 242.733 125.311 245C127.011 247.233 127.861 250.4 127.861 254.5V267H117.311V253.95C117.311 250.983 116.261 249.5 114.161 249.5C112.861 249.5 111.811 250.033 111.011 251.1C110.244 252.133 109.861 253.533 109.861 255.3V267H99.3105V253.95C99.3105 252.383 99.0439 251.25 98.5105 250.55C97.9772 249.85 97.1939 249.5 96.1605 249.5C94.8605 249.5 93.8105 250.017 93.0105 251.05C92.2439 252.05 91.8605 253.467 91.8605 255.3V267H81.3105ZM145.779 267.4C142.946 267.4 140.446 266.85 138.279 265.75C136.112 264.65 134.412 263.133 133.179 261.2C131.979 259.233 131.379 256.983 131.379 254.45C131.379 251.85 131.996 249.6 133.229 247.7C134.496 245.767 136.212 244.267 138.379 243.2C140.546 242.133 143.029 241.6 145.829 241.6C148.696 241.6 151.212 242.15 153.379 243.25C155.546 244.317 157.229 245.817 158.429 247.75C159.629 249.65 160.229 251.883 160.229 254.45C160.229 257.017 159.612 259.283 158.379 261.25C157.179 263.183 155.496 264.7 153.329 265.8C151.162 266.867 148.646 267.4 145.779 267.4ZM145.879 259.9C147.246 259.9 148.362 259.4 149.229 258.4C150.129 257.367 150.579 256.05 150.579 254.45C150.579 252.85 150.146 251.55 149.279 250.55C148.412 249.517 147.312 249 145.979 249C144.546 249 143.379 249.517 142.479 250.55C141.612 251.55 141.179 252.85 141.179 254.45C141.179 256.05 141.612 257.367 142.479 258.4C143.379 259.4 144.512 259.9 145.879 259.9ZM177.127 267.4C174.293 267.4 171.793 266.85 169.627 265.75C167.46 264.65 165.76 263.133 164.527 261.2C163.327 259.233 162.727 256.983 162.727 254.45C162.727 251.85 163.343 249.6 164.577 247.7C165.843 245.767 167.56 244.267 169.727 243.2C171.893 242.133 174.377 241.6 177.177 241.6C180.043 241.6 182.56 242.15 184.727 243.25C186.893 244.317 188.577 245.817 189.777 247.75C190.977 249.65 191.577 251.883 191.577 254.45C191.577 257.017 190.96 259.283 189.727 261.25C188.527 263.183 186.843 264.7 184.677 265.8C182.51 266.867 179.993 267.4 177.127 267.4ZM177.227 259.9C178.593 259.9 179.71 259.4 180.577 258.4C181.477 257.367 181.927 256.05 181.927 254.45C181.927 252.85 181.493 251.55 180.627 250.55C179.76 249.517 178.66 249 177.327 249C175.893 249 174.727 249.517 173.827 250.55C172.96 251.55 172.527 252.85 172.527 254.45C172.527 256.05 172.96 257.367 173.827 258.4C174.727 259.4 175.86 259.9 177.227 259.9ZM206.374 267.4C204.074 267.4 201.991 266.85 200.124 265.75C198.258 264.617 196.774 263.067 195.674 261.1C194.608 259.133 194.074 256.883 194.074 254.35C194.074 251.817 194.608 249.6 195.674 247.7C196.774 245.8 198.258 244.317 200.124 243.25C201.991 242.15 204.074 241.6 206.374 241.6C208.008 241.6 209.574 242.05 211.074 242.95C212.608 243.817 213.741 245.233 214.474 247.2V234.05L225.024 232.5V267H214.574V262.35C213.774 263.983 212.708 265.233 211.374 266.1C210.041 266.967 208.374 267.4 206.374 267.4ZM209.624 259.5C210.991 259.5 212.158 259.017 213.124 258.05C214.091 257.05 214.574 255.833 214.574 254.4C214.574 252.967 214.091 251.8 213.124 250.9C212.158 249.967 210.991 249.5 209.624 249.5C208.191 249.5 206.991 249.983 206.024 250.95C205.058 251.917 204.574 253.1 204.574 254.5C204.574 255.9 205.058 257.083 206.024 258.05C206.991 259.017 208.191 259.5 209.624 259.5ZM250.417 267.4C248.117 267.4 246.034 266.85 244.167 265.75C242.301 264.617 240.817 263.067 239.717 261.1C238.651 259.133 238.117 256.883 238.117 254.35C238.117 251.817 238.651 249.6 239.717 247.7C240.817 245.8 242.301 244.317 244.167 243.25C246.034 242.15 248.117 241.6 250.417 241.6C252.051 241.6 253.617 242.05 255.117 242.95C256.651 243.817 257.784 245.233 258.517 247.2V234.05L269.067 232.5V267H258.617V262.35C257.817 263.983 256.751 265.233 255.417 266.1C254.084 266.967 252.417 267.4 250.417 267.4ZM253.667 259.5C255.034 259.5 256.201 259.017 257.167 258.05C258.134 257.05 258.617 255.833 258.617 254.4C258.617 252.967 258.134 251.8 257.167 250.9C256.201 249.967 255.034 249.5 253.667 249.5C252.234 249.5 251.034 249.983 250.067 250.95C249.101 251.917 248.617 253.1 248.617 254.5C248.617 255.9 249.101 257.083 250.067 258.05C251.034 259.017 252.234 259.5 253.667 259.5ZM283.334 267.4C281.101 267.4 279.284 267 277.884 266.2C276.517 265.4 275.517 264.317 274.884 262.95C274.251 261.583 273.934 260.05 273.934 258.35V241.95H284.484V256.9C284.484 257.667 284.701 258.267 285.134 258.7C285.601 259.1 286.151 259.3 286.784 259.3C287.451 259.3 288.134 259.1 288.834 258.7L289.384 265.65C288.651 266.217 287.701 266.65 286.534 266.95C285.367 267.25 284.301 267.4 283.334 267.4ZM279.234 239.2C277.701 239.2 276.384 238.717 275.284 237.75C274.184 236.75 273.634 235.533 273.634 234.1C273.634 233.1 273.901 232.233 274.434 231.5C274.967 230.733 275.667 230.133 276.534 229.7C277.401 229.267 278.301 229.05 279.234 229.05C280.267 229.05 281.201 229.283 282.034 229.75C282.901 230.217 283.584 230.833 284.084 231.6C284.617 232.367 284.884 233.2 284.884 234.1C284.884 235.1 284.601 235.983 284.034 236.75C283.501 237.517 282.801 238.117 281.934 238.55C281.101 238.983 280.201 239.2 279.234 239.2ZM302.761 267.4C300.461 267.4 298.378 266.85 296.511 265.75C294.644 264.617 293.161 263.067 292.061 261.1C290.994 259.133 290.461 256.883 290.461 254.35C290.461 251.817 290.994 249.6 292.061 247.7C293.161 245.8 294.644 244.317 296.511 243.25C298.378 242.15 300.461 241.6 302.761 241.6C304.394 241.6 305.978 242.05 307.511 242.95C309.044 243.85 310.228 245.333 311.061 247.4V241.95H321.461V267H310.961V262.35C310.161 263.983 309.094 265.233 307.761 266.1C306.428 266.967 304.761 267.4 302.761 267.4ZM306.011 259.5C307.378 259.5 308.544 259.017 309.511 258.05C310.478 257.05 310.961 255.833 310.961 254.4C310.961 252.967 310.478 251.8 309.511 250.9C308.544 249.967 307.378 249.5 306.011 249.5C304.578 249.5 303.378 249.983 302.411 250.95C301.444 251.917 300.961 253.1 300.961 254.5C300.961 255.9 301.444 257.083 302.411 258.05C303.378 259.017 304.578 259.5 306.011 259.5ZM326.477 267V241.95H336.877V248.2C337.543 245.933 338.577 244.267 339.977 243.2C341.41 242.133 343.11 241.6 345.077 241.6L346.327 250.45C345.527 250.35 344.743 250.3 343.977 250.3C339.343 250.3 337.027 252.2 337.027 256V267H326.477ZM361.99 276.75C360.723 276.75 359.54 276.667 358.44 276.5C357.34 276.333 356.473 276.133 355.84 275.9L356.64 268.65C357.24 268.783 357.89 268.883 358.59 268.95C359.29 269.05 359.973 269.1 360.64 269.1C362.873 269.1 364.473 268.633 365.44 267.7C366.44 266.767 366.94 265.333 366.94 263.4V260.55C366.14 262.583 365.007 264.067 363.54 265C362.073 265.9 360.34 266.35 358.34 266.35C355.24 266.35 352.84 265.233 351.14 263C349.44 260.733 348.59 257.55 348.59 253.45V241.95H359.14V254C359.14 256.967 360.19 258.45 362.29 258.45C363.59 258.45 364.623 257.917 365.39 256.85C366.19 255.783 366.59 254.383 366.59 252.65V241.95H377.14V261.15C377.14 266.483 375.823 270.417 373.19 272.95C370.557 275.483 366.823 276.75 361.99 276.75ZM386.791 267.3C384.957 267.3 383.557 266.817 382.591 265.85C381.624 264.85 381.141 263.633 381.141 262.2C381.141 260.733 381.657 259.533 382.691 258.6C383.724 257.633 385.091 257.15 386.791 257.15C388.491 257.15 389.841 257.65 390.841 258.65C391.874 259.65 392.391 260.833 392.391 262.2C392.391 263.733 391.907 264.967 390.941 265.9C390.007 266.833 388.624 267.3 386.791 267.3ZM393.443 250.4L391.693 246C394.627 245 396.093 243.75 396.093 242.25C394.76 242.25 393.643 241.767 392.743 240.8C391.877 239.833 391.443 238.617 391.443 237.15C391.443 235.683 391.943 234.483 392.943 233.55C393.977 232.583 395.31 232.1 396.943 232.1C398.743 232.1 400.143 232.733 401.143 234C402.177 235.233 402.693 236.933 402.693 239.1C402.693 241.933 401.893 244.333 400.293 246.3C398.693 248.267 396.41 249.633 393.443 250.4ZM406.443 250.4L404.693 246C407.627 245 409.093 243.75 409.093 242.25C407.76 242.25 406.643 241.767 405.743 240.8C404.877 239.833 404.443 238.617 404.443 237.15C404.443 235.683 404.943 234.483 405.943 233.55C406.977 232.583 408.31 232.1 409.943 232.1C411.743 232.1 413.143 232.733 414.143 234C415.177 235.233 415.693 236.933 415.693 239.1C415.693 241.933 414.893 244.333 413.293 246.3C411.693 248.267 409.41 249.633 406.443 250.4Z" fill="black"/>
</svg>
