<svg width="495" height="351" viewBox="0 0 495 351" fill="none" xmlns="http://www.w3.org/2000/svg">
<rect width="495" height="351" fill="#FFF6F6"/>
<path d="M120.835 57.1L122.585 61.5C119.652 62.5 118.185 63.75 118.185 65.25C119.518 65.25 120.618 65.7333 121.485 66.7C122.385 67.6667 122.835 68.8833 122.835 70.35C122.835 71.8167 122.318 73.0333 121.285 74C120.285 74.9333 118.968 75.4 117.335 75.4C115.535 75.4 114.118 74.7833 113.085 73.55C112.085 72.2833 111.585 70.5667 111.585 68.4C111.585 65.5333 112.385 63.1333 113.985 61.2C115.585 59.2333 117.868 57.8667 120.835 57.1ZM133.835 57.1L135.585 61.5C132.652 62.5 131.185 63.75 131.185 65.25C132.518 65.25 133.618 65.7333 134.485 66.7C135.385 67.6667 135.835 68.8833 135.835 70.35C135.835 71.8167 135.318 73.0333 134.285 74C133.285 74.9333 131.968 75.4 130.335 75.4C128.535 75.4 127.118 74.7833 126.085 73.55C125.085 72.2833 124.585 70.5667 124.585 68.4C124.585 65.5333 125.385 63.1333 126.985 61.2C128.585 59.2333 130.868 57.8667 133.835 57.1ZM150.581 92.8C148.481 92.8 146.348 92.5333 144.181 92C142.014 91.5 140.181 90.8167 138.681 89.95L140.481 81.8C142.414 82.8333 144.214 83.5167 145.881 83.85C147.581 84.15 149.148 84.3 150.581 84.3C151.914 84.3 152.914 84.0833 153.581 83.65C154.281 83.2167 154.631 82.6333 154.631 81.9C154.631 81.2333 154.248 80.7167 153.481 80.35C152.714 79.95 151.714 79.5833 150.481 79.25C149.281 78.9167 147.998 78.5333 146.631 78.1C145.264 77.6333 143.964 77.0333 142.731 76.3C141.531 75.5333 140.548 74.5333 139.781 73.3C139.014 72.0333 138.631 70.45 138.631 68.55C138.631 66.15 139.214 64.0833 140.381 62.35C141.548 60.5833 143.214 59.2333 145.381 58.3C147.548 57.3333 150.098 56.85 153.031 56.85C154.998 56.85 156.914 57.1167 158.781 57.65C160.681 58.15 162.198 58.8333 163.331 59.7L161.631 67.05C159.931 66.35 158.398 65.85 157.031 65.55C155.698 65.2167 154.431 65.05 153.231 65.05C151.831 65.05 150.764 65.25 150.031 65.65C149.298 66.05 148.931 66.5833 148.931 67.25C148.931 67.8833 149.314 68.4 150.081 68.8C150.848 69.2 151.831 69.5833 153.031 69.95C154.231 70.3167 155.514 70.7333 156.881 71.2C158.248 71.6667 159.531 72.2833 160.731 73.05C161.931 73.8167 162.914 74.8167 163.681 76.05C164.448 77.2833 164.831 78.8333 164.831 80.7C164.831 84.5667 163.564 87.55 161.031 89.65C158.531 91.75 155.048 92.8 150.581 92.8ZM181.399 92.4C178.566 92.4 176.066 91.85 173.899 90.75C171.732 89.65 170.032 88.1333 168.799 86.2C167.599 84.2333 166.999 81.9833 166.999 79.45C166.999 76.85 167.616 74.6 168.849 72.7C170.116 70.7667 171.832 69.2667 173.999 68.2C176.166 67.1333 178.649 66.6 181.449 66.6C184.316 66.6 186.832 67.15 188.999 68.25C191.166 69.3167 192.849 70.8167 194.049 72.75C195.249 74.65 195.849 76.8833 195.849 79.45C195.849 82.0167 195.232 84.2833 193.999 86.25C192.799 88.1833 191.116 89.7 188.949 90.8C186.782 91.8667 184.266 92.4 181.399 92.4ZM181.499 84.9C182.866 84.9 183.982 84.4 184.849 83.4C185.749 82.3667 186.199 81.05 186.199 79.45C186.199 77.85 185.766 76.55 184.899 75.55C184.032 74.5167 182.932 74 181.599 74C180.166 74 178.999 74.5167 178.099 75.55C177.232 76.55 176.799 77.85 176.799 79.45C176.799 81.05 177.232 82.3667 178.099 83.4C178.999 84.4 180.132 84.9 181.499 84.9ZM224.473 85.4C225.44 85.4 226.456 85.3 227.523 85.1C228.623 84.9 229.74 84.5333 230.873 84L232.073 90.45C230.84 91.0833 229.49 91.5667 228.023 91.9C226.59 92.2333 224.94 92.4 223.073 92.4C219.706 92.4 216.873 91.85 214.573 90.75C212.306 89.65 210.59 88.1333 209.423 86.2C208.256 84.2667 207.673 82.0333 207.673 79.5C207.673 76.9 208.29 74.6333 209.523 72.7C210.79 70.7667 212.473 69.2667 214.573 68.2C216.673 67.1333 218.99 66.6 221.523 66.6C225.29 66.6 228.173 67.7833 230.173 70.15C232.173 72.4833 233.173 75.8167 233.173 80.15L218.273 82.05C219.373 84.2833 221.44 85.4 224.473 85.4ZM217.473 77.45L225.323 75.8C225.19 74.7333 224.823 73.95 224.223 73.45C223.623 72.9167 222.873 72.65 221.973 72.65C220.64 72.65 219.573 73.1167 218.773 74.05C218.006 74.95 217.573 76.0833 217.473 77.45ZM247.707 92.4C245.407 92.4 243.324 91.85 241.457 90.75C239.591 89.6167 238.107 88.0667 237.007 86.1C235.941 84.1333 235.407 81.8833 235.407 79.35C235.407 76.8167 235.941 74.6 237.007 72.7C238.107 70.8 239.591 69.3167 241.457 68.25C243.324 67.15 245.407 66.6 247.707 66.6C249.341 66.6 250.924 67.05 252.457 67.95C253.991 68.85 255.174 70.3333 256.007 72.4V66.95H266.407V92H255.907V87.35C255.107 88.9833 254.041 90.2333 252.707 91.1C251.374 91.9667 249.707 92.4 247.707 92.4ZM250.957 84.5C252.324 84.5 253.491 84.0167 254.457 83.05C255.424 82.05 255.907 80.8333 255.907 79.4C255.907 77.9667 255.424 76.8 254.457 75.9C253.491 74.9667 252.324 74.5 250.957 74.5C249.524 74.5 248.324 74.9833 247.357 75.95C246.391 76.9167 245.907 78.1 245.907 79.5C245.907 80.9 246.391 82.0833 247.357 83.05C248.324 84.0167 249.524 84.5 250.957 84.5ZM279.473 92.4C277.973 92.4 276.456 92.25 274.923 91.95C273.39 91.65 272.006 91.2333 270.773 90.7L272.223 84.4C272.99 84.8 274.04 85.15 275.373 85.45C276.706 85.7167 277.89 85.85 278.923 85.85C280.59 85.85 281.423 85.4 281.423 84.5C281.423 84.0667 281.156 83.75 280.623 83.55C280.123 83.35 279.456 83.1833 278.623 83.05C277.823 82.8833 276.956 82.6833 276.023 82.45C275.09 82.1833 274.206 81.8 273.373 81.3C272.573 80.7667 271.906 80.0167 271.373 79.05C270.873 78.0833 270.623 76.8167 270.623 75.25C270.623 72.6167 271.656 70.5167 273.723 68.95C275.823 67.3833 278.69 66.6 282.323 66.6C283.723 66.6 285.023 66.7 286.223 66.9C287.456 67.1 288.623 67.5167 289.723 68.15L288.673 74.25C286.906 73.5167 285.056 73.15 283.123 73.15C281.89 73.15 280.99 73.25 280.423 73.45C279.89 73.65 279.623 73.9833 279.623 74.45C279.623 74.8167 279.89 75.1 280.423 75.3C280.956 75.5 281.64 75.7 282.473 75.9C283.34 76.0667 284.24 76.3167 285.173 76.65C286.106 76.95 286.99 77.3833 287.823 77.95C288.69 78.5167 289.39 79.2833 289.923 80.25C290.456 81.1833 290.723 82.4 290.723 83.9C290.723 86.5667 289.74 88.65 287.773 90.15C285.806 91.65 283.04 92.4 279.473 92.4ZM307.376 101.75C306.109 101.75 304.926 101.667 303.826 101.5C302.726 101.333 301.859 101.133 301.226 100.9L302.026 93.65C302.626 93.7833 303.276 93.8833 303.976 93.95C304.676 94.05 305.359 94.1 306.026 94.1C308.259 94.1 309.859 93.6333 310.826 92.7C311.826 91.7667 312.326 90.3333 312.326 88.4V85.55C311.526 87.5833 310.392 89.0667 308.926 90C307.459 90.9 305.726 91.35 303.726 91.35C300.626 91.35 298.226 90.2333 296.526 88C294.826 85.7333 293.976 82.55 293.976 78.45V66.95H304.526V79C304.526 81.9667 305.576 83.45 307.676 83.45C308.976 83.45 310.009 82.9167 310.776 81.85C311.576 80.7833 311.976 79.3833 311.976 77.65V66.95H322.526V86.15C322.526 91.4833 321.209 95.4167 318.576 97.95C315.942 100.483 312.209 101.75 307.376 101.75ZM347.553 92.4C345.186 92.4 343.253 92 341.753 91.2C340.286 90.4 339.219 89.3167 338.553 87.95C337.886 86.5833 337.553 85.05 337.553 83.35V73.15H334.353V66.95H338.303L342.953 59.05H348.103V66.95H353.903V73.15H348.103V81.9C348.103 82.6667 348.353 83.2667 348.853 83.7C349.353 84.1 350.003 84.3 350.803 84.3C351.603 84.3 352.403 84.1 353.203 83.7L353.953 90.65C353.153 91.2167 352.136 91.65 350.903 91.95C349.669 92.25 348.553 92.4 347.553 92.4ZM370.217 92.4C367.384 92.4 364.884 91.85 362.717 90.75C360.551 89.65 358.851 88.1333 357.617 86.2C356.417 84.2333 355.817 81.9833 355.817 79.45C355.817 76.85 356.434 74.6 357.667 72.7C358.934 70.7667 360.651 69.2667 362.817 68.2C364.984 67.1333 367.467 66.6 370.267 66.6C373.134 66.6 375.651 67.15 377.817 68.25C379.984 69.3167 381.667 70.8167 382.867 72.75C384.067 74.65 384.667 76.8833 384.667 79.45C384.667 82.0167 384.051 84.2833 382.817 86.25C381.617 88.1833 379.934 89.7 377.767 90.8C375.601 91.8667 373.084 92.4 370.217 92.4ZM370.317 84.9C371.684 84.9 372.801 84.4 373.667 83.4C374.567 82.3667 375.017 81.05 375.017 79.45C375.017 77.85 374.584 76.55 373.717 75.55C372.851 74.5167 371.751 74 370.417 74C368.984 74 367.817 74.5167 366.917 75.55C366.051 76.55 365.617 77.85 365.617 79.45C365.617 81.05 366.051 82.3667 366.917 83.4C367.817 84.4 368.951 84.9 370.317 84.9ZM125.347 162.4C123.847 162.4 122.33 162.25 120.797 161.95C119.264 161.65 117.88 161.233 116.647 160.7L118.097 154.4C118.864 154.8 119.914 155.15 121.247 155.45C122.58 155.717 123.764 155.85 124.797 155.85C126.464 155.85 127.297 155.4 127.297 154.5C127.297 154.067 127.03 153.75 126.497 153.55C125.997 153.35 125.33 153.183 124.497 153.05C123.697 152.883 122.83 152.683 121.897 152.45C120.964 152.183 120.08 151.8 119.247 151.3C118.447 150.767 117.78 150.017 117.247 149.05C116.747 148.083 116.497 146.817 116.497 145.25C116.497 142.617 117.53 140.517 119.597 138.95C121.697 137.383 124.564 136.6 128.197 136.6C129.597 136.6 130.897 136.7 132.097 136.9C133.33 137.1 134.497 137.517 135.597 138.15L134.547 144.25C132.78 143.517 130.93 143.15 128.997 143.15C127.764 143.15 126.864 143.25 126.297 143.45C125.764 143.65 125.497 143.983 125.497 144.45C125.497 144.817 125.764 145.1 126.297 145.3C126.83 145.5 127.514 145.7 128.347 145.9C129.214 146.067 130.114 146.317 131.047 146.65C131.98 146.95 132.864 147.383 133.697 147.95C134.564 148.517 135.264 149.283 135.797 150.25C136.33 151.183 136.597 152.4 136.597 153.9C136.597 156.567 135.614 158.65 133.647 160.15C131.68 161.65 128.914 162.4 125.347 162.4ZM140.1 162V129.05L150.65 127.5V142.1C151.35 140.367 152.45 139.017 153.95 138.05C155.45 137.083 157.25 136.6 159.35 136.6C162.616 136.6 165.15 137.733 166.95 140C168.75 142.233 169.65 145.4 169.65 149.5V162H159.1V148.95C159.1 145.983 157.9 144.5 155.5 144.5C154.066 144.5 152.9 145.033 152 146.1C151.1 147.133 150.65 148.533 150.65 150.3V162H140.1ZM185.427 162.4C183.127 162.4 181.044 161.85 179.177 160.75C177.31 159.617 175.827 158.067 174.727 156.1C173.66 154.133 173.127 151.883 173.127 149.35C173.127 146.817 173.66 144.6 174.727 142.7C175.827 140.8 177.31 139.317 179.177 138.25C181.044 137.15 183.127 136.6 185.427 136.6C187.06 136.6 188.644 137.05 190.177 137.95C191.71 138.85 192.894 140.333 193.727 142.4V136.95H204.127V162H193.627V157.35C192.827 158.983 191.76 160.233 190.427 161.1C189.094 161.967 187.427 162.4 185.427 162.4ZM188.677 154.5C190.044 154.5 191.21 154.017 192.177 153.05C193.144 152.05 193.627 150.833 193.627 149.4C193.627 147.967 193.144 146.8 192.177 145.9C191.21 144.967 190.044 144.5 188.677 144.5C187.244 144.5 186.044 144.983 185.077 145.95C184.11 146.917 183.627 148.1 183.627 149.5C183.627 150.9 184.11 152.083 185.077 153.05C186.044 154.017 187.244 154.5 188.677 154.5ZM209.143 162V136.95H219.543V143.2C220.209 140.933 221.243 139.267 222.643 138.2C224.076 137.133 225.776 136.6 227.743 136.6L228.993 145.45C228.193 145.35 227.409 145.3 226.643 145.3C222.009 145.3 219.693 147.2 219.693 151V162H209.143ZM246.323 155.4C247.29 155.4 248.307 155.3 249.373 155.1C250.473 154.9 251.59 154.533 252.723 154L253.923 160.45C252.69 161.083 251.34 161.567 249.873 161.9C248.44 162.233 246.79 162.4 244.923 162.4C241.557 162.4 238.723 161.85 236.423 160.75C234.157 159.65 232.44 158.133 231.273 156.2C230.107 154.267 229.523 152.033 229.523 149.5C229.523 146.9 230.14 144.633 231.373 142.7C232.64 140.767 234.323 139.267 236.423 138.2C238.523 137.133 240.84 136.6 243.373 136.6C247.14 136.6 250.023 137.783 252.023 140.15C254.023 142.483 255.023 145.817 255.023 150.15L240.123 152.05C241.223 154.283 243.29 155.4 246.323 155.4ZM239.323 147.45L247.173 145.8C247.04 144.733 246.673 143.95 246.073 143.45C245.473 142.917 244.723 142.65 243.823 142.65C242.49 142.65 241.423 143.117 240.623 144.05C239.857 144.95 239.423 146.083 239.323 147.45ZM272.484 162L265.984 136.95H276.684L280.034 152.7L283.984 136.95H292.584L296.584 153.1L299.934 136.95H308.484L302.434 162H290.484L287.184 149.25L284.034 162H272.484ZM320.639 162.4C318.405 162.4 316.589 162 315.189 161.2C313.822 160.4 312.822 159.317 312.189 157.95C311.555 156.583 311.239 155.05 311.239 153.35V136.95H321.789V151.9C321.789 152.667 322.005 153.267 322.439 153.7C322.905 154.1 323.455 154.3 324.089 154.3C324.755 154.3 325.439 154.1 326.139 153.7L326.689 160.65C325.955 161.217 325.005 161.65 323.839 161.95C322.672 162.25 321.605 162.4 320.639 162.4ZM316.539 134.2C315.005 134.2 313.689 133.717 312.589 132.75C311.489 131.75 310.939 130.533 310.939 129.1C310.939 128.1 311.205 127.233 311.739 126.5C312.272 125.733 312.972 125.133 313.839 124.7C314.705 124.267 315.605 124.05 316.539 124.05C317.572 124.05 318.505 124.283 319.339 124.75C320.205 125.217 320.889 125.833 321.389 126.6C321.922 127.367 322.189 128.2 322.189 129.1C322.189 130.1 321.905 130.983 321.339 131.75C320.805 132.517 320.105 133.117 319.239 133.55C318.405 133.983 317.505 134.2 316.539 134.2ZM339.423 162.4C337.056 162.4 335.123 162 333.623 161.2C332.156 160.4 331.089 159.317 330.423 157.95C329.756 156.583 329.423 155.05 329.423 153.35V143.15H326.223V136.95H330.173L334.823 129.05H339.973V136.95H345.773V143.15H339.973V151.9C339.973 152.667 340.223 153.267 340.723 153.7C341.223 154.1 341.873 154.3 342.673 154.3C343.473 154.3 344.273 154.1 345.073 153.7L345.823 160.65C345.023 161.217 344.006 161.65 342.773 161.95C341.539 162.25 340.423 162.4 339.423 162.4ZM349.426 162V129.05L359.976 127.5V142.1C360.676 140.367 361.776 139.017 363.276 138.05C364.776 137.083 366.576 136.6 368.676 136.6C371.942 136.6 374.476 137.733 376.276 140C378.076 142.233 378.976 145.4 378.976 149.5V162H368.426V148.95C368.426 145.983 367.226 144.5 364.826 144.5C363.392 144.5 362.226 145.033 361.326 146.1C360.426 147.133 359.976 148.533 359.976 150.3V162H349.426ZM117.044 232V213.15H113.894V206.95H117.044V205.5C117.044 203.667 117.494 202.1 118.394 200.8C119.294 199.467 120.544 198.45 122.144 197.75C123.744 197.017 125.594 196.65 127.694 196.65C130.36 196.65 132.56 197.017 134.294 197.75L133.594 204.1C132.86 203.933 132.144 203.817 131.444 203.75C130.744 203.65 130.06 203.6 129.394 203.6C127.16 203.6 126.044 204.283 126.044 205.65C126.044 206.083 126.16 206.517 126.394 206.95H133.444V213.15H127.594V232H117.044ZM135.876 232V206.95H146.276V213.2C146.943 210.933 147.976 209.267 149.376 208.2C150.809 207.133 152.509 206.6 154.476 206.6L155.726 215.45C154.926 215.35 154.143 215.3 153.376 215.3C148.743 215.3 146.426 217.2 146.426 221V232H135.876ZM167.489 232.4C165.256 232.4 163.439 232 162.039 231.2C160.673 230.4 159.673 229.317 159.039 227.95C158.406 226.583 158.089 225.05 158.089 223.35V206.95H168.639V221.9C168.639 222.667 168.856 223.267 169.289 223.7C169.756 224.1 170.306 224.3 170.939 224.3C171.606 224.3 172.289 224.1 172.989 223.7L173.539 230.65C172.806 231.217 171.856 231.65 170.689 231.95C169.523 232.25 168.456 232.4 167.489 232.4ZM163.389 204.2C161.856 204.2 160.539 203.717 159.439 202.75C158.339 201.75 157.789 200.533 157.789 199.1C157.789 198.1 158.056 197.233 158.589 196.5C159.123 195.733 159.823 195.133 160.689 194.7C161.556 194.267 162.456 194.05 163.389 194.05C164.423 194.05 165.356 194.283 166.189 194.75C167.056 195.217 167.739 195.833 168.239 196.6C168.773 197.367 169.039 198.2 169.039 199.1C169.039 200.1 168.756 200.983 168.189 201.75C167.656 202.517 166.956 203.117 166.089 203.55C165.256 203.983 164.356 204.2 163.389 204.2ZM191.416 225.4C192.383 225.4 193.4 225.3 194.466 225.1C195.566 224.9 196.683 224.533 197.816 224L199.016 230.45C197.783 231.083 196.433 231.567 194.966 231.9C193.533 232.233 191.883 232.4 190.016 232.4C186.65 232.4 183.816 231.85 181.516 230.75C179.25 229.65 177.533 228.133 176.366 226.2C175.2 224.267 174.616 222.033 174.616 219.5C174.616 216.9 175.233 214.633 176.466 212.7C177.733 210.767 179.416 209.267 181.516 208.2C183.616 207.133 185.933 206.6 188.466 206.6C192.233 206.6 195.116 207.783 197.116 210.15C199.116 212.483 200.116 215.817 200.116 220.15L185.216 222.05C186.316 224.283 188.383 225.4 191.416 225.4ZM184.416 217.45L192.266 215.8C192.133 214.733 191.766 213.95 191.166 213.45C190.566 212.917 189.816 212.65 188.916 212.65C187.583 212.65 186.516 213.117 185.716 214.05C184.95 214.95 184.516 216.083 184.416 217.45ZM203.601 232V206.95H214.001V212.4C214.767 210.533 215.901 209.1 217.401 208.1C218.934 207.1 220.751 206.6 222.851 206.6C226.117 206.6 228.651 207.733 230.451 210C232.251 212.233 233.151 215.4 233.151 219.5V232H222.601V218.95C222.601 215.983 221.401 214.5 219.001 214.5C217.567 214.5 216.401 215.033 215.501 216.1C214.601 217.133 214.151 218.533 214.151 220.3V232H203.601ZM248.928 232.4C246.628 232.4 244.545 231.85 242.678 230.75C240.811 229.617 239.328 228.067 238.228 226.1C237.161 224.133 236.628 221.883 236.628 219.35C236.628 216.817 237.161 214.6 238.228 212.7C239.328 210.8 240.811 209.317 242.678 208.25C244.545 207.15 246.628 206.6 248.928 206.6C250.561 206.6 252.128 207.05 253.628 207.95C255.161 208.817 256.295 210.233 257.028 212.2V199.05L267.578 197.5V232H257.128V227.35C256.328 228.983 255.261 230.233 253.928 231.1C252.595 231.967 250.928 232.4 248.928 232.4ZM252.178 224.5C253.545 224.5 254.711 224.017 255.678 223.05C256.645 222.05 257.128 220.833 257.128 219.4C257.128 217.967 256.645 216.8 255.678 215.9C254.711 214.967 253.545 214.5 252.178 214.5C250.745 214.5 249.545 214.983 248.578 215.95C247.611 216.917 247.128 218.1 247.128 219.5C247.128 220.9 247.611 222.083 248.578 223.05C249.545 224.017 250.745 224.5 252.178 224.5ZM280.645 232.4C279.145 232.4 277.628 232.25 276.095 231.95C274.561 231.65 273.178 231.233 271.945 230.7L273.395 224.4C274.161 224.8 275.211 225.15 276.545 225.45C277.878 225.717 279.061 225.85 280.095 225.85C281.761 225.85 282.595 225.4 282.595 224.5C282.595 224.067 282.328 223.75 281.795 223.55C281.295 223.35 280.628 223.183 279.795 223.05C278.995 222.883 278.128 222.683 277.195 222.45C276.261 222.183 275.378 221.8 274.545 221.3C273.745 220.767 273.078 220.017 272.545 219.05C272.045 218.083 271.795 216.817 271.795 215.25C271.795 212.617 272.828 210.517 274.895 208.95C276.995 207.383 279.861 206.6 283.495 206.6C284.895 206.6 286.195 206.7 287.395 206.9C288.628 207.1 289.795 207.517 290.895 208.15L289.845 214.25C288.078 213.517 286.228 213.15 284.295 213.15C283.061 213.15 282.161 213.25 281.595 213.45C281.061 213.65 280.795 213.983 280.795 214.45C280.795 214.817 281.061 215.1 281.595 215.3C282.128 215.5 282.811 215.7 283.645 215.9C284.511 216.067 285.411 216.317 286.345 216.65C287.278 216.95 288.161 217.383 288.995 217.95C289.861 218.517 290.561 219.283 291.095 220.25C291.628 221.183 291.895 222.4 291.895 223.9C291.895 226.567 290.911 228.65 288.945 230.15C286.978 231.65 284.211 232.4 280.645 232.4ZM296.397 240.45L294.647 236.05C297.581 235.05 299.047 233.8 299.047 232.3C297.714 232.3 296.597 231.817 295.697 230.85C294.831 229.883 294.397 228.667 294.397 227.2C294.397 225.733 294.897 224.533 295.897 223.6C296.931 222.633 298.264 222.15 299.897 222.15C301.697 222.15 303.097 222.783 304.097 224.05C305.131 225.283 305.647 226.983 305.647 229.15C305.647 231.983 304.847 234.383 303.247 236.35C301.647 238.317 299.364 239.683 296.397 240.45ZM318.981 232V206.95H329.381V212.4C330.148 210.533 331.281 209.1 332.781 208.1C334.315 207.1 336.131 206.6 338.231 206.6C341.498 206.6 344.031 207.733 345.831 210C347.631 212.233 348.531 215.4 348.531 219.5V232H337.981V218.95C337.981 215.983 336.781 214.5 334.381 214.5C332.948 214.5 331.781 215.033 330.881 216.1C329.981 217.133 329.531 218.533 329.531 220.3V232H318.981ZM366.409 232.4C363.575 232.4 361.075 231.85 358.909 230.75C356.742 229.65 355.042 228.133 353.809 226.2C352.609 224.233 352.009 221.983 352.009 219.45C352.009 216.85 352.625 214.6 353.859 212.7C355.125 210.767 356.842 209.267 359.009 208.2C361.175 207.133 363.659 206.6 366.459 206.6C369.325 206.6 371.842 207.15 374.009 208.25C376.175 209.317 377.859 210.817 379.059 212.75C380.259 214.65 380.859 216.883 380.859 219.45C380.859 222.017 380.242 224.283 379.009 226.25C377.809 228.183 376.125 229.7 373.959 230.8C371.792 231.867 369.275 232.4 366.409 232.4ZM366.509 224.9C367.875 224.9 368.992 224.4 369.859 223.4C370.759 222.367 371.209 221.05 371.209 219.45C371.209 217.85 370.775 216.55 369.909 215.55C369.042 214.517 367.942 214 366.609 214C365.175 214 364.009 214.517 363.109 215.55C362.242 216.55 361.809 217.85 361.809 219.45C361.809 221.05 362.242 222.367 363.109 223.4C364.009 224.4 365.142 224.9 366.509 224.9ZM77.4531 302V269.05L88.0031 267.5V282.1C88.7031 280.367 89.8031 279.017 91.3031 278.05C92.8031 277.083 94.6031 276.6 96.7031 276.6C99.9698 276.6 102.503 277.733 104.303 280C106.103 282.233 107.003 285.4 107.003 289.5V302H96.4531V288.95C96.4531 285.983 95.2531 284.5 92.8531 284.5C91.4198 284.5 90.2531 285.033 89.3531 286.1C88.4531 287.133 88.0031 288.533 88.0031 290.3V302H77.4531ZM122.78 302.4C120.48 302.4 118.397 301.85 116.53 300.75C114.664 299.617 113.18 298.067 112.08 296.1C111.014 294.133 110.48 291.883 110.48 289.35C110.48 286.817 111.014 284.6 112.08 282.7C113.18 280.8 114.664 279.317 116.53 278.25C118.397 277.15 120.48 276.6 122.78 276.6C124.414 276.6 125.997 277.05 127.53 277.95C129.064 278.85 130.247 280.333 131.08 282.4V276.95H141.48V302H130.98V297.35C130.18 298.983 129.114 300.233 127.78 301.1C126.447 301.967 124.78 302.4 122.78 302.4ZM126.03 294.5C127.397 294.5 128.564 294.017 129.53 293.05C130.497 292.05 130.98 290.833 130.98 289.4C130.98 287.967 130.497 286.8 129.53 285.9C128.564 284.967 127.397 284.5 126.03 284.5C124.597 284.5 123.397 284.983 122.43 285.95C121.464 286.917 120.98 288.1 120.98 289.5C120.98 290.9 121.464 292.083 122.43 293.05C123.397 294.017 124.597 294.5 126.03 294.5ZM154.546 302.4C153.046 302.4 151.529 302.25 149.996 301.95C148.463 301.65 147.079 301.233 145.846 300.7L147.296 294.4C148.063 294.8 149.113 295.15 150.446 295.45C151.779 295.717 152.963 295.85 153.996 295.85C155.663 295.85 156.496 295.4 156.496 294.5C156.496 294.067 156.229 293.75 155.696 293.55C155.196 293.35 154.529 293.183 153.696 293.05C152.896 292.883 152.029 292.683 151.096 292.45C150.163 292.183 149.279 291.8 148.446 291.3C147.646 290.767 146.979 290.017 146.446 289.05C145.946 288.083 145.696 286.817 145.696 285.25C145.696 282.617 146.729 280.517 148.796 278.95C150.896 277.383 153.763 276.6 157.396 276.6C158.796 276.6 160.096 276.7 161.296 276.9C162.529 277.1 163.696 277.517 164.796 278.15L163.746 284.25C161.979 283.517 160.129 283.15 158.196 283.15C156.963 283.15 156.063 283.25 155.496 283.45C154.963 283.65 154.696 283.983 154.696 284.45C154.696 284.817 154.963 285.1 155.496 285.3C156.029 285.5 156.713 285.7 157.546 285.9C158.413 286.067 159.313 286.317 160.246 286.65C161.179 286.95 162.063 287.383 162.896 287.95C163.763 288.517 164.463 289.283 164.996 290.25C165.529 291.183 165.796 292.4 165.796 293.9C165.796 296.567 164.813 298.65 162.846 300.15C160.879 301.65 158.113 302.4 154.546 302.4ZM177.349 302.4C175.849 302.4 174.332 302.25 172.799 301.95C171.265 301.65 169.882 301.233 168.649 300.7L170.099 294.4C170.865 294.8 171.915 295.15 173.249 295.45C174.582 295.717 175.765 295.85 176.799 295.85C178.465 295.85 179.299 295.4 179.299 294.5C179.299 294.067 179.032 293.75 178.499 293.55C177.999 293.35 177.332 293.183 176.499 293.05C175.699 292.883 174.832 292.683 173.899 292.45C172.965 292.183 172.082 291.8 171.249 291.3C170.449 290.767 169.782 290.017 169.249 289.05C168.749 288.083 168.499 286.817 168.499 285.25C168.499 282.617 169.532 280.517 171.599 278.95C173.699 277.383 176.565 276.6 180.199 276.6C181.599 276.6 182.899 276.7 184.099 276.9C185.332 277.1 186.499 277.517 187.599 278.15L186.549 284.25C184.782 283.517 182.932 283.15 180.999 283.15C179.765 283.15 178.865 283.25 178.299 283.45C177.765 283.65 177.499 283.983 177.499 284.45C177.499 284.817 177.765 285.1 178.299 285.3C178.832 285.5 179.515 285.7 180.349 285.9C181.215 286.067 182.115 286.317 183.049 286.65C183.982 286.95 184.865 287.383 185.699 287.95C186.565 288.517 187.265 289.283 187.799 290.25C188.332 291.183 188.599 292.4 188.599 293.9C188.599 296.567 187.615 298.65 185.649 300.15C183.682 301.65 180.915 302.4 177.349 302.4ZM201.952 302.4C199.585 302.4 197.652 302 196.152 301.2C194.685 300.4 193.618 299.317 192.952 297.95C192.285 296.583 191.952 295.05 191.952 293.35V268.05L202.502 266.5V291.9C202.502 292.667 202.752 293.267 203.252 293.7C203.752 294.1 204.402 294.3 205.202 294.3C206.002 294.3 206.802 294.1 207.602 293.7L208.352 300.65C207.552 301.217 206.535 301.65 205.302 301.95C204.068 302.25 202.952 302.4 201.952 302.4ZM226.157 295.4C227.124 295.4 228.141 295.3 229.207 295.1C230.307 294.9 231.424 294.533 232.557 294L233.757 300.45C232.524 301.083 231.174 301.567 229.707 301.9C228.274 302.233 226.624 302.4 224.757 302.4C221.391 302.4 218.557 301.85 216.257 300.75C213.991 299.65 212.274 298.133 211.107 296.2C209.941 294.267 209.357 292.033 209.357 289.5C209.357 286.9 209.974 284.633 211.207 282.7C212.474 280.767 214.157 279.267 216.257 278.2C218.357 277.133 220.674 276.6 223.207 276.6C226.974 276.6 229.857 277.783 231.857 280.15C233.857 282.483 234.857 285.817 234.857 290.15L219.957 292.05C221.057 294.283 223.124 295.4 226.157 295.4ZM219.157 287.45L227.007 285.8C226.874 284.733 226.507 283.95 225.907 283.45C225.307 282.917 224.557 282.65 223.657 282.65C222.324 282.65 221.257 283.117 220.457 284.05C219.691 284.95 219.257 286.083 219.157 287.45ZM258.718 302.4C256.418 302.4 254.335 301.85 252.468 300.75C250.601 299.617 249.118 298.067 248.018 296.1C246.951 294.133 246.418 291.883 246.418 289.35C246.418 286.817 246.951 284.6 248.018 282.7C249.118 280.8 250.601 279.317 252.468 278.25C254.335 277.15 256.418 276.6 258.718 276.6C260.351 276.6 261.935 277.05 263.468 277.95C265.001 278.85 266.185 280.333 267.018 282.4V276.95H277.418V302H266.918V297.35C266.118 298.983 265.051 300.233 263.718 301.1C262.385 301.967 260.718 302.4 258.718 302.4ZM261.968 294.5C263.335 294.5 264.501 294.017 265.468 293.05C266.435 292.05 266.918 290.833 266.918 289.4C266.918 287.967 266.435 286.8 265.468 285.9C264.501 284.967 263.335 284.5 261.968 284.5C260.535 284.5 259.335 284.983 258.368 285.95C257.401 286.917 256.918 288.1 256.918 289.5C256.918 290.9 257.401 292.083 258.368 293.05C259.335 294.017 260.535 294.5 261.968 294.5ZM293.134 302.4C290.767 302.4 288.834 302 287.334 301.2C285.867 300.4 284.8 299.317 284.134 297.95C283.467 296.583 283.134 295.05 283.134 293.35V283.15H279.934V276.95H283.884L288.534 269.05H293.684V276.95H299.484V283.15H293.684V291.9C293.684 292.667 293.934 293.267 294.434 293.7C294.934 294.1 295.584 294.3 296.384 294.3C297.184 294.3 297.984 294.1 298.784 293.7L299.534 300.65C298.734 301.217 297.717 301.65 296.484 301.95C295.25 302.25 294.134 302.4 293.134 302.4ZM323.513 302.4C321.213 302.4 319.13 301.85 317.263 300.75C315.396 299.617 313.913 298.067 312.813 296.1C311.746 294.133 311.213 291.883 311.213 289.35C311.213 286.817 311.746 284.6 312.813 282.7C313.913 280.8 315.396 279.317 317.263 278.25C319.13 277.15 321.213 276.6 323.513 276.6C325.146 276.6 326.73 277.05 328.263 277.95C329.796 278.85 330.98 280.333 331.813 282.4V276.95H342.213V302H331.713V297.35C330.913 298.983 329.846 300.233 328.513 301.1C327.18 301.967 325.513 302.4 323.513 302.4ZM326.763 294.5C328.13 294.5 329.296 294.017 330.263 293.05C331.23 292.05 331.713 290.833 331.713 289.4C331.713 287.967 331.23 286.8 330.263 285.9C329.296 284.967 328.13 284.5 326.763 284.5C325.33 284.5 324.13 284.983 323.163 285.95C322.196 286.917 321.713 288.1 321.713 289.5C321.713 290.9 322.196 292.083 323.163 293.05C324.13 294.017 325.33 294.5 326.763 294.5ZM357.079 302.4C354.712 302.4 352.779 302 351.279 301.2C349.812 300.4 348.745 299.317 348.079 297.95C347.412 296.583 347.079 295.05 347.079 293.35V268.05L357.629 266.5V291.9C357.629 292.667 357.879 293.267 358.379 293.7C358.879 294.1 359.529 294.3 360.329 294.3C361.129 294.3 361.929 294.1 362.729 293.7L363.479 300.65C362.679 301.217 361.662 301.65 360.429 301.95C359.195 302.25 358.079 302.4 357.079 302.4ZM375.829 302.4C373.462 302.4 371.529 302 370.029 301.2C368.562 300.4 367.495 299.317 366.829 297.95C366.162 296.583 365.829 295.05 365.829 293.35V268.05L376.379 266.5V291.9C376.379 292.667 376.629 293.267 377.129 293.7C377.629 294.1 378.279 294.3 379.079 294.3C379.879 294.3 380.679 294.1 381.479 293.7L382.229 300.65C381.429 301.217 380.412 301.65 379.179 301.95C377.945 302.25 376.829 302.4 375.829 302.4ZM390.648 302.3C388.815 302.3 387.415 301.817 386.448 300.85C385.481 299.85 384.998 298.633 384.998 297.2C384.998 295.733 385.515 294.533 386.548 293.6C387.581 292.633 388.948 292.15 390.648 292.15C392.348 292.15 393.698 292.65 394.698 293.65C395.731 294.65 396.248 295.833 396.248 297.2C396.248 298.733 395.765 299.967 394.798 300.9C393.865 301.833 392.481 302.3 390.648 302.3ZM397.301 285.4L395.551 281C398.484 280 399.951 278.75 399.951 277.25C398.617 277.25 397.501 276.767 396.601 275.8C395.734 274.833 395.301 273.617 395.301 272.15C395.301 270.683 395.801 269.483 396.801 268.55C397.834 267.583 399.167 267.1 400.801 267.1C402.601 267.1 404.001 267.733 405.001 269C406.034 270.233 406.551 271.933 406.551 274.1C406.551 276.933 405.751 279.333 404.151 281.3C402.551 283.267 400.267 284.633 397.301 285.4ZM410.301 285.4L408.551 281C411.484 280 412.951 278.75 412.951 277.25C411.617 277.25 410.501 276.767 409.601 275.8C408.734 274.833 408.301 273.617 408.301 272.15C408.301 270.683 408.801 269.483 409.801 268.55C410.834 267.583 412.167 267.1 413.801 267.1C415.601 267.1 417.001 267.733 418.001 269C419.034 270.233 419.551 271.933 419.551 274.1C419.551 276.933 418.751 279.333 417.151 281.3C415.551 283.267 413.267 284.633 410.301 285.4Z" fill="black"/>
</svg>
