<svg width="74" height="21" viewBox="0 0 74 21" fill="none" xmlns="http://www.w3.org/2000/svg">
<path d="M-0.000390522 20.6401V0.000136018H5.99961L14.0996 10.9501V0.000136018H19.6196V20.6401H13.6196L5.51961 10.1401V20.6401H-0.000390522ZM22.9098 20.6401V0.000136018H37.3998V4.56014H30.1998V8.22014H36.7698V12.0001H30.1998V15.9301H37.3998V20.6401H22.9098ZM38.457 20.6401L44.187 10.3801L38.637 0.000136018H45.447L47.877 5.52014L50.307 0.000136018H57.237L51.657 10.3801L57.417 20.6401H50.487L47.877 15.2101L45.267 20.6401H38.457ZM61.4232 20.6401V4.74014H56.7732V0.000136018H73.0632V4.74014H68.4132V20.6401H61.4232Z" fill="white"/>
</svg>
