<svg width="68" height="22" viewBox="0 0 68 22" fill="none" xmlns="http://www.w3.org/2000/svg">
<path d="M7.1707 21.5698C5.9107 21.5698 4.6307 21.4098 3.3307 21.0898C2.0307 20.7898 0.930703 20.3798 0.0307031 19.8598L1.1107 14.9698C2.2707 15.5898 3.3507 15.9998 4.3507 16.1998C5.3707 16.3798 6.3107 16.4698 7.1707 16.4698C7.9707 16.4698 8.5707 16.3398 8.9707 16.0798C9.3907 15.8198 9.6007 15.4698 9.6007 15.0298C9.6007 14.6298 9.3707 14.3198 8.9107 14.0998C8.4507 13.8598 7.8507 13.6398 7.1107 13.4398C6.3907 13.2398 5.6207 13.0098 4.8007 12.7498C3.9807 12.4698 3.2007 12.1098 2.4607 11.6698C1.7407 11.2098 1.1507 10.6098 0.690703 9.86984C0.230703 9.10984 0.000703141 8.15984 0.000703141 7.01984C0.000703141 5.57984 0.350703 4.33984 1.0507 3.29984C1.7507 2.23984 2.7507 1.42984 4.0507 0.869843C5.3507 0.289843 6.8807 -0.000156522 8.6407 -0.000156522C9.8207 -0.000156522 10.9707 0.159843 12.0907 0.479843C13.2307 0.779842 14.1407 1.18984 14.8207 1.70984L13.8007 6.11984C12.7807 5.69984 11.8607 5.39984 11.0407 5.21984C10.2407 5.01984 9.4807 4.91984 8.7607 4.91984C7.9207 4.91984 7.2807 5.03984 6.8407 5.27984C6.4007 5.51984 6.1807 5.83984 6.1807 6.23984C6.1807 6.61984 6.4107 6.92984 6.8707 7.16984C7.3307 7.40984 7.9207 7.63984 8.6407 7.85984C9.3607 8.07984 10.1307 8.32984 10.9507 8.60984C11.7707 8.88984 12.5407 9.25984 13.2607 9.71984C13.9807 10.1798 14.5707 10.7798 15.0307 11.5198C15.4907 12.2598 15.7207 13.1898 15.7207 14.3098C15.7207 16.6298 14.9607 18.4198 13.4407 19.6798C11.9407 20.9398 9.8507 21.5698 7.1707 21.5698ZM17.775 21.0898V0.449843H24.735V8.66984H26.865L30.885 0.449843H38.385L32.925 10.6798L39.135 21.0898H31.215L26.775 13.1398H24.735V21.0898H17.775ZM40.0406 21.0898V0.449843H46.8206V21.0898H40.0406ZM50.1188 21.0898V0.419843H57.1088C60.5088 0.419843 63.0688 0.979843 64.7888 2.09984C66.5288 3.19984 67.3988 4.82984 67.3988 6.98984C67.3988 8.48984 67.0188 9.76984 66.2588 10.8298C65.5188 11.8698 64.4688 12.6698 63.1088 13.2298C61.7488 13.7698 60.1488 14.0398 58.3088 14.0398H56.7488V21.0898H50.1188ZM58.0388 9.86984C59.0988 9.86984 59.9188 9.64984 60.4988 9.20984C61.0788 8.76984 61.3688 8.10984 61.3688 7.22984C61.3688 6.40984 61.0888 5.79984 60.5288 5.39984C59.9688 4.97984 59.1588 4.76984 58.0988 4.76984H56.7488V9.86984H58.0388Z" fill="white"/>
</svg>
