<svg width="1001" height="159" viewBox="0 0 1001 159" fill="none" xmlns="http://www.w3.org/2000/svg">
<g filter="url(#filter0_d_14_509)">
<path d="M4.00031 3.0082H40.8003L45.3443 7.5522V25.4722H36.7043L39.5843 28.3522V36.0322H30.9443V56.8322H8.54431L4.00031 52.2882V3.0082ZM6.88031 5.8882V49.4082H23.5203V28.6082H32.1603V26.6882H23.5203V18.0482H37.9203V5.8882H6.88031ZM38.5038 30.9762L37.4158 29.8882L37.3518 26.4962C37.3518 15.8722 49.5118 12.8002 58.1518 12.8002C64.9998 12.8002 71.3998 14.4002 75.5598 18.5602L80.0398 23.1042C83.1118 26.1122 84.9678 30.5282 84.9678 36.6722V56.8322H66.4078L63.1438 53.5042C60.5838 55.8082 57.2558 57.2802 53.0958 57.2802C49.1918 57.2802 45.7358 55.8722 43.2398 53.3762L38.6958 48.8322C36.4558 46.5922 35.0478 43.3922 35.0478 39.6162C35.0478 35.9042 36.3918 33.0882 38.5038 30.9762ZM77.5438 49.4082V32.1282C77.5438 20.0962 69.5438 15.6802 58.1518 15.6802C48.2318 15.6802 39.7838 19.3922 40.2318 27.0082H56.5518C56.4238 25.6642 57.2558 24.6402 58.9198 24.6402C60.5198 24.6402 61.5438 25.6002 61.5438 29.1842V32.3202H61.2238C59.4318 30.6562 56.1038 29.2482 51.3038 29.2482C43.4958 29.2482 37.9278 33.2802 37.9278 39.6162C37.9278 44.8642 41.6398 49.8562 48.5518 49.8562C56.6158 49.8562 59.8798 43.3922 61.2238 39.6162H61.5438L64.1038 49.4082H77.5438ZM53.9278 38.6562C53.9278 34.4322 56.0398 33.0882 58.2798 33.0882C60.0078 33.0882 61.5438 33.9202 61.5438 35.7762C61.5438 38.3362 58.6638 42.5602 56.2318 42.5602C54.7598 42.5602 53.9278 41.2162 53.9278 38.6562ZM75.4433 13.2482H98.2273L99.3153 14.3362L99.6353 13.2482H122.419L126.963 17.7922L113.523 56.8322H93.4273L88.8833 52.2882L75.4433 13.2482ZM101.747 16.1282L101.299 17.6002C100.083 21.5682 99.2513 28.1602 99.1233 35.5202H98.7393C98.6113 28.1602 97.7793 21.5682 96.5633 17.6002L96.1153 16.1282H79.4753L90.9313 49.4082H106.931L118.387 16.1282H101.747ZM130.255 0.000202179C132.623 0.000202179 136.975 0.640202 139.535 3.2642L144.079 7.8082C145.423 9.0882 146.319 10.9442 146.319 13.4402C146.319 15.0402 145.935 16.3202 145.359 17.4722L145.679 17.7922V56.8322H123.919L119.375 52.2882V13.2482H119.887C119.183 12.0962 118.735 10.6242 118.735 8.8962C118.735 2.6242 124.687 0.000202179 130.255 0.000202179ZM121.615 8.8962C121.615 12.5442 125.071 15.0402 130.255 15.0402C135.439 15.0402 138.895 12.5442 138.895 8.8962C138.895 5.2482 135.439 2.8802 130.255 2.8802C125.071 2.8802 121.615 5.2482 121.615 8.8962ZM122.255 16.1282V49.4082H138.255V16.1282H122.255ZM197.317 18.8802L201.861 23.4242C204.677 26.2402 206.533 30.1442 206.789 35.4562L207.365 36.0322L207.173 39.1042C206.085 51.4562 195.781 57.2802 184.133 57.2802C177.477 57.2802 170.693 55.2322 166.213 50.7522L161.733 46.2082C158.533 43.0082 156.485 38.5922 156.485 32.7682C156.485 19.5842 167.301 12.8002 179.589 12.8002C186.309 12.8002 192.965 14.5282 197.317 18.8802ZM199.749 34.3682H183.429C183.173 36.8002 181.573 37.8882 179.717 37.8882C177.157 37.8882 175.493 35.7762 175.493 32.6402C175.493 29.6322 177.157 27.6482 179.589 27.6482C181.573 27.6482 182.981 28.9282 183.557 31.6802H199.429C199.109 20.8642 191.301 15.6802 179.589 15.6802C167.237 15.6802 159.365 22.4642 159.365 32.7682C159.365 43.0722 167.301 49.8562 179.589 49.8562C191.045 49.8562 198.981 44.0322 199.749 34.3682ZM224.095 12.8002C230.751 12.8002 237.727 14.8482 242.335 19.4562L246.815 24.0002C250.015 27.1362 252.063 31.5522 252.063 37.3122C252.063 50.5602 240.863 57.2802 228.639 57.2802C221.983 57.2802 215.071 55.1682 210.463 50.6242L205.983 46.0802C202.783 42.8802 200.735 38.5282 200.735 32.7682C200.735 19.5202 211.807 12.8002 224.095 12.8002ZM203.615 32.7682C203.615 43.0722 211.807 49.8562 224.095 49.8562C236.447 49.8562 244.639 43.0722 244.639 32.7682C244.639 22.4642 236.447 15.6802 224.095 15.6802C211.807 15.6802 203.615 22.4642 203.615 32.7682ZM219.743 32.7682C219.743 29.6962 221.407 27.6482 224.095 27.6482C226.847 27.6482 228.511 29.6962 228.511 32.7682C228.511 35.8402 226.847 37.8882 224.095 37.8882C221.407 37.8882 219.743 35.8402 219.743 32.7682ZM245.61 13.2482H267.37L269.674 15.5522C271.722 13.8882 274.282 12.8002 277.61 12.8002C281.386 12.8002 284.01 14.0162 285.93 15.9362L290.474 20.4802C293.866 23.8722 294.762 29.4402 294.762 33.6642V56.8322H273.002L271.786 55.6162L271.658 56.8322H250.154L245.61 52.2882V13.2482ZM248.49 16.1282V49.4082H264.49C265.642 36.9282 267.306 26.8802 269.93 26.8802C270.89 26.8802 271.338 28.4162 271.338 31.6162V49.4082H287.338V29.1202C287.338 18.6882 282.538 15.6802 277.61 15.6802C267.37 15.6802 266.026 28.2882 264.81 38.3362H264.49V16.1282H248.49ZM288.298 13.2482H310.058L312.362 15.5522C314.41 13.8882 316.97 12.8002 320.298 12.8002C324.074 12.8002 326.698 14.0162 328.618 15.9362L333.162 20.4802C336.554 23.8722 337.45 29.4402 337.45 33.6642V56.8322H315.69L314.474 55.6162L314.346 56.8322H292.842L288.298 52.2882V13.2482ZM291.178 16.1282V49.4082H307.178C308.33 36.9282 309.994 26.8802 312.618 26.8802C313.578 26.8802 314.026 28.4162 314.026 31.6162V49.4082H330.026V29.1202C330.026 18.6882 325.226 15.6802 320.298 15.6802C310.058 15.6802 308.714 28.2882 307.498 38.3362H307.178V16.1282H291.178ZM371.433 19.0722L375.977 23.5522C378.729 26.3042 380.521 29.9522 380.713 34.8162L381.865 36.0322L381.673 39.1042C380.585 51.4562 370.281 57.2802 358.633 57.2802C351.977 57.2802 345.193 55.2322 340.713 50.7522L336.233 46.2082C333.033 43.0082 330.985 38.5922 330.985 32.7682C330.985 19.5842 341.737 12.8002 354.025 12.8002C360.169 12.8002 367.017 14.5922 371.433 19.0722ZM374.249 34.3682H357.929C357.673 36.8002 356.073 37.8882 354.217 37.8882C351.657 37.8882 349.993 35.7762 349.993 32.6402C349.993 32.3202 349.993 32.0002 350.057 31.6802H373.289C373.609 21.8242 365.801 15.6802 354.025 15.6802C341.737 15.6802 333.865 22.4642 333.865 32.7682C333.865 43.0722 341.801 49.8562 354.089 49.8562C365.545 49.8562 373.481 44.0322 374.249 34.3682ZM357.417 30.0802L350.185 31.0402C350.697 28.9922 352.105 27.6482 354.217 27.6482C356.009 27.6482 357.353 28.6082 357.417 30.0802ZM416.067 18.8802L420.611 23.4242C423.427 26.2402 425.283 30.1442 425.539 35.4562L426.115 36.0322L425.923 39.1042C424.835 51.4562 414.531 57.2802 402.883 57.2802C396.227 57.2802 389.443 55.2322 384.963 50.7522L380.483 46.2082C377.283 43.0082 375.235 38.5922 375.235 32.7682C375.235 19.5842 386.051 12.8002 398.339 12.8002C405.059 12.8002 411.715 14.5282 416.067 18.8802ZM418.499 34.3682H402.179C401.923 36.8002 400.323 37.8882 398.467 37.8882C395.907 37.8882 394.243 35.7762 394.243 32.6402C394.243 29.6322 395.907 27.6482 398.339 27.6482C400.323 27.6482 401.731 28.9282 402.307 31.6802H418.179C417.859 20.8642 410.051 15.6802 398.339 15.6802C385.987 15.6802 378.115 22.4642 378.115 32.7682C378.115 43.0722 386.051 49.8562 398.339 49.8562C409.795 49.8562 417.731 44.0322 418.499 34.3682ZM421.405 33.4082V32.7682L419.485 30.8482V13.9522L421.533 13.3762C423.133 12.9282 423.965 11.7122 423.965 9.1522V6.2722H443.165L447.709 10.8162V13.6962C447.709 13.9522 447.709 14.2722 447.645 14.5282L450.909 17.7922V35.3922H447.709V35.6482H460.253L464.733 40.1922L464.413 43.3282C463.453 53.1202 455.453 57.2802 446.237 57.2802C439.901 57.2802 434.589 55.4882 431.005 51.8402L426.461 47.3602C423.261 44.0962 421.405 39.4882 421.405 33.4082ZM440.285 9.1522H426.845C426.845 12.4802 425.629 15.1682 422.365 16.1282V27.9682H424.285V33.4082C424.285 45.4402 432.221 49.8562 441.693 49.8562C450.205 49.8562 456.285 46.1442 457.053 38.5282H444.445C444.317 39.9362 443.549 41.0242 442.269 41.0242C441.053 41.0242 440.285 40.0642 440.285 37.9522V27.9682H443.485V16.1282H434.845V15.8082C439.069 15.4882 440.285 12.6722 440.285 9.1522ZM457.04 36.3522L456.72 33.2162H461.904L460.56 31.8722C458.96 30.2722 457.872 28.0962 457.872 25.2802C457.872 15.2962 469.904 12.8002 477.84 12.8002C484.944 12.8002 492.816 14.5922 498 19.7122L502.48 24.2562C504.912 26.6882 506.64 29.8882 506.64 33.9842V36.8642H503.76L505.104 38.1442C506.64 39.7442 507.728 41.8562 507.728 44.6082C507.728 54.7202 494.864 57.2802 486.992 57.2802C479.632 57.2802 471.312 55.2962 465.936 49.9842L461.456 45.4402C459.088 43.1362 457.424 40.1282 457.04 36.3522ZM476.24 36.0962H459.92C460.688 44.0322 469.776 49.8562 482.448 49.8562C492.24 49.8562 500.304 46.5282 500.304 40.0642C500.304 28.9282 476.688 33.4082 476.688 28.3522C476.688 27.5202 477.328 26.6242 479.056 26.6242C481.616 26.6242 482.96 28.5442 482.896 29.4402H499.216C499.216 21.5042 490.448 15.6802 477.84 15.6802C467.984 15.6802 460.752 19.0082 460.752 25.2802C460.752 36.6082 484.176 32.1282 484.176 37.0562C484.176 38.1442 482.896 38.9122 481.168 38.9122C478.48 38.9122 476.304 36.9922 476.24 36.0962ZM519.53 33.4082V32.7682L517.61 30.8482V13.9522L519.658 13.3762C521.258 12.9282 522.09 11.7122 522.09 9.1522V6.2722H541.29L545.834 10.8162V13.6962C545.834 13.9522 545.834 14.2722 545.77 14.5282L549.034 17.7922V35.3922H545.834V35.6482H558.378L562.858 40.1922L562.538 43.3282C561.578 53.1202 553.578 57.2802 544.362 57.2802C538.026 57.2802 532.714 55.4882 529.13 51.8402L524.586 47.3602C521.386 44.0962 519.53 39.4882 519.53 33.4082ZM538.41 9.1522H524.97C524.97 12.4802 523.754 15.1682 520.49 16.1282V27.9682H522.41V33.4082C522.41 45.4402 530.346 49.8562 539.818 49.8562C548.33 49.8562 554.41 46.1442 555.178 38.5282H542.57C542.442 39.9362 541.674 41.0242 540.394 41.0242C539.178 41.0242 538.41 40.0642 538.41 37.9522V27.9682H541.61V16.1282H532.97V15.8082C537.194 15.4882 538.41 12.6722 538.41 9.1522ZM555.485 1.7282H577.245L581.789 6.2722V14.0802C583.389 13.3122 585.245 12.8002 587.485 12.8002C591.261 12.8002 593.885 14.0162 595.805 15.9362L600.349 20.4802C603.741 23.8722 604.637 29.4402 604.637 33.6642V56.8322H582.877L581.661 55.6162L581.533 56.8322H560.029L555.485 52.2882V1.7282ZM558.365 4.6082V49.4082H574.365C575.517 36.9282 577.181 26.8802 579.805 26.8802C580.765 26.8802 581.213 28.4162 581.213 31.6162V49.4082H597.213V29.1202C597.213 18.6882 592.413 15.6802 587.485 15.6802C577.245 15.6802 575.901 28.2882 574.685 38.3362H574.365V4.6082H558.365ZM621.533 12.8002C628.189 12.8002 635.165 14.8482 639.773 19.4562L644.253 24.0002C647.453 27.1362 649.501 31.5522 649.501 37.3122C649.501 50.5602 638.301 57.2802 626.077 57.2802C619.421 57.2802 612.509 55.1682 607.901 50.6242L603.421 46.0802C600.221 42.8802 598.173 38.5282 598.173 32.7682C598.173 19.5202 609.245 12.8002 621.533 12.8002ZM601.053 32.7682C601.053 43.0722 609.245 49.8562 621.533 49.8562C633.885 49.8562 642.077 43.0722 642.077 32.7682C642.077 22.4642 633.885 15.6802 621.533 15.6802C609.245 15.6802 601.053 22.4642 601.053 32.7682ZM617.181 32.7682C617.181 29.6962 618.845 27.6482 621.533 27.6482C624.285 27.6482 625.949 29.6962 625.949 32.7682C625.949 35.8402 624.285 37.8882 621.533 37.8882C618.845 37.8882 617.181 35.8402 617.181 32.7682ZM666.152 13.2482H687.656L692.2 17.7922V56.8322H670.44L668.072 54.4642C666.088 56.1922 663.528 57.2802 660.2 57.2802C656.424 57.2802 653.736 56.0002 651.88 54.1442L647.336 49.6002C643.944 46.1442 643.048 40.6402 643.048 36.4162V13.2482H664.808L666.024 14.4642L666.152 13.2482ZM684.776 49.4082V16.1282H668.776C667.624 28.6082 665.96 38.6562 663.336 38.6562C662.376 38.6562 661.928 37.1202 661.928 33.9202V16.1282H645.928V36.4162C645.928 46.8482 650.728 49.8562 655.656 49.8562C665.896 49.8562 667.24 37.2482 668.456 27.2002H668.776V49.4082H684.776ZM685.415 36.3522L685.095 33.2162H690.279L688.935 31.8722C687.335 30.2722 686.247 28.0962 686.247 25.2802C686.247 15.2962 698.279 12.8002 706.215 12.8002C713.319 12.8002 721.191 14.5922 726.375 19.7122L730.855 24.2562C733.287 26.6882 735.015 29.8882 735.015 33.9842V36.8642H732.135L733.479 38.1442C735.015 39.7442 736.103 41.8562 736.103 44.6082C736.103 54.7202 723.239 57.2802 715.367 57.2802C708.007 57.2802 699.687 55.2962 694.311 49.9842L689.831 45.4402C687.463 43.1362 685.799 40.1282 685.415 36.3522ZM704.615 36.0962H688.295C689.063 44.0322 698.151 49.8562 710.823 49.8562C720.615 49.8562 728.679 46.5282 728.679 40.0642C728.679 28.9282 705.063 33.4082 705.063 28.3522C705.063 27.5202 705.703 26.6242 707.431 26.6242C709.991 26.6242 711.335 28.5442 711.271 29.4402H727.591C727.591 21.5042 718.823 15.6802 706.215 15.6802C696.359 15.6802 689.127 19.0082 689.127 25.2802C689.127 36.6082 712.551 32.1282 712.551 37.0562C712.551 38.1442 711.271 38.9122 709.543 38.9122C706.855 38.9122 704.679 36.9922 704.615 36.0962ZM732.816 30.9762L731.728 29.8882L731.664 26.4962C731.664 15.8722 743.824 12.8002 752.464 12.8002C759.312 12.8002 765.712 14.4002 769.872 18.5602L774.352 23.1042C777.424 26.1122 779.28 30.5282 779.28 36.6722V56.8322H760.72L757.456 53.5042C754.896 55.8082 751.568 57.2802 747.408 57.2802C743.504 57.2802 740.048 55.8722 737.552 53.3762L733.008 48.8322C730.768 46.5922 729.36 43.3922 729.36 39.6162C729.36 35.9042 730.704 33.0882 732.816 30.9762ZM771.856 49.4082V32.1282C771.856 20.0962 763.856 15.6802 752.464 15.6802C742.544 15.6802 734.096 19.3922 734.544 27.0082H750.864C750.736 25.6642 751.568 24.6402 753.232 24.6402C754.832 24.6402 755.856 25.6002 755.856 29.1842V32.3202H755.536C753.744 30.6562 750.416 29.2482 745.616 29.2482C737.808 29.2482 732.24 33.2802 732.24 39.6162C732.24 44.8642 735.952 49.8562 742.864 49.8562C750.928 49.8562 754.192 43.3922 755.536 39.6162H755.856L758.416 49.4082H771.856ZM748.24 38.6562C748.24 34.4322 750.352 33.0882 752.592 33.0882C754.32 33.0882 755.856 33.9202 755.856 35.7762C755.856 38.3362 752.976 42.5602 750.544 42.5602C749.072 42.5602 748.24 41.2162 748.24 38.6562ZM772.798 13.2482H794.558L796.862 15.5522C798.91 13.8882 801.47 12.8002 804.798 12.8002C808.574 12.8002 811.198 14.0162 813.118 15.9362L817.662 20.4802C821.054 23.8722 821.95 29.4402 821.95 33.6642V56.8322H800.19L798.974 55.6162L798.846 56.8322H777.342L772.798 52.2882V13.2482ZM775.678 16.1282V49.4082H791.678C792.83 36.9282 794.494 26.8802 797.118 26.8802C798.078 26.8802 798.526 28.4162 798.526 31.6162V49.4082H814.526V29.1202C814.526 18.6882 809.726 15.6802 804.798 15.6802C794.558 15.6802 793.214 28.2882 791.998 38.3362H791.678V16.1282H775.678ZM839.101 14.4642V1.7282H860.861L865.405 6.2722V56.8322H846.589L842.941 53.1842C842.749 53.4402 842.493 53.6962 842.237 53.8882C840.317 55.8722 837.693 57.2802 834.237 57.2802C830.589 57.2802 827.773 55.8722 825.725 53.8242L821.181 49.2802C816.829 44.9282 815.485 37.3762 815.485 32.9602C815.485 22.9122 820.989 12.8002 832.061 12.8002C834.557 12.8002 836.925 13.3762 839.101 14.4642ZM857.981 49.4082V4.6082H841.981V20.1602H841.661C839.741 17.7922 836.541 15.6802 832.061 15.6802C824.189 15.6802 818.365 22.5282 818.365 32.9602C818.365 41.6002 822.333 49.8562 829.693 49.8562C838.333 49.8562 840.317 38.4002 841.661 32.3202H841.981L844.541 49.4082H857.981ZM834.365 31.6802C834.365 24.5762 836.861 20.8002 839.037 20.8002C840.189 20.8002 841.981 21.8882 841.981 25.6002C841.981 30.2082 839.101 38.6562 836.669 38.6562C835.197 38.6562 834.365 35.7762 834.365 31.6802ZM858.603 36.3522L858.283 33.2162H863.467L862.123 31.8722C860.523 30.2722 859.435 28.0962 859.435 25.2802C859.435 15.2962 871.467 12.8002 879.403 12.8002C886.507 12.8002 894.379 14.5922 899.563 19.7122L904.043 24.2562C906.475 26.6882 908.203 29.8882 908.203 33.9842V36.8642H905.323L906.667 38.1442C908.203 39.7442 909.291 41.8562 909.291 44.6082C909.291 54.7202 896.427 57.2802 888.555 57.2802C881.195 57.2802 872.875 55.2962 867.499 49.9842L863.019 45.4402C860.651 43.1362 858.987 40.1282 858.603 36.3522ZM877.803 36.0962H861.483C862.251 44.0322 871.339 49.8562 884.011 49.8562C893.803 49.8562 901.867 46.5282 901.867 40.0642C901.867 28.9282 878.251 33.4082 878.251 28.3522C878.251 27.5202 878.891 26.6242 880.619 26.6242C883.179 26.6242 884.523 28.5442 884.459 29.4402H900.779C900.779 21.5042 892.011 15.6802 879.403 15.6802C869.547 15.6802 862.315 19.0082 862.315 25.2802C862.315 36.6082 885.739 32.1282 885.739 37.0562C885.739 38.1442 884.459 38.9122 882.731 38.9122C880.043 38.9122 877.867 36.9922 877.803 36.0962ZM942.533 12.8002C949.189 12.8002 956.165 14.8482 960.773 19.4562L965.253 24.0002C968.453 27.1362 970.501 31.5522 970.501 37.3122C970.501 50.5602 959.301 57.2802 947.077 57.2802C940.421 57.2802 933.509 55.1682 928.901 50.6242L924.421 46.0802C921.221 42.8802 919.173 38.5282 919.173 32.7682C919.173 19.5202 930.245 12.8002 942.533 12.8002ZM922.053 32.7682C922.053 43.0722 930.245 49.8562 942.533 49.8562C954.885 49.8562 963.077 43.0722 963.077 32.7682C963.077 22.4642 954.885 15.6802 942.533 15.6802C930.245 15.6802 922.053 22.4642 922.053 32.7682ZM938.181 32.7682C938.181 29.6962 939.845 27.6482 942.533 27.6482C945.285 27.6482 946.949 29.6962 946.949 32.7682C946.949 35.8402 945.285 37.8882 942.533 37.8882C939.845 37.8882 938.181 35.8402 938.181 32.7682ZM964.048 30.8482V13.2482H966.096C965.84 12.4802 965.648 11.5842 965.648 10.6242C965.648 2.3682 975.504 1.2802 981.776 1.2802C984.4 1.2802 987.024 1.4722 989.584 1.7922L992.08 2.1762L996.624 6.6562V24.7682L995.472 24.2562V35.3922H992.272V56.8322H970.512L965.968 52.2882V32.7682L964.048 30.8482ZM968.848 27.9682V49.4082H984.848V27.9682H988.048V16.1282C978.704 14.4642 977.744 14.2082 977.744 13.1202C977.744 12.6082 978.192 12.4162 978.96 12.4162C981.008 12.4162 985.424 14.0162 989.2 15.7442V4.6722C986.384 4.2882 983.824 4.1602 981.776 4.1602C973.456 4.1602 968.528 6.0162 968.528 10.6242C968.528 15.2322 973.328 15.2322 981.328 15.8082V16.1282H966.928V27.9682H968.848ZM174.965 99.0722L179.509 103.552C182.261 106.304 184.053 109.952 184.245 114.816L185.397 116.032L185.205 119.104C184.117 131.456 173.813 137.28 162.165 137.28C155.509 137.28 148.725 135.232 144.245 130.752L139.765 126.208C136.565 123.008 134.517 118.592 134.517 112.768C134.517 99.5842 145.269 92.8002 157.557 92.8002C163.701 92.8002 170.549 94.5922 174.965 99.0722ZM177.781 114.368H161.461C161.205 116.8 159.605 117.888 157.749 117.888C155.189 117.888 153.525 115.776 153.525 112.64C153.525 112.32 153.525 112 153.589 111.68H176.821C177.141 101.824 169.333 95.6802 157.557 95.6802C145.269 95.6802 137.397 102.464 137.397 112.768C137.397 123.072 145.333 129.856 157.621 129.856C169.077 129.856 177.013 124.032 177.781 114.368ZM160.949 110.08L153.717 111.04C154.229 108.992 155.637 107.648 157.749 107.648C159.541 107.648 160.885 108.608 160.949 110.08ZM218.127 95.8082L221.327 99.0082C223.567 95.0402 227.471 92.8002 232.015 92.8002C235.599 92.8002 238.223 94.0162 240.015 95.8082L244.559 100.352C248.015 103.872 248.847 109.632 248.847 113.664V136.832H227.087L226.703 136.448V136.832H205.199L204.815 136.448V136.832H183.311L178.767 132.288V93.2482H200.527L202.575 95.2962C204.495 93.7602 206.991 92.8002 210.127 92.8002C213.711 92.8002 216.335 94.0162 218.127 95.8082ZM181.647 96.1282V129.408H197.647C198.799 116.928 200.015 106.88 202.447 106.88C203.407 106.88 203.535 108.416 203.535 111.616V129.408H219.535C220.687 116.928 221.903 106.88 224.335 106.88C225.295 106.88 225.423 108.416 225.423 111.616V129.408H241.423V109.12C241.423 98.6882 236.751 95.6802 232.015 95.6802C222.159 95.6802 221.071 107.2 219.855 117.248H219.535V109.12C219.535 98.6882 214.863 95.6802 210.127 95.6802C200.271 95.6802 199.183 107.2 197.967 117.248H197.647V96.1282H181.647ZM265.752 92.8002C272.408 92.8002 279.384 94.8482 283.992 99.4562L288.472 104C291.672 107.136 293.72 111.552 293.72 117.312C293.72 130.56 282.52 137.28 270.296 137.28C263.64 137.28 256.728 135.168 252.12 130.624L247.64 126.08C244.44 122.88 242.392 118.528 242.392 112.768C242.392 99.5202 253.464 92.8002 265.752 92.8002ZM245.272 112.768C245.272 123.072 253.464 129.856 265.752 129.856C278.104 129.856 286.296 123.072 286.296 112.768C286.296 102.464 278.104 95.6802 265.752 95.6802C253.464 95.6802 245.272 102.464 245.272 112.768ZM261.4 112.768C261.4 109.696 263.064 107.648 265.752 107.648C268.504 107.648 270.168 109.696 270.168 112.768C270.168 115.84 268.504 117.888 265.752 117.888C263.064 117.888 261.4 115.84 261.4 112.768ZM289.187 113.408V112.768L287.267 110.848V93.9522L289.315 93.3762C290.915 92.9282 291.747 91.7122 291.747 89.1522V86.2722H310.947L315.491 90.8162V93.6962C315.491 93.9522 315.491 94.2722 315.427 94.5282L318.691 97.7922V115.392H315.491V115.648H328.035L332.515 120.192L332.195 123.328C331.235 133.12 323.235 137.28 314.019 137.28C307.683 137.28 302.371 135.488 298.787 131.84L294.243 127.36C291.043 124.096 289.187 119.488 289.187 113.408ZM308.067 89.1522H294.627C294.627 92.4802 293.411 95.1682 290.147 96.1282V107.968H292.067V113.408C292.067 125.44 300.003 129.856 309.475 129.856C317.987 129.856 324.067 126.144 324.835 118.528H312.227C312.099 119.936 311.331 121.024 310.051 121.024C308.835 121.024 308.067 120.064 308.067 117.952V107.968H311.267V96.1282H302.627V95.8082C306.851 95.4882 308.067 92.6722 308.067 89.1522ZM336.662 80.0002C339.03 80.0002 343.382 80.6402 345.942 83.2642L350.486 87.8082C351.83 89.0882 352.726 90.9442 352.726 93.4402C352.726 95.0402 352.342 96.3202 351.766 97.4722L352.086 97.7922V136.832H330.326L325.782 132.288V93.2482H326.294C325.59 92.0962 325.142 90.6242 325.142 88.8962C325.142 82.6242 331.094 80.0002 336.662 80.0002ZM328.022 88.8962C328.022 92.5442 331.478 95.0402 336.662 95.0402C341.846 95.0402 345.302 92.5442 345.302 88.8962C345.302 85.2482 341.846 82.8802 336.662 82.8802C331.478 82.8802 328.022 85.2482 328.022 88.8962ZM328.662 96.1282V129.408H344.662V96.1282H328.662ZM369.627 92.8002C376.283 92.8002 383.259 94.8482 387.867 99.4562L392.347 104C395.547 107.136 397.595 111.552 397.595 117.312C397.595 130.56 386.395 137.28 374.171 137.28C367.515 137.28 360.603 135.168 355.995 130.624L351.515 126.08C348.315 122.88 346.267 118.528 346.267 112.768C346.267 99.5202 357.339 92.8002 369.627 92.8002ZM349.147 112.768C349.147 123.072 357.339 129.856 369.627 129.856C381.979 129.856 390.171 123.072 390.171 112.768C390.171 102.464 381.979 95.6802 369.627 95.6802C357.339 95.6802 349.147 102.464 349.147 112.768ZM365.275 112.768C365.275 109.696 366.939 107.648 369.627 107.648C372.379 107.648 374.043 109.696 374.043 112.768C374.043 115.84 372.379 117.888 369.627 117.888C366.939 117.888 365.275 115.84 365.275 112.768ZM391.142 93.2482H412.902L415.206 95.5522C417.254 93.8882 419.814 92.8002 423.142 92.8002C426.918 92.8002 429.542 94.0162 431.462 95.9362L436.006 100.48C439.398 103.872 440.294 109.44 440.294 113.664V136.832H418.534L417.318 135.616L417.19 136.832H395.686L391.142 132.288V93.2482ZM394.022 96.1282V129.408H410.022C411.174 116.928 412.838 106.88 415.462 106.88C416.422 106.88 416.87 108.416 416.87 111.616V129.408H432.87V109.12C432.87 98.6882 428.07 95.6802 423.142 95.6802C412.902 95.6802 411.558 108.288 410.342 118.336H410.022V96.1282H394.022ZM433.509 116.352L433.189 113.216H438.373L437.029 111.872C435.429 110.272 434.341 108.096 434.341 105.28C434.341 95.2962 446.373 92.8002 454.309 92.8002C461.413 92.8002 469.285 94.5922 474.469 99.7122L478.949 104.256C481.381 106.688 483.109 109.888 483.109 113.984V116.864H480.229L481.573 118.144C483.109 119.744 484.197 121.856 484.197 124.608C484.197 134.72 471.333 137.28 463.461 137.28C456.101 137.28 447.781 135.296 442.405 129.984L437.925 125.44C435.557 123.136 433.893 120.128 433.509 116.352ZM452.709 116.096H436.389C437.157 124.032 446.245 129.856 458.917 129.856C468.709 129.856 476.773 126.528 476.773 120.064C476.773 108.928 453.157 113.408 453.157 108.352C453.157 107.52 453.797 106.624 455.525 106.624C458.085 106.624 459.429 108.544 459.365 109.44H475.685C475.685 101.504 466.917 95.6802 454.309 95.6802C444.453 95.6802 437.221 99.0082 437.221 105.28C437.221 116.608 460.645 112.128 460.645 117.056C460.645 118.144 459.365 118.912 457.637 118.912C454.949 118.912 452.773 116.992 452.709 116.096ZM534.527 99.0722L539.071 103.552C541.823 106.304 543.615 109.952 543.807 114.816L544.959 116.032L544.767 119.104C543.679 131.456 533.375 137.28 521.727 137.28C515.071 137.28 508.287 135.232 503.807 130.752L499.327 126.208C496.127 123.008 494.079 118.592 494.079 112.768C494.079 99.5842 504.831 92.8002 517.119 92.8002C523.263 92.8002 530.111 94.5922 534.527 99.0722ZM537.343 114.368H521.023C520.767 116.8 519.167 117.888 517.311 117.888C514.751 117.888 513.087 115.776 513.087 112.64C513.087 112.32 513.087 112 513.151 111.68H536.383C536.703 101.824 528.895 95.6802 517.119 95.6802C504.831 95.6802 496.959 102.464 496.959 112.768C496.959 123.072 504.895 129.856 517.183 129.856C528.639 129.856 536.575 124.032 537.343 114.368ZM520.511 110.08L513.279 111.04C513.791 108.992 515.199 107.648 517.311 107.648C519.103 107.648 520.447 108.608 520.511 110.08ZM533.975 93.2482H556.759L557.847 94.3362L558.167 93.2482H580.951L585.495 97.7922L572.055 136.832H551.959L547.415 132.288L533.975 93.2482ZM560.279 96.1282L559.831 97.6002C558.615 101.568 557.783 108.16 557.655 115.52H557.271C557.143 108.16 556.311 101.568 555.095 97.6002L554.647 96.1282H538.007L549.463 129.408H565.463L576.919 96.1282H560.279ZM615.152 99.0722L619.696 103.552C622.448 106.304 624.24 109.952 624.432 114.816L625.584 116.032L625.392 119.104C624.304 131.456 614 137.28 602.352 137.28C595.696 137.28 588.912 135.232 584.432 130.752L579.952 126.208C576.752 123.008 574.704 118.592 574.704 112.768C574.704 99.5842 585.456 92.8002 597.744 92.8002C603.888 92.8002 610.736 94.5922 615.152 99.0722ZM617.968 114.368H601.648C601.392 116.8 599.792 117.888 597.936 117.888C595.376 117.888 593.712 115.776 593.712 112.64C593.712 112.32 593.712 112 593.776 111.68H617.008C617.328 101.824 609.52 95.6802 597.744 95.6802C585.456 95.6802 577.584 102.464 577.584 112.768C577.584 123.072 585.52 129.856 597.808 129.856C609.264 129.856 617.2 124.032 617.968 114.368ZM601.136 110.08L593.904 111.04C594.416 108.992 595.824 107.648 597.936 107.648C599.728 107.648 601.072 108.608 601.136 110.08ZM618.954 93.2482H640.714L643.146 95.6802C645.258 93.9522 648.01 92.8002 651.594 92.8002H654.474L659.018 97.3442V118.976L654.986 117.248C654.154 116.928 653.258 116.736 652.426 116.736C645.706 116.736 645.258 129.344 645.258 133.952V136.832H623.498L618.954 132.288V93.2482ZM621.834 96.1282V129.408H637.834C637.834 113.088 643.274 109.312 647.882 109.312C649.29 109.312 650.57 109.632 651.594 110.08V95.6802C640.714 95.6802 639.37 108.288 638.154 118.144H637.834V96.1282H621.834ZM655.799 129.344C652.599 125.888 651.767 120.512 651.767 116.416V93.2482H673.527L674.743 94.4642L674.871 93.2482H696.375L700.919 97.7922V128.896C700.919 142.912 690.807 150.08 677.431 150.08C671.799 150.08 664.311 148.736 660.215 144.448L655.671 139.968C653.559 137.792 652.087 134.912 652.087 131.072V130.112H656.439L655.799 129.344ZM693.495 124.352V96.1282H677.495C676.343 108.608 674.679 118.656 672.055 118.656C671.095 118.656 670.647 117.12 670.647 113.92V96.1282H654.647V116.416C654.647 126.848 659.447 129.856 664.375 129.856C674.615 129.856 675.959 117.248 677.175 107.2H677.495V126.208C677.495 131.136 676.343 133.056 673.719 133.056C672.119 133.056 671.031 132.352 670.967 130.816H654.967C654.775 139.392 663.863 142.656 672.887 142.656C685.687 142.656 693.495 135.936 693.495 124.352ZM735.32 94.4642V81.7282H757.08L761.624 86.2722V136.832H742.808L739.16 133.184C738.968 133.44 738.712 133.696 738.456 133.888C736.536 135.872 733.912 137.28 730.456 137.28C726.808 137.28 723.992 135.872 721.944 133.824L717.4 129.28C713.048 124.928 711.704 117.376 711.704 112.96C711.704 102.912 717.208 92.8002 728.28 92.8002C730.776 92.8002 733.144 93.3762 735.32 94.4642ZM754.2 129.408V84.6082H738.2V100.16H737.88C735.96 97.7922 732.76 95.6802 728.28 95.6802C720.408 95.6802 714.584 102.528 714.584 112.96C714.584 121.6 718.552 129.856 725.912 129.856C734.552 129.856 736.536 118.4 737.88 112.32H738.2L740.76 129.408H754.2ZM730.584 111.68C730.584 104.576 733.08 100.8 735.256 100.8C736.408 100.8 738.2 101.888 738.2 105.6C738.2 110.208 735.32 118.656 732.888 118.656C731.416 118.656 730.584 115.776 730.584 111.68ZM758.598 110.976L757.51 109.888L757.446 106.496C757.446 95.8722 769.606 92.8002 778.246 92.8002C785.094 92.8002 791.494 94.4002 795.654 98.5602L800.134 103.104C803.206 106.112 805.062 110.528 805.062 116.672V136.832H786.502L783.238 133.504C780.678 135.808 777.35 137.28 773.19 137.28C769.286 137.28 765.83 135.872 763.334 133.376L758.79 128.832C756.55 126.592 755.142 123.392 755.142 119.616C755.142 115.904 756.486 113.088 758.598 110.976ZM797.638 129.408V112.128C797.638 100.096 789.638 95.6802 778.246 95.6802C768.326 95.6802 759.878 99.3922 760.326 107.008H776.646C776.518 105.664 777.35 104.64 779.014 104.64C780.614 104.64 781.638 105.6 781.638 109.184V112.32H781.318C779.526 110.656 776.198 109.248 771.398 109.248C763.59 109.248 758.022 113.28 758.022 119.616C758.022 124.864 761.734 129.856 768.646 129.856C776.71 129.856 779.974 123.392 781.318 119.616H781.638L784.198 129.408H797.638ZM774.022 118.656C774.022 114.432 776.134 113.088 778.374 113.088C780.102 113.088 781.638 113.92 781.638 115.776C781.638 118.336 778.758 122.56 776.326 122.56C774.854 122.56 774.022 121.216 774.022 118.656ZM802.611 129.344C799.411 125.888 798.579 120.512 798.579 116.416V93.2482H820.339L821.555 94.4642L821.683 93.2482H843.187L847.731 97.7922V128.896C847.731 142.912 837.619 150.08 824.243 150.08C818.611 150.08 811.123 148.736 807.027 144.448L802.483 139.968C800.371 137.792 798.899 134.912 798.899 131.072V130.112H803.251L802.611 129.344ZM840.307 124.352V96.1282H824.307C823.155 108.608 821.491 118.656 818.867 118.656C817.907 118.656 817.459 117.12 817.459 113.92V96.1282H801.459V116.416C801.459 126.848 806.259 129.856 811.187 129.856C821.427 129.856 822.771 117.248 823.987 107.2H824.307V126.208C824.307 131.136 823.155 133.056 820.531 133.056C818.931 133.056 817.843 132.352 817.779 130.816H801.779C801.587 139.392 810.675 142.656 819.699 142.656C832.499 142.656 840.307 135.936 840.307 124.352ZM847.46 125.952C847.46 124.374 847.844 123.264 848.612 122.624C849.38 121.984 850.297 121.664 851.364 121.664C852.473 121.664 853.412 121.984 854.18 122.624C854.99 123.264 855.396 124.374 855.396 125.952C855.396 127.488 854.99 128.598 854.18 129.28C853.412 129.963 852.473 130.304 851.364 130.304C850.297 130.304 849.38 129.963 848.612 129.28C847.844 128.598 847.46 127.488 847.46 125.952Z" fill="black"/>
</g>
<defs>
<filter id="filter0_d_14_509" x="0" y="0" width="1000.62" height="158.08" filterUnits="userSpaceOnUse" color-interpolation-filters="sRGB">
<feFlood flood-opacity="0" result="BackgroundImageFix"/>
<feColorMatrix in="SourceAlpha" type="matrix" values="0 0 0 0 0 0 0 0 0 0 0 0 0 0 0 0 0 0 127 0" result="hardAlpha"/>
<feOffset dy="4"/>
<feGaussianBlur stdDeviation="2"/>
<feComposite in2="hardAlpha" operator="out"/>
<feColorMatrix type="matrix" values="0 0 0 0 0 0 0 0 0 0 0 0 0 0 0 0 0 0 0.25 0"/>
<feBlend mode="normal" in2="BackgroundImageFix" result="effect1_dropShadow_14_509"/>
<feBlend mode="normal" in="SourceGraphic" in2="effect1_dropShadow_14_509" result="shape"/>
</filter>
</defs>
</svg>
